<svg width="1438" height="183" viewBox="0 0 1438 183" fill="none" xmlns="http://www.w3.org/2000/svg">
<path opacity="0.1" d="M111.562 146.952L114.397 145.971L113.699 143.952H111.562V146.952ZM40.394 146.952V143.952H38.2572L37.5588 145.971L40.394 146.952ZM28.618 181V184H30.7548L31.4532 181.981L28.618 181ZM-9.01398 181L-11.8375 179.986L-13.2788 184H-9.01398V181ZM55.242 2.05598V-0.944016H53.1317L52.4185 1.04211L55.242 2.05598ZM96.97 2.05598L99.7935 1.04211L99.0803 -0.944016H96.97V2.05598ZM161.226 181V184H165.491L164.049 179.986L161.226 181ZM123.338 181L120.503 181.981L121.201 184H123.338V181ZM101.834 118.28V121.28H106.046L104.669 117.299L101.834 118.28ZM75.978 43.528L78.8132 42.5473L75.978 34.3506L73.1428 42.5473L75.978 43.528ZM50.122 118.28L47.2868 117.299L45.91 121.28H50.122V118.28ZM111.562 143.952H40.394V149.952H111.562V143.952ZM37.5588 145.971L25.7828 180.019L31.4532 181.981L43.2292 147.933L37.5588 145.971ZM28.618 178H-9.01398V184H28.618V178ZM-6.19049 182.014L58.0655 3.06985L52.4185 1.04211L-11.8375 179.986L-6.19049 182.014ZM55.242 5.05598H96.97V-0.944016H55.242V5.05598ZM94.1465 3.06985L158.403 182.014L164.049 179.986L99.7935 1.04211L94.1465 3.06985ZM161.226 178H123.338V184H161.226V178ZM126.173 180.019L114.397 145.971L108.727 147.933L120.503 181.981L126.173 180.019ZM104.669 117.299L78.8132 42.5473L73.1428 44.5087L98.9988 119.261L104.669 117.299ZM73.1428 42.5473L47.2868 117.299L52.9572 119.261L78.8132 44.5087L73.1428 42.5473ZM50.122 121.28H101.834V115.28H50.122V121.28ZM343.196 181V184H346.196V181H343.196ZM307.356 181L304.854 182.656L305.744 184H307.356V181ZM226.204 58.376L228.706 56.7203L223.204 48.407V58.376H226.204ZM226.204 181V184H229.204V181H226.204ZM190.364 181H187.364V184H190.364V181ZM190.364 2.05598V-0.944016H187.364V2.05598H190.364ZM226.204 2.05598L228.707 0.402733L227.818 -0.944016H226.204V2.05598ZM307.356 124.936L304.853 126.589L310.356 134.922V124.936H307.356ZM307.356 2.05598V-0.944016H304.356V2.05598H307.356ZM343.196 2.05598H346.196V-0.944016H343.196V2.05598ZM343.196 178H307.356V184H343.196V178ZM309.858 179.344L228.706 56.7203L223.702 60.0316L304.854 182.656L309.858 179.344ZM223.204 58.376V181H229.204V58.376H223.204ZM226.204 178H190.364V184H226.204V178ZM193.364 181V2.05598H187.364V181H193.364ZM190.364 5.05598H226.204V-0.944016H190.364V5.05598ZM223.701 3.70924L304.853 126.589L309.859 123.283L228.707 0.402733L223.701 3.70924ZM310.356 124.936V2.05598H304.356V124.936H310.356ZM307.356 5.05598H343.196V-0.944016H307.356V5.05598ZM340.196 2.05598V181H346.196V2.05598H340.196ZM508.15 56.072L505.516 57.5085L506.369 59.072H508.15V56.072ZM418.806 60.68L416.143 59.2975L418.806 60.68ZM418.806 122.632L416.143 124.014L416.154 124.034L416.165 124.054L418.806 122.632ZM438.518 143.112L437.03 145.717L438.518 143.112ZM501.238 139.528L503.145 141.844L503.159 141.833L503.172 141.822L501.238 139.528ZM518.39 109.064L521.326 109.682L522.087 106.064H518.39V109.064ZM456.95 109.064H453.95V112.064H456.95V109.064ZM456.95 81.672V78.672H453.95V81.672H456.95ZM553.718 81.672H556.718V78.672H553.718V81.672ZM553.718 112.904L556.664 113.469L556.718 113.189V112.904H553.718ZM538.358 147.464L535.949 145.676L538.358 147.464ZM507.894 173.064L509.265 175.732L509.272 175.729L509.279 175.725L507.894 173.064ZM419.574 171.016L418.093 173.625L418.112 173.635L418.131 173.646L419.574 171.016ZM386.806 138.504L384.197 139.985L384.204 139.998L384.211 140.01L386.806 138.504ZM386.806 44.296L384.203 42.8041L384.197 42.8145L386.806 44.296ZM419.574 11.784L421.031 14.4065L421.042 14.4004L419.574 11.784ZM518.646 14.856L516.982 17.3521L516.992 17.3588L517.002 17.3654L518.646 14.856ZM549.366 56.072V59.072H553.465L552.226 55.1647L549.366 56.072ZM510.784 54.6354C506.426 46.6466 500.391 40.5031 492.695 36.2887L489.813 41.5513C496.453 45.1875 501.682 50.4787 505.516 57.5085L510.784 54.6354ZM492.695 36.2887C485.016 32.0834 476.141 30.032 466.166 30.032V36.032C475.305 36.032 483.156 37.9059 489.813 41.5513L492.695 36.2887ZM466.166 30.032C455.116 30.032 445.197 32.5323 436.494 37.6087L439.518 42.7913C447.199 38.3103 456.053 36.032 466.166 36.032V30.032ZM436.494 37.6087C427.785 42.6892 420.998 49.9479 416.143 59.2975L421.469 62.0624C425.83 53.6628 431.843 47.2681 439.518 42.7913L436.494 37.6087ZM416.143 59.2975C411.281 68.6631 408.894 79.3909 408.894 91.4H414.894C414.894 80.1984 417.115 70.4462 421.469 62.0624L416.143 59.2975ZM408.894 91.4C408.894 103.735 411.274 114.637 416.143 124.014L421.469 121.25C417.122 112.878 414.894 102.959 414.894 91.4H408.894ZM416.165 124.054C421.196 133.399 428.156 140.646 437.03 145.717L440.006 140.507C432.154 136.02 425.973 129.614 421.447 121.21L416.165 124.054ZM437.03 145.717C445.91 150.792 456.167 153.28 467.702 153.28V147.28C457.051 147.28 447.851 144.99 440.006 140.507L437.03 145.717ZM467.702 153.28C481.899 153.28 493.797 149.542 503.145 141.844L499.331 137.212C491.271 143.85 480.812 147.28 467.702 147.28V153.28ZM503.172 141.822C512.468 133.983 518.481 123.195 521.326 109.682L515.454 108.446C512.838 120.874 507.416 130.395 499.304 137.234L503.172 141.822ZM518.39 106.064H456.95V112.064H518.39V106.064ZM459.95 109.064V81.672H453.95V109.064H459.95ZM456.95 84.672H553.718V78.672H456.95V84.672ZM550.718 81.672V112.904H556.718V81.672H550.718ZM550.772 112.339C548.471 124.338 543.542 135.443 535.949 145.676L540.767 149.252C548.876 138.323 554.187 126.388 556.664 113.469L550.772 112.339ZM535.949 145.676C528.387 155.869 518.592 164.113 506.509 170.403L509.279 175.725C522.114 169.044 532.628 160.222 540.767 149.252L535.949 145.676ZM506.523 170.396C494.705 176.469 481.359 179.536 466.422 179.536V185.536C482.205 185.536 496.507 182.288 509.265 175.732L506.523 170.396ZM466.422 179.536C449.648 179.536 434.535 175.804 421.017 168.386L418.131 173.646C432.603 181.588 448.721 185.536 466.422 185.536V179.536ZM421.055 168.407C407.696 160.821 397.157 150.365 389.401 136.998L384.211 140.01C392.498 154.291 403.804 165.51 418.093 173.625L421.055 168.407ZM389.415 137.023C381.847 123.697 378.03 108.516 378.03 91.4H372.03C372.03 109.442 376.064 125.663 384.197 139.985L389.415 137.023ZM378.03 91.4C378.03 74.2845 381.847 59.1033 389.415 45.7775L384.197 42.8145C376.064 57.1367 372.03 73.3582 372.03 91.4H378.03ZM389.409 45.7878C397.164 32.2574 407.695 21.8155 421.031 14.4065L418.117 9.16152C403.805 17.1125 392.491 28.3452 384.203 42.8042L389.409 45.7878ZM421.042 14.4004C434.56 6.81728 449.58 3.008 466.166 3.008V-2.992C448.619 -2.992 432.578 1.04937 418.106 9.16756L421.042 14.4004ZM466.166 3.008C485.791 3.008 502.688 7.82311 516.982 17.3521L520.31 12.3598C504.908 2.09155 486.818 -2.992 466.166 -2.992V3.008ZM517.002 17.3654C531.243 26.6955 541.072 39.8531 546.507 56.9793L552.226 55.1647C546.396 36.7922 535.745 22.4725 520.29 12.3466L517.002 17.3654ZM549.366 53.072H508.15V59.072H549.366V53.072ZM686.218 181L683.894 182.898L684.795 184H686.218V181ZM621.194 101.384L623.518 99.4863L618.194 92.9681V101.384H621.194ZM621.194 181V184H624.194V181H621.194ZM585.354 181H582.354V184H585.354V181ZM585.354 2.312V-0.688004H582.354V2.312H585.354ZM621.194 2.312H624.194V-0.688004H621.194V2.312ZM621.194 82.44H618.194V90.8978L623.523 84.3304L621.194 82.44ZM686.218 2.312V-0.688004H684.789L683.889 0.421623L686.218 2.312ZM729.482 2.312L731.788 4.23124L735.882 -0.688004H729.482V2.312ZM655.754 90.888L653.448 88.9688L651.843 90.8978L653.458 92.8188L655.754 90.888ZM731.53 181V184H737.972L733.826 179.069L731.53 181ZM688.542 179.102L623.518 99.4863L618.87 103.282L683.894 182.898L688.542 179.102ZM618.194 101.384V181H624.194V101.384H618.194ZM621.194 178H585.354V184H621.194V178ZM588.354 181V2.312H582.354V181H588.354ZM585.354 5.312H621.194V-0.688004H585.354V5.312ZM618.194 2.312V82.44H624.194V2.312H618.194ZM623.523 84.3304L688.547 4.20237L683.889 0.421623L618.865 80.5496L623.523 84.3304ZM686.218 5.312H729.482V-0.688004H686.218V5.312ZM727.176 0.392754L653.448 88.9688L658.06 92.8072L731.788 4.23124L727.176 0.392754ZM653.458 92.8188L729.234 182.931L733.826 179.069L658.05 88.9572L653.458 92.8188ZM731.53 178H686.218V184H731.53V178ZM795.552 2.312H798.552V-0.688004H795.552V2.312ZM805.024 140.808L802.875 142.901L802.889 142.915L802.903 142.929L805.024 140.808ZM858.528 140.808L860.649 142.929L860.663 142.915L860.677 142.901L858.528 140.808ZM868 2.312V-0.688004H865V2.312H868ZM904.096 2.312H907.096V-0.688004H904.096V2.312ZM894.112 151.304L891.573 149.707L891.566 149.718L894.112 151.304ZM867.744 174.856L866.453 172.148L866.444 172.152L866.436 172.156L867.744 174.856ZM794.784 174.856L793.459 177.548L793.468 177.552L793.476 177.556L794.784 174.856ZM769.184 151.304L766.608 152.841L766.613 152.851L766.619 152.86L769.184 151.304ZM759.712 2.312V-0.688004H756.712V2.312H759.712ZM792.552 2.312V112.904H798.552V2.312H792.552ZM792.552 112.904C792.552 125.531 795.85 135.687 802.875 142.901L807.173 138.715C801.568 132.959 798.552 124.512 798.552 112.904H792.552ZM802.903 142.929C809.926 149.953 819.651 153.28 831.648 153.28V147.28C820.775 147.28 812.751 144.293 807.145 138.687L802.903 142.929ZM831.648 153.28C843.801 153.28 853.618 149.961 860.649 142.929L856.407 138.687C850.809 144.285 842.706 147.28 831.648 147.28V153.28ZM860.677 142.901C867.702 135.687 871 125.531 871 112.904H865C865 124.512 861.984 132.959 856.379 138.715L860.677 142.901ZM871 112.904V2.312H865V112.904H871ZM868 5.312H904.096V-0.688004H868V5.312ZM901.096 2.312V112.648H907.096V2.312H901.096ZM901.096 112.648C901.096 127.394 897.869 139.698 891.573 149.707L896.651 152.901C903.667 141.748 907.096 128.28 907.096 112.648H901.096ZM891.566 149.718C885.384 159.641 877.03 167.103 866.453 172.148L869.035 177.564C880.644 172.027 889.87 163.788 896.658 152.89L891.566 149.718ZM866.436 172.156C855.965 177.228 844.216 179.792 831.136 179.792V185.792C845.021 185.792 857.678 183.065 869.052 177.556L866.436 172.156ZM831.136 179.792C818.232 179.792 806.569 177.231 796.092 172.156L793.476 177.556C804.845 183.063 817.416 185.792 831.136 185.792V179.792ZM796.109 172.164C785.879 167.13 777.772 159.678 771.749 149.748L766.619 152.86C773.225 163.751 782.185 172 793.459 177.548L796.109 172.164ZM771.76 149.767C765.781 139.747 762.712 127.421 762.712 112.648H756.712C756.712 128.253 759.958 141.698 766.608 152.841L771.76 149.767ZM762.712 112.648V2.312H756.712V112.648H762.712ZM759.712 5.312H795.552V-0.688004H759.712V5.312ZM1065.44 2.312H1068.44V-0.688004H1065.44V2.312ZM1065.44 31.24V34.24H1068.44V31.24H1065.44ZM1017.83 31.24V28.24H1014.83V31.24H1017.83ZM1017.83 181V184H1020.83V181H1017.83ZM981.988 181H978.988V184H981.988V181ZM981.988 31.24H984.988V28.24H981.988V31.24ZM934.372 31.24H931.372V34.24H934.372V31.24ZM934.372 2.312V-0.688004H931.372V2.312H934.372ZM1062.44 2.312V31.24H1068.44V2.312H1062.44ZM1065.44 28.24H1017.83V34.24H1065.44V28.24ZM1014.83 31.24V181H1020.83V31.24H1014.83ZM1017.83 178H981.988V184H1017.83V178ZM984.988 181V31.24H978.988V181H984.988ZM981.988 28.24H934.372V34.24H981.988V28.24ZM937.372 31.24V2.312H931.372V31.24H937.372ZM934.372 5.312H1065.44V-0.688004H934.372V5.312ZM1206.28 146.952L1209.12 145.971L1208.42 143.952H1206.28V146.952ZM1135.11 146.952V143.952H1132.98L1132.28 145.971L1135.11 146.952ZM1123.34 181V184H1125.47L1126.17 181.981L1123.34 181ZM1085.71 181L1082.88 179.986L1081.44 184H1085.71V181ZM1149.96 2.05598V-0.944016H1147.85L1147.14 1.04211L1149.96 2.05598ZM1191.69 2.05598L1194.51 1.04211L1193.8 -0.944016H1191.69V2.05598ZM1255.95 181V184H1260.21L1258.77 179.986L1255.95 181ZM1218.06 181L1215.22 181.981L1215.92 184H1218.06V181ZM1196.55 118.28V121.28H1200.77L1199.39 117.299L1196.55 118.28ZM1170.7 43.528L1173.53 42.5473L1170.7 34.3506L1167.86 42.5473L1170.7 43.528ZM1144.84 118.28L1142.01 117.299L1140.63 121.28H1144.84V118.28ZM1206.28 143.952H1135.11V149.952H1206.28V143.952ZM1132.28 145.971L1120.5 180.019L1126.17 181.981L1137.95 147.933L1132.28 145.971ZM1123.34 178H1085.71V184H1123.34V178ZM1088.53 182.014L1152.79 3.06985L1147.14 1.04211L1082.88 179.986L1088.53 182.014ZM1149.96 5.05598H1191.69V-0.944016H1149.96V5.05598ZM1188.87 3.06985L1253.12 182.014L1258.77 179.986L1194.51 1.04211L1188.87 3.06985ZM1255.95 178H1218.06V184H1255.95V178ZM1220.89 180.019L1209.12 145.971L1203.45 147.933L1215.22 181.981L1220.89 180.019ZM1199.39 117.299L1173.53 42.5473L1167.86 44.5087L1193.72 119.261L1199.39 117.299ZM1167.86 42.5473L1142.01 117.299L1147.68 119.261L1173.53 44.5087L1167.86 42.5473ZM1144.84 121.28H1196.55V115.28H1144.84V121.28ZM1437.92 181V184H1440.92V181H1437.92ZM1402.08 181L1399.57 182.656L1400.46 184H1402.08V181ZM1320.92 58.376L1323.43 56.7203L1317.92 48.407V58.376H1320.92ZM1320.92 181V184H1323.92V181H1320.92ZM1285.08 181H1282.08V184H1285.08V181ZM1285.08 2.05598V-0.944016H1282.08V2.05598H1285.08ZM1320.92 2.05598L1323.43 0.402733L1322.54 -0.944016H1320.92V2.05598ZM1402.08 124.936L1399.57 126.589L1405.08 134.922V124.936H1402.08ZM1402.08 2.05598V-0.944016H1399.08V2.05598H1402.08ZM1437.92 2.05598H1440.92V-0.944016H1437.92V2.05598ZM1437.92 178H1402.08V184H1437.92V178ZM1404.58 179.344L1323.43 56.7203L1318.42 60.0316L1399.57 182.656L1404.58 179.344ZM1317.92 58.376V181H1323.92V58.376H1317.92ZM1320.92 178H1285.08V184H1320.92V178ZM1288.08 181V2.05598H1282.08V181H1288.08ZM1285.08 5.05598H1320.92V-0.944016H1285.08V5.05598ZM1318.42 3.70924L1399.57 126.589L1404.58 123.283L1323.43 0.402733L1318.42 3.70924ZM1405.08 124.936V2.05598H1399.08V124.936H1405.08ZM1402.08 5.05598H1437.92V-0.944016H1402.08V5.05598ZM1434.92 2.05598V181H1440.92V2.05598H1434.92Z" fill="#EDEDED"/>
</svg>
