<svg width="1403" height="178" viewBox="0 0 1403 178" fill="none" xmlns="http://www.w3.org/2000/svg">
<path opacity="0.05" d="M117.576 143.016L120.411 142.035L119.712 140.016H117.576V143.016ZM48.6317 143.016V140.016H46.4949L45.7965 142.035L48.6317 143.016ZM37.2237 176V179H39.3605L40.0589 176.981L37.2237 176ZM0.767702 176L-2.05578 174.986L-3.4971 179H0.767702V176ZM63.0157 2.64798V-0.352015H60.9054L60.1922 1.63412L63.0157 2.64798ZM103.44 2.64798L106.263 1.63412L105.55 -0.352015H103.44V2.64798ZM165.688 176V179H169.953L168.511 174.986L165.688 176ZM128.984 176L126.149 176.981L126.847 179H128.984V176ZM108.152 115.24V118.24H112.364L110.987 114.259L108.152 115.24ZM83.1037 42.824L85.9389 41.8433L83.1037 33.6466L80.2685 41.8433L83.1037 42.824ZM58.0557 115.24L55.2205 114.259L53.8436 118.24H58.0557V115.24ZM117.576 140.016H48.6317V146.016H117.576V140.016ZM45.7965 142.035L34.3885 175.019L40.0589 176.981L51.4669 143.997L45.7965 142.035ZM37.2237 173H0.767702V179H37.2237V173ZM3.59119 177.014L65.8392 3.66185L60.1922 1.63412L-2.05578 174.986L3.59119 177.014ZM63.0157 5.64798H103.44V-0.352015H63.0157V5.64798ZM100.616 3.66185L162.864 177.014L168.511 174.986L106.263 1.63412L100.616 3.66185ZM165.688 173H128.984V179H165.688V173ZM131.819 175.019L120.411 142.035L114.74 143.997L126.149 176.981L131.819 175.019ZM110.987 114.259L85.9389 41.8433L80.2685 43.8047L105.317 116.221L110.987 114.259ZM80.2685 41.8433L55.2205 114.259L60.8909 116.221L85.9389 43.8047L80.2685 41.8433ZM58.0557 118.24H108.152V112.24H58.0557V118.24ZM341.971 176V179H344.971V176H341.971ZM307.251 176L304.749 177.656L305.639 179H307.251V176ZM228.635 57.208L231.137 55.5523L225.635 47.239V57.208H228.635ZM228.635 176V179H231.635V176H228.635ZM193.915 176H190.915V179H193.915V176ZM193.915 2.64798V-0.352015H190.915V2.64798H193.915ZM228.635 2.64798L231.138 0.994732L230.249 -0.352015H228.635V2.64798ZM307.251 121.688L304.748 123.341L310.251 131.674V121.688H307.251ZM307.251 2.64798V-0.352015H304.251V2.64798H307.251ZM341.971 2.64798H344.971V-0.352015H341.971V2.64798ZM341.971 173H307.251V179H341.971V173ZM309.753 174.344L231.137 55.5523L226.133 58.8636L304.749 177.656L309.753 174.344ZM225.635 57.208V176H231.635V57.208H225.635ZM228.635 173H193.915V179H228.635V173ZM196.915 176V2.64798H190.915V176H196.915ZM193.915 5.64798H228.635V-0.352015H193.915V5.64798ZM226.132 4.30124L304.748 123.341L309.755 120.035L231.138 0.994732L226.132 4.30124ZM310.251 121.688V2.64798H304.251V121.688H310.251ZM307.251 5.64798H341.971V-0.352015H307.251V5.64798ZM338.971 2.64798V176H344.971V2.64798H338.971ZM501.77 54.976L499.137 56.4125L499.989 57.976H501.77V54.976ZM415.218 59.44L412.556 58.0575L415.218 59.44ZM415.218 119.456L412.556 120.838L412.566 120.858L412.577 120.878L415.218 119.456ZM434.314 139.296L432.826 141.901L432.826 141.901L434.314 139.296ZM495.074 135.824L496.981 138.14L496.995 138.129L497.008 138.118L495.074 135.824ZM511.69 106.312L514.626 106.93L515.388 103.312H511.69V106.312ZM452.17 106.312H449.17V109.312H452.17V106.312ZM452.17 79.776V76.776H449.17V79.776H452.17ZM545.914 79.776H548.914V76.776H545.914V79.776ZM545.914 110.032L548.861 110.597L548.914 110.317V110.032H545.914ZM531.034 143.512L528.625 141.724L528.625 141.724L531.034 143.512ZM501.522 168.312L502.894 170.98L502.901 170.977L502.908 170.973L501.522 168.312ZM415.962 166.328L414.481 168.937L414.5 168.947L414.519 168.958L415.962 166.328ZM384.218 134.832L381.61 136.313L381.617 136.326L381.624 136.338L384.218 134.832ZM384.218 43.568L381.616 42.0761L381.61 42.0865L384.218 43.568ZM415.962 12.072L417.419 14.6945L417.43 14.6884L415.962 12.072ZM511.938 15.048L510.274 17.5441L510.284 17.5508L510.294 17.5574L511.938 15.048ZM541.698 54.976V57.976H545.798L544.558 54.0687L541.698 54.976ZM504.404 53.5394C500.175 45.7853 494.315 39.8205 486.843 35.7287L483.961 40.9913C490.377 44.5049 495.43 49.6173 499.137 56.4125L504.404 53.5394ZM486.843 35.7287C479.388 31.646 470.775 29.656 461.098 29.656V35.656C469.939 35.656 477.529 37.4686 483.961 40.9913L486.843 35.7287ZM461.098 29.656C450.379 29.656 440.753 32.0817 432.307 37.0087L435.33 42.1913C442.756 37.8597 451.316 35.656 461.098 35.656V29.656ZM432.307 37.0087C423.853 41.9398 417.266 48.9852 412.556 58.0575L417.881 60.8224C422.098 52.7001 427.911 46.5188 435.33 42.1913L432.307 37.0087ZM412.556 58.0575C407.837 67.1458 405.522 77.5536 405.522 89.2H411.522C411.522 78.3611 413.672 68.9289 417.881 60.8224L412.556 58.0575ZM405.522 89.2C405.522 101.161 407.831 111.738 412.556 120.838L417.881 118.074C413.678 109.979 411.522 100.385 411.522 89.2H405.522ZM412.577 120.878C417.459 129.946 424.214 136.98 432.826 141.901L435.803 136.691C428.212 132.354 422.236 126.161 417.86 118.034L412.577 120.878ZM432.826 141.901C441.445 146.826 451.398 149.24 462.586 149.24V143.24C452.282 143.24 443.386 141.024 435.803 136.691L432.826 141.901ZM462.586 149.24C476.357 149.24 487.906 145.614 496.981 138.14L493.167 133.508C485.379 139.922 475.269 143.24 462.586 143.24V149.24ZM497.008 138.118C506.033 130.509 511.866 120.038 514.626 106.93L508.755 105.694C506.224 117.717 500.98 126.921 493.141 133.53L497.008 138.118ZM511.69 103.312H452.17V109.312H511.69V103.312ZM455.17 106.312V79.776H449.17V106.312H455.17ZM452.17 82.776H545.914V76.776H452.17V82.776ZM542.914 79.776V110.032H548.914V79.776H542.914ZM542.968 109.467C540.742 121.076 535.972 131.821 528.625 141.724L533.444 145.3C541.307 134.701 546.458 123.126 548.861 110.597L542.968 109.467ZM528.625 141.724C521.308 151.586 511.831 159.564 500.137 165.651L502.908 170.973C515.353 164.495 525.55 155.939 533.444 145.3L528.625 141.724ZM500.151 165.644C488.717 171.52 475.803 174.488 461.346 174.488V180.488C476.649 180.488 490.52 177.339 502.894 170.98L500.151 165.644ZM461.346 174.488C445.111 174.488 430.486 170.876 417.406 163.698L414.519 168.958C428.554 176.66 444.185 180.488 461.346 180.488V174.488ZM417.444 163.719C404.517 156.378 394.319 146.261 386.813 133.326L381.624 136.338C389.66 150.187 400.624 161.067 414.481 168.937L417.444 163.719ZM386.827 133.351C379.505 120.457 375.81 105.766 375.81 89.2H369.81C369.81 106.692 373.721 122.423 381.61 136.313L386.827 133.351ZM375.81 89.2C375.81 72.6338 379.505 57.9433 386.827 45.0495L381.61 42.0865C373.721 55.9767 369.81 71.7075 369.81 89.2H375.81ZM386.821 45.0598C394.326 31.9667 404.515 21.8635 417.419 14.6945L414.505 9.44952C400.626 17.1605 389.652 28.0546 381.616 42.0762L386.821 45.0598ZM417.43 14.6884C430.511 7.35062 445.045 3.664 461.098 3.664V-2.336C444.085 -2.336 428.529 1.58271 414.495 9.45557L417.43 14.6884ZM461.098 3.664C480.094 3.664 496.445 8.32444 510.274 17.5441L513.602 12.5518C498.664 2.59288 481.121 -2.336 461.098 -2.336V3.664ZM510.294 17.5574C524.071 26.5835 533.581 39.3117 538.839 55.8833L544.558 54.0687C538.904 36.2509 528.574 22.3605 513.582 12.5386L510.294 17.5574ZM541.698 51.976H501.77V57.976H541.698V51.976ZM674.274 176L671.95 177.898L672.85 179H674.274V176ZM611.282 98.872L613.605 96.9743L608.282 90.4561V98.872H611.282ZM611.282 176V179H614.282V176H611.282ZM576.562 176H573.562V179H576.562V176ZM576.562 2.896V-0.104003H573.562V2.896H576.562ZM611.282 2.896H614.282V-0.104003H611.282V2.896ZM611.282 80.52H608.282V88.9778L613.611 82.4104L611.282 80.52ZM674.274 2.896V-0.104003H672.845L671.944 1.00562L674.274 2.896ZM716.186 2.896L718.491 4.81524L722.586 -0.104003H716.186V2.896ZM644.762 88.704L642.456 86.7848L640.85 88.7138L642.466 90.6348L644.762 88.704ZM718.17 176V179H724.612L720.466 174.069L718.17 176ZM676.597 174.102L613.605 96.9743L608.958 100.77L671.95 177.898L676.597 174.102ZM608.282 98.872V176H614.282V98.872H608.282ZM611.282 173H576.562V179H611.282V173ZM579.562 176V2.896H573.562V176H579.562ZM576.562 5.896H611.282V-0.104003H576.562V5.896ZM608.282 2.896V80.52H614.282V2.896H608.282ZM613.611 82.4104L676.603 4.78637L671.944 1.00562L608.952 78.6296L613.611 82.4104ZM674.274 5.896H716.186V-0.104003H674.274V5.896ZM713.88 0.976755L642.456 86.7848L647.067 90.6232L718.491 4.81524L713.88 0.976755ZM642.466 90.6348L715.874 177.931L720.466 174.069L647.058 86.7732L642.466 90.6348ZM718.17 173H674.274V179H718.17V173ZM780.191 2.896H783.191V-0.104003H780.191V2.896ZM789.367 137.064L787.218 139.157L787.232 139.171L787.246 139.185L789.367 137.064ZM841.199 137.064L843.32 139.185L843.335 139.171L843.348 139.157L841.199 137.064ZM850.375 2.896V-0.104003H847.375V2.896H850.375ZM885.343 2.896H888.343V-0.104003H885.343V2.896ZM875.671 147.232L873.132 145.635L873.125 145.646L875.671 147.232ZM850.127 170.048L848.836 167.34L848.827 167.344L848.819 167.348L850.127 170.048ZM779.447 170.048L778.123 172.74L778.131 172.744L778.139 172.748L779.447 170.048ZM754.647 147.232L752.071 148.769L752.076 148.779L752.082 148.788L754.647 147.232ZM745.471 2.896V-0.104003H742.471V2.896H745.471ZM777.191 2.896V110.032H783.191V2.896H777.191ZM777.191 110.032C777.191 122.28 780.391 132.145 787.218 139.157L791.516 134.971C786.109 129.417 783.191 121.261 783.191 110.032H777.191ZM787.246 139.185C794.072 146.011 803.52 149.24 815.159 149.24V143.24C804.644 143.24 796.897 140.351 791.488 134.943L787.246 139.185ZM815.159 149.24C826.949 149.24 836.486 146.019 843.32 139.185L839.078 134.943C833.677 140.343 825.855 143.24 815.159 143.24V149.24ZM843.348 139.157C850.175 132.145 853.375 122.28 853.375 110.032H847.375C847.375 121.261 844.457 129.417 839.05 134.971L843.348 139.157ZM853.375 110.032V2.896H847.375V110.032H853.375ZM850.375 5.896H885.343V-0.104003H850.375V5.896ZM882.343 2.896V109.784H888.343V2.896H882.343ZM882.343 109.784C882.343 124.056 879.22 135.956 873.132 145.635L878.21 148.829C885.018 138.006 888.343 124.942 888.343 109.784H882.343ZM873.125 145.646C867.145 155.244 859.067 162.461 848.836 167.34L851.418 172.756C862.681 167.385 871.631 159.391 878.217 148.818L873.125 145.646ZM848.819 167.348C838.689 172.255 827.322 174.736 814.663 174.736V180.736C828.127 180.736 840.402 178.092 851.435 172.748L848.819 167.348ZM814.663 174.736C802.176 174.736 790.89 172.257 780.755 167.348L778.139 172.748C789.167 178.089 801.359 180.736 814.663 180.736V174.736ZM780.772 167.356C770.878 162.488 763.038 155.281 757.212 145.676L752.082 148.788C758.491 159.354 767.184 167.358 778.123 172.74L780.772 167.356ZM757.223 145.695C751.441 136.006 748.471 124.083 748.471 109.784H742.471C742.471 124.915 745.618 137.957 752.071 148.769L757.223 145.695ZM748.471 109.784V2.896H742.471V109.784H748.471ZM745.471 5.896H780.191V-0.104003H745.471V5.896ZM1041.65 2.896H1044.65V-0.104003H1041.65V2.896ZM1041.65 30.92V33.92H1044.65V30.92H1041.65ZM995.521 30.92V27.92H992.521V30.92H995.521ZM995.521 176V179H998.521V176H995.521ZM960.801 176H957.801V179H960.801V176ZM960.801 30.92H963.801V27.92H960.801V30.92ZM914.673 30.92H911.673V33.92H914.673V30.92ZM914.673 2.896V-0.104003H911.673V2.896H914.673ZM1038.65 2.896V30.92H1044.65V2.896H1038.65ZM1041.65 27.92H995.521V33.92H1041.65V27.92ZM992.521 30.92V176H998.521V30.92H992.521ZM995.521 173H960.801V179H995.521V173ZM963.801 176V30.92H957.801V176H963.801ZM960.801 27.92H914.673V33.92H960.801V27.92ZM917.673 30.92V2.896H911.673V30.92H917.673ZM914.673 5.896H1041.65V-0.104003H914.673V5.896ZM1178.09 143.016L1180.92 142.035L1180.22 140.016H1178.09V143.016ZM1109.14 143.016V140.016H1107L1106.31 142.035L1109.14 143.016ZM1097.73 176V179H1099.87L1100.57 176.981L1097.73 176ZM1061.28 176L1058.45 174.986L1057.01 179H1061.28V176ZM1123.53 2.64798V-0.352015H1121.42L1120.7 1.63412L1123.53 2.64798ZM1163.95 2.64798L1166.77 1.63412L1166.06 -0.352015H1163.95V2.64798ZM1226.2 176V179H1230.46L1229.02 174.986L1226.2 176ZM1189.49 176L1186.66 176.981L1187.36 179H1189.49V176ZM1168.66 115.24V118.24H1172.87L1171.5 114.259L1168.66 115.24ZM1143.61 42.824L1146.45 41.8433L1143.61 33.6466L1140.78 41.8433L1143.61 42.824ZM1118.57 115.24L1115.73 114.259L1114.35 118.24H1118.57V115.24ZM1178.09 140.016H1109.14V146.016H1178.09V140.016ZM1106.31 142.035L1094.9 175.019L1100.57 176.981L1111.98 143.997L1106.31 142.035ZM1097.73 173H1061.28V179H1097.73V173ZM1064.1 177.014L1126.35 3.66185L1120.7 1.63412L1058.45 174.986L1064.1 177.014ZM1123.53 5.64798H1163.95V-0.352015H1123.53V5.64798ZM1161.13 3.66185L1223.37 177.014L1229.02 174.986L1166.77 1.63412L1161.13 3.66185ZM1226.2 173H1189.49V179H1226.2V173ZM1192.33 175.019L1180.92 142.035L1175.25 143.997L1186.66 176.981L1192.33 175.019ZM1171.5 114.259L1146.45 41.8433L1140.78 43.8047L1165.83 116.221L1171.5 114.259ZM1140.78 41.8433L1115.73 114.259L1121.4 116.221L1146.45 43.8047L1140.78 41.8433ZM1118.57 118.24H1168.66V112.24H1118.57V118.24ZM1402.48 176V179H1405.48V176H1402.48ZM1367.76 176L1365.26 177.656L1366.15 179H1367.76V176ZM1289.15 57.208L1291.65 55.5523L1286.15 47.239V57.208H1289.15ZM1289.15 176V179H1292.15V176H1289.15ZM1254.43 176H1251.43V179H1254.43V176ZM1254.43 2.64798V-0.352015H1251.43V2.64798H1254.43ZM1289.15 2.64798L1291.65 0.994732L1290.76 -0.352015H1289.15V2.64798ZM1367.76 121.688L1365.26 123.341L1370.76 131.674V121.688H1367.76ZM1367.76 2.64798V-0.352015H1364.76V2.64798H1367.76ZM1402.48 2.64798H1405.48V-0.352015H1402.48V2.64798ZM1402.48 173H1367.76V179H1402.48V173ZM1370.26 174.344L1291.65 55.5523L1286.64 58.8636L1365.26 177.656L1370.26 174.344ZM1286.15 57.208V176H1292.15V57.208H1286.15ZM1289.15 173H1254.43V179H1289.15V173ZM1257.43 176V2.64798H1251.43V176H1257.43ZM1254.43 5.64798H1289.15V-0.352015H1254.43V5.64798ZM1286.64 4.30124L1365.26 123.341L1370.26 120.035L1291.65 0.994732L1286.64 4.30124ZM1370.76 121.688V2.64798H1364.76V121.688H1370.76ZM1367.76 5.64798H1402.48V-0.352015H1367.76V5.64798ZM1399.48 2.64798V176H1405.48V2.64798H1399.48Z" fill="#EDEDED"/>
</svg>
