<svg width="271" height="116" viewBox="0 0 271 116" fill="none" xmlns="http://www.w3.org/2000/svg">
<g clip-path="url(#clip0_276_1575)">
<path d="M6.85234 70.1192V88.6934C6.85234 91.1971 7.84487 93.5983 9.61153 95.3688C11.3782 97.1392 13.7743 98.1338 16.2727 98.1338H201.265C200.521 95.0414 200.409 91.8303 200.935 88.6934C202.192 82.5796 205.553 77.103 210.43 73.2204C215.308 69.3378 221.391 67.2962 227.618 67.4523C233.849 67.2821 239.939 69.3185 244.82 73.2035C249.7 77.0884 253.057 82.5731 254.301 88.6934C254.532 90.0022 254.642 91.3294 254.631 92.6584C254.633 94.5021 254.42 96.3398 253.995 98.1338C255.997 98.0158 258.117 97.6618 258.705 96.4346L261.061 91.7143C261.552 90.7294 261.977 89.7122 262.332 88.6697C262.866 87.1318 263.276 85.5533 263.557 83.9495C263.839 82.0835 263.934 80.1938 263.84 78.3088C263.863 78.034 263.863 77.7576 263.84 77.4828C263.804 76.8813 263.733 76.2823 263.628 75.6891L262.662 69.2695C262.497 68.1603 262.309 67.1454 262.073 66.2014C261.037 61.9296 258.941 59.2862 252.3 56.9969C234.032 52.6189 215.53 49.2858 196.884 47.0136C195.635 46.8969 194.407 46.6111 193.234 46.1639H187.77C187.235 46.164 186.712 46.0107 186.261 45.7222C185.81 45.4336 185.451 45.0218 185.227 44.5355L174.111 20.2262C173.983 19.9951 173.916 19.7352 173.916 19.471C173.916 19.2067 173.983 18.9468 174.111 18.7157C174.256 18.4913 174.455 18.3069 174.689 18.1791C174.924 18.0513 175.186 17.9843 175.453 17.9841H175.995C172.702 14.5223 168.208 12.4607 163.442 12.2254H93.8258C88.2112 11.9511 82.7111 13.8815 78.4941 17.6065L82.9217 17.7953C84.4996 17.7953 84.9706 19.3058 83.9579 20.9343L69.427 44.5355C69.0931 45.0032 68.6557 45.3872 68.1491 45.6574C67.6425 45.9277 67.0804 46.0768 66.5067 46.0931H66.2712L57.0628 45.2671C56.664 45.6735 56.1702 45.9737 55.6262 46.1404L22.9141 50.247C17.6863 51.3352 13.0987 54.4481 10.1495 58.9086C7.92094 62.2368 6.73961 66.1584 6.75815 70.1664L6.85234 70.1192Z" fill="#32E4FE"/>
<path d="M136.219 93.1538H177.998C179.503 93.1538 180.947 92.5546 182.011 91.4879C183.076 90.4212 183.674 88.9744 183.674 87.4659V48.1227C183.68 46.3197 183.311 44.5351 182.59 42.8832L171.616 17.6063C171.297 16.8989 170.78 16.2994 170.128 15.8805C169.476 15.4616 168.716 15.2412 167.942 15.2462H134.711C134.186 15.2462 133.665 15.35 133.179 15.5516C132.694 15.7532 132.252 16.0488 131.88 16.4213C131.509 16.7939 131.214 17.2362 131.013 17.723C130.811 18.2098 130.708 18.7315 130.708 19.2584V87.7019C130.726 89.1543 131.315 90.5409 132.347 91.5614C133.378 92.5818 134.769 93.1539 136.219 93.1538ZM167.942 16.025C168.561 16.0238 169.168 16.2041 169.687 16.5437C170.206 16.8833 170.614 17.3675 170.862 17.9367L181.837 43.1664C182.512 44.7141 182.857 46.3863 182.849 48.0755V87.4187C182.849 88.7082 182.338 89.9448 181.429 90.8566C180.519 91.7683 179.285 92.2806 177.998 92.2806H136.219C134.97 92.2806 133.771 91.7833 132.888 90.898C132.005 90.0128 131.509 88.8122 131.509 87.5603V19.1168C131.505 18.6975 131.586 18.2818 131.744 17.8938C131.903 17.5058 132.137 17.1533 132.433 16.8568C132.729 16.5603 133.08 16.3258 133.468 16.1667C133.855 16.0077 134.27 15.9275 134.688 15.9306L167.942 16.025Z" fill="#555555"/>
<path d="M6.85379 70.0721V88.6462C6.85379 91.15 7.84632 93.5512 9.61298 95.3217C11.3796 97.0921 13.7757 98.0867 16.2741 98.0867H165.822C164.908 87.377 160.015 77.4013 152.113 70.1332C144.211 62.8652 133.874 58.8342 123.148 58.8379H10.2451C8.01658 62.1661 6.83525 66.0876 6.85379 70.0957V70.0721Z" fill="#32E4FE"/>
<path d="M261.438 94.2634C261.358 94.4856 261.333 94.7238 261.365 94.9578C261.397 95.1917 261.485 95.4145 261.622 95.6069C261.758 95.7994 261.939 95.9559 262.149 96.063C262.359 96.1702 262.592 96.2249 262.827 96.2223H265.913C267.011 96.1724 268.057 95.7393 268.87 94.998C269.682 94.2566 270.211 93.2537 270.364 92.1629L271 85.0825C271.013 84.8207 270.968 84.5591 270.868 84.3167C270.768 84.0744 270.616 83.8573 270.422 83.6811C270.228 83.505 269.998 83.3741 269.748 83.2981C269.497 83.2221 269.233 83.2029 268.974 83.2417H266.619C266.31 83.2536 266.012 83.3561 265.761 83.5365C265.509 83.7169 265.317 83.9673 265.206 84.2565L261.438 94.2634Z" fill="#575756"/>
<path d="M58.8073 44.4881L59.5374 43.5204L78.7785 18.3143L78.4959 17.4883L82.9235 17.6771C84.5014 17.6771 84.9724 19.1876 83.9597 20.816L69.4288 44.4173C69.0736 44.9179 68.5983 45.3209 68.0468 45.589C67.4953 45.8572 66.8852 45.9817 66.273 45.9513L57.0646 45.1253L58.8073 44.4881Z" fill="#BFE9E6"/>
<path d="M77.0811 88.5752C77.928 90.8398 78.3666 93.2372 78.3764 95.6556C78.3763 96.4444 78.3291 97.2325 78.2351 98.0157H201.406C200.663 94.9233 200.55 91.7121 201.077 88.5752H77.0811Z" fill="#00546F"/>
<path d="M6.8533 88.5752C6.8533 91.079 7.84582 93.4802 9.61248 95.2506C11.3791 97.0211 13.7752 98.0157 16.2736 98.0157H32.9241C32.507 94.8217 32.904 91.5738 34.0781 88.5752H6.8533Z" fill="#00546F"/>
<path d="M204.845 95.703C204.845 96.4918 204.892 97.28 204.986 98.0631H250.275C250.369 97.28 250.416 96.4918 250.416 95.703C250.416 83.9024 240.218 74.4619 227.619 74.4619C215.019 74.4619 204.845 83.9024 204.845 95.703Z" fill="#1D1D1B"/>
<path d="M200.607 92.5406C200.611 94.4009 200.833 96.2544 201.266 98.0633H204.987C204.894 97.2801 204.846 96.492 204.846 95.7032C204.846 83.9025 215.044 74.4621 227.62 74.4621C240.196 74.4621 250.417 83.9025 250.417 95.7032C250.417 96.492 250.37 97.2801 250.276 98.0633H250.77C251.595 98.0633 252.772 98.0633 253.997 98.0633C254.424 96.2777 254.637 94.4475 254.633 92.6114C254.633 78.6395 242.551 67.3345 227.62 67.3345C212.689 67.3345 200.607 78.5687 200.607 92.5406Z" fill="#00546F"/>
<path d="M216.668 94.9478C216.664 97.151 217.311 99.3062 218.529 101.141C219.746 102.975 221.479 104.407 223.509 105.254C225.538 106.102 227.773 106.327 229.93 105.902C232.087 105.476 234.07 104.42 235.628 102.865C237.186 101.31 238.249 99.3278 238.682 97.1678C239.116 95.0078 238.9 92.7675 238.063 90.7302C237.226 88.6929 235.805 86.9501 233.98 85.7221C232.154 84.4942 230.006 83.8363 227.808 83.8316C226.347 83.8254 224.9 84.1084 223.549 84.6642C222.197 85.2201 220.969 86.0379 219.934 87.0707C218.899 88.1036 218.078 89.3311 217.517 90.6829C216.957 92.0347 216.668 93.484 216.668 94.9478Z" fill="#3C3C3B"/>
<path d="M227.807 73.8481C231.962 73.8481 236.023 75.0828 239.478 77.3961C242.933 79.7093 245.625 82.9973 247.215 86.8441C248.805 90.6909 249.221 94.9238 248.411 99.0075C247.6 103.091 245.599 106.842 242.662 109.787C239.724 112.731 235.98 114.736 231.905 115.548C227.83 116.361 223.606 115.944 219.768 114.35C215.929 112.757 212.648 110.058 210.34 106.596C208.032 103.134 206.8 99.0642 206.8 94.9004C206.8 89.317 209.013 83.9623 212.953 80.0142C216.892 76.0662 222.236 73.8481 227.807 73.8481ZM227.807 109.25C230.63 109.25 233.389 108.411 235.736 106.84C238.083 105.268 239.912 103.034 240.993 100.421C242.073 97.8075 242.355 94.9318 241.805 92.1574C241.254 89.383 239.895 86.8346 237.899 84.8343C235.903 82.8341 233.36 81.472 230.591 80.9201C227.823 80.3683 224.953 80.6515 222.345 81.734C219.738 82.8165 217.509 84.6497 215.94 87.0017C214.372 89.3537 213.535 92.1189 213.535 94.9476C213.535 98.7409 215.039 102.379 217.715 105.061C220.392 107.743 224.022 109.25 227.807 109.25Z" fill="#3C3C3B"/>
<path d="M236.098 94.9477C236.098 96.6022 235.607 98.2194 234.689 99.5943C233.771 100.969 232.466 102.04 230.94 102.671C229.414 103.302 227.735 103.465 226.117 103.138C224.498 102.812 223.013 102.012 221.849 100.839C220.685 99.6654 219.894 98.1723 219.578 96.5486C219.262 94.9248 219.434 93.2434 220.072 91.7176C220.71 90.1918 221.786 88.8903 223.163 87.9779C224.54 87.0656 226.157 86.5836 227.808 86.5929C228.899 86.596 229.98 86.8146 230.987 87.2361C231.995 87.6577 232.91 88.2739 233.679 89.0497C234.449 89.8256 235.059 90.7457 235.474 91.7577C235.889 92.7697 236.101 93.8537 236.098 94.9477Z" fill="#E6E6E6"/>
<path d="M242.527 94.948C242.527 97.8767 241.66 100.74 240.035 103.174C238.411 105.609 236.102 107.505 233.401 108.624C230.7 109.743 227.728 110.033 224.863 109.458C221.997 108.883 219.366 107.469 217.303 105.395C215.24 103.321 213.837 100.679 213.273 97.8058C212.708 94.9322 213.007 91.9554 214.132 89.2522C215.257 86.5491 217.157 84.2412 219.591 82.6209C222.026 81.0006 224.886 80.1406 227.808 80.15C231.716 80.1625 235.46 81.7271 238.219 84.5009C240.978 87.2747 242.527 91.0315 242.527 94.948ZM234.591 99.4086C235.159 98.5396 235.559 97.5707 235.768 96.5528C235.863 96.0232 235.91 95.4861 235.91 94.948C235.908 94.3764 235.845 93.8067 235.721 93.2487C235.521 92.2428 235.12 91.2877 234.544 90.4401C233.929 89.4993 233.127 88.6958 232.189 88.08C231.332 87.5276 230.382 87.1357 229.386 86.9235C228.844 86.8079 228.291 86.7525 227.737 86.7583C227.184 86.7536 226.631 86.809 226.089 86.9235C225.098 87.1312 224.156 87.5235 223.31 88.08C222.367 88.6909 221.564 89.4953 220.955 90.4401C220.378 91.2877 219.978 92.2428 219.777 93.2487C219.654 93.8067 219.591 94.3764 219.589 94.948C219.596 95.4868 219.651 96.0239 219.754 96.5528C219.944 97.5724 220.336 98.5435 220.908 99.4086C222.107 101.221 223.967 102.492 226.089 102.949C226.631 103.063 227.184 103.119 227.737 103.114C228.291 103.12 228.844 103.064 229.386 102.949C230.41 102.731 231.385 102.323 232.259 101.745C233.189 101.136 233.983 100.34 234.591 99.4086ZM235.98 84.3274C234.081 82.8298 231.808 81.8828 229.41 81.5897V85.6491C230.756 85.8898 232.034 86.4213 233.154 87.2068L235.98 84.3274ZM226.112 81.5897C223.715 81.8875 221.443 82.834 219.542 84.3274L222.368 87.1595C223.491 86.3787 224.768 85.8476 226.112 85.6019V81.5897ZM217.21 86.6403C215.709 88.5507 214.756 90.8356 214.455 93.2487H218.388C218.635 91.8977 219.173 90.617 219.966 89.4961L217.21 86.6403ZM214.431 96.5528C214.718 98.9727 215.663 101.267 217.163 103.185L219.989 100.353C219.199 99.2157 218.668 97.9184 218.435 96.5528H214.431ZM219.495 105.545C221.408 107.054 223.696 108.009 226.112 108.306V104.294C224.746 104.046 223.451 103.498 222.321 102.689L219.495 105.545ZM229.41 108.306C231.832 108.005 234.127 107.05 236.051 105.545L233.225 102.689C232.087 103.501 230.784 104.049 229.41 104.294V108.306ZM238.382 103.185C239.875 101.265 240.812 98.9706 241.091 96.5528H237.087C236.855 97.9148 236.333 99.2108 235.556 100.353L238.382 103.185ZM241.091 93.2487C240.779 90.8384 239.828 88.5561 238.335 86.6403L235.509 89.4961C236.301 90.617 236.84 91.8977 237.087 93.2487H241.091Z" fill="#C6C6C6"/>
<path d="M232.988 94.9477C232.988 95.986 232.68 97.0008 232.104 97.8634C231.527 98.7261 230.708 99.3975 229.75 99.7927C228.792 100.188 227.738 100.289 226.722 100.083C225.707 99.8767 224.776 99.373 224.046 98.6355C223.317 97.8981 222.823 96.9601 222.626 95.9406C222.43 94.9212 222.54 93.8662 222.943 92.9097C223.346 91.9532 224.024 91.1382 224.89 90.5682C225.756 89.9982 226.771 89.6989 227.807 89.7082C228.491 89.7113 229.167 89.8493 229.797 90.1143C230.427 90.3792 230.999 90.7661 231.48 91.2526C231.962 91.7391 232.342 92.3159 232.601 92.9499C232.86 93.5839 232.991 94.2627 232.988 94.9477Z" fill="#F6F6F6"/>
<path d="M32.8529 95.703C32.8492 96.4927 32.9043 97.2816 33.0177 98.0631H78.2825C78.3765 97.28 78.4237 96.4918 78.4238 95.703C78.4238 83.9024 68.2263 74.4619 55.6501 74.4619C43.074 74.4619 32.8529 83.9024 32.8529 95.703Z" fill="#1D1D1B"/>
<path d="M28.6383 92.5402C28.6428 94.4005 28.8641 96.254 29.2978 98.0629H33.0188C32.6044 94.8708 32.993 91.6255 34.1492 88.6224C35.9535 84.4096 38.9511 80.8197 42.7709 78.2971C46.5907 75.7744 51.0648 74.4299 55.6394 74.4299C60.214 74.4299 64.6882 75.7744 68.5079 78.2971C72.3277 80.8197 75.3253 84.4096 77.1296 88.6224C77.9764 90.887 78.415 93.2844 78.4249 95.7027C78.4247 96.4916 78.3776 97.2797 78.2836 98.0629H80.0735C80.7167 98.0965 81.3613 98.0965 82.0046 98.0629C82.4395 96.2782 82.6609 94.448 82.6641 92.611C82.6635 91.2824 82.5532 89.9562 82.3344 88.646C80.9574 82.5858 77.5672 77.1741 72.7192 73.2977C67.8713 69.4213 61.8532 67.3101 55.6512 67.3101C49.4492 67.3101 43.4311 69.4213 38.5832 73.2977C33.7352 77.1741 30.345 82.5858 28.968 88.646C28.753 89.9329 28.6427 91.2353 28.6383 92.5402Z" fill="#00546F"/>
<path d="M44.5356 94.9477C44.5309 97.152 45.1789 99.308 46.3975 101.143C47.6161 102.978 49.3505 104.41 51.3813 105.256C53.4121 106.103 55.6479 106.327 57.8057 105.9C59.9636 105.473 61.9465 104.414 63.5034 102.857C65.0604 101.3 66.1214 99.3148 66.5523 97.1533C66.9831 94.9917 66.7643 92.7507 65.9237 90.7138C65.083 88.6769 63.6583 86.9357 61.8298 85.7106C60.0012 84.4855 57.8511 83.8315 55.6516 83.8315C52.7075 83.8315 49.8837 85.0019 47.7997 87.0859C45.7157 89.17 44.5418 91.9974 44.5356 94.9477Z" fill="#3C3C3B"/>
<path d="M55.6508 73.8481C59.8057 73.8481 63.8672 75.0828 67.3219 77.3961C70.7765 79.7093 73.4691 82.9973 75.0591 86.8441C76.6491 90.6909 77.0651 94.9238 76.2545 99.0075C75.444 103.091 73.4432 106.842 70.5053 109.787C67.5673 112.731 63.8242 114.736 59.7491 115.548C55.6741 116.361 51.4502 115.944 47.6116 114.35C43.773 112.757 40.4921 110.058 38.1838 106.596C35.8755 103.134 34.6434 99.0642 34.6434 94.9004C34.6434 89.317 36.8567 83.9623 40.7963 80.0142C44.736 76.0662 50.0793 73.8481 55.6508 73.8481ZM55.6508 109.25C58.4735 109.25 61.2328 108.411 63.5798 106.84C65.9268 105.268 67.7561 103.034 68.8363 100.421C69.9165 97.8075 70.1991 94.9318 69.6484 92.1574C69.0977 89.383 67.7385 86.8346 65.7425 84.8343C63.7466 82.8341 61.2036 81.472 58.4351 80.9201C55.6666 80.3683 52.7971 80.6515 50.1892 81.734C47.5814 82.8165 45.3524 84.6497 43.7842 87.0017C42.216 89.3537 41.379 92.1189 41.379 94.9476C41.379 98.7409 42.8826 102.379 45.5591 105.061C48.2356 107.743 51.8657 109.25 55.6508 109.25Z" fill="#3C3C3B"/>
<path d="M63.9882 94.9476C63.9882 96.6001 63.4993 98.2154 62.5832 99.5893C61.6671 100.963 60.3651 102.034 58.8417 102.666C57.3183 103.299 55.642 103.464 54.0248 103.142C52.4075 102.82 50.922 102.024 49.7561 100.855C48.5901 99.687 47.7961 98.1983 47.4744 96.5776C47.1527 94.9569 47.3178 93.277 47.9488 91.7504C48.5798 90.2237 49.6484 88.9189 51.0194 88.0008C52.3904 87.0828 54.0023 86.5928 55.6512 86.5928C56.7469 86.5897 57.8324 86.8037 58.8453 87.2224C59.8582 87.6412 60.7785 88.2565 61.5533 89.0329C62.3281 89.8094 62.9421 90.7316 63.36 91.7467C63.7778 92.7618 63.9914 93.8496 63.9882 94.9476Z" fill="#E6E6E6"/>
<path d="M70.418 94.9479C70.418 97.8746 69.5519 100.736 67.9294 103.169C66.3068 105.603 64.0006 107.499 61.3024 108.619C58.6042 109.739 55.6352 110.032 52.7708 109.461C49.9064 108.891 47.2753 107.481 45.2101 105.412C43.145 103.342 41.7387 100.705 41.1689 97.8348C40.5991 94.9643 40.8916 91.9889 42.0092 89.2849C43.1268 86.581 45.0195 84.2698 47.4478 82.6438C49.8761 81.0178 52.7311 80.1499 55.6516 80.1499C59.5679 80.1499 63.3238 81.709 66.093 84.4841C68.8622 87.2593 70.418 91.0232 70.418 94.9479ZM62.4813 99.4085C63.0428 98.5383 63.4344 97.5693 63.6353 96.5528C63.7495 96.0256 63.8048 95.4873 63.8002 94.9479C63.7983 94.3763 63.7351 93.8066 63.6118 93.2486C63.4112 92.2427 63.0107 91.2876 62.4342 90.44C61.8197 89.4992 61.0179 88.6957 60.0791 88.0799C59.2226 87.5275 58.273 87.1356 57.2766 86.9235C56.1885 86.7035 55.0675 86.7035 53.9795 86.9235C52.9878 87.1138 52.0385 87.4815 51.1769 88.0091C49.3834 89.2056 48.1184 91.048 47.6443 93.1542C47.5404 93.7148 47.4853 94.2833 47.4794 94.8535C47.4748 95.3929 47.5301 95.9312 47.6443 96.4584C47.8347 97.478 48.2271 98.449 48.7983 99.3141C49.4128 100.255 50.2145 101.058 51.1533 101.674C52.0147 102.26 52.9832 102.669 54.003 102.878C55.0911 103.098 56.212 103.098 57.3001 102.878C59.4221 102.421 61.2816 101.15 62.4813 99.3377V99.4085ZM63.8708 84.3273C61.9717 82.8297 59.699 81.8828 57.3001 81.5896V85.649C58.6449 85.8947 59.9216 86.4258 61.0447 87.2067L63.8708 84.3273ZM54.003 81.5896C51.6041 81.8828 49.3315 82.8297 47.4323 84.3273L50.2584 87.1595C51.3815 86.3786 52.6583 85.8475 54.003 85.6018V81.5896ZM45.0772 86.6402C43.5848 88.556 42.6332 90.8383 42.3218 93.2486H46.3254C46.5805 91.8999 47.1183 90.6209 47.9033 89.496L45.0772 86.6402ZM42.3218 96.5528C42.5975 98.9754 43.5438 101.273 45.0537 103.185L47.8562 100.353C47.0798 99.2107 46.5577 97.9148 46.3254 96.5528H42.3218ZM47.3617 105.545C49.2855 107.05 51.5808 108.005 54.003 108.306V104.294C52.6283 104.049 51.3251 103.501 50.1878 102.689L47.3617 105.545ZM57.3001 108.306C59.7224 108.005 62.0176 107.05 63.9415 105.545L61.0918 102.689C59.9614 103.498 58.6666 104.046 57.3001 104.294V108.306ZM66.2495 103.185C67.7497 101.267 68.6948 98.9726 68.9814 96.5528H64.9777C64.7441 97.9183 64.2134 99.2156 63.4234 100.353L66.2495 103.185ZM68.9578 93.2486C68.6567 90.8355 67.704 88.5506 66.2024 86.6402L63.3763 89.496C64.1802 90.6103 64.7199 91.8937 64.9542 93.2486H68.9578Z" fill="#C6C6C6"/>
<path d="M60.8789 94.9475C60.8789 95.9838 60.5722 96.9968 59.9977 97.8584C59.4232 98.72 58.6067 99.3916 57.6513 99.7882C56.696 100.185 55.6447 100.288 54.6306 100.086C53.6164 99.8842 52.6848 99.3851 51.9536 98.6524C51.2224 97.9196 50.7244 96.9861 50.5227 95.9697C50.321 94.9533 50.4245 93.8999 50.8202 92.9425C51.2159 91.9851 51.8861 91.1668 52.7459 90.5911C53.6057 90.0154 54.6165 89.7081 55.6506 89.7081C56.338 89.7049 57.0193 89.8383 57.655 90.1005C58.2908 90.3627 58.8683 90.7485 59.3545 91.2357C59.8406 91.7229 60.2256 92.3017 60.4872 92.9388C60.7489 93.5759 60.882 94.2586 60.8789 94.9475Z" fill="#F6F6F6"/>
<path d="M254.633 92.5404C254.638 94.3765 254.424 96.2067 253.997 97.9922C255.999 97.9922 258.118 97.5438 258.707 96.3165L261.062 91.5963C261.554 90.6113 261.979 89.5942 262.334 88.5518H254.327C254.551 89.8691 254.653 91.2042 254.633 92.5404Z" fill="#00546F"/>
<path d="M251.358 68.8684V74.5799C251.312 75.2599 251.532 75.9312 251.972 76.4512C252.412 76.9711 253.036 77.2989 253.713 77.3649H263.746C263.71 76.7634 263.64 76.1645 263.534 75.5712L262.569 69.1517C262.404 68.0424 262.215 67.0275 261.98 66.0835H253.878C253.529 66.0954 253.185 66.1775 252.868 66.325C252.55 66.4725 252.266 66.6822 252.031 66.9419C251.796 67.2016 251.615 67.506 251.5 67.8369C251.384 68.1678 251.336 68.5186 251.358 68.8684Z" fill="#575756"/>
<path d="M257.575 79.5834V82.4391C257.575 83.1944 258.682 83.8316 260.048 83.8316H263.534C263.816 81.9656 263.911 80.0759 263.816 78.1909H260.048C258.682 78.1909 257.575 78.8046 257.575 79.5834Z" fill="#575756"/>
<path d="M6.85307 70.1193V82.6988H10.4564C11.5703 82.6925 12.6366 82.2447 13.4221 81.4531C14.2076 80.6615 14.6485 79.5905 14.6484 78.4741V70.3789C14.6485 69.2626 14.2076 68.1916 13.4221 67.4C12.6366 66.6084 11.5703 66.1605 10.4564 66.1543H7.22989C6.97288 67.4601 6.84664 68.7884 6.85307 70.1193Z" fill="#575756"/>
<path d="M175.996 17.8662L175.666 18.6923C175.555 18.6968 175.446 18.7268 175.348 18.78C175.25 18.8332 175.165 18.9081 175.101 18.9991C175.049 19.0973 175.022 19.2067 175.022 19.3177C175.022 19.4287 175.049 19.538 175.101 19.6363L185.651 43.1667C185.918 43.7568 186.349 44.2574 186.891 44.609C187.434 44.9605 188.067 45.148 188.713 45.1492H191.751L193.141 45.9753H187.771C187.272 45.9658 186.785 45.8143 186.368 45.5386C185.951 45.2628 185.621 44.8741 185.416 44.4176L174.253 20.0375C174.125 19.8064 174.058 19.5465 174.058 19.2823C174.058 19.018 174.125 18.7581 174.253 18.527C174.4 18.3041 174.599 18.1208 174.833 17.9932C175.067 17.8657 175.329 17.7977 175.595 17.7954L175.996 17.8662Z" fill="#575756"/>
<path d="M175.572 18.6924C176.797 19.9668 179.458 23.2474 191.752 45.2202H188.243C187.744 45.2079 187.259 45.0553 186.842 44.7799C186.426 44.5044 186.095 44.1173 185.888 43.6625L174.842 19.5656C174.791 19.4674 174.764 19.358 174.764 19.247C174.764 19.136 174.791 19.0267 174.842 18.9284C174.907 18.8374 174.992 18.7625 175.09 18.7093C175.187 18.6561 175.296 18.6261 175.408 18.6216L175.572 18.6924Z" fill="#BFE9E6"/>
<path d="M135.96 46.0461H177.857C178.212 46.0478 178.563 45.9606 178.877 45.7925C179.191 45.6244 179.458 45.3806 179.654 45.0832C179.85 44.7858 179.97 44.4441 180.001 44.0889C180.033 43.7337 179.976 43.3762 179.835 43.0487L169.543 19.1643C169.377 18.7773 169.101 18.4479 168.749 18.2171C168.397 17.9863 167.985 17.8643 167.565 17.8662H135.96C135.391 17.8662 134.846 18.0925 134.444 18.4953C134.042 18.8981 133.816 19.4443 133.816 20.014V43.8984C133.816 44.468 134.042 45.0143 134.444 45.417C134.846 45.8198 135.391 46.0461 135.96 46.0461Z" fill="#BFE9E6"/>
<path d="M135.96 18.6923C135.61 18.6923 135.274 18.8315 135.027 19.0794C134.78 19.3273 134.641 19.6634 134.641 20.014V43.8984C134.641 44.2489 134.78 44.5851 135.027 44.8329C135.274 45.0808 135.61 45.2201 135.96 45.2201H177.857C178.078 45.2211 178.296 45.1653 178.49 45.0579C178.684 44.9504 178.847 44.795 178.964 44.6064C179.085 44.4241 179.16 44.2143 179.18 43.9959C179.201 43.7775 179.167 43.5575 179.081 43.3556L168.79 19.5655C168.687 19.3256 168.516 19.1213 168.298 18.9785C168.081 18.8357 167.825 18.7608 167.565 18.7631L135.96 18.6923ZM135.96 17.8662H167.565C167.985 17.8643 168.397 17.9863 168.749 18.2171C169.101 18.4479 169.377 18.7773 169.543 19.1643L179.835 43.1667C179.976 43.4942 180.033 43.8517 180.001 44.2069C179.97 44.5621 179.85 44.9038 179.654 45.2012C179.458 45.4986 179.191 45.7424 178.877 45.9105C178.563 46.0786 178.212 46.1658 177.857 46.1641H135.96C135.391 46.1641 134.846 45.9378 134.444 45.535C134.042 45.1323 133.816 44.586 133.816 44.0164V20.014C133.816 19.4443 134.042 18.8981 134.444 18.4953C134.846 18.0925 135.391 17.8662 135.96 17.8662Z" fill="#575756"/>
<path d="M126.327 46.0459H84.8299C84.461 46.0251 84.1022 45.9176 83.7825 45.7322C83.4627 45.5467 83.191 45.2885 82.9892 44.9783C82.7875 44.6681 82.6614 44.3148 82.6211 43.9467C82.5808 43.5787 82.6275 43.2063 82.7574 42.8597L92.9314 19.2585C93.1154 18.8596 93.4069 18.5201 93.7731 18.2783C94.1392 18.0364 94.5655 17.9018 95.0039 17.8896H126.327C126.951 17.8896 127.55 18.1383 127.992 18.5809C128.433 19.0235 128.682 19.6238 128.682 20.2498V43.851C128.64 44.4479 128.373 45.0066 127.936 45.414C127.499 45.8215 126.924 46.0474 126.327 46.0459Z" fill="#BFE9E6"/>
<path d="M95.0039 18.6923C94.7027 18.6646 94.4006 18.7345 94.142 18.8917C93.8834 19.0488 93.6819 19.285 93.5673 19.5655L83.3933 43.1667C83.2734 43.3748 83.2103 43.6109 83.2103 43.8512C83.2103 44.0914 83.2734 44.3275 83.3933 44.5356C83.5194 44.7404 83.6964 44.9089 83.9069 45.0247C84.1174 45.1405 84.3543 45.1997 84.5944 45.1964H126.327C126.517 45.1965 126.706 45.1584 126.882 45.0846C127.058 45.0108 127.217 44.9026 127.351 44.7664C127.485 44.6302 127.59 44.4687 127.661 44.2913C127.731 44.1139 127.766 43.9242 127.763 43.7331V20.1319C127.763 19.7501 127.612 19.3839 127.342 19.1139C127.073 18.8439 126.708 18.6923 126.327 18.6923H95.0039ZM95.0039 17.8662H126.327C126.951 17.8662 127.55 18.1149 127.992 18.5575C128.433 19.0001 128.682 19.6004 128.682 20.2263V43.8276C128.682 44.4535 128.433 45.0538 127.992 45.4964C127.55 45.939 126.951 46.1877 126.327 46.1877H84.8299C84.461 46.1669 84.1022 46.0594 83.7825 45.874C83.4627 45.6885 83.191 45.4303 82.9892 45.1201C82.7875 44.8099 82.6614 44.4566 82.6211 44.0885C82.5808 43.7205 82.6275 43.3481 82.7574 43.0015L92.9314 19.4003C93.1154 19.0014 93.4069 18.6619 93.7731 18.42C94.1392 18.1782 94.5655 18.0436 95.0039 18.0314V17.8662Z" fill="#575756"/>
<path d="M83.9597 20.8162L69.4288 44.4174C69.0988 44.8892 68.6623 45.2761 68.1548 45.5468C67.6474 45.8175 67.0833 45.9643 66.5085 45.9751H66.273L57.0646 45.1491L58.8073 44.4646L66.3436 45.1491H66.5085C66.9465 45.1364 67.3759 45.0235 67.7636 44.8189C68.1514 44.6144 68.4874 44.3237 68.7458 43.969L83.2532 20.3678C83.4281 20.1531 83.5511 19.9008 83.6124 19.6305C83.6737 19.3603 83.6716 19.0795 83.6064 18.8101C83.5236 18.7024 83.4163 18.6162 83.2933 18.5587C83.1704 18.5012 83.0355 18.4741 82.8999 18.4797L78.7785 18.2909L78.4959 17.4648L82.9235 17.6537C84.5014 17.7481 84.9724 19.1877 83.9597 20.8162Z" fill="#575756"/>
<path d="M92.9554 93.1539H125.927C127.388 93.1539 128.79 92.572 129.823 91.5363C130.857 90.5006 131.438 89.0959 131.438 87.6312V19.1876C131.438 18.1235 131.016 17.103 130.265 16.3506C129.514 15.5981 128.496 15.1754 127.434 15.1754H94.2978C93.5198 15.1689 92.7567 15.3883 92.1005 15.8071C91.4443 16.226 90.9233 16.8263 90.6003 17.5356L79.6491 42.8125C78.9207 44.4629 78.5438 46.2473 78.5422 48.0519V69.293C78.5439 71.2333 79.1718 73.1209 80.3321 74.6741C83.0118 78.5476 84.886 82.9221 85.843 87.5368C86.2247 89.1386 87.1345 90.5645 88.4252 91.5839C89.7159 92.6033 91.312 93.1564 92.9554 93.1539ZM127.528 16.0251C128.371 16.0251 129.18 16.3608 129.776 16.9583C130.372 17.5558 130.707 18.3662 130.707 19.2112V87.6548C130.707 88.9067 130.211 90.1073 129.328 90.9925C128.445 91.8777 127.246 92.375 125.997 92.375H93.026C91.5682 92.378 90.1521 91.8879 89.0067 90.9842C87.8613 90.0805 87.0536 88.816 86.7144 87.3952C85.7306 82.6699 83.8084 78.1913 81.0622 74.2257C80.0012 72.8195 79.4303 71.1031 79.4372 69.3402V48.0991C79.4374 46.4083 79.7904 44.7362 80.4734 43.1901L91.3539 17.9368C91.6083 17.3675 92.0216 16.8842 92.5439 16.545C93.0663 16.2058 93.6753 16.0252 94.2978 16.0251H127.528Z" fill="#555555"/>
<path d="M255.952 91.6436C255.949 91.8637 255.989 92.0822 256.07 92.2867C256.151 92.4912 256.272 92.6777 256.425 92.8355C256.578 92.9933 256.76 93.1193 256.962 93.2064C257.164 93.2934 257.381 93.3398 257.6 93.3429H264.03C264.574 93.3277 265.101 93.1484 265.542 92.8285C265.983 92.5085 266.318 92.0627 266.503 91.5492L267.845 87.7494C268.222 86.7346 267.138 86.0737 266.243 86.0737H260.78C259.505 86.1108 258.297 86.6491 257.415 87.5721C256.534 88.4952 256.05 89.7289 256.07 91.0064L255.952 91.6436Z" fill="#DADADA"/>
<path d="M6.42969 94.5937C6.40177 94.9703 6.2383 95.3239 5.96971 95.5887C5.70112 95.8535 5.34571 96.0116 4.96954 96.0334H2.77929C2.38704 96.0128 2.00299 95.9131 1.65008 95.7402C1.29718 95.5674 0.982706 95.325 0.725456 95.0276C0.468206 94.7301 0.273477 94.3837 0.152927 94.009C0.0323762 93.6344 -0.0115383 93.2393 0.0238453 92.8472L0.400668 85.4129C0.400668 84.7869 0.648791 84.1866 1.09046 83.744C1.53212 83.3014 2.13115 83.0527 2.75576 83.0527L5.11084 83.1707C5.72317 83.1707 6.14708 83.7608 6.17063 84.5632L6.42969 94.5937Z" fill="#575756"/>
<path d="M3.7912 92.2809H11.6336C11.8409 92.2891 12.0475 92.2522 12.2392 92.1728C12.4309 92.0934 12.6032 91.9733 12.7442 91.8208C12.8852 91.6683 12.9915 91.487 13.056 91.2894C13.1204 91.0917 13.1413 90.8825 13.1173 90.676L12.8112 87.7023C12.7539 87.3209 12.5594 86.9736 12.2645 86.7259C11.9696 86.4781 11.5944 86.3469 11.2097 86.357H4.14445C3.75973 86.3469 3.3846 86.4781 3.08966 86.7259C2.79472 86.9736 2.60032 87.3209 2.54301 87.7023L2.23684 90.676C2.21145 90.8888 2.23377 91.1046 2.3022 91.3076C2.37064 91.5107 2.48344 91.6958 2.63238 91.8496C2.78132 92.0034 2.96268 92.1219 3.16315 92.1965C3.36363 92.2711 3.5782 92.3 3.7912 92.2809Z" fill="#DADADA"/>
<path d="M139.067 51.1201H146.015C146.99 51.1201 147.781 51.9126 147.781 52.8902V54.0231C147.781 55.0007 146.99 55.7932 146.015 55.7932H139.067C138.092 55.7932 137.301 55.0007 137.301 54.0231V52.8902C137.301 51.9126 138.092 51.1201 139.067 51.1201Z" fill="#575756"/>
<path d="M138.08 53.0319C138.08 53.5512 143.073 53.9996 145.734 53.9996C148.395 53.9996 148.089 53.5512 148.089 53.0319C148.089 52.5127 148.277 52.0879 145.734 52.0879C143.19 52.0879 138.08 52.6071 138.08 53.0319Z" fill="#EDEDED"/>
<path d="M86.2666 51.1201H93.2142C94.1897 51.1201 94.9805 51.9126 94.9805 52.8902V54.0231C94.9805 55.0007 94.1897 55.7932 93.2142 55.7932H86.2666C85.2911 55.7932 84.5003 55.0007 84.5003 54.0231V52.8902C84.5003 51.9126 85.2911 51.1201 86.2666 51.1201Z" fill="#575756"/>
<path d="M85.3006 53.0319C85.3006 53.5512 90.2698 53.9996 92.9311 53.9996C95.5923 53.9996 95.2862 53.5512 95.2862 53.0319C95.2862 52.5127 95.4746 52.0879 92.9311 52.0879C90.3876 52.0879 85.3006 52.6071 85.3006 53.0319Z" fill="#EDEDED"/>
<path d="M252.913 74.8158C252.913 75.16 253.05 75.4902 253.293 75.7336C253.535 75.9771 253.865 76.1138 254.208 76.1138H263.323C263.461 76.1143 263.598 76.0851 263.724 76.0281C263.849 75.9711 263.962 75.8876 264.053 75.7834C264.147 75.684 264.217 75.5642 264.258 75.4332C264.299 75.3023 264.309 75.1637 264.288 75.0282L263.393 68.1366C263.364 67.8884 263.245 67.6596 263.058 67.4941C262.871 67.3287 262.63 67.2381 262.381 67.2398H254.067C253.761 67.2398 253.468 67.3616 253.251 67.5785C253.035 67.7954 252.913 68.0895 252.913 68.3962V74.8158Z" fill="#EDEDED"/>
<path d="M258.425 71.7243C258.425 73.9192 259.484 75.6893 260.78 75.6893C262.075 75.6893 263.135 73.9192 263.135 71.7243C263.135 69.5294 262.075 67.7593 260.78 67.7593C259.484 67.7593 258.425 69.5294 258.425 71.7243Z" fill="#FFE091"/>
<path d="M254.467 71.9131C254.467 73.9192 255.291 75.5477 256.304 75.5477C257.316 75.5477 258.141 73.9192 258.141 71.9131C258.141 69.907 257.316 68.2549 256.304 68.2549C255.291 68.2549 254.467 69.8834 254.467 71.9131Z" fill="#FFE091"/>
<path opacity="0.7" d="M260.778 71.6767C260.778 73.376 261.202 74.7685 261.72 74.7685C262.238 74.7685 262.662 73.376 262.662 71.6767C262.662 69.9774 262.238 68.585 261.72 68.585C261.202 68.585 260.778 69.9538 260.778 71.6767Z" fill="white"/>
<path opacity="0.7" d="M255.881 71.9127C255.881 73.4468 256.329 74.7213 256.87 74.7213C257.412 74.7213 257.836 73.4468 257.836 71.9127C257.836 70.3786 257.412 69.0806 256.87 69.0806C256.329 69.0806 255.881 70.355 255.881 71.9127Z" fill="white"/>
<path d="M259.648 82.038C259.645 82.1175 259.658 82.1968 259.686 82.2711C259.714 82.3454 259.757 82.4133 259.812 82.4706C259.867 82.5279 259.933 82.5735 260.006 82.6046C260.079 82.6357 260.158 82.6517 260.237 82.6517H263.722C263.947 82.6517 264.163 82.5622 264.322 82.4028C264.481 82.2435 264.57 82.0274 264.57 81.802V79.7723C264.57 79.572 264.491 79.3799 264.35 79.2383C264.208 79.0967 264.017 79.0171 263.817 79.0171H260.378C260.185 79.0171 259.999 79.0942 259.862 79.2314C259.725 79.3686 259.648 79.5547 259.648 79.7487V82.038Z" fill="#FFD364"/>
<path d="M13.1406 74.6743C13.1406 75.1312 12.9595 75.5694 12.6371 75.8925C12.3146 76.2156 11.8773 76.3972 11.4214 76.3972H7.13514C6.35796 76.3972 6.40507 75.6655 6.40507 74.9103V69.128C6.40507 68.2547 6.40505 67.6411 7.29998 67.6411H10.762C11.3866 67.6411 11.9856 67.8898 12.4273 68.3324C12.8689 68.775 13.1171 69.3753 13.1171 70.0012L13.1406 74.6743Z" fill="#FF0019"/>
<path d="M7.25393 77.105H10.0565C10.7458 77.105 11.3047 77.665 11.3047 78.3559V79.9135C11.3047 80.6044 10.7458 81.1644 10.0565 81.1644H7.25393C6.56457 81.1644 6.00574 80.6044 6.00574 79.9135V78.3559C6.00574 77.665 6.56457 77.105 7.25393 77.105Z" fill="#FFD364"/>
<path d="M209.061 56.5249H213.018V60.4899H209.061V56.5249Z" fill="#3C3C3B"/>
<path d="M201.149 56.5249H205.105V60.4899H201.149V56.5249Z" fill="#3C3C3B"/>
<path d="M193.258 56.5249H197.215V60.4899H193.258V56.5249Z" fill="#3C3C3B"/>
<path d="M205.104 60.4663H209.061V64.4313H205.104V60.4663Z" fill="#3C3C3B"/>
<path d="M197.215 60.4663H201.172V64.4313H197.215V60.4663Z" fill="#3C3C3B"/>
<path d="M64.7173 56.5249H68.6738V60.4899H64.7173V56.5249Z" fill="#3C3C3B"/>
<path d="M56.8286 56.5249H60.7852V60.4899H56.8286V56.5249Z" fill="#3C3C3B"/>
<path d="M48.938 56.5249H52.8945V60.4899H48.938V56.5249Z" fill="#3C3C3B"/>
<path d="M60.7622 60.4663H64.7188V64.4313H60.7622V60.4663Z" fill="#3C3C3B"/>
<path d="M52.8716 60.4663H56.8281V64.4313H52.8716V60.4663Z" fill="#3C3C3B"/>
<path opacity="0.7" d="M256.281 61.4574C257.317 55.9583 199.594 48.6655 199.594 48.6655L256.281 61.4574Z" fill="white"/>
<path opacity="0.7" d="M144.344 66.0836C138.761 62.3293 132.225 60.2496 125.503 60.0889H80.7564L144.344 66.0836Z" fill="white"/>
<path opacity="0.7" d="M226.724 68.2549C241.937 69.1281 249.827 76.6805 252.912 88.5755C246.789 77.601 238.428 70.2374 226.724 68.2549Z" fill="white"/>
<path opacity="0.7" d="M54.5438 68.2549C69.7342 69.1281 77.6473 76.6805 80.7324 88.5755C74.6092 77.601 66.2486 70.2374 54.5438 68.2549Z" fill="white"/>
<path opacity="0.7" d="M186.428 42.4822C186.654 42.9722 187.017 43.3865 187.472 43.6753C187.928 43.9641 188.456 44.1153 188.995 44.1107H190.408L175.736 19.707L186.428 42.4822Z" fill="white"/>
<path opacity="0.7" d="M141.188 19.707H166.082C166.507 19.7085 166.923 19.8343 167.279 20.069C167.635 20.3038 167.914 20.6373 168.083 21.0287L177.928 44.1107C166.576 29.5723 154.33 21.3119 141.188 19.707Z" fill="white"/>
<path opacity="0.7" d="M126.539 44.1107V21.5715C126.539 21.3267 126.491 21.0842 126.397 20.858C126.304 20.6318 126.167 20.4263 125.994 20.2531C125.821 20.08 125.616 19.9427 125.391 19.849C125.165 19.7553 124.923 19.707 124.679 19.707H97.8305C112.197 20.2499 121.546 28.7463 126.539 44.1107Z" fill="white"/>
<path opacity="0.7" d="M68.0385 43.7097L82.0277 21.0761C82.3457 20.5954 82.5917 20.0706 82.7578 19.5184C82.7578 18.9756 81.9335 18.9756 81.5803 18.9756L79.2252 18.834C79.2958 22.3978 74.0675 32.5463 68.0385 43.7097Z" fill="white"/>
<path d="M6.73539 72.0071C6.73539 73.7772 7.41836 75.1933 8.24264 75.1933C9.06693 75.1933 9.77344 73.7772 9.77344 72.0071C9.77344 70.237 9.09048 68.7974 8.24264 68.7974C7.39481 68.7974 6.73539 70.237 6.73539 72.0071Z" fill="#FF8F9A"/>
<path d="M11.3037 74.0604C10.7444 74.0604 10.291 73.12 10.291 71.9599C10.291 70.7998 10.7444 69.8594 11.3037 69.8594C11.863 69.8594 12.3164 70.7998 12.3164 71.9599C12.3164 73.12 11.863 74.0604 11.3037 74.0604Z" fill="#FF8F9A"/>
<path d="M178.492 38.4466C178.512 38.3341 178.559 38.2281 178.628 38.1377C178.698 38.0472 178.788 37.9751 178.892 37.9273C178.99 37.8756 179.099 37.8486 179.21 37.8486C179.321 37.8486 179.43 37.8756 179.528 37.9273C180.883 38.718 181.945 39.9272 182.556 41.3738C183.168 42.8204 183.295 44.4266 182.919 45.9517C182.711 47.3896 182.087 48.7348 181.125 49.8212C180.162 50.9076 178.903 51.6874 177.503 52.0644C177.322 52.1 177.135 52.0906 176.958 52.0371C176.782 51.9836 176.621 51.8877 176.49 51.7576C176.352 51.6313 176.25 51.4714 176.192 51.2936C176.134 51.1158 176.123 50.9261 176.16 50.7428L178.492 38.4466Z" fill="#6D6D6D"/>
</g>
<defs>
<clipPath id="clip0_276_1575">
<rect width="271" height="116" fill="white" transform="matrix(-1 0 0 1 271 0)"/>
</clipPath>
</defs>
</svg>
