<svg width="592" height="303" viewBox="0 0 592 303" fill="none" xmlns="http://www.w3.org/2000/svg">
<path d="M449.367 182.769C460.722 183.915 470.272 185.19 477.653 186.565L477.16 188.994L479.61 189.491C484.36 190.456 487.892 191.438 490.187 192.4C491.056 192.763 491.665 193.091 492.071 193.363C491.665 193.635 491.056 193.962 490.187 194.326C487.892 195.288 484.36 196.27 479.61 197.234L477.16 197.732L477.653 200.161C470.272 201.535 460.722 202.811 449.367 203.956L449.126 201.473L446.638 201.714C436.741 202.675 425.538 203.54 413.254 204.291L410.759 204.444L410.911 206.937C401.927 207.468 392.391 207.94 382.39 208.343L382.293 205.846L379.795 205.944C369.107 206.359 357.901 206.698 346.281 206.951L343.781 207.005L343.836 209.503C334.561 209.694 325.03 209.831 315.294 209.91L315.276 207.411L312.776 207.428C307.246 207.467 301.65 207.487 296 207.487C290.35 207.487 284.754 207.467 279.224 207.428L276.724 207.411L276.706 209.91C266.97 209.831 257.439 209.694 248.164 209.503L248.219 207.005L245.719 206.951C234.099 206.698 222.893 206.359 212.205 205.944L209.707 205.846L209.61 208.343C199.609 207.94 190.073 207.468 181.089 206.937L181.241 204.444L178.746 204.291C166.462 203.54 155.259 202.675 145.362 201.714L142.874 201.473L142.633 203.956C131.278 202.811 121.728 201.535 114.347 200.161L114.84 197.732L112.39 197.234C107.64 196.27 104.108 195.288 101.813 194.326C100.944 193.962 100.335 193.635 99.9293 193.363C100.335 193.091 100.944 192.763 101.813 192.4C104.108 191.438 107.64 190.456 112.39 189.491L114.84 188.994L114.347 186.565C121.728 185.19 131.278 183.915 142.633 182.769L142.874 185.253L145.362 185.011C155.259 184.051 166.462 183.185 178.746 182.434L181.241 182.282L181.089 179.789C190.073 179.257 199.609 178.786 209.61 178.383L209.707 180.879L212.205 180.782C222.893 180.366 234.099 180.028 245.719 179.775L248.219 179.72L248.164 177.222C257.439 177.031 266.97 176.894 276.706 176.816L276.724 179.315L279.224 179.297C284.754 179.259 290.35 179.239 296 179.239C301.65 179.239 307.246 179.259 312.776 179.297L315.276 179.315L315.294 176.816C325.03 176.894 334.561 177.031 343.836 177.222L343.781 179.72L346.281 179.775C357.901 180.028 369.107 180.366 379.795 180.782L382.293 180.879L382.39 178.383C392.391 178.786 401.927 179.257 410.911 179.789L410.759 182.282L413.254 182.434C425.538 183.185 436.741 184.051 446.638 185.011L449.126 185.253L449.367 182.769ZM492.611 193.814C492.611 193.814 492.607 193.809 492.601 193.8C492.609 193.809 492.612 193.814 492.611 193.814ZM492.611 192.912C492.612 192.912 492.609 192.916 492.601 192.926C492.607 192.916 492.611 192.912 492.611 192.912ZM99.3888 192.912C99.3892 192.912 99.3931 192.916 99.3992 192.926C99.3914 192.916 99.3883 192.912 99.3888 192.912ZM99.3888 193.814C99.3883 193.814 99.3914 193.809 99.3992 193.8C99.3931 193.809 99.3892 193.814 99.3888 193.814Z" stroke="url(#paint0_linear_339_43)" stroke-width="5" stroke-linecap="square" stroke-dasharray="37 37"/>
<g filter="url(#filter0_f_339_43)">
<ellipse cx="296" cy="151.435" rx="179.346" ry="35.435" fill="#5E5E5E" fill-opacity="0.3"/>
</g>
<defs>
<filter id="filter0_f_339_43" x="0.654297" y="0" width="590.691" height="302.87" filterUnits="userSpaceOnUse" color-interpolation-filters="sRGB">
<feFlood flood-opacity="0" result="BackgroundImageFix"/>
<feBlend mode="normal" in="SourceGraphic" in2="BackgroundImageFix" result="shape"/>
<feGaussianBlur stdDeviation="58" result="effect1_foregroundBlur_339_43"/>
</filter>
<linearGradient id="paint0_linear_339_43" x1="296" y1="176.739" x2="296" y2="209.987" gradientUnits="userSpaceOnUse">
<stop offset="0.213542" stop-color="#FED04D" stop-opacity="0"/>
<stop offset="1" stop-color="#FED04D"/>
</linearGradient>
</defs>
</svg>
