<svg width="238" height="205" viewBox="0 0 238 205" fill="none" xmlns="http://www.w3.org/2000/svg">
<path d="M46.1245 191.858V178.448H51.7765C52.6165 178.448 53.3425 178.598 53.9545 178.898C54.5665 179.186 55.0345 179.606 55.3585 180.158C55.6825 180.698 55.8445 181.34 55.8445 182.084C55.8445 182.732 55.6765 183.326 55.3405 183.866C55.0165 184.394 54.5065 184.814 53.8105 185.126V184.226C54.4225 184.466 54.9205 184.772 55.3045 185.144C55.6885 185.504 55.9645 185.912 56.1325 186.368C56.3125 186.824 56.4025 187.304 56.4025 187.808C56.4025 189.068 55.9885 190.058 55.1605 190.778C54.3445 191.498 53.2225 191.858 51.7945 191.858H46.1245ZM48.2485 189.968H51.9565C52.6645 189.968 53.2285 189.776 53.6485 189.392C54.0685 188.996 54.2785 188.474 54.2785 187.826C54.2785 187.166 54.0685 186.644 53.6485 186.26C53.2285 185.864 52.6645 185.666 51.9565 185.666H48.2485V189.968ZM48.2485 183.794H51.8305C52.4065 183.794 52.8685 183.632 53.2165 183.308C53.5645 182.972 53.7385 182.534 53.7385 181.994C53.7385 181.454 53.5645 181.034 53.2165 180.734C52.8685 180.434 52.4065 180.284 51.8305 180.284H48.2485V183.794ZM63.3214 192.074C62.3494 192.074 61.4854 191.852 60.7294 191.408C59.9854 190.952 59.4034 190.34 58.9834 189.572C58.5634 188.792 58.3534 187.922 58.3534 186.962C58.3534 185.978 58.5634 185.108 58.9834 184.352C59.4154 183.596 59.9914 183.002 60.7114 182.57C61.4314 182.126 62.2474 181.904 63.1594 181.904C63.8914 181.904 64.5454 182.03 65.1214 182.282C65.6974 182.534 66.1834 182.882 66.5794 183.326C66.9754 183.758 67.2754 184.256 67.4794 184.82C67.6954 185.384 67.8034 185.984 67.8034 186.62C67.8034 186.776 67.7974 186.938 67.7854 187.106C67.7734 187.274 67.7494 187.43 67.7134 187.574H59.9554V185.954H66.5614L65.5894 186.692C65.7094 186.104 65.6674 185.582 65.4634 185.126C65.2714 184.658 64.9714 184.292 64.5634 184.028C64.1674 183.752 63.6994 183.614 63.1594 183.614C62.6194 183.614 62.1394 183.752 61.7194 184.028C61.2994 184.292 60.9754 184.676 60.7474 185.18C60.5194 185.672 60.4294 186.272 60.4774 186.98C60.4174 187.64 60.5074 188.216 60.7474 188.708C60.9994 189.2 61.3474 189.584 61.7914 189.86C62.2474 190.136 62.7634 190.274 63.3394 190.274C63.9274 190.274 64.4254 190.142 64.8334 189.878C65.2534 189.614 65.5834 189.272 65.8234 188.852L67.4794 189.662C67.2874 190.118 66.9874 190.532 66.5794 190.904C66.1834 191.264 65.7034 191.552 65.1394 191.768C64.5874 191.972 63.9814 192.074 63.3214 192.074ZM70.1484 191.858V182.12H72.0924V184.082L71.9124 183.794C72.1284 183.158 72.4764 182.702 72.9564 182.426C73.4364 182.138 74.0124 181.994 74.6844 181.994H75.2784V183.848H74.4324C73.7604 183.848 73.2144 184.058 72.7944 184.478C72.3864 184.886 72.1824 185.474 72.1824 186.242V191.858H70.1484ZM77.0299 191.858V182.12H79.0639V191.858H77.0299ZM77.0299 180.788V178.448H79.0639V180.788H77.0299ZM86.014 191.966C84.994 191.966 84.202 191.678 83.638 191.102C83.074 190.526 82.792 189.716 82.792 188.672V183.956H81.082V182.12H81.352C81.808 182.12 82.162 181.988 82.414 181.724C82.666 181.46 82.792 181.1 82.792 180.644V179.888H84.826V182.12H87.04V183.956H84.826V188.582C84.826 188.918 84.88 189.206 84.988 189.446C85.096 189.674 85.27 189.854 85.51 189.986C85.75 190.106 86.062 190.166 86.446 190.166C86.542 190.166 86.65 190.16 86.77 190.148C86.89 190.136 87.004 190.124 87.112 190.112V191.858C86.944 191.882 86.758 191.906 86.554 191.93C86.35 191.954 86.17 191.966 86.014 191.966ZM92.2851 192.074C91.6251 192.074 91.0431 191.96 90.5391 191.732C90.0471 191.492 89.6631 191.168 89.3871 190.76C89.1111 190.34 88.9731 189.848 88.9731 189.284C88.9731 188.756 89.0871 188.282 89.3151 187.862C89.5551 187.442 89.9211 187.088 90.4131 186.8C90.9051 186.512 91.5231 186.308 92.2671 186.188L95.6511 185.63V187.232L92.6631 187.754C92.1231 187.85 91.7271 188.024 91.4751 188.276C91.2231 188.516 91.0971 188.828 91.0971 189.212C91.0971 189.584 91.2351 189.89 91.5111 190.13C91.7991 190.358 92.1651 190.472 92.6091 190.472C93.1611 190.472 93.6411 190.352 94.0491 190.112C94.4691 189.872 94.7931 189.554 95.0211 189.158C95.2491 188.75 95.3631 188.3 95.3631 187.808V185.306C95.3631 184.826 95.1831 184.436 94.8231 184.136C94.4751 183.824 94.0071 183.668 93.4191 183.668C92.8791 183.668 92.4051 183.812 91.9971 184.1C91.6011 184.376 91.3071 184.736 91.1151 185.18L89.4231 184.334C89.6031 183.854 89.8971 183.434 90.3051 183.074C90.7131 182.702 91.1871 182.414 91.7271 182.21C92.2791 182.006 92.8611 181.904 93.4731 181.904C94.2411 181.904 94.9191 182.048 95.5071 182.336C96.1071 182.624 96.5691 183.026 96.8931 183.542C97.2291 184.046 97.3971 184.634 97.3971 185.306V191.858H95.4531V190.094L95.8671 190.148C95.6391 190.544 95.3451 190.886 94.9851 191.174C94.6371 191.462 94.2351 191.684 93.7791 191.84C93.3351 191.996 92.8371 192.074 92.2851 192.074ZM106.216 191.858V180.338H102.652V178.448H111.832V180.338H108.322V191.858H106.216ZM116.888 192.074C115.916 192.074 115.052 191.852 114.296 191.408C113.552 190.952 112.97 190.34 112.55 189.572C112.13 188.792 111.92 187.922 111.92 186.962C111.92 185.978 112.13 185.108 112.55 184.352C112.982 183.596 113.558 183.002 114.278 182.57C114.998 182.126 115.814 181.904 116.726 181.904C117.458 181.904 118.112 182.03 118.688 182.282C119.264 182.534 119.75 182.882 120.146 183.326C120.542 183.758 120.842 184.256 121.046 184.82C121.262 185.384 121.37 185.984 121.37 186.62C121.37 186.776 121.364 186.938 121.352 187.106C121.34 187.274 121.316 187.43 121.28 187.574H113.522V185.954H120.128L119.156 186.692C119.276 186.104 119.234 185.582 119.03 185.126C118.838 184.658 118.538 184.292 118.13 184.028C117.734 183.752 117.266 183.614 116.726 183.614C116.186 183.614 115.706 183.752 115.286 184.028C114.866 184.292 114.542 184.676 114.314 185.18C114.086 185.672 113.996 186.272 114.044 186.98C113.984 187.64 114.074 188.216 114.314 188.708C114.566 189.2 114.914 189.584 115.358 189.86C115.814 190.136 116.33 190.274 116.906 190.274C117.494 190.274 117.992 190.142 118.4 189.878C118.82 189.614 119.15 189.272 119.39 188.852L121.046 189.662C120.854 190.118 120.554 190.532 120.146 190.904C119.75 191.264 119.27 191.552 118.706 191.768C118.154 191.972 117.548 192.074 116.888 192.074ZM123.715 191.858V182.12H125.659V184.082L125.479 183.794C125.695 183.158 126.043 182.702 126.523 182.426C127.003 182.138 127.579 181.994 128.251 181.994H128.845V183.848H127.999C127.327 183.848 126.781 184.058 126.361 184.478C125.953 184.886 125.749 185.474 125.749 186.242V191.858H123.715ZM134.071 192.074C133.339 192.074 132.697 191.912 132.145 191.588C131.593 191.252 131.161 190.79 130.849 190.202C130.549 189.602 130.399 188.912 130.399 188.132V182.12H132.433V187.952C132.433 188.396 132.523 188.786 132.703 189.122C132.883 189.458 133.135 189.722 133.459 189.914C133.783 190.094 134.155 190.184 134.575 190.184C135.007 190.184 135.385 190.088 135.709 189.896C136.033 189.704 136.285 189.434 136.465 189.086C136.657 188.738 136.753 188.33 136.753 187.862V182.12H138.769V191.858H136.843V189.95L137.059 190.202C136.831 190.802 136.453 191.264 135.925 191.588C135.397 191.912 134.779 192.074 134.071 192.074ZM141.504 195.458V182.12H143.448V184.136L143.214 183.668C143.574 183.116 144.054 182.684 144.654 182.372C145.254 182.06 145.938 181.904 146.706 181.904C147.63 181.904 148.458 182.126 149.19 182.57C149.934 183.014 150.516 183.62 150.936 184.388C151.368 185.156 151.584 186.02 151.584 186.98C151.584 187.94 151.368 188.804 150.936 189.572C150.516 190.34 149.94 190.952 149.208 191.408C148.476 191.852 147.642 192.074 146.706 192.074C145.95 192.074 145.26 191.918 144.636 191.606C144.024 191.294 143.55 190.844 143.214 190.256L143.538 189.878V195.458H141.504ZM146.508 190.184C147.084 190.184 147.594 190.046 148.038 189.77C148.482 189.494 148.83 189.116 149.082 188.636C149.346 188.144 149.478 187.592 149.478 186.98C149.478 186.368 149.346 185.822 149.082 185.342C148.83 184.862 148.482 184.484 148.038 184.208C147.594 183.932 147.084 183.794 146.508 183.794C145.944 183.794 145.434 183.932 144.978 184.208C144.534 184.484 144.18 184.862 143.916 185.342C143.664 185.822 143.538 186.368 143.538 186.98C143.538 187.592 143.664 188.144 143.916 188.636C144.18 189.116 144.534 189.494 144.978 189.77C145.434 190.046 145.944 190.184 146.508 190.184ZM158.422 192.074C157.486 192.074 156.646 191.852 155.902 191.408C155.17 190.952 154.588 190.34 154.156 189.572C153.736 188.804 153.526 187.94 153.526 186.98C153.526 186.02 153.742 185.156 154.174 184.388C154.606 183.62 155.188 183.014 155.92 182.57C156.652 182.126 157.48 181.904 158.404 181.904C159.184 181.904 159.874 182.06 160.474 182.372C161.074 182.684 161.548 183.116 161.896 183.668L161.59 184.136V178.232H163.606V191.858H161.68V189.878L161.914 190.256C161.578 190.844 161.098 191.294 160.474 191.606C159.85 191.918 159.166 192.074 158.422 192.074ZM158.62 190.184C159.184 190.184 159.688 190.046 160.132 189.77C160.588 189.494 160.942 189.116 161.194 188.636C161.458 188.144 161.59 187.592 161.59 186.98C161.59 186.368 161.458 185.822 161.194 185.342C160.942 184.862 160.588 184.484 160.132 184.208C159.688 183.932 159.184 183.794 158.62 183.794C158.056 183.794 157.546 183.932 157.09 184.208C156.634 184.484 156.28 184.862 156.028 185.342C155.776 185.822 155.65 186.368 155.65 186.98C155.65 187.592 155.776 188.144 156.028 188.636C156.28 189.116 156.628 189.494 157.072 189.77C157.528 190.046 158.044 190.184 158.62 190.184ZM169.257 192.074C168.597 192.074 168.015 191.96 167.511 191.732C167.019 191.492 166.635 191.168 166.359 190.76C166.083 190.34 165.945 189.848 165.945 189.284C165.945 188.756 166.059 188.282 166.287 187.862C166.527 187.442 166.893 187.088 167.385 186.8C167.877 186.512 168.495 186.308 169.239 186.188L172.623 185.63V187.232L169.635 187.754C169.095 187.85 168.699 188.024 168.447 188.276C168.195 188.516 168.069 188.828 168.069 189.212C168.069 189.584 168.207 189.89 168.483 190.13C168.771 190.358 169.137 190.472 169.581 190.472C170.133 190.472 170.613 190.352 171.021 190.112C171.441 189.872 171.765 189.554 171.993 189.158C172.221 188.75 172.335 188.3 172.335 187.808V185.306C172.335 184.826 172.155 184.436 171.795 184.136C171.447 183.824 170.979 183.668 170.391 183.668C169.851 183.668 169.377 183.812 168.969 184.1C168.573 184.376 168.279 184.736 168.087 185.18L166.395 184.334C166.575 183.854 166.869 183.434 167.277 183.074C167.685 182.702 168.159 182.414 168.699 182.21C169.251 182.006 169.833 181.904 170.445 181.904C171.213 181.904 171.891 182.048 172.479 182.336C173.079 182.624 173.541 183.026 173.865 183.542C174.201 184.046 174.369 184.634 174.369 185.306V191.858H172.425V190.094L172.839 190.148C172.611 190.544 172.317 190.886 171.957 191.174C171.609 191.462 171.207 191.684 170.751 191.84C170.307 191.996 169.809 192.074 169.257 192.074ZM181.143 191.966C180.123 191.966 179.331 191.678 178.767 191.102C178.203 190.526 177.921 189.716 177.921 188.672V183.956H176.211V182.12H176.481C176.937 182.12 177.291 181.988 177.543 181.724C177.795 181.46 177.921 181.1 177.921 180.644V179.888H179.955V182.12H182.169V183.956H179.955V188.582C179.955 188.918 180.009 189.206 180.117 189.446C180.225 189.674 180.399 189.854 180.639 189.986C180.879 190.106 181.191 190.166 181.575 190.166C181.671 190.166 181.779 190.16 181.899 190.148C182.019 190.136 182.133 190.124 182.241 190.112V191.858C182.073 191.882 181.887 191.906 181.683 191.93C181.479 191.954 181.299 191.966 181.143 191.966ZM188.982 192.074C188.01 192.074 187.146 191.852 186.39 191.408C185.646 190.952 185.064 190.34 184.644 189.572C184.224 188.792 184.014 187.922 184.014 186.962C184.014 185.978 184.224 185.108 184.644 184.352C185.076 183.596 185.652 183.002 186.372 182.57C187.092 182.126 187.908 181.904 188.82 181.904C189.552 181.904 190.206 182.03 190.782 182.282C191.358 182.534 191.844 182.882 192.24 183.326C192.636 183.758 192.936 184.256 193.14 184.82C193.356 185.384 193.464 185.984 193.464 186.62C193.464 186.776 193.458 186.938 193.446 187.106C193.434 187.274 193.41 187.43 193.374 187.574H185.616V185.954H192.222L191.25 186.692C191.37 186.104 191.328 185.582 191.124 185.126C190.932 184.658 190.632 184.292 190.224 184.028C189.828 183.752 189.36 183.614 188.82 183.614C188.28 183.614 187.8 183.752 187.38 184.028C186.96 184.292 186.636 184.676 186.408 185.18C186.18 185.672 186.09 186.272 186.138 186.98C186.078 187.64 186.168 188.216 186.408 188.708C186.66 189.2 187.008 189.584 187.452 189.86C187.908 190.136 188.424 190.274 189 190.274C189.588 190.274 190.086 190.142 190.494 189.878C190.914 189.614 191.244 189.272 191.484 188.852L193.14 189.662C192.948 190.118 192.648 190.532 192.24 190.904C191.844 191.264 191.364 191.552 190.8 191.768C190.248 191.972 189.642 192.074 188.982 192.074Z" fill="white"/>
<g clip-path="url(#clip0_290_1420)">
<path d="M125.179 154.538H123.188L123.852 119.757H124.515L125.179 154.538Z" fill="#E6E6E6"/>
<path d="M126.748 97.8278L129.955 93.3981C129.004 91.0501 127.906 88.7519 126.665 86.5145L124.591 88.0115L126.233 85.7435C124.669 82.9904 123.437 81.2559 123.437 81.2559C123.437 81.2559 117.006 90.3144 114.857 99.9053L118.972 105.59L114.417 102.301C114.255 103.418 114.171 104.543 114.167 105.67C114.167 117.029 118.318 126.237 123.437 126.237C128.557 126.237 132.708 117.029 132.708 105.67C132.708 102.149 131.817 98.4644 130.587 95.0565L126.748 97.8278Z" fill="#FED04D"/>
<path d="M74.7818 154.538H72.792L73.4553 119.757H74.1184L74.7818 154.538Z" fill="#E6E6E6"/>
<path d="M77.0969 97.8278L80.3037 93.3981C79.3527 91.0501 78.2543 88.7519 77.0137 86.5145L74.9401 88.0115L76.582 85.7435C75.0173 82.9904 73.7861 81.2559 73.7861 81.2559C73.7861 81.2559 67.3547 90.3144 65.206 99.9053L69.3211 105.59L64.7656 102.301C64.6033 103.418 64.5198 104.543 64.5156 105.67C64.5156 117.029 68.6661 126.237 73.7861 126.237C78.906 126.237 83.0565 117.029 83.0565 105.67C83.0565 102.149 82.1652 98.4644 80.9357 95.0565L77.0969 97.8278Z" fill="#FED04D"/>
<path d="M99.511 154.43H95.5312L96.8579 82.8916H98.1846L99.511 154.43Z" fill="#E6E6E6"/>
<path d="M102.971 37.787L109.583 28.6534C107.622 23.812 105.357 19.0734 102.799 14.46L98.5236 17.5466L101.909 12.8702C98.6827 7.1937 96.144 3.61719 96.144 3.61719C96.144 3.61719 82.8832 22.295 78.4529 42.0705L86.9377 53.791L77.5446 47.0098C77.2101 49.3135 77.038 51.6336 77.0293 53.9566C77.0293 77.3774 85.5872 96.3637 96.144 96.3637C106.701 96.3637 115.259 77.3774 115.259 53.9566C115.259 46.6959 113.421 39.0996 110.886 32.0728L102.971 37.787Z" fill="#FED04D"/>
<path d="M238 154.332H0V154.869H238V154.332Z" fill="#3F3D56"/>
<path d="M214.209 70.0516C214.308 70.0516 214.406 70.0341 214.498 70.0001C214.59 69.9662 214.673 69.9164 214.743 69.8536C214.814 69.7908 214.869 69.7163 214.907 69.6343C214.945 69.5523 214.965 69.4644 214.965 69.3757V62.1659C214.966 62.0575 214.938 61.9504 214.882 61.8539C214.827 61.7575 214.746 61.6744 214.647 61.612C214.548 61.5496 214.433 61.5096 214.313 61.4956C214.193 61.4815 214.07 61.4938 213.957 61.5314V53.379C213.957 53.0832 213.891 52.7902 213.765 52.5168C213.638 52.2435 213.452 51.9951 213.218 51.7859C212.984 51.5767 212.706 51.4107 212.401 51.2975C212.095 51.1843 211.767 51.126 211.436 51.126H129.008C128.677 51.126 128.349 51.1843 128.043 51.2975C127.738 51.4107 127.46 51.5767 127.226 51.7859C126.992 51.9951 126.806 52.2435 126.679 52.5168C126.552 52.7902 126.487 53.0832 126.487 53.379V152.288C126.487 152.885 126.753 153.458 127.226 153.881C127.698 154.303 128.339 154.541 129.008 154.541H211.436C212.104 154.541 212.746 154.303 213.218 153.881C213.691 153.458 213.957 152.885 213.957 152.288V80.1489C214.07 80.1864 214.193 80.1987 214.313 80.1847C214.433 80.1706 214.548 80.1307 214.647 80.0682C214.746 80.0058 214.827 79.9228 214.882 79.8263C214.938 79.7298 214.966 79.6228 214.965 79.5144V72.3046C214.966 72.1962 214.938 72.0891 214.882 71.9926C214.827 71.8962 214.746 71.8131 214.647 71.7507C214.548 71.6883 214.433 71.6483 214.313 71.6343C214.193 71.6203 214.07 71.6325 213.957 71.6701V70.0102C214.037 70.0368 214.123 70.0508 214.209 70.0516Z" fill="#3F3D56"/>
<path d="M206.394 55.5195C206.725 55.5195 207.053 55.5778 207.359 55.691C207.664 55.8043 207.942 55.9702 208.176 56.1794C208.41 56.3886 208.596 56.637 208.723 56.9104C208.85 57.1837 208.915 57.4767 208.915 57.7726V147.894C208.915 148.492 208.649 149.065 208.176 149.488C207.704 149.91 207.063 150.148 206.394 150.148H134.049C133.381 150.148 132.739 149.91 132.267 149.488C131.794 149.065 131.528 148.492 131.528 147.894V57.7726C131.528 57.175 131.794 56.602 132.267 56.1794C132.739 55.7569 133.381 55.5195 134.049 55.5195H206.394Z" fill="white"/>
<path d="M170.222 54.2805C170.779 54.2805 171.23 53.877 171.23 53.3792C171.23 52.8815 170.779 52.478 170.222 52.478C169.665 52.478 169.214 52.8815 169.214 53.3792C169.214 53.877 169.665 54.2805 170.222 54.2805Z" fill="white"/>
<path d="M200.158 67.3418H138.2V72.8452H200.158V67.3418Z" fill="#FED04D"/>
<path d="M200.158 80.3052H138.2V82.3896H200.158V80.3052Z" fill="#E6E6E6"/>
<path d="M200.158 86.6675H138.2V88.7519H200.158V86.6675Z" fill="#E6E6E6"/>
<path d="M170.214 93.1099H138.2V95.1943H170.214V93.1099Z" fill="#E6E6E6"/>
<path d="M200.158 99.667H138.2V101.751H200.158V99.667Z" fill="#E6E6E6"/>
<path d="M200.158 106.224H138.2V108.309H200.158V106.224Z" fill="#E6E6E6"/>
<path d="M169.141 112.781H138.2V114.866H169.141V112.781Z" fill="#E6E6E6"/>
<path d="M200.158 119.338H138.2V121.423H200.158V119.338Z" fill="#E6E6E6"/>
<path d="M200.158 125.896H138.2V127.98H200.158V125.896Z" fill="#E6E6E6"/>
<path d="M200.232 133.938H180.667V139.688H200.232V133.938Z" fill="#FED04D"/>
<path d="M71.8144 87.6973H71.3737V74.5755C71.3737 72.5526 70.4746 70.6126 68.8743 69.1822C67.2739 67.7518 65.1034 66.9482 62.8402 66.9482H31.5686C30.448 66.9482 29.3383 67.1455 28.303 67.5288C27.2677 67.9121 26.327 68.474 25.5345 69.1822C24.7421 69.8905 24.1136 70.7313 23.6847 71.6567C23.2559 72.5821 23.0352 73.5739 23.0352 74.5755V146.914C23.0352 147.915 23.2559 148.907 23.6847 149.832C24.1136 150.758 24.7421 151.599 25.5345 152.307C26.327 153.015 27.2677 153.577 28.303 153.96C29.3383 154.344 30.448 154.541 31.5686 154.541H62.8402C65.1034 154.541 67.2739 153.737 68.8743 152.307C70.4746 150.876 71.3737 148.936 71.3737 146.914V97.0213H71.8144V87.6973Z" fill="#3F3D56"/>
<path d="M69.4634 74.0522V146.743C69.4634 148.254 68.792 149.703 67.5968 150.771C66.4016 151.839 64.7807 152.44 63.0904 152.44H31.7587C30.0685 152.44 28.4475 151.839 27.2523 150.771C26.0572 149.703 25.3857 148.254 25.3857 146.743V74.0522C25.3857 72.6905 25.9909 71.3846 27.0682 70.4218C28.1455 69.4589 29.6065 68.918 31.13 68.918H35.5536C35.3865 69.2914 35.3121 69.6928 35.3355 70.0944C35.3589 70.4961 35.4796 70.8884 35.6891 71.2443C35.9442 71.6373 36.3055 71.9669 36.7399 72.2029C37.1743 72.4389 37.668 72.5737 38.1758 72.595H56.4046C56.9124 72.5737 57.4062 72.4388 57.8406 72.2028C58.275 71.9669 58.6363 71.6372 58.8914 71.2442C59.1008 70.8883 59.2214 70.496 59.2448 70.0944C59.2682 69.6927 59.1938 69.2914 59.0267 68.918H63.7192C65.2426 68.918 66.7037 69.4589 67.7809 70.4218C68.8582 71.3846 69.4634 72.6905 69.4634 74.0522Z" fill="white"/>
<path d="M105.768 54.323C105.768 54.323 102.444 53.2619 100.308 57.5062C98.1707 61.7505 94.8467 66.4193 94.8467 66.4193L96.7461 66.8437C96.7461 66.8437 97.221 63.8727 98.4081 63.4482L97.9332 67.2681C97.9332 67.2681 112.179 71.7246 118.59 66.8437L118.352 65.3582C118.352 65.3582 119.302 65.5704 119.302 66.8437L120.014 66.207C120.014 66.207 119.302 64.9337 117.165 63.236C115.762 62.1217 115.28 60.0018 115.115 58.6763C114.991 57.5696 114.495 56.5222 113.694 55.6715C112.273 54.2005 109.686 52.637 105.768 54.323Z" fill="#2F2E41"/>
<path d="M86.2471 90.7326L89.3553 94.2685L91.3335 92.2478L89.638 89.7222L86.2471 90.7326Z" fill="#FBBEBE"/>
<path d="M85.1166 145.035L83.9863 150.338L86.812 151.601L88.79 150.338V145.035H85.1166Z" fill="#FBBEBE"/>
<path d="M104.896 145.035L106.027 150.338L103.201 151.601L101.223 150.338V145.035H104.896Z" fill="#FBBEBE"/>
<path d="M93.3108 97.2993L89.3546 122.556L83.7031 145.54L90.4851 146.297L95.854 124.829L102.636 106.644L101.788 128.365L100.375 146.297H105.461L109.135 122.051L113.197 104.024L113.091 97.2993H93.3108Z" fill="#2F2E41"/>
<path d="M85.9644 149.833C85.9644 149.833 84.5515 148.318 83.7038 149.075C82.8561 149.833 80.8781 152.864 80.8781 152.864C80.8781 152.864 76.3569 155.137 80.0303 155.642C83.7038 156.147 84.8341 155.642 84.8341 155.39C84.8341 155.137 85.3992 154.379 85.3992 154.379L86.8121 154.632L88.7901 154.127C88.7901 154.127 89.6378 149.473 88.7901 149.653C87.9424 149.833 86.247 150.591 85.9644 149.833Z" fill="#2F2E41"/>
<path d="M104.049 149.833C104.049 149.833 105.462 148.318 106.31 149.075C107.157 149.833 109.136 152.864 109.136 152.864C109.136 152.864 113.657 155.137 109.983 155.642C106.31 156.147 105.179 155.642 105.179 155.39C105.179 155.137 104.614 154.379 104.614 154.379L103.201 154.632L101.223 154.127C101.223 154.127 100.376 149.473 101.223 149.653C102.071 149.833 103.767 150.591 104.049 149.833Z" fill="#2F2E41"/>
<path d="M106.734 67.3702C109.855 67.3702 112.385 65.1087 112.385 62.3189C112.385 59.5291 109.855 57.2676 106.734 57.2676C103.612 57.2676 101.082 59.5291 101.082 62.3189C101.082 65.1087 103.612 67.3702 106.734 67.3702Z" fill="#FBBEBE"/>
<path d="M110.548 65.4761C110.548 65.4761 109.982 69.7697 110.265 70.78C110.548 71.7902 111.113 73.3056 111.113 73.3056L102.07 71.7902C102.07 71.7902 104.613 66.9915 104.048 66.2338C103.483 65.4761 110.548 65.4761 110.548 65.4761Z" fill="#FBBEBE"/>
<path d="M111.396 71.5375L102.071 69.7695L96.7021 99.0672C99.1222 98.4766 101.687 98.5648 104.049 99.3198C108.005 100.583 113.374 99.3198 113.374 99.3198L112.244 71.7901L111.396 71.5375Z" fill="#FED04D"/>
<path d="M103.97 67.4492L100.658 69.0119L96.4197 69.7696L91.8985 79.3672L92.4636 86.1865C92.4636 86.1865 87.6599 94.016 87.0947 98.3097C87.0947 98.3097 87.6599 104.876 96.9848 104.624L103.201 89.2173C103.201 89.2173 105.745 77.5992 103.201 74.3158C103.201 74.3158 105.022 68.1596 103.97 67.4492Z" fill="#2F2E41"/>
<path d="M98.115 69.7694L97.2 69.6299L96.4195 69.7694C96.4195 69.7694 94.4415 70.022 92.1809 71.7899C89.9203 73.5579 82.2908 79.1144 81.7257 80.6298C81.1605 82.1451 81.4431 84.6708 82.2908 86.1862C83.1385 87.7016 84.834 89.7222 84.834 89.7222L85.6817 91.4901L90.4855 90.2273C90.4855 90.2273 87.3771 84.9234 87.6597 82.6503L93.3112 78.6092L98.115 69.7694Z" fill="#2F2E41"/>
<path d="M110.235 68.5913L114.504 73.3058L116.764 75.8315L113.939 84.4187L112.526 91.7432C112.526 91.7432 115.917 103.361 113.091 106.897C113.091 106.897 111.395 108.665 110.83 106.645C110.265 104.624 110.265 95.0265 110.265 95.0265C110.265 95.0265 108.005 82.3982 109.135 79.1148C110.265 75.8315 109.074 69.1807 110.235 68.5913Z" fill="#2F2E41"/>
<path d="M114.221 105.129V107.655C114.221 107.655 113.656 115.989 116.482 114.979C119.307 113.969 117.329 107.655 117.329 107.655L117.047 104.876L114.221 105.129Z" fill="#FBBEBE"/>
<path d="M100.433 62.5881C102.582 61.1979 104.322 59.5966 105.473 57.6918C105.473 57.6918 109.417 61.6089 111.827 61.8047C114.238 62.0006 112.046 57.1043 112.046 57.1043L107.664 56.125L103.501 56.5167L100.214 58.4752L100.433 62.5881Z" fill="#2F2E41"/>
<path d="M114.504 75.0732L116.764 75.831L117.047 78.3566L118.177 93.7632L117.612 105.381L113.373 105.634L111.96 92.753L111.396 78.6093L114.504 75.0732Z" fill="#2F2E41"/>
<path d="M64.5371 89.5195H30.1895V92.5705H64.5371V89.5195Z" fill="#FED04D"/>
<path d="M64.5371 96.7061H30.1895V97.8616H64.5371V96.7061Z" fill="#E6E6E6"/>
<path d="M64.5371 100.233H30.1895V101.389H64.5371V100.233Z" fill="#E6E6E6"/>
<path d="M47.9369 103.805H30.1895V104.96H47.9369V103.805Z" fill="#E6E6E6"/>
<path d="M64.5371 107.44H30.1895V108.595H64.5371V107.44Z" fill="#E6E6E6"/>
<path d="M64.5371 111.075H30.1895V112.231H64.5371V111.075Z" fill="#E6E6E6"/>
<path d="M47.3425 114.71H30.1895V115.866H47.3425V114.71Z" fill="#E6E6E6"/>
<path d="M64.5371 118.345H30.1895V119.501H64.5371V118.345Z" fill="#E6E6E6"/>
<path d="M64.5371 121.98H30.1895V123.136H64.5371V121.98Z" fill="#E6E6E6"/>
<path d="M64.578 126.439H53.7314V129.626H64.578V126.439Z" fill="#FED04D"/>
<path opacity="0.1" d="M238 108.118C238.005 111.686 237.523 115.241 236.568 118.705C236.246 119.871 235.872 121.013 235.447 122.133C234.925 123.514 234.322 124.868 233.639 126.191C233.295 126.858 232.93 127.514 232.547 128.157C232.553 131.816 231.713 135.437 230.08 138.79C227.127 144.805 221.864 149.669 215.249 152.496C211.107 154.268 206.581 155.199 201.992 155.222H44.6086C37.6058 155.236 30.7236 153.587 24.662 150.442C23.7662 149.976 22.8934 149.481 22.0436 148.955C20.1983 147.811 18.4647 146.529 16.8613 145.123C14.6908 143.218 12.7785 141.091 11.1644 138.784C7.37201 133.383 5.36303 127.129 5.37008 120.746C1.52952 114.702 -0.709961 107.462 -0.709961 99.6817C-0.709961 89.8656 2.84889 80.9112 8.69586 74.1327C9.91484 72.7165 11.2501 71.384 12.6904 70.1463C14.1116 68.9215 15.6391 67.8 17.2586 66.7925C18.5538 65.9848 19.9079 65.2561 21.3119 64.6111C21.8976 64.3421 22.4854 64.0912 23.0833 63.8567C23.6082 63.6477 24.1392 63.4532 24.6762 63.2696C25.3207 63.049 25.9733 62.8472 26.634 62.6643C27.2947 62.4813 27.9466 62.3201 28.5897 62.1807C29.5355 61.9735 30.4975 61.805 31.4757 61.6754C32.2864 61.5681 33.0971 61.4936 33.9077 61.4354C34.5522 61.3942 35.2021 61.37 35.8574 61.3627H36.2121C36.9336 61.3627 37.651 61.3882 38.3624 61.4318C38.4374 61.2973 38.5184 61.1609 38.5934 61.0264C38.8772 60.5429 39.171 60.0594 39.4669 59.5849V59.5722C39.5176 59.4904 39.5683 59.4086 39.621 59.3286C39.8601 58.9414 40.1094 58.5579 40.3648 58.1779C40.4823 57.9962 40.5978 57.8253 40.7174 57.6526C40.7437 57.6108 40.7701 57.5708 40.8005 57.529C40.9221 57.3472 41.0457 57.1654 41.1714 56.9837C41.7969 56.0881 42.4475 55.2065 43.1231 54.3388C43.1818 54.2643 43.2366 54.1915 43.2953 54.1188C43.4007 53.9843 43.498 53.8516 43.6155 53.7189C43.8952 53.3681 44.183 53.0154 44.4728 52.6682C44.6755 52.4228 44.8782 52.1774 45.097 51.9411C45.624 51.3303 46.1651 50.7232 46.7184 50.1233C47.2717 49.5235 47.8554 48.92 48.4451 48.3292C48.5262 48.2474 48.6073 48.1674 48.6924 48.0856L49.5578 47.2403C49.6003 47.2003 49.6368 47.164 49.6773 47.1276C49.7807 47.0276 49.88 46.9277 49.9915 46.8295C50.4556 46.3896 50.9319 45.9551 51.4101 45.5261C53.8532 43.3488 56.4559 41.3205 59.2007 39.4547C59.3081 39.3784 59.4176 39.3057 59.525 39.2329C60.0397 38.8839 60.5626 38.5404 61.0855 38.2023C63.9621 36.3523 66.9685 34.6704 70.086 33.167C70.3008 33.0579 70.5197 32.9543 70.7406 32.8507C73.5363 31.525 76.4111 30.338 79.352 29.2951C80.9544 28.7267 82.5852 28.1959 84.2444 27.7027C85.3428 27.381 86.4453 27.0738 87.562 26.7938C89.2888 26.3491 91.0371 25.9479 92.8071 25.5904C98.0216 24.541 103.326 23.8927 108.664 23.6527C110.285 23.5763 111.925 23.5382 113.583 23.5382C121.582 23.5287 129.55 24.4327 137.295 26.2285C137.375 26.337 137.484 26.4255 137.613 26.4856C137.742 26.5457 137.885 26.5755 138.03 26.572H138.711C139.007 26.6429 139.301 26.7175 139.597 26.7938C141.249 27.2216 142.878 27.6876 144.483 28.1917L144.889 28.3226C148.85 29.5861 152.705 31.1049 156.423 32.8671C159.773 34.4524 163 36.2404 166.08 38.2186C166.554 38.524 167.021 38.8324 167.482 39.1439C168.041 38.8203 168.61 38.5119 169.189 38.2186C171.422 37.0784 173.794 36.1721 176.258 35.5174C181.409 34.1501 186.86 33.9589 192.114 34.9611C198.853 36.2427 204.953 39.4238 209.88 43.9483C211.887 45.7935 213.675 47.821 215.214 49.9979C215.326 50.1542 215.437 50.3124 215.545 50.4723C216.866 52.4056 218 54.4361 218.937 56.5419C218.972 56.6183 219.006 56.6928 219.037 56.7692C219.902 58.7398 220.6 60.7664 221.124 62.8315C221.149 62.9351 221.177 63.0405 221.201 63.146C221.692 65.1445 222.025 67.1715 222.198 69.2119C222.198 69.2846 222.198 69.3592 222.215 69.4337C222.3 70.4892 222.343 71.5563 222.344 72.6348C222.344 73.5983 222.308 74.5544 222.241 75.5015C222.241 75.6051 222.225 75.7142 222.215 75.8196C222.196 76.0959 222.17 76.3649 222.144 76.643C223.692 77.7623 225.14 78.9875 226.477 80.3077C227.067 80.8858 227.639 81.4862 228.191 82.1091C229.875 84.001 231.354 86.0321 232.609 88.1751C236.031 93.9884 238 100.812 238 108.118Z" fill="#FED04D"/>
</g>
<defs>
<clipPath id="clip0_290_1420">
<rect width="238" height="155.858" fill="white"/>
</clipPath>
</defs>
</svg>
