<svg width="238" height="195" viewBox="0 0 238 195" fill="none" xmlns="http://www.w3.org/2000/svg">
<path d="M43.3383 179.919V166.509H45.4623V172.413H51.6723V166.509H53.7783V179.919H51.6723V174.303H45.4623V179.919H43.3383ZM59.6351 180.135C58.9751 180.135 58.3931 180.021 57.8891 179.793C57.3971 179.553 57.0131 179.229 56.7371 178.821C56.4611 178.401 56.3231 177.909 56.3231 177.345C56.3231 176.817 56.4371 176.343 56.6651 175.923C56.9051 175.503 57.2711 175.149 57.7631 174.861C58.2551 174.573 58.8731 174.369 59.6171 174.249L63.0011 173.691V175.293L60.0131 175.815C59.4731 175.911 59.0771 176.085 58.8251 176.337C58.5731 176.577 58.4471 176.889 58.4471 177.273C58.4471 177.645 58.5851 177.951 58.8611 178.191C59.1491 178.419 59.5151 178.533 59.9591 178.533C60.5111 178.533 60.9911 178.413 61.3991 178.173C61.8191 177.933 62.1431 177.615 62.3711 177.219C62.5991 176.811 62.7131 176.361 62.7131 175.869V173.367C62.7131 172.887 62.5331 172.497 62.1731 172.197C61.8251 171.885 61.3571 171.729 60.7691 171.729C60.2291 171.729 59.7551 171.873 59.3471 172.161C58.9511 172.437 58.6571 172.797 58.4651 173.241L56.7731 172.395C56.9531 171.915 57.2471 171.495 57.6551 171.135C58.0631 170.763 58.5371 170.475 59.0771 170.271C59.6291 170.067 60.2111 169.965 60.8231 169.965C61.5911 169.965 62.2691 170.109 62.8571 170.397C63.4571 170.685 63.9191 171.087 64.2431 171.603C64.5791 172.107 64.7471 172.695 64.7471 173.367V179.919H62.8031V178.155L63.2171 178.209C62.9891 178.605 62.6951 178.947 62.3351 179.235C61.9871 179.523 61.5851 179.745 61.1291 179.901C60.6851 180.057 60.1871 180.135 59.6351 180.135ZM67.4853 179.919V170.181H69.4293V172.143L69.2493 171.855C69.4653 171.219 69.8133 170.763 70.2933 170.487C70.7733 170.199 71.3493 170.055 72.0213 170.055H72.6153V171.909H71.7693C71.0973 171.909 70.5513 172.119 70.1313 172.539C69.7233 172.947 69.5193 173.535 69.5193 174.303V179.919H67.4853ZM79.0648 183.879C78.3568 183.879 77.7028 183.765 77.1028 183.537C76.5028 183.309 75.9868 182.991 75.5548 182.583C75.1228 182.187 74.7988 181.719 74.5828 181.179L76.4548 180.405C76.6228 180.861 76.9288 181.239 77.3728 181.539C77.8288 181.839 78.3868 181.989 79.0468 181.989C79.5628 181.989 80.0248 181.887 80.4328 181.683C80.8408 181.491 81.1648 181.203 81.4048 180.819C81.6448 180.447 81.7648 179.997 81.7648 179.469V177.273L82.1248 177.687C81.7888 178.311 81.3208 178.785 80.7208 179.109C80.1328 179.433 79.4668 179.595 78.7228 179.595C77.8228 179.595 77.0128 179.385 76.2928 178.965C75.5728 178.545 75.0028 177.969 74.5828 177.237C74.1748 176.505 73.9708 175.683 73.9708 174.771C73.9708 173.847 74.1748 173.025 74.5828 172.305C75.0028 171.585 75.5668 171.015 76.2748 170.595C76.9828 170.175 77.7928 169.965 78.7048 169.965C79.4488 169.965 80.1088 170.127 80.6848 170.451C81.2728 170.763 81.7528 171.219 82.1248 171.819L81.8548 172.323V170.181H83.7808V179.469C83.7808 180.309 83.5768 181.059 83.1688 181.719C82.7728 182.391 82.2208 182.919 81.5128 183.303C80.8048 183.687 79.9888 183.879 79.0648 183.879ZM78.9568 177.705C79.4968 177.705 79.9768 177.579 80.3968 177.327C80.8168 177.063 81.1468 176.715 81.3868 176.283C81.6388 175.839 81.7648 175.341 81.7648 174.789C81.7648 174.237 81.6388 173.739 81.3868 173.295C81.1348 172.851 80.7988 172.503 80.3788 172.251C79.9588 171.987 79.4848 171.855 78.9568 171.855C78.4048 171.855 77.9128 171.987 77.4808 172.251C77.0488 172.503 76.7068 172.851 76.4548 173.295C76.2148 173.727 76.0948 174.225 76.0948 174.789C76.0948 175.329 76.2148 175.821 76.4548 176.265C76.7068 176.709 77.0488 177.063 77.4808 177.327C77.9128 177.579 78.4048 177.705 78.9568 177.705ZM89.4378 180.135C88.7778 180.135 88.1958 180.021 87.6918 179.793C87.1998 179.553 86.8158 179.229 86.5398 178.821C86.2638 178.401 86.1258 177.909 86.1258 177.345C86.1258 176.817 86.2398 176.343 86.4678 175.923C86.7078 175.503 87.0738 175.149 87.5658 174.861C88.0578 174.573 88.6758 174.369 89.4198 174.249L92.8038 173.691V175.293L89.8158 175.815C89.2758 175.911 88.8798 176.085 88.6278 176.337C88.3758 176.577 88.2498 176.889 88.2498 177.273C88.2498 177.645 88.3878 177.951 88.6638 178.191C88.9518 178.419 89.3178 178.533 89.7618 178.533C90.3138 178.533 90.7938 178.413 91.2018 178.173C91.6218 177.933 91.9458 177.615 92.1738 177.219C92.4018 176.811 92.5158 176.361 92.5158 175.869V173.367C92.5158 172.887 92.3358 172.497 91.9758 172.197C91.6278 171.885 91.1598 171.729 90.5718 171.729C90.0318 171.729 89.5578 171.873 89.1498 172.161C88.7538 172.437 88.4598 172.797 88.2678 173.241L86.5758 172.395C86.7558 171.915 87.0498 171.495 87.4578 171.135C87.8658 170.763 88.3398 170.475 88.8798 170.271C89.4318 170.067 90.0138 169.965 90.6258 169.965C91.3938 169.965 92.0718 170.109 92.6598 170.397C93.2598 170.685 93.7218 171.087 94.0458 171.603C94.3818 172.107 94.5498 172.695 94.5498 173.367V179.919H92.6058V178.155L93.0198 178.209C92.7918 178.605 92.4978 178.947 92.1378 179.235C91.7898 179.523 91.3878 179.745 90.9318 179.901C90.4878 180.057 89.9898 180.135 89.4378 180.135ZM103.368 179.919V168.399H99.8045V166.509H108.984V168.399H105.474V179.919H103.368ZM114.041 180.135C113.069 180.135 112.205 179.913 111.449 179.469C110.705 179.013 110.123 178.401 109.703 177.633C109.283 176.853 109.073 175.983 109.073 175.023C109.073 174.039 109.283 173.169 109.703 172.413C110.135 171.657 110.711 171.063 111.431 170.631C112.151 170.187 112.967 169.965 113.879 169.965C114.611 169.965 115.265 170.091 115.841 170.343C116.417 170.595 116.903 170.943 117.299 171.387C117.695 171.819 117.995 172.317 118.199 172.881C118.415 173.445 118.523 174.045 118.523 174.681C118.523 174.837 118.517 174.999 118.505 175.167C118.493 175.335 118.469 175.491 118.433 175.635H110.675V174.015H117.281L116.309 174.753C116.429 174.165 116.387 173.643 116.183 173.187C115.991 172.719 115.691 172.353 115.283 172.089C114.887 171.813 114.419 171.675 113.879 171.675C113.339 171.675 112.859 171.813 112.439 172.089C112.019 172.353 111.695 172.737 111.467 173.241C111.239 173.733 111.149 174.333 111.197 175.041C111.137 175.701 111.227 176.277 111.467 176.769C111.719 177.261 112.067 177.645 112.511 177.921C112.967 178.197 113.483 178.335 114.059 178.335C114.647 178.335 115.145 178.203 115.553 177.939C115.973 177.675 116.303 177.333 116.543 176.913L118.199 177.723C118.007 178.179 117.707 178.593 117.299 178.965C116.903 179.325 116.423 179.613 115.859 179.829C115.307 180.033 114.701 180.135 114.041 180.135ZM120.868 179.919V170.181H122.812V172.143L122.632 171.855C122.848 171.219 123.196 170.763 123.676 170.487C124.156 170.199 124.732 170.055 125.404 170.055H125.998V171.909H125.152C124.48 171.909 123.934 172.119 123.514 172.539C123.106 172.947 122.902 173.535 122.902 174.303V179.919H120.868ZM126.255 183.897C126.123 183.897 125.979 183.885 125.823 183.861C125.655 183.849 125.517 183.831 125.409 183.807V182.043C125.637 182.079 125.865 182.097 126.093 182.097C126.597 182.097 126.999 181.965 127.299 181.701C127.599 181.449 127.749 181.065 127.749 180.549V170.181H129.783V180.549C129.783 181.257 129.633 181.863 129.333 182.367C129.033 182.871 128.619 183.249 128.091 183.501C127.563 183.765 126.951 183.897 126.255 183.897ZM127.749 168.849V166.509H129.783V168.849H127.749ZM135.438 180.135C134.778 180.135 134.196 180.021 133.692 179.793C133.2 179.553 132.816 179.229 132.54 178.821C132.264 178.401 132.126 177.909 132.126 177.345C132.126 176.817 132.24 176.343 132.468 175.923C132.708 175.503 133.074 175.149 133.566 174.861C134.058 174.573 134.676 174.369 135.42 174.249L138.804 173.691V175.293L135.816 175.815C135.276 175.911 134.88 176.085 134.628 176.337C134.376 176.577 134.25 176.889 134.25 177.273C134.25 177.645 134.388 177.951 134.664 178.191C134.952 178.419 135.318 178.533 135.762 178.533C136.314 178.533 136.794 178.413 137.202 178.173C137.622 177.933 137.946 177.615 138.174 177.219C138.402 176.811 138.516 176.361 138.516 175.869V173.367C138.516 172.887 138.336 172.497 137.976 172.197C137.628 171.885 137.16 171.729 136.572 171.729C136.032 171.729 135.558 171.873 135.15 172.161C134.754 172.437 134.46 172.797 134.268 173.241L132.576 172.395C132.756 171.915 133.05 171.495 133.458 171.135C133.866 170.763 134.34 170.475 134.88 170.271C135.432 170.067 136.014 169.965 136.626 169.965C137.394 169.965 138.072 170.109 138.66 170.397C139.26 170.685 139.722 171.087 140.046 171.603C140.382 172.107 140.55 172.695 140.55 173.367V179.919H138.606V178.155L139.02 178.209C138.792 178.605 138.498 178.947 138.138 179.235C137.79 179.523 137.388 179.745 136.932 179.901C136.488 180.057 135.99 180.135 135.438 180.135ZM143.288 179.919V170.181H145.232V172.089L144.998 171.837C145.238 171.225 145.622 170.763 146.15 170.451C146.678 170.127 147.29 169.965 147.986 169.965C148.706 169.965 149.342 170.121 149.894 170.433C150.446 170.745 150.878 171.177 151.19 171.729C151.502 172.281 151.658 172.917 151.658 173.637V179.919H149.642V174.177C149.642 173.685 149.552 173.271 149.372 172.935C149.192 172.587 148.934 172.323 148.598 172.143C148.274 171.951 147.902 171.855 147.482 171.855C147.062 171.855 146.684 171.951 146.348 172.143C146.024 172.323 145.772 172.587 145.592 172.935C145.412 173.283 145.322 173.697 145.322 174.177V179.919H143.288ZM158.893 183.879C158.185 183.879 157.531 183.765 156.931 183.537C156.331 183.309 155.815 182.991 155.383 182.583C154.951 182.187 154.627 181.719 154.411 181.179L156.283 180.405C156.451 180.861 156.757 181.239 157.201 181.539C157.657 181.839 158.215 181.989 158.875 181.989C159.391 181.989 159.853 181.887 160.261 181.683C160.669 181.491 160.993 181.203 161.233 180.819C161.473 180.447 161.593 179.997 161.593 179.469V177.273L161.953 177.687C161.617 178.311 161.149 178.785 160.549 179.109C159.961 179.433 159.295 179.595 158.551 179.595C157.651 179.595 156.841 179.385 156.121 178.965C155.401 178.545 154.831 177.969 154.411 177.237C154.003 176.505 153.799 175.683 153.799 174.771C153.799 173.847 154.003 173.025 154.411 172.305C154.831 171.585 155.395 171.015 156.103 170.595C156.811 170.175 157.621 169.965 158.533 169.965C159.277 169.965 159.937 170.127 160.513 170.451C161.101 170.763 161.581 171.219 161.953 171.819L161.683 172.323V170.181H163.609V179.469C163.609 180.309 163.405 181.059 162.997 181.719C162.601 182.391 162.049 182.919 161.341 183.303C160.633 183.687 159.817 183.879 158.893 183.879ZM158.785 177.705C159.325 177.705 159.805 177.579 160.225 177.327C160.645 177.063 160.975 176.715 161.215 176.283C161.467 175.839 161.593 175.341 161.593 174.789C161.593 174.237 161.467 173.739 161.215 173.295C160.963 172.851 160.627 172.503 160.207 172.251C159.787 171.987 159.313 171.855 158.785 171.855C158.233 171.855 157.741 171.987 157.309 172.251C156.877 172.503 156.535 172.851 156.283 173.295C156.043 173.727 155.923 174.225 155.923 174.789C155.923 175.329 156.043 175.821 156.283 176.265C156.535 176.709 156.877 177.063 157.309 177.327C157.741 177.579 158.233 177.705 158.785 177.705ZM166.35 179.919V166.293H168.384V175.419L167.592 175.221L172.47 170.181H175.008L171.336 174.087L175.17 179.919H172.83L169.41 174.753L170.616 174.591L167.736 177.651L168.384 176.301V179.919H166.35ZM179.839 180.135C179.179 180.135 178.597 180.021 178.093 179.793C177.601 179.553 177.217 179.229 176.941 178.821C176.665 178.401 176.527 177.909 176.527 177.345C176.527 176.817 176.641 176.343 176.869 175.923C177.109 175.503 177.475 175.149 177.967 174.861C178.459 174.573 179.077 174.369 179.821 174.249L183.205 173.691V175.293L180.217 175.815C179.677 175.911 179.281 176.085 179.029 176.337C178.777 176.577 178.651 176.889 178.651 177.273C178.651 177.645 178.789 177.951 179.065 178.191C179.353 178.419 179.719 178.533 180.163 178.533C180.715 178.533 181.195 178.413 181.603 178.173C182.023 177.933 182.347 177.615 182.575 177.219C182.803 176.811 182.917 176.361 182.917 175.869V173.367C182.917 172.887 182.737 172.497 182.377 172.197C182.029 171.885 181.561 171.729 180.973 171.729C180.433 171.729 179.959 171.873 179.551 172.161C179.155 172.437 178.861 172.797 178.669 173.241L176.977 172.395C177.157 171.915 177.451 171.495 177.859 171.135C178.267 170.763 178.741 170.475 179.281 170.271C179.833 170.067 180.415 169.965 181.027 169.965C181.795 169.965 182.473 170.109 183.061 170.397C183.661 170.685 184.123 171.087 184.447 171.603C184.783 172.107 184.951 172.695 184.951 173.367V179.919H183.007V178.155L183.421 178.209C183.193 178.605 182.899 178.947 182.539 179.235C182.191 179.523 181.789 179.745 181.333 179.901C180.889 180.057 180.391 180.135 179.839 180.135ZM191.163 180.135C190.431 180.135 189.789 179.973 189.237 179.649C188.685 179.313 188.253 178.851 187.941 178.263C187.641 177.663 187.491 176.973 187.491 176.193V170.181H189.525V176.013C189.525 176.457 189.615 176.847 189.795 177.183C189.975 177.519 190.227 177.783 190.551 177.975C190.875 178.155 191.247 178.245 191.667 178.245C192.099 178.245 192.477 178.149 192.801 177.957C193.125 177.765 193.377 177.495 193.557 177.147C193.749 176.799 193.845 176.391 193.845 175.923V170.181H195.861V179.919H193.935V178.011L194.151 178.263C193.923 178.863 193.545 179.325 193.017 179.649C192.489 179.973 191.871 180.135 191.163 180.135Z" fill="white"/>
<g clip-path="url(#clip0_290_1309)">
<path opacity="0.1" d="M238 91.0649C238.004 94.9063 237.525 98.734 236.572 102.463C236.251 103.718 235.878 104.948 235.454 106.154C234.934 107.64 234.333 109.098 233.652 110.522C233.308 111.241 232.945 111.947 232.563 112.64C232.569 116.579 231.731 120.477 230.103 124.087C227.159 130.563 221.912 135.799 215.316 138.843C211.187 140.751 206.674 141.753 202.099 141.779H45.1806C38.1984 141.794 31.3367 140.018 25.293 136.632C24.3999 136.131 23.5296 135.597 22.6823 135.031C20.8425 133.8 19.114 132.42 17.5154 130.905C15.3512 128.855 13.4447 126.564 11.8353 124.081C8.05415 118.266 6.05112 111.533 6.05814 104.661C2.22895 98.1534 -0.00390625 90.3584 -0.00390625 81.9821C-0.00390625 71.4139 3.54441 61.7733 9.37408 54.4753C10.5895 52.9506 11.9207 51.516 13.3568 50.1835C14.7738 48.8648 16.2968 47.6574 17.9115 46.5727C19.2028 45.7031 20.553 44.9185 21.9528 44.2242C22.5368 43.9345 23.1228 43.6644 23.7189 43.412C24.2423 43.1869 24.7717 42.9775 25.3072 42.7798C25.9497 42.5424 26.6004 42.3251 27.2591 42.1281C27.9179 41.9311 28.5679 41.7576 29.2091 41.6076C30.1521 41.3844 31.1112 41.2031 32.0866 41.0635C32.8948 40.948 33.7031 40.8678 34.5114 40.8052C35.1539 40.7608 35.8019 40.7347 36.4553 40.7269H36.8089C37.5282 40.7269 38.2436 40.7543 38.9528 40.8012C39.0276 40.6564 39.1084 40.5096 39.1832 40.3648C39.4661 39.8442 39.7591 39.3236 40.0541 38.8128V38.7991C40.1046 38.7111 40.1551 38.623 40.2077 38.5369C40.4461 38.12 40.6947 37.7071 40.9493 37.2981C41.0665 37.1024 41.1816 36.9184 41.3009 36.7325C41.3271 36.6875 41.3534 36.6444 41.3837 36.5994C41.505 36.4037 41.6282 36.208 41.7535 36.0123C42.3772 35.0481 43.0259 34.0989 43.6994 33.1647C43.758 33.0845 43.8126 33.0062 43.8712 32.9279C43.9762 32.7831 44.0732 32.6402 44.1904 32.4974C44.4693 32.1196 44.7562 31.74 45.0452 31.3662C45.2473 31.102 45.4493 30.8378 45.6676 30.5833C46.1929 29.9258 46.7325 29.2721 47.2841 28.6263C47.8357 27.9804 48.4177 27.3307 49.0057 26.6946C49.0866 26.6066 49.1674 26.5204 49.2522 26.4324L50.1151 25.5223C50.1575 25.4793 50.1939 25.4401 50.2343 25.401C50.3374 25.2934 50.4364 25.1857 50.5475 25.08C51.0102 24.6064 51.4851 24.1387 51.962 23.6768C54.3978 21.3327 56.9928 19.1489 59.7295 17.1402C59.8366 17.058 59.9457 16.9797 60.0528 16.9014C60.566 16.5256 61.0874 16.1558 61.6087 15.7917C64.4768 13.8 67.4742 11.9892 70.5826 10.3706C70.7968 10.2532 71.015 10.1417 71.2352 10.0301C74.0227 8.60284 76.889 7.3249 79.8211 6.20205C81.4188 5.59014 83.0448 5.01867 84.6991 4.48765C85.7943 4.14125 86.8935 3.8105 88.0069 3.50911C89.7285 3.03028 91.4717 2.59842 93.2364 2.21353C98.4355 1.08368 103.725 0.385727 109.046 0.127281C110.663 0.0450841 112.298 0.003986 113.95 0.003986C121.926 -0.0062405 129.871 0.967076 137.592 2.90046C137.672 3.01732 137.781 3.11258 137.91 3.17729C138.038 3.242 138.181 3.27402 138.326 3.27035H139.005C139.3 3.34667 139.593 3.42692 139.888 3.50911C141.535 3.96968 143.159 4.47134 144.76 5.01411L145.164 5.15502C149.114 6.51534 152.957 8.1505 156.664 10.0477C160.004 11.7545 163.221 13.6795 166.292 15.8093C166.765 16.1381 167.231 16.4702 167.691 16.8055C168.248 16.4571 168.815 16.1251 169.392 15.8093C171.619 14.5818 173.983 13.606 176.44 12.9011C181.576 11.4291 187.011 11.2232 192.25 12.3023C198.969 13.682 205.051 17.1069 209.963 21.9781C211.964 23.9647 213.747 26.1475 215.282 28.4912C215.393 28.6595 215.504 28.8298 215.611 29.002C216.928 31.0834 218.059 33.2695 218.994 35.5367C219.028 35.6189 219.062 35.6991 219.093 35.7813C219.955 37.903 220.651 40.0849 221.174 42.3082C221.198 42.4197 221.226 42.5332 221.251 42.6468C221.74 44.7984 222.072 46.9807 222.245 49.1775C222.245 49.2558 222.245 49.3361 222.261 49.4163C222.346 50.5527 222.389 51.7015 222.39 52.8627C222.39 53.9 222.354 54.9294 222.287 55.949C222.287 56.0606 222.271 56.178 222.261 56.2915C222.243 56.589 222.217 56.8786 222.19 57.1781C223.734 58.383 225.178 59.7022 226.511 61.1235C227.099 61.7459 227.669 62.3924 228.22 63.063C229.899 65.0998 231.374 67.2866 232.625 69.5938C236.036 75.8525 238 83.1994 238 91.0649Z" fill="#FED04D"/>
<path opacity="0.1" d="M215.166 129.586C215.166 134.034 210.405 138.197 202.098 141.783H45.1801C37.9198 141.783 31.1202 139.238 25.2926 134.802C23.8276 133.119 23.0557 131.375 23.0557 129.584C23.0557 124.856 28.4388 120.443 37.746 116.712L38.0087 116.611C40.6356 115.567 43.5717 114.583 46.7805 113.657C46.8613 113.634 46.9442 113.612 47.025 113.585C49.5711 112.861 52.2794 112.175 55.1502 111.526C55.2411 111.507 55.33 111.485 55.4209 111.469C56.5283 111.215 57.6578 110.978 58.8116 110.741L59.2562 110.651C67.6521 108.964 77.1958 107.626 87.5457 106.718H87.5579C89.0074 106.587 90.4724 106.47 91.9528 106.367C93.5997 106.24 95.2668 106.132 96.952 106.033C98.2392 105.952 99.5425 105.884 100.85 105.821C100.855 105.819 100.86 105.818 100.865 105.818C100.87 105.818 100.875 105.819 100.88 105.821C106.779 105.534 112.873 105.383 119.105 105.383C134.514 105.383 149.08 106.299 161.986 107.927C161.998 107.925 162.01 107.925 162.022 107.927C164.006 108.178 165.954 108.442 167.854 108.724C168.397 108.806 168.939 108.888 169.47 108.972C171.614 109.307 173.702 109.662 175.734 110.035C199.639 114.436 215.166 121.558 215.166 129.586Z" fill="#FED04D"/>
<path d="M176.102 47.6122C176.102 47.6122 173.964 46.7726 167.163 49.7924C160.361 52.8121 159.513 52.4305 157.752 51.9765C155.992 51.5224 155.01 51.405 153.123 48.8823C153.123 48.8823 151.791 41.8936 150.496 40.8094C149.201 39.7252 143.733 41.4278 143.733 41.4278C143.733 41.4278 137.168 42.8858 135.917 34.3823C135.917 34.3823 136.804 27.9788 135.596 26.0139C135.596 26.0139 138.037 27.0316 142.062 25.3876C146.087 23.7437 149.31 27.1588 149.31 27.1588C149.31 27.1588 150.32 29.703 150.219 31.2217C150.118 32.7404 150.757 33.3099 152.677 32.576C152.677 32.576 153.62 31.2765 152.285 29.1276C150.949 26.9787 149.995 25.3798 150.367 23.7124C150.739 22.0449 151.812 19.7297 155.257 18.5731C158.702 17.4164 163.38 17.2031 165.625 16.2892C167.87 15.3752 168.424 14.792 168.424 14.792C168.424 14.792 167.042 16.1326 170.297 21.8179C173.552 27.5032 171.477 29.9691 171.477 29.9691C171.477 29.9691 169.745 33.9674 162.099 33.6426C162.099 33.6426 154.732 33.9029 158.749 36.9285C158.749 36.9285 161.321 36.4216 165.166 35.2376C169.012 34.0536 171.788 38.9404 172.477 42.3398C173.166 45.7393 176.102 47.6122 176.102 47.6122Z" fill="#FED04D"/>
<path d="M166.199 19.0967L166.239 19.085C166.534 20.1692 163.243 24.5296 160.428 27.9955L160.396 27.9701C164.364 23.0891 166.427 19.9363 166.199 19.0967Z" fill="#444053"/>
<path d="M160.452 27.9038L160.47 27.9469C158.221 30.7142 155.394 34.0138 153.131 36.466C152.915 36.6989 152.7 36.9436 152.494 37.1941L152.43 37.1432C152.632 36.8927 152.852 36.6461 153.068 36.4132C155.329 33.9708 158.201 30.6731 160.452 27.9038Z" fill="#444053"/>
<path d="M152.484 37.0806L152.529 37.1549C148.411 42.1357 148.138 49.8759 148.128 49.9366L147.259 48.9581C147.269 48.8954 148.338 42.0966 152.484 37.0806Z" fill="#444053"/>
<path d="M171.336 44.9109C171.336 44.9109 166.486 42.4646 162.695 43.3452C158.904 44.2259 150.379 40.2335 150.379 40.2335C150.379 40.2335 146.762 38.8107 146.035 37.1883C146.035 37.1883 143.551 34.6441 143.408 33.3309C143.264 32.0177 140.85 28.7083 139.273 28.5811" stroke="#444053" stroke-miterlimit="10"/>
<path d="M170.623 47.2653C170.623 47.2653 168.178 45.6683 168.463 43.8091" stroke="#444053" stroke-miterlimit="10"/>
<path d="M166.872 49.3262C166.872 49.3262 163.374 48.0971 163.032 43.2749" stroke="#444053" stroke-miterlimit="10"/>
<path d="M161.232 50.575C161.232 50.575 157.89 47.8898 158.999 43.1968" stroke="#444053" stroke-miterlimit="10"/>
<path d="M154.444 49.2636C154.444 49.2636 152.222 44.7428 154.2 41.8013" stroke="#444053" stroke-miterlimit="10"/>
<path d="M171.382 41.9302C171.382 41.9302 168.854 42.713 169.395 43.9968" stroke="#444053" stroke-miterlimit="10"/>
<path d="M168.331 37.4937C168.331 37.4937 164.946 38.5329 164.867 43.1692" stroke="#444053" stroke-miterlimit="10"/>
<path d="M163.61 36.4136C163.61 36.4136 160.529 40.0968 160.755 43.4434" stroke="#444053" stroke-miterlimit="10"/>
<path d="M158.215 37.8579C158.215 37.8579 155.156 40.6918 155.546 42.2672" stroke="#444053" stroke-miterlimit="10"/>
<path d="M156.37 36.8578C156.37 36.8578 153.501 37.3549 153.099 36.4429" stroke="#444053" stroke-miterlimit="10"/>
<path d="M152.643 33.5034C152.643 33.5034 154.091 35.3626 154.461 34.9458" stroke="#444053" stroke-miterlimit="10"/>
<path d="M167.013 32.327C167.013 32.327 159.779 32.8358 158.143 30.7222" stroke="#444053" stroke-miterlimit="10"/>
<path d="M151.129 24.1328C151.129 24.1328 154.522 31.1881 156.989 32.0864" stroke="#444053" stroke-miterlimit="10"/>
<path d="M154.682 20.7725C154.682 20.7725 156.765 27.2621 159.347 29.2877" stroke="#444053" stroke-miterlimit="10"/>
<path d="M170.057 26.9703C170.057 26.9703 164.557 29.2561 161.255 26.9429" stroke="#444053" stroke-width="0.75" stroke-miterlimit="10"/>
<path d="M159.579 19.3887C159.579 19.3887 160.836 24.1581 162.529 25.3108" stroke="#444053" stroke-width="0.75" stroke-miterlimit="10"/>
<path d="M169.226 21.626C169.226 21.626 166.134 22.7611 164.982 21.8921" stroke="#444053" stroke-width="0.75" stroke-miterlimit="10"/>
<path d="M149.993 35.061C149.993 35.061 149.993 39.2198 148.825 39.5153" stroke="#444053" stroke-miterlimit="10"/>
<path d="M140.438 40.4487C140.438 40.4487 145.085 40.8401 147.221 38.5132" stroke="#444053" stroke-miterlimit="10"/>
<path d="M148.797 30.1489C148.797 30.1489 147.674 34.3664 144.574 35.5035" stroke="#444053" stroke-miterlimit="10"/>
<path d="M137.653 36.0064C137.653 36.0064 140.939 37.1121 143.766 34.2959" stroke="#444053" stroke-miterlimit="10"/>
<path d="M145.142 26.5225C145.142 26.5225 144.833 30.1039 142.822 31.7811" stroke="#444053" stroke-miterlimit="10"/>
<path d="M137.778 30.5481C137.778 30.5481 140.504 30.5657 141.143 29.7046" stroke="#444053" stroke-miterlimit="10"/>
<path d="M157.494 44.1479H79.8594V82.1035H157.494V44.1479Z" fill="#33323D"/>
<path d="M181.924 93.6343H55.6758V118.618H181.924V93.6343Z" fill="#33323D"/>
<path d="M85.8125 99.8794H150.549L163.447 141.919H72.1709L85.8125 99.8794Z" fill="white"/>
<path d="M52.0791 78.7393V91.7127V94.4448V118.617H76.2626V95.5564H161.337V118.617H185.521V94.4448V91.7127V78.7393H52.0791Z" fill="#504F60"/>
<path opacity="0.1" d="M185.521 78.7393H52.0791V91.7108H185.521V78.7393Z" fill="#33323D"/>
<path opacity="0.8" d="M178.329 87.1489C179.425 87.1489 180.313 86.2884 180.313 85.227C180.313 84.1656 179.425 83.3052 178.329 83.3052C177.233 83.3052 176.345 84.1656 176.345 85.227C176.345 86.2884 177.233 87.1489 178.329 87.1489Z" fill="#8CCF4D"/>
<path opacity="0.8" d="M169.4 87.1489C170.496 87.1489 171.385 86.2884 171.385 85.227C171.385 84.1656 170.496 83.3052 169.4 83.3052C168.304 83.3052 167.416 84.1656 167.416 85.227C167.416 86.2884 168.304 87.1489 169.4 87.1489Z" fill="#FA5959"/>
<path d="M154.643 35.0181H82.7129V76.3359H154.643V35.0181Z" fill="white"/>
<path d="M165.585 95.3233C165.737 96.9222 164.49 98.4742 164.854 100.04C164.93 100.374 165.08 100.692 165.134 101.018C165.284 101.948 164.712 102.829 164.164 103.608L159.47 110.297C159.282 110.59 159.057 110.86 158.8 111.099C157.9 111.882 156.555 111.792 155.377 112.023C154.548 112.186 153.766 112.519 153.083 113.002C153.053 113.024 153.034 113.057 153.028 113.094C153.022 113.13 153.031 113.167 153.053 113.197C153.247 113.455 153.505 113.662 153.803 113.799C154.101 113.936 154.429 113.998 154.758 113.98C154.881 114.137 154.758 114.372 154.588 114.481C154.336 114.649 153.982 114.694 153.94 115.109C153.922 115.253 153.952 115.399 154.025 115.526C154.215 115.806 154.51 116.004 154.847 116.078C156.464 116.56 158.228 115.714 159.444 114.563C160.661 113.413 161.534 111.96 162.728 110.788C163.389 110.14 164.142 109.585 164.821 108.956C166.179 107.704 167.246 106.179 168.256 104.651C168.59 104.207 168.842 103.711 169 103.185C169.125 102.664 169.069 102.114 169.214 101.598C169.404 100.922 169.915 100.384 170.34 99.8167C171.174 98.7051 171.73 97.3469 171.619 95.9769C171.508 94.607 170.635 93.2586 169.301 92.7928C168.888 92.6333 168.432 92.6065 168.002 92.7164C167.454 92.8789 167.052 93.3173 166.678 93.7361L165.787 94.7322C165.565 94.9527 165.389 95.2125 165.268 95.4975C165.21 95.6411 165.197 95.7978 165.23 95.9485C165.262 96.0993 165.34 96.2376 165.452 96.3468" fill="#FBBEBE"/>
<path opacity="0.05" d="M165.585 95.3233C165.737 96.9222 164.49 98.4742 164.854 100.04C164.93 100.374 165.08 100.692 165.134 101.018C165.284 101.948 164.712 102.829 164.164 103.608L159.47 110.297C159.282 110.59 159.057 110.86 158.8 111.099C157.9 111.882 156.555 111.792 155.377 112.023C154.548 112.186 153.766 112.519 153.083 113.002C153.053 113.024 153.034 113.057 153.028 113.094C153.022 113.13 153.031 113.167 153.053 113.197C153.247 113.455 153.505 113.662 153.803 113.799C154.101 113.936 154.429 113.998 154.758 113.98C154.881 114.137 154.758 114.372 154.588 114.481C154.336 114.649 153.982 114.694 153.94 115.109C153.922 115.253 153.952 115.399 154.025 115.526C154.215 115.806 154.51 116.004 154.847 116.078C156.464 116.56 158.228 115.714 159.444 114.563C160.661 113.413 161.534 111.96 162.728 110.788C163.389 110.14 164.142 109.585 164.821 108.956C166.179 107.704 167.246 106.179 168.256 104.651C168.59 104.207 168.842 103.711 169 103.185C169.125 102.664 169.069 102.114 169.214 101.598C169.404 100.922 169.915 100.384 170.34 99.8167C171.174 98.7051 171.73 97.3469 171.619 95.9769C171.508 94.607 170.635 93.2586 169.301 92.7928C168.888 92.6333 168.432 92.6065 168.002 92.7164C167.454 92.8789 167.052 93.3173 166.678 93.7361L165.787 94.7322C165.565 94.9527 165.389 95.2125 165.268 95.4975C165.21 95.6411 165.197 95.7978 165.23 95.9485C165.262 96.0993 165.34 96.2376 165.452 96.3468" fill="black"/>
<path d="M169.139 136.479C168.113 137.083 166.836 137.123 165.643 136.98C165.441 136.958 165.225 136.944 165.102 137.087C164.924 137.297 165.134 137.602 165.35 137.77C166.055 138.281 166.881 138.61 167.753 138.727C168.531 138.832 169.316 138.883 170.101 138.878C172.243 138.913 174.397 138.949 176.519 138.649C176.641 138.64 176.76 138.606 176.868 138.549C177.005 138.457 177.1 138.316 177.133 138.158C177.281 137.626 177 137.05 176.577 136.68C176.155 136.31 175.611 136.103 175.08 135.897L173.217 135.195C172.778 135.028 172.077 134.592 171.6 134.625C170.729 134.694 169.879 136.06 169.139 136.479Z" fill="#3F3D56"/>
<path opacity="0.05" d="M169.139 136.479C168.113 137.083 166.836 137.123 165.643 136.98C165.441 136.958 165.225 136.944 165.102 137.087C164.924 137.297 165.134 137.602 165.35 137.77C166.055 138.281 166.881 138.61 167.753 138.727C168.531 138.832 169.316 138.883 170.101 138.878C172.243 138.913 174.397 138.949 176.519 138.649C176.641 138.64 176.76 138.606 176.868 138.549C177.005 138.457 177.1 138.316 177.133 138.158C177.281 137.626 177 137.05 176.577 136.68C176.155 136.31 175.611 136.103 175.08 135.897L173.217 135.195C172.778 135.028 172.077 134.592 171.6 134.625C170.729 134.694 169.879 136.06 169.139 136.479Z" fill="black"/>
<path d="M170.438 112.514C169.664 113.514 168.86 114.667 169.052 115.906C169.155 116.573 169.541 117.162 169.824 117.779C170.178 118.627 170.44 119.508 170.606 120.409C170.897 121.718 171.188 123.032 171.366 124.36C171.568 125.862 170.618 130.204 170.529 131.717C170.507 132.081 170.465 132.476 170.202 132.739C170.099 132.842 169.961 132.934 169.917 133.062C169.889 133.191 169.91 133.326 169.978 133.441C170.416 134.398 171.311 135.109 172.305 135.516C173.3 135.923 175.718 136.622 176.797 136.659C176.941 136.675 177.086 136.657 177.22 136.604C177.365 136.52 177.48 136.393 177.547 136.242C178.327 134.8 177.577 129.664 177.59 128.034C177.59 126.664 177.931 125.325 177.87 123.967C177.82 122.877 177.519 121.814 177.41 120.726C177.23 118.943 177.567 117.154 177.907 115.393C178.165 114.045 178.424 112.694 178.755 111.36C178.958 110.547 179.192 109.725 179.655 109.011C180.02 108.449 180.518 107.982 180.936 107.445C182.095 105.974 182.61 104.119 182.368 102.283C182.344 102.103 179.677 102.938 179.445 103.036C178.487 103.43 177.607 103.98 176.84 104.661C176.234 105.228 175.739 105.989 175.197 106.627C174.433 107.528 173.68 108.435 172.936 109.35C172.091 110.4 171.259 111.455 170.438 112.514Z" fill="#464353"/>
<path opacity="0.05" d="M170.438 112.45C169.664 113.45 168.86 114.603 169.052 115.843C169.155 116.509 169.541 117.098 169.824 117.714C170.178 118.563 170.44 119.444 170.606 120.345C170.897 121.654 171.188 122.967 171.366 124.296C171.568 125.797 170.618 130.142 170.529 131.655C170.507 132.017 170.465 132.414 170.202 132.674C170.099 132.778 169.961 132.87 169.917 132.997C169.886 133.13 169.908 133.27 169.978 133.389C170.416 134.344 171.311 135.056 172.305 135.461C173.3 135.866 175.718 136.244 176.797 136.277C176.941 136.294 177.086 136.275 177.22 136.222C177.365 136.138 177.48 136.011 177.547 135.86C178.327 134.418 177.577 129.609 177.59 127.981C177.59 126.611 177.931 125.271 177.87 123.912C177.82 122.822 177.519 121.76 177.41 120.671C177.23 118.889 177.567 117.1 177.907 115.34C178.165 113.99 178.424 112.64 178.755 111.305C178.958 110.493 179.192 109.671 179.655 108.956C180.02 108.397 180.518 107.927 180.936 107.402C182.094 105.93 182.608 104.076 182.368 102.24C182.344 102.058 179.677 102.893 179.445 102.993C178.487 103.388 177.606 103.938 176.84 104.621C176.234 105.191 175.739 105.95 175.197 106.579C174.433 107.479 173.68 108.387 172.936 109.303C172.091 110.347 171.259 111.396 170.438 112.45Z" fill="black"/>
<path d="M161.812 90.495C164.215 90.495 166.163 88.6086 166.163 86.2815C166.163 83.9544 164.215 82.0679 161.812 82.0679C159.41 82.0679 157.462 83.9544 157.462 86.2815C157.462 88.6086 159.41 90.495 161.812 90.495Z" fill="#FBBEBE"/>
<path d="M165.729 86.1058C166.131 86.7272 166.657 87.264 167.278 87.6843C167.898 88.1045 168.599 88.3997 169.34 88.5521L169.012 89.7009C168.447 91.6834 167.8 93.7795 166.23 95.1533C166.402 94.4821 166.179 93.7599 165.787 93.1826C165.368 92.6209 164.871 92.1178 164.31 91.6874L161.807 89.5776C161.732 89.5243 161.668 89.4579 161.619 89.3819C161.558 89.2336 161.558 89.0684 161.619 88.9201C161.938 87.9591 162.849 87.3544 163.587 86.7085C163.958 86.372 164.29 85.9973 164.577 85.5911C165.09 84.9002 165.399 85.5911 165.729 86.1058Z" fill="#FBBEBE"/>
<path d="M156.08 82.0466L155.983 81.2638C156.67 81.436 157.32 80.8724 157.759 80.2852C158.197 79.6981 158.606 79.0092 159.274 78.7666C160.083 78.4691 160.947 78.9446 161.723 79.3361C162.593 79.8049 163.548 80.1073 164.536 80.2265C164.694 80.2317 164.85 80.2567 165.001 80.3009C165.506 80.4751 165.747 81.0837 165.819 81.6454C165.892 82.2071 165.872 82.7942 166.122 83.2913C166.31 83.6671 166.636 83.9469 166.834 84.3168C167.365 85.3149 166.852 86.6771 167.414 87.6556L166.019 86.4168C165.89 86.3033 165.71 86.1858 165.571 86.2817C165.431 86.3776 165.452 86.5225 165.405 86.6536C165.27 87.045 164.775 87.1546 164.413 87.0039C164.051 86.8532 163.791 86.5205 163.526 86.2211C162.91 85.5165 162.176 84.8981 161.303 84.5967C160.925 84.4564 160.521 84.3958 160.117 84.4191C159.713 84.4424 159.319 84.549 158.961 84.7317C158.31 85.0879 157.834 85.9177 157.037 85.9471C155.944 85.9862 155.49 84.0154 154.982 83.2365C155.167 83.1012 155.297 82.9074 155.349 82.6889C155.402 82.4705 155.373 82.2411 155.269 82.0407C155.358 82.0075 156.066 81.9194 156.08 82.0466Z" fill="#464353"/>
<path d="M174.213 136.445C173.353 137.188 172.237 137.591 171.085 137.575C170.792 137.575 170.386 137.629 170.384 137.913C170.389 137.998 170.418 138.079 170.469 138.148C170.834 138.735 171.409 139.171 172.085 139.373C172.712 139.557 173.382 139.526 174.037 139.495L175.947 139.399C176.306 139.379 176.668 139.361 177.028 139.318C177.387 139.275 177.775 139.203 178.151 139.15C179.072 139.023 180.003 138.98 180.932 139.023C181.178 139.033 181.463 139.023 181.617 138.843C181.77 138.663 181.687 138.338 181.631 138.078C181.518 137.541 181.631 136.98 181.526 136.442C181.342 135.496 180.503 134.774 179.578 134.432C178.719 134.115 177.196 133.753 176.381 134.279C175.508 134.847 174.983 135.77 174.213 136.445Z" fill="#3F3D56"/>
<path d="M176.105 104.817C176.274 105.6 177.048 106.187 177.073 106.97C177.091 107.604 176.622 108.144 176.287 108.683C175.966 109.246 175.696 109.836 175.478 110.444C174.841 112.023 174.05 113.54 173.118 114.975C172.67 115.661 172.168 116.409 172.271 117.217C172.342 117.595 172.479 117.957 172.676 118.29L174.019 120.875C174.314 121.392 174.545 121.94 174.706 122.509C174.822 123.001 174.834 123.509 174.908 124.01C175.121 125.596 175.888 127.193 175.436 128.729C175.395 128.862 175.254 129.022 175.147 128.925C175.589 129.727 175.955 130.537 175.913 131.447C175.895 131.925 175.743 132.426 175.927 132.868C176.031 133.04 176.1 133.23 176.129 133.428C176.129 133.557 176.066 133.68 176.052 133.819C176.016 134.185 176.361 134.491 176.723 134.602C177.085 134.714 177.475 134.71 177.838 134.815C178.54 135.011 179.037 135.598 179.637 136.005C180.245 136.414 180.963 136.64 181.702 136.657C181.807 136.668 181.913 136.647 182.005 136.598C182.058 136.554 182.101 136.499 182.13 136.437C182.159 136.375 182.174 136.308 182.175 136.24C182.207 135.916 182.156 135.589 182.027 135.289C181.898 134.988 181.695 134.723 181.435 134.516C181.322 134.446 181.229 134.351 181.162 134.238C181.128 134.138 181.119 134.031 181.136 133.927C181.245 132.504 181.219 131.075 181.057 129.657C180.984 129.207 180.961 128.752 180.987 128.298C181.027 127.921 181.144 127.545 181.1 127.167C181.055 126.789 180.859 126.449 180.742 126.085C180.54 125.439 180.593 124.746 180.57 124.069C180.534 122.895 180.257 121.744 179.98 120.601C179.873 120.153 179.752 119.681 179.423 119.349C179.144 119.067 178.693 118.795 178.798 118.419C178.856 118.28 178.942 118.154 179.053 118.049C179.183 117.891 179.279 117.709 179.334 117.515C179.389 117.32 179.403 117.116 179.374 116.916C179.492 116.946 179.618 116.936 179.729 116.886C179.839 116.835 179.929 116.749 179.98 116.642C182.165 115.646 183.931 113.65 184.709 111.434C184.752 111.271 184.82 111.115 184.911 110.97C185.113 110.696 185.464 110.579 185.776 110.426C186.754 109.951 187.431 109.056 188.051 108.182C188.413 107.673 188.772 107.148 188.928 106.551C189.013 106.165 189.054 105.772 189.049 105.377L189.104 103.338C189.115 103.206 189.101 103.073 189.063 102.946C189.012 102.825 188.935 102.715 188.837 102.623C188.244 102.012 187.466 101.601 186.614 101.449C186.04 101.349 185.454 101.369 184.874 101.322C183.749 101.232 182.638 100.895 181.512 100.974C179.742 101.099 178.168 102.287 177.333 103.804C177.04 104.346 176.733 104.817 176.105 104.817Z" fill="#464353"/>
<path d="M166.284 91.5561C166.31 91.8705 166.266 92.1867 166.157 92.4837C166.019 92.7695 165.672 92.9906 165.371 92.8752C165.462 92.6795 165.219 92.4466 164.995 92.472C164.884 92.4959 164.781 92.5457 164.694 92.6169C164.607 92.6882 164.54 92.7789 164.498 92.881C164.347 93.1718 164.297 93.5018 164.354 93.8224C164.425 94.2138 164.663 94.6052 164.601 94.9966C164.55 95.3293 164.298 95.662 164.433 95.9752C164.52 96.1159 164.629 96.2426 164.756 96.3509C164.934 96.5619 165.021 96.8309 165 97.1022C164.978 97.3736 164.85 97.6267 164.641 97.809L168.032 97.8735C167.909 98.4235 168.161 98.9852 168.452 99.4725C169.266 100.812 170.39 101.951 171.734 102.799C173.079 103.648 174.608 104.184 176.201 104.365C176.115 104.414 176.042 104.481 175.986 104.561C175.93 104.642 175.892 104.733 175.877 104.828C175.862 104.924 175.868 105.022 175.896 105.114C175.924 105.207 175.973 105.293 176.04 105.365C176.315 105.629 176.781 105.596 177.127 105.424C177.472 105.252 177.745 104.968 178.061 104.749C178.617 104.365 179.296 104.187 179.976 104.248C180.4 104.287 180.813 104.42 181.239 104.443C182.496 104.508 183.575 103.633 184.777 103.269C185.658 103.007 186.654 103.007 187.404 102.475C187.723 102.246 187.984 101.87 187.891 101.496C187.812 101.282 187.688 101.086 187.525 100.921C187.099 100.388 186.848 99.7465 186.545 99.1417C185.941 97.9431 185.109 96.865 184.094 95.9634C183.33 95.3143 182.519 94.7173 181.669 94.1766C181.463 94.0271 181.242 93.8961 181.011 93.7852C180.702 93.6878 180.401 93.5695 180.109 93.431C179.705 93.1883 179.481 92.7597 179.176 92.4133C178.503 91.6539 177.47 91.3036 176.642 90.7067C176.086 90.3153 175.597 89.7791 174.932 89.5853C174.611 89.4914 174.268 89.4835 173.944 89.3896C173.213 89.1743 172.679 88.5441 171.96 88.2897C171.39 88.094 170.764 88.141 170.162 88.0686C169.499 87.989 168.866 87.7561 168.317 87.3895C168.134 87.247 167.93 87.1334 167.711 87.0529C166.803 86.7847 166.729 88.4228 166.644 88.9923C166.508 89.8632 166.284 90.7008 166.284 91.5561Z" fill="#FED04D"/>
<path d="M167.169 97.0555C167.321 98.6544 166.074 100.204 166.438 101.772C166.514 102.107 166.664 102.424 166.718 102.751C166.87 103.68 166.296 104.561 165.748 105.338L161.054 112.011C160.866 112.305 160.641 112.574 160.384 112.814C159.484 113.597 158.139 113.507 156.961 113.738C156.132 113.901 155.35 114.234 154.667 114.716C154.637 114.739 154.618 114.772 154.612 114.808C154.606 114.845 154.615 114.882 154.637 114.912C154.831 115.17 155.088 115.377 155.386 115.514C155.684 115.651 156.013 115.713 156.342 115.695C156.465 115.853 156.342 116.086 156.172 116.196C155.92 116.366 155.566 116.411 155.524 116.826C155.506 116.97 155.536 117.116 155.609 117.243C155.799 117.522 156.094 117.72 156.431 117.795C158.048 118.276 159.812 117.431 161.028 116.28C162.245 115.129 163.118 113.677 164.314 112.505C164.975 111.857 165.728 111.301 166.405 110.673C167.765 109.42 168.82 107.896 169.84 106.367C170.174 105.924 170.425 105.428 170.584 104.901C170.709 104.381 170.653 103.831 170.798 103.314C170.988 102.639 171.499 102.099 171.924 101.533C172.758 100.422 173.314 99.0634 173.203 97.6935C173.092 96.3235 172.219 94.9751 170.885 94.5093C170.472 94.3489 170.016 94.3221 169.586 94.433C169.04 94.5954 168.636 95.0338 168.262 95.4526L167.371 96.4488C167.149 96.6688 166.973 96.9288 166.854 97.214C166.796 97.3571 166.782 97.5134 166.815 97.6638C166.847 97.8143 166.924 97.9524 167.036 98.0614" fill="#FBBEBE"/>
<path d="M169.545 90.4855C168.927 90.5207 168.248 90.5794 167.811 91.0061C167.629 91.202 167.482 91.4255 167.375 91.6676C166.952 92.5032 166.54 93.3761 166.51 94.3057C166.484 95.0494 166.712 95.7755 166.823 96.5113C166.92 97.1219 166.674 97.7443 166.621 98.3627C167.387 98.1357 168.397 97.8265 169.092 97.4429C169.548 97.1543 170.032 96.9104 170.537 96.7149C171.275 96.4781 172.513 96.8851 173.208 97.2198C173.247 96.7423 172.879 95.9144 172.917 95.4369C172.924 95.237 172.96 95.0392 173.027 94.8498C173.131 94.6492 173.255 94.4585 173.396 94.2803C173.664 93.8602 173.788 93.3686 173.749 92.8762C173.71 92.3838 173.511 91.9161 173.18 91.5404C172.56 90.8632 171.586 90.6088 170.658 90.5051C170.074 90.4389 169.484 90.4187 168.896 90.4444" fill="#FED04D"/>
<path d="M77.9981 76.7938L74.0133 71.1966C74.0133 71.1966 73.9386 69.811 73.6779 69.4881C73.4172 69.1651 73.6213 68.4449 73.6213 68.4449C73.6213 68.4449 73.9022 68.0535 73.6597 68.0124C73.4172 67.9713 73.6213 67.0946 73.6213 67.0946L73.6031 65.6913C73.6031 65.6913 73.8274 64.3409 73.6415 64.018C73.5866 63.9304 73.5591 63.8292 73.5624 63.7268C73.5656 63.6243 73.5994 63.5249 73.6597 63.4407C73.6597 63.4407 73.882 62.6676 73.6597 62.4621C73.4374 62.2567 73.492 61.0589 73.5466 60.1039C73.6011 59.1488 73.1566 58.6106 73.1566 58.4678C73.1566 58.3249 71.6855 56.9197 71.6855 56.7925C71.6855 56.6653 70.754 56.1447 70.1942 56.0097C69.6345 55.8746 69.3577 55.7572 69.3759 55.6848C69.3941 55.6124 68.5009 55.3266 68.5009 55.3266C68.5009 55.3266 67.7189 55.2718 67.4198 54.8941C67.1208 54.5164 66.2074 54.4068 66.1852 54.4029L66.167 54.3285C66.167 54.3011 66.1569 54.2737 66.1509 54.2463C66.2246 54.1325 66.2921 54.0149 66.3529 53.8941L66.4055 53.7845C66.7327 53.7865 67.0526 53.6901 67.3208 53.5085C67.4529 53.4025 67.5608 53.271 67.6377 53.1224C67.7146 52.9738 67.7587 52.8114 67.7674 52.6454C67.7833 52.3127 67.708 51.9819 67.5492 51.6865C67.3855 51.3636 67.145 51.0269 67.2299 50.6747C67.2663 50.524 67.3592 50.3909 67.4077 50.2422C67.4801 49.9518 67.4322 49.6455 67.2744 49.3889C67.1329 49.1286 66.9369 48.8976 66.7793 48.6452C66.5794 48.322 66.4456 47.9645 66.3853 47.5923C66.374 47.3942 66.3254 47.1999 66.2418 47.0189C66.1572 46.8913 66.0456 46.7825 65.9144 46.6998C65.3314 46.297 64.6278 46.0907 63.9119 46.1127C63.4048 46.1284 62.9016 46.2615 62.3964 46.2008C62.0955 46.1507 61.7994 46.076 61.5114 45.9777C60.887 45.7976 60.1656 45.7252 59.622 46.0716C59.0785 46.418 58.8623 47.0991 58.4925 47.6373C58.1671 48.107 57.6842 48.5023 57.4417 49.0072C57.4417 49.0072 57.4417 48.9877 57.4417 48.9798C57.3807 49.0948 57.3339 49.2163 57.3023 49.3419C57.2329 49.7406 57.2613 50.1496 57.3851 50.5357C57.4125 50.7436 57.5201 50.9338 57.6862 51.068C57.8701 51.1835 58.1227 51.1561 58.3369 51.1933L58.3126 51.2951C58.0946 52.3067 58.277 53.3608 58.8239 54.2482C59.3707 55.1357 60.242 55.7916 61.2648 56.086C61.2648 56.1232 61.2648 56.1584 61.2648 56.1956C61.2644 56.299 61.2577 56.4022 61.2446 56.5048C61.2446 56.5048 59.3715 56.131 58.8683 56.3835C58.3652 56.6359 57.3791 56.8336 57.2295 56.9706C57.08 57.1076 56.7082 57.0078 56.3728 57.8532C56.0373 58.6987 56.001 59.5618 55.5645 59.959C55.128 60.3563 54.9138 60.6245 54.8936 60.9121C54.8734 61.1998 54.9502 61.2722 54.7825 61.3623C54.6148 61.4523 54.3784 61.83 54.4471 61.9748C54.4728 62.0738 54.4672 62.178 54.4312 62.2739C54.3952 62.3699 54.3303 62.4531 54.245 62.513C54.1566 62.5732 54.0861 62.6547 54.0403 62.7495C53.9946 62.8442 53.9753 62.9489 53.9843 63.0532C53.9843 63.0532 53.8712 63.4446 53.6105 63.5405C53.3498 63.6364 53.1821 64.2235 53.1821 64.2235L52.3375 65.1629L50.6643 63.3702C50.5387 63.2362 50.3633 63.1559 50.1767 63.1467C49.99 63.1375 49.8072 63.2003 49.6682 63.3213L48.8457 64.0376C48.5288 64.1122 48.2423 64.2771 48.0233 64.5112C47.8451 64.6903 47.7008 64.8983 47.597 65.1257L47.1484 65.5171C47.0066 65.6872 46.9199 65.894 46.8991 66.1116C46.8782 66.3292 46.9242 66.5479 47.0312 66.7403L48.1041 67.8891V67.8989C47.724 67.9313 47.3628 68.0738 47.0675 68.3079C45.4672 69.6779 45.451 70.9363 45.6894 71.5117C45.9279 72.0871 47.9607 74.3005 47.9607 74.3005C47.9607 74.3005 49.1408 75.7859 50.8442 76.5746L50.8321 76.5883C50.797 76.6238 50.764 76.661 50.7331 76.6999L50.7048 76.7351L50.6785 76.7703L50.6482 76.8134C50.64 76.8247 50.6326 76.8365 50.626 76.8486L50.5936 76.8995C50.5861 76.9108 50.5794 76.9226 50.5734 76.9347C50.5593 76.9582 50.5471 76.9817 50.535 77.0052C50.5306 77.0128 50.5265 77.0207 50.5229 77.0287C50.5067 77.06 50.4906 77.0913 50.4764 77.1265L50.4603 77.1618C50.4502 77.1852 50.4421 77.2087 50.432 77.2342C50.4257 77.2495 50.4203 77.2652 50.4158 77.2811L50.3916 77.3516C50.385 77.3682 50.3796 77.3852 50.3754 77.4025C50.3754 77.4279 50.3592 77.4534 50.3532 77.4808C50.3471 77.5082 50.3431 77.5121 50.339 77.5297C50.335 77.5473 50.3188 77.6138 50.3107 77.6589C50.3107 77.6745 50.3107 77.6921 50.3006 77.7097C50.2905 77.7274 50.2905 77.7704 50.2845 77.8017C50.2784 77.833 50.2845 77.8448 50.2845 77.8683L50.2723 77.9563V78.0268C50.2723 78.0601 50.2723 78.0933 50.2622 78.1286C50.2521 78.1638 50.2622 78.1697 50.2622 78.1912C50.2622 78.2479 50.2622 78.3047 50.2622 78.3654C50.2259 80.4712 50.3532 80.7765 50.3532 80.7765C50.4363 80.971 50.5718 81.1403 50.7457 81.2666C50.9195 81.393 51.1252 81.4718 51.3413 81.4947C51.4473 81.5028 51.5539 81.4975 51.6585 81.4791C52.6284 81.3166 54.8916 80.9389 55.6999 81.0877C56.1828 81.1738 57.074 81.0446 57.7084 80.9291L57.8762 80.8978L57.9913 81.256L58.3591 81.1581L58.6723 81.3323L58.8744 81.4438C59.2421 82.6494 60.7334 82.2384 60.7334 82.2384L61.087 82.4341L64.6818 82.5242C65.0854 82.7597 65.5117 82.9563 65.9548 83.1113C66.0134 83.1298 66.0736 83.1429 66.1347 83.1504C66.4708 83.1769 66.8082 83.1828 67.145 83.168C67.4198 83.168 67.632 83.1504 67.632 83.1504C67.632 83.1504 67.5956 82.2051 67.5431 81.1464C68.6574 81.1197 69.7692 81.0315 70.8732 80.8822C72.7928 80.5573 73.593 78.8664 73.8881 77.9622C73.9763 78.3315 74.0391 78.7062 74.076 79.0836C74.1544 79.4155 74.2543 79.7424 74.375 80.0622C74.4779 80.3177 74.6137 80.5597 74.7792 80.7824C76.1937 80.3146 75.3369 79.6081 75.0398 79.3067C74.7428 79.0053 75.2419 78.7489 75.2419 78.7489C75.2419 78.7489 75.6339 78.4965 75.5955 78.2636C75.5571 78.0307 75.539 77.7782 76.8079 77.7959C78.0769 77.8135 77.9981 76.7938 77.9981 76.7938ZM58.3328 65.3038C58.349 65.4056 58.5349 66.5153 58.6844 66.8069C58.7291 66.9994 58.7434 67.1973 58.7269 67.394C57.9772 67.3353 57.1952 67.304 57.1952 67.304C57.2172 67.3304 57.2312 67.3623 57.2356 67.3959L57.1164 67.3705L56.9467 67.3314L58.3288 65.294L58.3328 65.3038ZM55.5928 69.5233L56.8921 69.719L57.0012 69.7346C56.9645 69.9286 56.9422 70.1248 56.9345 70.3218C56.9345 70.3413 56.9628 70.3629 57.0053 70.3883C56.9872 70.4871 56.979 70.5874 56.981 70.6877C57.0012 70.7856 57.6074 71.0009 58.3045 71.179C58.2944 71.2162 58.2864 71.2514 58.2763 71.2827C57.6599 70.9696 56.692 70.8228 56.5809 70.5899C56.4698 70.357 53.172 69.2415 53.172 69.2415L52.8447 69.0829L53.7115 69.2415L53.95 69.218C54.4902 69.3541 55.0389 69.4561 55.5928 69.5233Z" fill="url(#paint0_linear_290_1309)"/>
<path d="M73.7593 77.5765C73.7593 77.5765 73.2441 80.5982 70.6232 81.0444C68.0024 81.4906 59.2529 81.4026 59.2529 81.4026C59.2529 81.4026 54.2497 80.7039 52.4411 76.6116C50.6326 72.5194 49.4687 70.8891 51.0267 70.8187C52.5846 70.7482 60.9401 73.5586 61.419 73.5899C61.8979 73.6212 74.2221 67.3684 73.7593 77.5765Z" fill="#65617D"/>
<path opacity="0.05" d="M73.7593 77.5765C73.7593 77.5765 73.2441 80.5982 70.6232 81.0444C68.0024 81.4906 59.2529 81.4026 59.2529 81.4026C59.2529 81.4026 54.2497 80.7039 52.4411 76.6116C50.6326 72.5194 49.4687 70.8891 51.0267 70.8187C52.5846 70.7482 60.9401 73.5586 61.419 73.5899C61.8979 73.6212 74.2221 67.3684 73.7593 77.5765Z" fill="black"/>
<path d="M50.2967 80.9409C50.3779 81.1344 50.5117 81.303 50.6839 81.4288C50.8561 81.5545 51.0602 81.6328 51.2747 81.6552C51.3808 81.6616 51.4873 81.6557 51.5919 81.6376C52.5517 81.4771 54.8028 81.1014 55.5969 81.2462C56.0738 81.3304 56.9568 81.2032 57.5853 81.0896C58.0035 81.0133 58.3107 80.9409 58.3107 80.9409C58.3107 80.9409 57.5711 78.563 57.4802 78.4926C57.3892 78.4221 54.1562 76.5355 54.1562 76.5355L51.598 76.3574C51.2536 76.4073 50.9423 76.584 50.7291 76.8506C50.4603 77.1677 50.228 77.6863 50.2118 78.5376C50.1694 80.6336 50.2967 80.9409 50.2967 80.9409Z" fill="#3F3D56"/>
<path opacity="0.05" d="M50.2965 80.9409C50.3777 81.1344 50.5115 81.303 50.6837 81.4287C50.8559 81.5545 51.0601 81.6328 51.2745 81.6552C51.024 81.342 50.7919 81.0153 50.5794 80.6767L50.5935 78.9427C50.5427 78.4671 50.6076 77.9866 50.7831 77.5397C50.9585 77.0928 51.2396 76.6919 51.6039 76.3691C51.6039 76.3691 50.2561 76.4572 50.2177 78.5493C50.1793 80.6414 50.2965 80.9409 50.2965 80.9409Z" fill="black"/>
<path opacity="0.1" d="M61.3924 77.1482L63.7747 75.3418L67.5211 71.7662L66.5107 71.7212C66.3592 71.8151 65.9349 72.1126 65.9187 72.4688C65.9005 72.9052 64.9083 72.5001 64.389 72.7487C63.8697 72.9972 61.3439 76.1344 60.9013 76.1129C60.4588 76.0913 60.1072 75.8956 59.9213 76.2009L59.9092 76.2205L61.3924 77.1482Z" fill="black"/>
<path opacity="0.1" d="M50.7236 76.8545C50.8085 76.8937 50.8954 76.9328 50.9823 76.968C52.7908 77.7196 55.0236 79.293 55.1914 79.5788C55.2924 79.753 56.5877 80.5143 57.5859 81.0857C58.0042 81.0094 58.3113 80.937 58.3113 80.937C58.3113 80.937 57.5717 78.5591 57.4808 78.4887C57.3899 78.4182 54.1568 76.5316 54.1568 76.5316L51.5986 76.3535C51.2508 76.4039 50.9369 76.5836 50.7236 76.8545Z" fill="black"/>
<path d="M45.7037 71.7306C45.9421 72.3021 47.9547 74.5019 47.9547 74.5019C47.9547 74.5019 49.2278 76.1106 51.0383 76.8504C52.8488 77.5901 55.0796 79.1754 55.2453 79.4611C55.3524 79.6451 56.7952 80.4866 57.8096 81.0639L58.0379 81.1931L58.5411 81.4769L58.8078 81.6237C58.8078 81.6237 59.4261 81.1442 60.0424 80.6608C60.6588 80.1774 61.2549 79.7038 61.2549 79.6822C61.2549 79.6607 61.5135 79.0208 61.4569 78.9855C61.4003 78.9503 61.3013 78.7194 61.0669 78.4317C60.8195 78.1127 60.4975 77.8551 60.1273 77.6802C59.5917 77.4135 59.1646 76.9799 58.9149 76.4492C58.9149 76.4492 58.8341 76.3924 58.7128 76.3161C58.4615 76.1488 58.1807 76.0274 57.8844 75.9579C57.4802 75.909 56.7204 75.1046 56.7204 75.1046C56.425 74.9184 56.1786 74.6677 56.0011 74.3727C55.799 73.9813 52.9438 72.0751 52.6791 71.8989L59.6181 76.2163L61.2791 77.2496L63.6615 75.4452L67.4078 71.8696L66.1712 71.8148C64.3526 71.7385 61.1195 71.6191 60.7153 71.7091C60.3843 71.7829 60.0432 71.8047 59.705 71.7737C59.705 71.7737 58.7836 71.8128 58.1733 71.5017C57.5631 71.1905 56.6032 71.0437 56.4921 70.8128C56.381 70.5818 53.1155 69.4741 53.1155 69.4741C53.1155 69.4741 48.67 67.1863 47.0798 68.5445C45.4895 69.9027 45.4632 71.1553 45.7037 71.7306Z" fill="#65617D"/>
<path d="M60.0449 58.6087L60.6168 60.4503L61.3563 64.5973L64.0701 64.7754L64.8461 63.5229L65.6301 62.2625C65.6301 62.2625 66.1191 60.5873 66.4707 58.9668C66.7799 57.5323 66.9839 56.1388 66.6465 55.9881C66.3454 55.855 66.1494 55.3717 66.0201 54.8511C66.0039 54.7884 65.9898 54.7219 65.9776 54.6554C65.8871 54.2154 65.8264 53.7702 65.7958 53.3226C65.7958 53.3226 60.1116 53.0369 60.9057 55.3071C61.0474 55.6949 61.1198 56.1032 61.1199 56.5146C61.1199 56.6203 61.1199 56.724 61.0997 56.8218C61.0603 57.1739 60.9463 57.5144 60.7648 57.8218C60.5833 58.1293 60.3382 58.3972 60.0449 58.6087Z" fill="#EE8E9E"/>
<path d="M58.8643 58.3052L59.0663 61.4366L59.527 64.1002L60.0443 65.3351L60.5071 72.0831C60.5071 72.0831 64.9526 72.5821 66.0397 72.0733C66.1199 72.0436 66.1898 71.9927 66.2418 71.9265C67.5492 70.0144 67.1208 64.4759 67.1208 64.4759L67.6179 60.9003L67.2865 59.045L66.4782 58.9628L65.8599 58.8982C65.8599 58.8982 65.7204 59.0646 65.5184 59.3229C64.9708 60.0216 63.9645 61.3994 64.0332 61.9728C64.1241 62.7556 63.922 63.5639 63.6068 63.6892C63.2916 63.8144 63.0349 64.0297 62.9804 63.8144C62.9018 63.634 62.8821 63.4346 62.9238 63.243C62.9804 62.9377 62.6833 62.008 62.6833 62.008C62.6833 62.008 62.1863 60.9179 62.2226 60.4541C62.259 59.9903 62.1681 59.4521 62.0206 59.3268C61.8731 59.2016 61.669 59.0763 61.8347 58.5049C62.0004 57.9334 61.1072 56.8198 61.1072 56.8198L58.8643 58.3052Z" fill="#E3E8F4"/>
<path opacity="0.1" d="M64.7425 66.1181L64.9284 71.4628L65.9933 72.0363C66.0732 72.0052 66.143 71.9538 66.1954 71.8875C67.5027 69.9755 67.0744 64.4369 67.0744 64.4369L67.5735 60.8613L67.2401 59.006L66.4318 58.9238C66.743 57.4893 66.945 56.0978 66.6076 55.9452C66.3065 55.8121 66.1105 55.3287 65.9832 54.8101L65.4073 58.5911C65.4073 58.5911 65.4558 58.9317 65.472 59.2839C65.4959 59.5067 65.4802 59.7317 65.4255 59.9493C65.3508 60.242 65.3385 60.5463 65.3891 60.8437C65.0557 61.4113 64.89 62.4642 64.8092 63.4799C64.7001 64.8303 64.7425 66.1181 64.7425 66.1181Z" fill="black"/>
<path d="M65.9998 54.7158C65.9998 54.7158 66.9313 54.8274 67.2263 55.2031C67.5214 55.5789 68.2973 55.6337 68.2973 55.6337C68.2973 55.6337 69.1824 55.9194 69.1642 55.9899C69.146 56.0603 69.4228 56.1699 69.9724 56.3128C70.5221 56.4557 71.4496 56.9743 71.4496 57.0956C71.4496 57.217 72.9065 58.6143 72.9065 58.7572C72.9065 58.9001 73.349 59.4363 73.2944 60.3835C73.2399 61.3307 73.1833 62.5363 73.4056 62.732C73.6279 62.9277 73.4056 63.6969 73.4056 63.6969C73.3459 63.7806 73.3124 63.8792 73.3091 63.981C73.3059 64.0827 73.3331 64.1832 73.3874 64.2703C73.5713 64.5912 73.349 65.9318 73.349 65.9318L73.3692 67.3272C73.3692 67.3272 73.1671 68.202 73.4056 68.2392C73.644 68.2764 73.3692 68.6678 73.3692 68.6678C73.3692 68.6678 73.1671 69.3822 73.4238 69.7051C73.6804 70.028 73.7552 71.4019 73.7552 71.4019L77.7056 76.9619C77.7056 76.9619 77.7622 77.9816 76.5073 77.964C75.2525 77.9463 75.2687 78.1968 75.307 78.4278C75.3454 78.6587 74.9554 78.9112 74.9554 78.9112C74.9554 78.9112 74.4584 79.1617 74.7534 79.465C75.0484 79.7684 75.8971 80.4671 74.4947 80.9309C74.3295 80.7102 74.1937 80.4702 74.0906 80.2165C73.9717 79.9012 73.8732 79.5789 73.7956 79.2517C73.7956 79.2517 73.6663 77.8915 73.4076 77.7134C73.149 77.5354 73.1853 76.6762 73.1853 76.6762C73.1853 76.6762 73.5551 75.9795 73.0378 75.6977C72.5205 75.4158 65.0278 71.3921 65.0278 71.3921L64.846 66.0453C64.846 66.0453 64.7167 62.094 65.4926 60.771C65.4419 60.4736 65.4543 60.1693 65.529 59.8766C65.6583 59.5557 65.5108 58.5184 65.5108 58.5184L65.9998 54.7158Z" fill="#3F3D56"/>
<path opacity="0.1" d="M61.1623 56.8685C61.1623 56.8685 59.3073 56.4986 58.8082 56.7491C58.3091 56.9997 57.3331 57.1954 57.1916 57.3363C57.0502 57.4772 56.6764 57.3735 56.343 58.213C56.0095 59.0526 55.9752 59.9118 55.5488 60.3052C55.1225 60.6985 54.9042 60.9666 54.886 61.2524C54.8678 61.5381 54.9406 61.6105 54.7749 61.6986C54.6092 61.7867 54.3708 62.1644 54.4415 62.3072C54.5122 62.4501 58.2808 65.5971 58.2808 65.5971C58.2808 65.5971 58.4667 66.7948 58.6324 67.0982C58.7981 67.4015 58.4485 71.5858 58.0787 71.8715C57.7089 72.1572 60.5621 72.1337 60.5621 72.1337C60.5621 72.1337 60.6915 69.3938 60.8026 69.2451C60.9137 69.0963 60.7278 66.1705 60.7278 66.1705C60.7278 66.1705 60.7096 63.6674 60.9501 63.0059C61.1906 62.3444 61.1522 60.1447 61.1522 60.1447C61.1522 60.1447 61.3643 58.8256 61.623 58.5183C61.8816 58.2111 61.1623 56.8685 61.1623 56.8685Z" fill="black"/>
<path d="M61.1074 56.8161C61.1074 56.8161 59.2524 56.4462 58.7533 56.6948C58.2542 56.9433 57.2762 57.143 57.1367 57.2819C56.9973 57.4209 56.6194 57.3171 56.288 58.1587C55.9566 59.0002 55.9183 59.8555 55.4939 60.2488C55.0696 60.6422 54.8473 60.9103 54.8291 61.1961C54.8109 61.4818 54.8857 61.5542 54.718 61.6442C54.5503 61.7343 54.3138 62.1081 54.3866 62.2509C54.4593 62.3938 58.2259 65.5408 58.2259 65.5408C58.2259 65.5408 58.4098 66.7385 58.5775 67.0419C58.7452 67.3452 58.3916 71.5294 58.0218 71.8152C57.652 72.1009 60.5153 72.0755 60.5153 72.0755C60.5153 72.0755 60.6446 69.3356 60.7537 69.1888C60.8629 69.042 60.681 66.1122 60.681 66.1122C60.681 66.1122 60.6628 63.6111 60.9033 62.9496C61.1437 62.2881 61.1155 60.0884 61.1155 60.0884C61.1155 60.0884 61.3276 58.7693 61.5863 58.462C61.8449 58.1548 61.1074 56.8161 61.1074 56.8161Z" fill="#3F3D56"/>
<path opacity="0.1" d="M60.9131 55.3029C61.0548 55.6907 61.1272 56.099 61.1273 56.5104C62.034 56.7676 63.0034 56.7244 63.8819 56.3876C64.7603 56.0508 65.4976 55.4397 65.9769 54.6512C65.8864 54.2112 65.8257 53.766 65.7951 53.3184C65.7951 53.3184 60.119 53.0307 60.9131 55.3029Z" fill="black"/>
<path d="M58.1064 52.4772C58.1057 53.5265 58.5208 54.536 59.266 55.2976C60.0112 56.0592 61.0298 56.5148 62.1116 56.5704C63.1935 56.626 64.2561 56.2774 65.0804 55.5964C65.9046 54.9155 66.4276 53.9542 66.5416 52.9107C66.6555 51.8673 66.3516 50.8213 65.6927 49.9884C65.0337 49.1556 64.0699 48.5994 62.9999 48.4346C61.93 48.2698 60.8356 48.509 59.9424 49.1028C59.0492 49.6966 58.4253 50.5997 58.1994 51.6259C58.1375 51.9057 58.1063 52.1911 58.1064 52.4772Z" fill="#EE8E9E"/>
<path d="M55.3934 61.957L54.383 62.2604C54.4088 62.3591 54.4034 62.463 54.3673 62.5587C54.3313 62.6543 54.2663 62.7372 54.181 62.7966C54.093 62.856 54.023 62.937 53.9779 63.0312C53.9328 63.1254 53.9143 63.2295 53.9243 63.3329C53.9243 63.3329 53.8132 63.7243 53.5545 63.8163C53.2959 63.9082 53.1302 64.4954 53.1302 64.4954L52.2815 65.4426C52.2815 65.4426 51.9663 65.6931 52.0229 65.8183C52.0794 65.9436 51.6895 65.9788 51.6895 65.9788L51.8915 69.161L53.6455 69.484L54.7346 69.3763L55.6197 69.0554L56.3956 68.6072L56.7452 67.7324L58.2971 65.4426L55.3934 61.957Z" fill="#3F3D56"/>
<path d="M51.9414 66.2236C51.9414 66.2236 49.6903 63.0786 48.0091 64.7754C46.3279 66.4722 48.6921 69.2277 49.2458 69.1377C49.7994 69.0477 52.4405 68.9048 52.4405 68.9048L51.9414 66.2236Z" fill="#EE8E9E"/>
<path d="M57.2445 64.8637L47.3006 59.9481C47.1475 59.8724 46.9601 59.9312 46.882 60.0795L43.0044 67.4373C42.9263 67.5856 42.9871 67.7671 43.1401 67.8428L53.084 72.7584C53.2371 72.8341 53.4245 72.7753 53.5027 72.627L57.3802 65.2692C57.4583 65.1209 57.3976 64.9394 57.2445 64.8637Z" fill="#3F3D56"/>
<path d="M56.3195 65.3007L47.4951 60.9385L44.1008 67.3794L52.9252 71.7417L56.3195 65.3007Z" fill="#FED04D"/>
<path d="M45.4595 64.1452C45.5488 64.1452 45.6212 64.0751 45.6212 63.9886C45.6212 63.9021 45.5488 63.832 45.4595 63.832C45.3702 63.832 45.2979 63.9021 45.2979 63.9886C45.2979 64.0751 45.3702 64.1452 45.4595 64.1452Z" fill="#E6E8EC"/>
<path d="M55.0109 68.9888C55.1594 68.9888 55.2797 68.8723 55.2797 68.7286C55.2797 68.5848 55.1594 68.4683 55.0109 68.4683C54.8625 68.4683 54.7422 68.5848 54.7422 68.7286C54.7422 68.8723 54.8625 68.9888 55.0109 68.9888Z" fill="#E6E8EC"/>
<path d="M50.4844 66.8849C50.4642 69.2451 55.5038 69.7461 55.5038 69.7461L56.791 69.9418L57.3689 70.0299L57.6094 67.7245C57.6094 67.7245 57.3447 67.6853 57.0153 67.611C56.5263 67.5014 55.8938 67.3115 55.7625 67.0434C55.5503 66.5992 50.4986 64.5246 50.4844 66.8849Z" fill="#EE8E9E"/>
<path opacity="0.1" d="M58.1992 51.6259C58.3151 51.6342 58.4244 51.6813 58.5084 51.759C58.6498 51.9058 58.6579 52.1661 58.8438 52.2561C58.9133 52.2845 58.9899 52.2926 59.0641 52.2796C59.5551 52.213 59.838 51.6768 60.3108 51.528C60.5857 51.4596 60.8764 51.4838 61.1353 51.5965C61.2404 51.6295 61.3351 51.6882 61.4101 51.7668C61.5677 51.9625 61.4566 52.2561 61.5293 52.4948C61.6303 52.8275 62.0405 52.9587 62.3942 53.0017C62.7478 53.0448 63.1479 53.0702 63.3843 53.3286C63.4625 53.4254 63.5187 53.5373 63.549 53.6567C63.5793 53.7761 63.5831 53.9004 63.5601 54.0214C63.5389 54.1056 63.5389 54.1935 63.5601 54.2777C63.6571 54.5459 64.136 54.5048 64.2613 54.2934C64.3542 54.1388 64.3259 54.0116 64.5421 53.9685C64.6966 53.9566 64.8516 53.9829 64.9928 54.0449C65.3689 54.1699 65.7651 54.2289 66.1627 54.219C66.4156 53.6966 66.5517 53.1284 66.5619 52.5515C66.5722 51.9746 66.4565 51.4021 66.2223 50.8716C65.9881 50.3411 65.6409 49.8645 65.2032 49.473C64.7655 49.0816 64.2474 48.7842 63.6828 48.6003C63.1181 48.4164 62.5197 48.3501 61.9268 48.4059C61.3338 48.4616 60.7598 48.6381 60.2422 48.9238C59.7246 49.2095 59.2753 49.5979 58.9235 50.0636C58.5718 50.5292 58.3256 51.0617 58.2012 51.6259H58.1992Z" fill="black"/>
<path d="M63.5581 54.1699C63.537 54.0857 63.537 53.9978 63.5581 53.9136C63.5812 53.7929 63.5775 53.6689 63.5472 53.5498C63.5168 53.4307 63.4607 53.3192 63.3823 53.2227C63.1459 52.9624 62.7478 52.9389 62.3922 52.8939C62.0366 52.8489 61.6284 52.7198 61.5273 52.3871C61.4546 52.1483 61.5657 51.8567 61.4081 51.661C61.3343 51.581 61.2393 51.5221 61.1333 51.4907C60.8747 51.3774 60.584 51.3526 60.3089 51.4203C59.836 51.569 59.5531 52.1052 59.0621 52.1718C58.9879 52.1858 58.9111 52.1776 58.8419 52.1483C58.656 52.0583 58.6398 51.798 58.5064 51.6512C58.2821 51.4222 57.8558 51.5709 57.583 51.4007C57.4175 51.267 57.3106 51.0774 57.2839 50.8703C57.1617 50.4865 57.134 50.0803 57.2031 49.6843C57.3627 49.0209 57.977 48.5649 58.367 47.9954C58.7327 47.467 58.9389 46.7976 59.4865 46.4473C60.0341 46.097 60.7393 46.1753 61.3596 46.3534C61.6448 46.4519 61.9382 46.5266 62.2366 46.5765C62.7357 46.6352 63.2368 46.5041 63.738 46.4884C64.4482 46.4662 65.1461 46.6727 65.7223 47.0755C65.8522 47.1576 65.9625 47.2657 66.0456 47.3926C66.1289 47.5724 66.1782 47.7654 66.1911 47.9621C66.2501 48.3316 66.3826 48.6865 66.5811 49.0072C66.7346 49.2596 66.9307 49.4867 67.0701 49.7469C67.226 50.0021 67.2738 50.3058 67.2034 50.5944C67.1549 50.7411 67.062 50.8742 67.0256 51.0249C66.9448 51.3733 67.1812 51.7079 67.3429 52.0289C67.5002 52.3227 67.5747 52.6514 67.5591 52.982C67.5505 53.1467 67.5067 53.308 67.4305 53.4555C67.3544 53.603 67.2475 53.7337 67.1166 53.8392C66.8421 54.0236 66.5149 54.1201 66.181 54.1151C65.776 54.1271 65.3721 54.0681 64.9888 53.941C64.8474 53.88 64.6926 53.8537 64.5382 53.8646C64.322 53.9077 64.3502 54.0349 64.2573 54.1895C64.134 54.397 63.6571 54.4381 63.5581 54.1699Z" fill="#3F3D56"/>
<path opacity="0.1" d="M61.2811 77.2537L63.6635 75.4492L67.4098 71.8736L66.1732 71.8188C66.028 71.946 65.9354 72.1198 65.9125 72.3081C65.8943 72.7445 64.9022 72.3375 64.3829 72.588C63.8635 72.8385 61.3377 75.9737 60.8952 75.9522C60.4526 75.9307 60.101 75.735 59.9151 76.0383L59.903 76.0579C59.8293 76.1402 59.73 76.1971 59.6201 76.2203L61.2811 77.2537Z" fill="black"/>
<path d="M56.4824 77.1283L57.6787 80.8291L57.8666 81.4163L58.4364 81.2656L59.6933 80.9309L65.2865 79.4435C65.9911 79.4139 66.6806 79.2363 67.3072 78.923C68.3647 78.3491 69.5747 78.0936 70.7828 78.189C71.5224 78.2556 72.3448 77.9464 73.0278 76.7252C73.0278 76.7252 74.5776 72.2924 70.6656 71.0222C66.7536 69.7521 66.5656 71.6974 66.5656 71.6974L66.5111 71.7287C66.3595 71.8227 65.9352 72.1201 65.919 72.4763C65.9008 72.9128 64.9087 72.5076 64.3894 72.7562C63.87 73.0047 61.3442 76.1419 60.9017 76.1204C60.4591 76.0989 60.1075 75.9032 59.9216 76.2085L59.9095 76.2281C59.7721 76.4101 59.3619 76.4531 59.0891 76.459C59.0043 76.4633 58.9193 76.4633 58.8345 76.459L58.7981 76.4688L58.5152 76.551L56.4824 77.1283Z" fill="#65617D"/>
<path opacity="0.1" d="M56.791 69.9442L57.3689 70.0322L57.6094 67.7268C57.6094 67.7268 57.3447 67.6877 57.0153 67.6133C57.1022 67.9362 56.9042 69.1789 56.791 69.9442Z" fill="black"/>
<path opacity="0.1" d="M71.8856 59.1685C71.8856 59.1685 73.6012 58.6851 73.1768 63.4056C72.8822 66.2867 71.6177 68.994 69.578 71.1106C69.578 71.1106 65.9226 72.6645 64.2798 72.414C62.637 72.1635 61.4387 72.1106 61.4387 72.1106C60.9211 71.8575 60.3547 71.7116 59.7757 71.682C58.8542 71.6468 56.9164 71.0949 56.878 70.9129C56.8396 70.7309 57.3589 68.1065 57.1367 67.9108C57.1367 67.9108 59.7211 68.0125 59.9798 68.1926C60.2384 68.3726 60.6082 68.2454 60.885 68.1926C61.1619 68.1397 62.0105 67.4273 63.6897 68.0536C63.6897 68.0536 64.2616 68.1065 64.4839 67.9636C64.6651 67.8818 64.8714 67.8692 65.0618 67.9284C65.2054 67.8821 65.3415 67.8162 65.4659 67.7327C65.5205 67.6622 65.965 67.7327 65.965 67.7327C65.9915 67.7441 66.0202 67.7499 66.0492 67.7497C66.0781 67.7494 66.1067 67.7432 66.133 67.7313C66.1592 67.7194 66.1826 67.7022 66.2013 67.6808C66.2201 67.6594 66.2339 67.6344 66.2419 67.6074C66.3003 67.4615 66.3882 67.3285 66.5005 67.216C66.5005 67.216 66.9976 64.4996 67.9392 63.4799C68.0144 63.4163 68.0722 63.3356 68.1074 63.2452C68.1427 63.1547 68.1543 63.0572 68.1413 62.9613C68.0645 62.6717 69.671 58.5951 71.8856 59.1685Z" fill="black"/>
<path d="M71.8395 58.8043C71.8395 58.8043 73.557 58.3229 73.1327 63.0414C72.8388 65.9227 71.5742 68.6303 69.5339 70.7464C69.5339 70.7464 65.8785 72.3023 64.2356 72.0518C62.5928 71.8013 61.3925 71.7426 61.3925 71.7426C60.8757 71.4893 60.31 71.3433 59.7315 71.314C58.8081 71.2768 56.8703 70.7268 56.8339 70.5448C56.7975 70.3628 57.3128 67.7384 57.0925 67.5407C57.0925 67.5407 59.677 67.6444 59.9356 67.8245C60.1943 68.0046 60.562 67.8754 60.8389 67.8245C61.1157 67.7736 61.9644 67.0593 63.6456 67.6836C63.6456 67.6836 64.2175 67.7384 64.4377 67.5955C64.619 67.5144 64.8249 67.5012 65.0156 67.5583C65.1588 67.511 65.2948 67.4452 65.4198 67.3626C65.4743 67.2902 65.9168 67.3626 65.9168 67.3626C65.9433 67.3741 65.972 67.3799 66.001 67.3796C66.03 67.3794 66.0586 67.3731 66.0848 67.3613C66.1111 67.3494 66.1344 67.3322 66.1532 67.3108C66.172 67.2894 66.1858 67.2644 66.1937 67.2374C66.2521 67.0915 66.3401 66.9584 66.4523 66.846C66.4523 66.846 66.9514 64.1295 67.8931 63.1099C67.9682 63.0463 68.026 62.9656 68.0613 62.8751C68.0965 62.7847 68.1082 62.6871 68.0951 62.5913C68.0204 62.3095 69.6248 58.2387 71.8395 58.8043Z" fill="#3F3D56"/>
<path opacity="0.1" d="M58.5088 76.5412L60.9457 79.3985L60.9619 79.3829C60.9801 79.3281 61.2205 78.7214 61.164 78.6842C61.1074 78.647 60.6851 77.7546 59.8364 77.3788C59.4047 77.175 59.0422 76.8558 58.7917 76.459L58.5088 76.5412Z" fill="black"/>
<path opacity="0.1" d="M58.5414 81.4869L58.8081 81.6337C58.8081 81.6337 59.4265 81.1542 60.0428 80.6708C60.6591 80.1874 61.2552 79.7138 61.2552 79.6923C61.2552 79.6707 61.5138 79.0308 61.4573 78.9955C61.4007 78.9603 61.3017 78.7294 61.0673 78.4417C59.4143 77.9935 60.4611 79.1051 60.6066 79.156C60.6066 79.156 58.596 78.7078 58.4848 80.8313C58.4752 81.0512 58.4943 81.2715 58.5414 81.4869Z" fill="black"/>
<path d="M60.5797 82.385L60.9313 82.5807L64.4938 82.6688C64.8932 82.904 65.3155 83.1007 65.7547 83.2559C65.8129 83.2727 65.8723 83.2851 65.9325 83.2931C66.2632 83.3192 66.5952 83.3251 66.9267 83.3107C67.1995 83.3107 67.4096 83.2931 67.4096 83.2931C67.4096 83.2931 67.2419 78.9425 67.1146 78.4845C67.054 78.2653 66.7549 78.3123 66.4599 78.4219C66.2387 78.5096 66.0252 78.6143 65.8214 78.735C65.8214 78.735 64.3099 78.8779 64.0694 79.0032C63.829 79.1284 63.146 78.9307 62.7216 79.0032C62.2973 79.0756 61.5395 78.5198 61.5395 78.5198C59.4724 77.8583 60.6363 79.0912 60.7838 79.146C60.7838 79.146 58.7631 78.6979 58.6601 80.8213C58.557 82.9447 60.5797 82.385 60.5797 82.385Z" fill="#3F3D56"/>
<path d="M65.7303 80.706C65.7687 81.6063 66.4942 82.7238 66.9266 83.3148C67.1994 83.3148 67.4095 83.2972 67.4095 83.2972C67.4095 83.2972 67.2418 78.9466 67.1145 78.4887C67.0539 78.2695 66.7548 78.3164 66.4598 78.426C66.1021 79.0758 65.698 79.978 65.7303 80.706Z" fill="#565387"/>
<path opacity="0.1" d="M65.7303 80.706C65.7687 81.6063 66.4942 82.7238 66.9266 83.3148C67.1994 83.3148 67.4095 83.2972 67.4095 83.2972C67.4095 83.2972 67.2418 78.9466 67.1145 78.4887C67.0539 78.2695 66.7548 78.3164 66.4598 78.426C66.1021 79.0758 65.698 79.978 65.7303 80.706Z" fill="black"/>
<path opacity="0.05" d="M65.1206 80.8254C65.3671 81.6944 65.3631 82.669 65.7551 83.26C65.8133 83.2768 65.8727 83.2892 65.9329 83.2972C66.2636 83.3233 66.5956 83.3292 66.9271 83.3148C67.1999 83.3148 67.41 83.2972 67.41 83.2972C67.41 83.2972 67.2423 78.9466 67.115 78.4887C67.0544 78.2695 66.7553 78.3164 66.4603 78.426C66.2391 78.5137 66.0256 78.6184 65.8218 78.7392C65.8218 78.7392 64.8074 79.7118 65.1206 80.8254Z" fill="black"/>
<path opacity="0.1" d="M52.8311 72.0049C52.8311 72.0049 54.6012 72.5607 56.1005 74.5373L52.8311 72.0049Z" fill="black"/>
<g opacity="0.1">
<path d="M67.2095 50.5513C67.2095 50.565 67.2095 50.5767 67.1994 50.5904C67.1823 50.6414 67.1614 50.6911 67.1367 50.7391C67.1562 50.6749 67.1805 50.6121 67.2095 50.5513Z" fill="black"/>
<path d="M57.1994 49.6843C57.2294 49.5592 57.2756 49.4382 57.3368 49.3242C57.3368 49.3536 57.3166 49.3849 57.3085 49.4162C57.2412 49.8124 57.2695 50.2184 57.3914 50.6022C57.4182 50.8088 57.5242 50.9981 57.6884 51.1326C57.9632 51.3028 58.3896 51.1541 58.6139 51.3831C58.7553 51.5298 58.7634 51.7901 58.9493 51.8802C59.0186 51.9095 59.0954 51.9177 59.1696 51.9036C59.6606 51.8371 59.9435 51.3009 60.4163 51.1521C60.6914 51.0835 60.9824 51.1084 61.2408 51.2226C61.3467 51.2539 61.4418 51.3128 61.5156 51.3928C61.6732 51.5886 61.5621 51.8802 61.6348 52.1189C61.7358 52.4516 62.146 52.5828 62.4997 52.6258C62.8533 52.6689 63.2534 52.6943 63.4898 52.9546C63.5681 53.051 63.6243 53.1625 63.6546 53.2817C63.6849 53.4008 63.6887 53.5248 63.6656 53.6454C63.6444 53.7297 63.6444 53.8176 63.6656 53.9018C63.7626 54.1699 64.2415 54.1288 64.3668 53.9175C64.4597 53.7629 64.4314 53.6357 64.6476 53.5926C64.802 53.5817 64.9568 53.6079 65.0982 53.6689C65.4816 53.796 65.8855 53.8551 66.2905 53.8431C66.6244 53.8481 66.9516 53.7516 67.226 53.5672C67.346 53.4759 67.4439 53.3603 67.513 53.2286C67.4506 53.4683 67.3086 53.6814 67.1088 53.8353C66.8344 54.0197 66.5072 54.1162 66.1733 54.1112C65.7683 54.1232 65.3644 54.0642 64.9811 53.937C64.8396 53.876 64.6848 53.8498 64.5304 53.8607C64.3142 53.9038 64.3425 54.031 64.2516 54.1856C64.1243 54.397 63.6454 54.4381 63.5484 54.1699C63.5282 54.0856 63.5282 53.9979 63.5484 53.9136C63.5715 53.7929 63.5677 53.6689 63.5374 53.5498C63.5071 53.4306 63.4509 53.3191 63.3726 53.2227C63.1362 52.9624 62.7381 52.9389 62.3825 52.8939C62.0268 52.8489 61.6186 52.7197 61.5176 52.387C61.4449 52.1483 61.556 51.8567 61.3984 51.661C61.3251 51.5813 61.2308 51.5224 61.1256 51.4907C60.8662 51.3774 60.5749 51.3526 60.2991 51.4202C59.8283 51.569 59.5434 52.1052 59.0524 52.1718C58.9782 52.1858 58.9014 52.1776 58.8321 52.1483C58.6462 52.0583 58.63 51.798 58.4967 51.6512C58.2724 51.4222 57.848 51.5709 57.5732 51.4007C57.4078 51.267 57.3009 51.0774 57.2742 50.8703C57.154 50.4861 57.1284 50.0799 57.1994 49.6843Z" fill="black"/>
</g>
<path opacity="0.1" d="M67.4972 63.9943C67.1577 64.4366 66.7717 64.8456 66.4727 65.3114C66.1478 65.7706 65.99 66.3214 66.0241 66.8771C66.3333 66.5698 66.4767 66.1432 66.6707 65.7576C67.0021 65.1039 67.4951 64.5501 67.9134 63.9512C67.9922 63.8358 68.5014 63.1684 68.2448 63.141C68.0306 63.1116 67.6123 63.8436 67.4972 63.9943Z" fill="black"/>
<path d="M69.3158 105.87C69.5603 106.63 69.8068 107.391 70.1119 108.129C70.6616 109.411 71.3534 110.633 72.175 111.771C72.7047 112.52 73.274 113.243 73.8805 113.935C74.6403 114.802 75.497 115.675 75.7557 116.783C75.9113 117.423 75.8587 118.09 75.9234 118.74C75.9881 119.39 76.2083 120.087 76.7559 120.478C77.1459 120.758 77.645 120.842 78.1239 120.914C78.4674 120.967 78.8958 120.985 79.0736 120.697C79.1358 120.58 79.1684 120.449 79.1686 120.317L79.2515 119.36C79.2676 119.153 79.3444 118.889 79.5586 118.879C79.7728 118.869 79.8799 119.145 80.0617 119.27C80.3042 119.435 80.668 119.27 80.8013 119.022C80.9121 118.753 80.9192 118.454 80.8215 118.18C80.6744 117.636 80.4098 117.127 80.0451 116.689C79.6805 116.25 79.224 115.891 78.7059 115.636C78.346 115.496 78.0009 115.322 77.6753 115.117C77.3446 114.839 77.0705 114.503 76.867 114.127C74.9919 111.137 73.1066 108.131 71.783 104.876C71.5222 104.294 71.3461 103.681 71.2597 103.052C71.195 102.412 71.2981 101.768 71.3405 101.126C71.4188 99.9732 71.3083 98.8153 71.0131 97.6956C70.9486 97.4016 70.8346 97.12 70.6757 96.8619C70.1301 96.0614 68.8571 95.942 68.0488 96.4939C67.7512 96.7157 67.5044 96.995 67.3242 97.314C67.144 97.6331 67.0343 97.985 67.0021 98.3473C66.9435 98.997 67.3294 99.6703 67.5254 100.275C68.1195 102.142 68.7163 104.007 69.3158 105.87Z" fill="#A1616A"/>
<path opacity="0.05" d="M69.3158 105.87C69.5603 106.63 69.8068 107.391 70.1119 108.129C70.6616 109.411 71.3534 110.633 72.175 111.771C72.7047 112.52 73.274 113.243 73.8805 113.935C74.6403 114.802 75.497 115.675 75.7557 116.783C75.9113 117.423 75.8587 118.09 75.9234 118.74C75.9881 119.39 76.2083 120.087 76.7559 120.478C77.1459 120.758 77.645 120.842 78.1239 120.914C78.4674 120.967 78.8958 120.985 79.0736 120.697C79.1358 120.58 79.1684 120.449 79.1686 120.317L79.2515 119.36C79.2676 119.153 79.3444 118.889 79.5586 118.879C79.7728 118.869 79.8799 119.145 80.0617 119.27C80.3042 119.435 80.668 119.27 80.8013 119.022C80.9121 118.753 80.9192 118.454 80.8215 118.18C80.6744 117.636 80.4098 117.127 80.0451 116.689C79.6805 116.25 79.224 115.891 78.7059 115.636C78.346 115.496 78.0009 115.322 77.6753 115.117C77.3446 114.839 77.0705 114.503 76.867 114.127C74.9919 111.137 73.1066 108.131 71.783 104.876C71.5222 104.294 71.3461 103.681 71.2597 103.052C71.195 102.412 71.2981 101.768 71.3405 101.126C71.4188 99.9732 71.3083 98.8153 71.0131 97.6956C70.9486 97.4016 70.8346 97.12 70.6757 96.8619C70.1301 96.0614 68.8571 95.942 68.0488 96.4939C67.7512 96.7157 67.5044 96.995 67.3242 97.314C67.144 97.6331 67.0343 97.985 67.0021 98.3473C66.9435 98.997 67.3294 99.6703 67.5254 100.275C68.1195 102.142 68.7163 104.007 69.3158 105.87Z" fill="black"/>
<path d="M57.5349 137.845C57.9005 137.968 58.2892 138.014 58.6746 137.978C58.7029 137.673 59.1272 137.604 59.4424 137.62C59.5949 137.615 59.746 137.649 59.8809 137.718C59.9597 137.767 60.0203 137.837 60.0971 137.888C60.234 137.961 60.3876 137.999 60.5437 138L62.1845 138.133C62.916 138.193 63.6778 138.248 64.3628 137.996C64.4993 137.954 64.6205 137.875 64.7124 137.769C64.8983 137.51 64.7124 137.14 64.4557 136.953C64.1991 136.765 63.8677 136.681 63.6091 136.489C63.0392 136.068 62.9604 135.281 62.6594 134.651C62.4454 134.254 62.1813 133.884 61.8733 133.549C61.6501 133.262 61.3901 133.004 61.0994 132.78C60.4406 132.32 59.6849 132.33 58.911 132.263C58.3654 132.216 57.8522 132.185 57.4601 132.655C56.9752 133.242 57.1692 134.416 57.1995 135.101C57.2373 136.023 57.3495 136.94 57.5349 137.845Z" fill="#514E7F"/>
<path opacity="0.05" d="M57.5349 137.845C57.9005 137.968 58.2892 138.014 58.6746 137.978C58.7029 137.673 59.1272 137.604 59.4424 137.62C59.5949 137.615 59.746 137.649 59.8809 137.718C59.9597 137.767 60.0203 137.837 60.0971 137.888C60.234 137.961 60.3876 137.999 60.5437 138L62.1845 138.133C62.916 138.193 63.6778 138.248 64.3628 137.996C64.4993 137.954 64.6205 137.875 64.7124 137.769C64.8983 137.51 64.7124 137.14 64.4557 136.953C64.1991 136.765 63.8677 136.681 63.6091 136.489C63.0392 136.068 62.9604 135.281 62.6594 134.651C62.4454 134.254 62.1813 133.884 61.8733 133.549C61.6501 133.262 61.3901 133.004 61.0994 132.78C60.4406 132.32 59.6849 132.33 58.911 132.263C58.3654 132.216 57.8522 132.185 57.4601 132.655C56.9752 133.242 57.1692 134.416 57.1995 135.101C57.2373 136.023 57.3495 136.94 57.5349 137.845Z" fill="black"/>
<path d="M58.1972 106.933C57.6961 107.089 57.4779 107.694 57.5708 108.197C57.6638 108.7 57.9749 109.134 58.2316 109.581C58.9631 110.847 59.2783 112.295 59.8926 113.616C60.3513 114.595 60.9716 115.514 61.4243 116.505C61.8769 117.495 62.1578 118.613 61.8829 119.663C61.7496 120.174 61.4909 120.642 61.3192 121.145C61.1492 121.69 61.0381 122.251 60.9878 122.818C60.7653 124.746 60.7254 126.689 60.8686 128.623C60.8698 128.859 60.9207 129.092 61.0181 129.308C61.1212 129.504 61.299 129.699 61.2202 129.895C61.1858 129.975 61.111 130.034 61.0747 130.112C60.9696 130.332 61.1798 130.564 61.3717 130.721C61.3374 130.78 61.2913 130.831 61.2362 130.873C61.181 130.914 61.1178 130.944 61.0504 130.962C61.1881 131.047 61.2939 131.172 61.3521 131.32C61.4104 131.468 61.4179 131.63 61.3737 131.782C61.204 131.807 61.1939 132.06 61.301 132.193C61.4081 132.326 61.5778 132.408 61.6546 132.559C61.6998 132.681 61.6949 132.816 61.6408 132.936C61.5867 133.055 61.4875 133.15 61.3636 133.201C61.1112 133.295 60.8358 133.315 60.5715 133.259C60.1234 133.199 59.6809 133.105 59.248 132.977C59.0217 132.934 58.819 132.814 58.6772 132.638C58.5354 132.461 58.464 132.242 58.4761 132.019C58.376 131.222 58.3456 130.419 58.3851 129.617C58.4559 125.734 58.3852 121.848 58.2114 117.967C58.1406 116.401 57.6557 114.884 57.0313 113.444C56.6861 112.708 56.3024 111.989 55.8815 111.291C54.9803 109.694 54.1842 107.925 54.3903 106.115C54.4125 105.919 54.4852 105.686 54.6853 105.655C54.7635 105.647 54.8425 105.659 54.9136 105.692C55.3287 105.88 55.7304 106.094 56.1159 106.334C56.7494 106.694 57.4636 106.899 58.1972 106.933Z" fill="#464353"/>
<path opacity="0.05" d="M58.1972 106.933C57.6961 107.089 57.4779 107.694 57.5708 108.197C57.6638 108.7 57.9749 109.134 58.2316 109.581C58.9631 110.847 59.2783 112.295 59.8926 113.616C60.3513 114.595 60.9716 115.514 61.4243 116.505C61.8769 117.495 62.1578 118.613 61.8829 119.663C61.7496 120.174 61.4909 120.642 61.3192 121.145C61.1492 121.69 61.0381 122.251 60.9878 122.818C60.7653 124.746 60.7254 126.689 60.8686 128.623C60.8698 128.859 60.9207 129.092 61.0181 129.308C61.1212 129.504 61.299 129.699 61.2202 129.895C61.1858 129.975 61.111 130.034 61.0747 130.112C60.9696 130.332 61.1798 130.564 61.3717 130.721C61.3374 130.78 61.2913 130.831 61.2362 130.873C61.181 130.914 61.1178 130.944 61.0504 130.962C61.1881 131.047 61.2939 131.172 61.3521 131.32C61.4104 131.468 61.4179 131.63 61.3737 131.782C61.204 131.807 61.1939 132.06 61.301 132.193C61.4081 132.326 61.5778 132.408 61.6546 132.559C61.6998 132.681 61.6949 132.816 61.6408 132.936C61.5867 133.055 61.4875 133.15 61.3636 133.201C61.1112 133.295 60.8358 133.315 60.5715 133.259C60.1234 133.199 59.6809 133.105 59.248 132.977C59.0217 132.934 58.819 132.814 58.6772 132.638C58.5354 132.461 58.464 132.242 58.4761 132.019C58.376 131.222 58.3456 130.419 58.3851 129.617C58.4559 125.734 58.3852 121.848 58.2114 117.967C58.1406 116.401 57.6557 114.884 57.0313 113.444C56.6861 112.708 56.3024 111.989 55.8815 111.291C54.9803 109.694 54.1842 107.925 54.3903 106.115C54.4125 105.919 54.4852 105.686 54.6853 105.655C54.7635 105.647 54.8425 105.659 54.9136 105.692C55.3287 105.88 55.7304 106.094 56.1159 106.334C56.7494 106.694 57.4636 106.899 58.1972 106.933Z" fill="black"/>
<path d="M51.4225 102.212C51.1613 102.05 50.8599 101.958 50.5496 101.946C50.1899 101.964 49.8828 102.193 49.6019 102.412C49.2691 102.659 48.9532 102.927 48.6562 103.214C48.0412 103.849 47.6128 104.632 47.4152 105.481C47.2177 106.331 47.2582 107.216 47.5327 108.045C47.8298 108.908 48.3733 109.669 48.9108 110.415L50.002 111.933C51.667 114.248 53.3321 116.564 55.0759 118.824C55.0763 118.88 55.0949 118.934 55.1291 118.978C55.1632 119.023 55.2111 119.056 55.2659 119.073C55.3285 119.088 55.4073 119.086 55.4457 119.137C55.4635 119.169 55.4712 119.205 55.4679 119.241C55.4641 119.408 55.4313 119.574 55.371 119.73C55.3426 119.782 55.3354 119.842 55.3507 119.899C55.4073 120.026 55.6458 119.953 55.7226 120.073C55.7731 120.151 55.7104 120.253 55.6437 120.319C55.5771 120.386 55.4942 120.46 55.5063 120.552C55.5185 120.644 55.6842 120.748 55.6781 120.861C55.6781 120.928 55.6175 120.979 55.575 121.032C55.5156 121.116 55.4886 121.218 55.4986 121.319C55.5085 121.421 55.5549 121.516 55.6296 121.588C55.7448 122.691 55.1244 123.74 55.0012 124.84C54.7991 126.578 55.6175 128.275 55.7165 130.019C55.7106 130.215 55.7492 130.41 55.8296 130.59C55.9974 130.891 56.4359 131.073 56.4136 131.416C56.3819 131.557 56.3407 131.695 56.2904 131.831C56.256 132.027 56.353 132.222 56.357 132.418C56.3611 132.614 56.1812 132.854 55.9913 132.776C56.1341 133.238 56.2614 133.704 56.3732 134.173L60.1923 134.479C60.2335 134.146 60.2219 133.81 60.1579 133.481C60.0791 133.123 59.9134 132.79 59.8266 132.436C59.7701 132.261 59.7542 132.077 59.78 131.896C59.8059 131.715 59.8728 131.542 59.9761 131.389C59.8765 131.39 59.7798 131.357 59.7029 131.296C59.626 131.234 59.5739 131.149 59.5558 131.054C59.5238 130.863 59.5272 130.668 59.5659 130.479C59.6669 129.514 59.2486 128.563 59.2608 127.594C59.2729 126.831 59.5497 126.097 59.6892 125.347C59.9882 123.742 59.677 122.002 60.4146 120.537C60.8612 119.654 61.4795 118.675 60.9783 117.82C60.7318 117.397 60.2954 117.108 60.0104 116.709C59.7782 116.331 59.6039 115.923 59.4931 115.497C58.9051 113.736 57.9534 112.1 57.1188 110.424C56.8872 110.004 56.7153 109.556 56.6076 109.092C56.5487 108.684 56.527 108.272 56.543 107.861C56.5429 107.122 56.4964 106.384 56.4035 105.651C56.3847 105.33 56.29 105.017 56.1267 104.737C55.9618 104.525 55.7559 104.346 55.5205 104.211C54.2677 103.379 52.7764 102.903 51.4225 102.212Z" fill="#464353"/>
<path d="M55.999 139.201C56.3657 139.323 56.7548 139.367 57.1407 139.332C57.169 139.027 57.5913 138.958 57.9065 138.974C58.059 138.969 58.2101 139.003 58.345 139.072C58.4238 139.121 58.4845 139.193 58.5633 139.242C58.6998 139.316 58.8536 139.354 59.0098 139.354L60.6486 139.487C61.3821 139.548 62.1419 139.604 62.8289 139.35C62.9652 139.309 63.086 139.23 63.1765 139.123C63.3624 138.864 63.1765 138.497 62.9199 138.309C62.6632 138.121 62.3318 138.035 62.0752 137.843C61.5034 137.422 61.4266 136.637 61.1235 136.007C60.9114 135.609 60.648 135.238 60.3394 134.903C60.1155 134.617 59.8548 134.359 59.5635 134.136C58.9068 133.674 58.149 133.684 57.3771 133.618C56.8295 133.571 56.3163 133.541 55.9263 134.009C55.4413 134.596 55.6353 135.77 55.6636 136.457C55.7015 137.379 55.8137 138.296 55.999 139.201Z" fill="#514E7F"/>
<path d="M72.9263 95.8068C75.0154 95.8068 76.709 94.1665 76.709 92.1431C76.709 90.1198 75.0154 88.4795 72.9263 88.4795C70.8371 88.4795 69.1436 90.1198 69.1436 92.1431C69.1436 94.1665 70.8371 95.8068 72.9263 95.8068Z" fill="#A1616A"/>
<path d="M69.358 93.2313C68.8164 93.6833 68.0385 93.7166 67.3272 93.7871C65.8063 93.9384 64.3258 94.3534 62.9565 95.0122C62.7669 95.0913 62.5953 95.2057 62.4513 95.3488C62.3284 95.5041 62.2409 95.6829 62.1947 95.8733C62.0646 96.2855 62.0159 96.7177 62.0512 97.1474C62.1008 97.5641 62.2245 97.9693 62.4169 98.3451C62.9419 99.3977 63.7521 100.293 64.7609 100.934C64.9387 101.063 65.1405 101.156 65.355 101.21C65.8521 101.31 66.333 101.032 66.8241 100.907C67.2707 100.794 67.7415 100.808 68.1799 100.948C68.5841 101.081 69.0266 101.324 69.4267 101.161C69.6827 101.023 69.8818 100.803 69.9905 100.539C70.3769 99.8317 70.7216 99.1038 71.023 98.3588C71.1313 98.0679 71.2561 97.7831 71.3969 97.5055C71.8353 96.6972 72.5931 96.0729 72.971 95.2334C73.0093 95.1693 73.0325 95.0978 73.0388 95.024C73.0451 94.9502 73.0343 94.876 73.0073 94.8067C72.9373 94.7131 72.8403 94.6416 72.7285 94.6012C72.1697 94.2914 71.6606 93.9044 71.217 93.4524C70.9685 93.2215 70.5118 92.5972 70.1541 92.5424C69.752 92.4758 69.6308 93.0042 69.358 93.2313Z" fill="#A1616A"/>
<path d="M69.4467 100.676C69.0082 100.872 68.4909 100.788 68.016 100.692C66.7915 100.443 65.5528 100.193 64.4192 99.68C64.065 99.5487 63.7581 99.3202 63.5362 99.0224C63.3983 98.7677 63.3144 98.4889 63.2896 98.2024L63.0876 96.8324C63.0148 96.3568 63.1401 95.9165 63.1522 95.4351C63.1599 95.3817 63.1566 95.3274 63.1424 95.2753C63.1281 95.2232 63.1033 95.1744 63.0694 95.1317C63.0002 95.0754 62.9109 95.048 62.8208 95.0554C62.253 95.0652 61.9095 95.6425 61.5114 96.0339C61.2814 96.2598 61.0064 96.4383 60.7032 96.5584C60.3394 96.7032 59.8949 96.805 59.7433 97.1573C59.6827 97.3041 59.6908 97.4704 59.6261 97.6172C59.3715 98.2043 58.2864 98.0086 58.0096 98.5957C57.9308 98.7601 57.9369 98.9656 57.8075 99.0948C57.6782 99.224 57.4357 99.222 57.2357 99.2533C56.4456 99.3786 56.0637 100.261 55.3888 100.678C54.821 101.03 54.0895 101.023 53.4772 101.297C53.1377 101.449 52.8367 101.688 52.477 101.788C52.1173 101.888 51.7111 101.835 51.3252 101.844C51.284 101.841 51.2425 101.845 51.2032 101.858C51.1639 101.87 51.1277 101.89 51.0968 101.917C51.0729 101.952 51.057 101.992 51.0504 102.034C51.0438 102.076 51.0465 102.119 51.0584 102.16C51.2456 103.317 51.7407 104.407 52.4951 105.322C53.2494 106.238 54.237 106.948 55.3605 107.381C55.4909 107.421 55.6147 107.479 55.7282 107.553C56.0718 107.802 56.1324 108.336 56.5224 108.512C56.6631 108.56 56.8148 108.57 56.9607 108.539C57.1066 108.509 57.2409 108.44 57.3488 108.34C57.564 108.139 57.7664 107.926 57.955 107.702C58.3111 107.342 58.7785 107.103 59.2867 107.023C59.7555 106.951 60.2788 107.003 60.6587 106.723C60.8141 106.585 60.9586 106.436 61.0911 106.277C61.3726 106.023 61.7067 105.829 62.0712 105.71C63.0672 105.329 64.1198 105.105 65.1891 105.046C66.1853 104.993 67.2098 105.081 68.1514 104.768C68.3959 104.695 68.6212 104.571 68.8122 104.406C69.0146 104.194 69.1652 103.941 69.2527 103.665C69.5924 102.703 69.6594 101.671 69.4467 100.676Z" fill="#FED04D"/>
<path d="M64.5706 95.2765C64.8494 95.2511 65.1303 95.2765 65.4112 95.2765C65.7406 95.2765 66.0659 95.1982 66.3953 95.1963C66.9168 95.2045 67.4221 95.374 67.8372 95.6799C68.2523 95.9859 68.5556 96.4123 68.7029 96.897C68.7306 96.9744 68.7355 97.0578 68.717 97.1377C68.7061 97.1772 68.681 97.2116 68.6461 97.2345C68.6112 97.2575 68.569 97.2676 68.5271 97.263C68.4177 96.9735 68.2747 96.6971 68.1007 96.439C67.7875 96.025 67.3411 95.7234 66.8317 95.5818C66.3238 95.4425 65.7887 95.4237 65.2718 95.527C65.0555 95.5662 64.8454 95.621 64.6352 95.6777L63.6249 95.9478C63.439 95.9967 63.2511 96.0457 63.0712 96.1102C62.9318 96.1611 62.6934 96.347 62.556 96.3549C62.3701 96.3549 62.5196 96.1983 62.6024 96.0926C62.7674 95.8747 62.9984 95.7119 63.2632 95.6268C63.6831 95.4603 64.122 95.3427 64.5706 95.2765Z" fill="#FED04D"/>
<path d="M67.1206 106.281C67.3651 107.04 67.6096 107.802 67.9168 108.54C68.4657 109.823 69.1575 111.044 69.9799 112.182C70.5096 112.931 71.0788 113.653 71.6854 114.346C72.4431 115.213 73.2898 116.086 73.5605 117.192C73.7161 117.834 73.6636 118.501 73.7283 119.149C73.7929 119.797 74.0132 120.495 74.5588 120.887C74.9508 121.165 75.4499 121.249 75.9288 121.323C76.2703 121.376 76.6987 121.394 76.8785 121.106C76.9395 120.988 76.972 120.858 76.9735 120.726L77.0543 119.769C77.0725 119.562 77.1493 119.298 77.3614 119.288C77.5736 119.278 77.6848 119.554 77.8666 119.679C78.1091 119.844 78.4728 119.679 78.6062 119.431C78.716 119.161 78.7232 118.863 78.6264 118.589C78.4785 118.045 78.2137 117.537 77.8491 117.098C77.4845 116.66 77.0284 116.301 76.5107 116.045C76.1505 115.904 75.8047 115.73 75.4782 115.526C75.1469 115.248 74.8727 114.911 74.6699 114.534C72.7927 111.546 70.9074 108.54 69.5859 105.283C69.3252 104.702 69.1484 104.089 69.0605 103.461C68.9978 102.821 69.0989 102.177 69.1433 101.535C69.2217 100.382 69.1112 99.2241 68.816 98.1044C68.7516 97.8101 68.6368 97.5283 68.4765 97.2706C67.9329 96.4682 66.6579 96.3508 65.8496 96.9027C65.5517 97.1244 65.3047 97.4036 65.1241 97.7226C64.9436 98.0417 64.8335 98.3936 64.8009 98.7561C64.7423 99.4058 65.1303 100.079 65.3242 100.684C65.921 102.552 66.5198 104.418 67.1206 106.281Z" fill="#A1616A"/>
<path d="M78.4286 89.5517C78.4589 89.2464 78.176 88.9646 77.8548 88.7689C77.5164 88.6009 77.1915 88.4086 76.8828 88.1935C76.5959 87.9528 76.4383 87.6397 76.1513 87.3989C75.8251 87.1584 75.4549 86.9798 75.0602 86.8725C74.2205 86.5874 73.3391 86.4348 72.4494 86.4204C71.5502 86.4204 70.6308 86.6161 69.9539 87.0604C69.7869 87.1621 69.6426 87.2952 69.5295 87.4518C69.4228 87.6397 69.3542 87.8456 69.3275 88.0585C69.1662 88.7151 68.9478 89.3574 68.6748 89.9784C68.3939 90.6692 68.0949 91.3855 67.4341 91.9198C66.7269 92.4893 65.6458 92.8181 65.179 93.507C65.1274 93.5682 65.0912 93.6402 65.0733 93.7173C65.0554 93.7944 65.0563 93.8745 65.076 93.9512C65.1427 94.1254 65.3568 94.2448 65.5549 94.3544C66.7026 94.9924 67.6927 95.8203 68.202 96.8086C68.7112 97.7969 68.697 98.9614 67.9716 99.8714C67.7049 100.208 67.3371 100.607 67.5978 100.946C68.0019 101.461 69.3537 101.165 69.669 101.709C69.768 101.883 69.7094 102.081 69.7094 102.271C69.7094 102.842 70.2772 103.349 70.9663 103.613C71.6553 103.878 72.4535 103.94 73.2294 103.973C73.4354 103.525 73.4557 103.017 73.286 102.555C73.2343 102.455 73.2139 102.343 73.2274 102.232C73.2852 102.108 73.375 102.002 73.4881 101.922C74.3165 101.163 74.1407 100.048 73.6437 99.1453C73.1466 98.2431 72.3706 97.4192 72.0817 96.47C71.9382 95.9983 71.9382 95.468 72.3242 95.0766C72.5457 94.8883 72.7844 94.72 73.0375 94.5736C73.4895 94.2764 73.8376 93.8533 74.0357 93.3602C74.2681 92.7359 74.2377 91.9903 74.9126 91.5695C75.5613 91.1781 76.4726 91.2916 77.19 91.0235C77.7416 90.8121 78.3842 89.9999 78.4286 89.5517Z" fill="#464353"/>
<path d="M117.61 120.218C114.529 118.983 113.623 118.09 113.623 116.303C113.623 114.934 114.246 113.352 116.974 113.352C118.482 113.331 119.963 113.739 121.233 114.526L122.12 112.254C121.092 111.667 119.641 111.121 117.515 111.053V107.726H115.723V111.19C112.463 111.704 110.576 113.865 110.576 116.712C110.576 119.697 112.395 121.276 116.016 122.648C118.639 123.684 120.011 124.85 120.011 126.737C120.011 128.694 118.311 130.099 115.795 130.099C113.813 130.099 111.566 129.447 110.291 128.623L109.44 130.921C110.681 131.78 112.807 132.397 114.86 132.432V135.896H117.909V132.328C121.546 131.741 123.504 129.197 123.504 126.496C123.504 123.443 121.259 121.658 117.61 120.218Z" fill="url(#paint1_linear_290_1309)"/>
<path d="M114.868 135.113V131.649C112.815 131.613 110.689 130.997 109.448 130.138L110.299 127.84C111.574 128.664 113.821 129.316 115.803 129.316C118.319 129.316 120.01 127.91 120.01 125.953C120.01 124.067 118.63 122.9 116.007 121.871C112.394 120.501 110.568 118.92 110.568 115.935C110.568 113.088 112.455 110.927 115.714 110.412V106.948H117.507V110.275C119.632 110.344 121.083 110.892 122.112 111.477L121.225 113.739C119.954 112.952 118.473 112.544 116.965 112.565C114.237 112.565 113.615 114.144 113.615 115.516C113.615 117.299 114.52 118.192 117.602 119.43C121.251 120.871 123.496 122.656 123.496 125.709C123.496 128.419 121.548 130.958 117.901 131.541V135.113H114.868Z" fill="#FED04D"/>
</g>
<defs>
<linearGradient id="paint0_linear_290_1309" x1="61.7943" y1="83.1876" x2="61.7943" y2="45.827" gradientUnits="userSpaceOnUse">
<stop stop-color="#808080" stop-opacity="0.25"/>
<stop offset="0.54" stop-color="#808080" stop-opacity="0.12"/>
<stop offset="1" stop-color="#808080" stop-opacity="0.1"/>
</linearGradient>
<linearGradient id="paint1_linear_290_1309" x1="109.449" y1="121.813" x2="123.504" y2="121.813" gradientUnits="userSpaceOnUse">
<stop stop-color="#808080" stop-opacity="0.25"/>
<stop offset="0.54" stop-color="#808080" stop-opacity="0.12"/>
<stop offset="1" stop-color="#808080" stop-opacity="0.1"/>
</linearGradient>
<clipPath id="clip0_290_1309">
<rect width="238" height="141.919" fill="white"/>
</clipPath>
</defs>
</svg>
