<svg width="129" height="122" viewBox="0 0 129 122" fill="none" xmlns="http://www.w3.org/2000/svg">
<path d="M24.4525 111.764V104.314H27.5925C28.0592 104.314 28.4625 104.397 28.8025 104.564C29.1425 104.724 29.4025 104.957 29.5825 105.264C29.7625 105.564 29.8525 105.92 29.8525 106.334C29.8525 106.694 29.7592 107.024 29.5725 107.324C29.3925 107.617 29.1092 107.85 28.7225 108.024V107.524C29.0625 107.657 29.3392 107.827 29.5525 108.034C29.7659 108.234 29.9192 108.46 30.0125 108.714C30.1125 108.967 30.1625 109.234 30.1625 109.514C30.1625 110.214 29.9325 110.764 29.4725 111.164C29.0192 111.564 28.3959 111.764 27.6025 111.764H24.4525ZM25.6325 110.714H27.6925C28.0859 110.714 28.3992 110.607 28.6325 110.394C28.8659 110.174 28.9825 109.884 28.9825 109.524C28.9825 109.157 28.8659 108.867 28.6325 108.654C28.3992 108.434 28.0859 108.324 27.6925 108.324H25.6325V110.714ZM25.6325 107.284H27.6225C27.9425 107.284 28.1992 107.194 28.3925 107.014C28.5859 106.827 28.6825 106.584 28.6825 106.284C28.6825 105.984 28.5859 105.75 28.3925 105.584C28.1992 105.417 27.9425 105.334 27.6225 105.334H25.6325V107.284ZM34.0064 111.884C33.4664 111.884 32.9864 111.76 32.5664 111.514C32.153 111.26 31.8297 110.92 31.5964 110.494C31.363 110.06 31.2464 109.577 31.2464 109.044C31.2464 108.497 31.363 108.014 31.5964 107.594C31.8364 107.174 32.1564 106.844 32.5564 106.604C32.9564 106.357 33.4097 106.234 33.9164 106.234C34.323 106.234 34.6864 106.304 35.0064 106.444C35.3264 106.584 35.5964 106.777 35.8164 107.024C36.0364 107.264 36.203 107.54 36.3164 107.854C36.4364 108.167 36.4964 108.5 36.4964 108.854C36.4964 108.94 36.493 109.03 36.4864 109.124C36.4797 109.217 36.4664 109.304 36.4464 109.384H32.1364V108.484H35.8064L35.2664 108.894C35.333 108.567 35.3097 108.277 35.1964 108.024C35.0897 107.764 34.923 107.56 34.6964 107.414C34.4764 107.26 34.2164 107.184 33.9164 107.184C33.6164 107.184 33.3497 107.26 33.1164 107.414C32.883 107.56 32.703 107.774 32.5764 108.054C32.4497 108.327 32.3997 108.66 32.4264 109.054C32.393 109.42 32.443 109.74 32.5764 110.014C32.7164 110.287 32.9097 110.5 33.1564 110.654C33.4097 110.807 33.6964 110.884 34.0164 110.884C34.343 110.884 34.6197 110.81 34.8464 110.664C35.0797 110.517 35.263 110.327 35.3964 110.094L36.3164 110.544C36.2097 110.797 36.043 111.027 35.8164 111.234C35.5964 111.434 35.3297 111.594 35.0164 111.714C34.7097 111.827 34.373 111.884 34.0064 111.884ZM37.7992 111.764V106.354H38.8792V107.444L38.7792 107.284C38.8992 106.93 39.0925 106.677 39.3592 106.524C39.6259 106.364 39.9459 106.284 40.3192 106.284H40.6492V107.314H40.1792C39.8059 107.314 39.5025 107.43 39.2692 107.664C39.0425 107.89 38.9292 108.217 38.9292 108.644V111.764H37.7992ZM41.6222 111.764V106.354H42.7522V111.764H41.6222ZM41.6222 105.614V104.314H42.7522V105.614H41.6222ZM46.6134 111.824C46.0467 111.824 45.6067 111.664 45.2934 111.344C44.9801 111.024 44.8234 110.574 44.8234 109.994V107.374H43.8734V106.354H44.0234C44.2767 106.354 44.4734 106.28 44.6134 106.134C44.7534 105.987 44.8234 105.787 44.8234 105.534V105.114H45.9534V106.354H47.1834V107.374H45.9534V109.944C45.9534 110.13 45.9834 110.29 46.0434 110.424C46.1034 110.55 46.2001 110.65 46.3334 110.724C46.4667 110.79 46.6401 110.824 46.8534 110.824C46.9067 110.824 46.9667 110.82 47.0334 110.814C47.1001 110.807 47.1634 110.8 47.2234 110.794V111.764C47.1301 111.777 47.0267 111.79 46.9134 111.804C46.8001 111.817 46.7001 111.824 46.6134 111.824ZM50.0973 111.884C49.7306 111.884 49.4073 111.82 49.1273 111.694C48.854 111.56 48.6406 111.38 48.4873 111.154C48.334 110.92 48.2573 110.647 48.2573 110.334C48.2573 110.04 48.3206 109.777 48.4473 109.544C48.5806 109.31 48.784 109.114 49.0573 108.954C49.3306 108.794 49.674 108.68 50.0873 108.614L51.9673 108.304V109.194L50.3073 109.484C50.0073 109.537 49.7873 109.634 49.6473 109.774C49.5073 109.907 49.4373 110.08 49.4373 110.294C49.4373 110.5 49.514 110.67 49.6673 110.804C49.8273 110.93 50.0306 110.994 50.2773 110.994C50.584 110.994 50.8506 110.927 51.0773 110.794C51.3106 110.66 51.4906 110.484 51.6173 110.264C51.744 110.037 51.8073 109.787 51.8073 109.514V108.124C51.8073 107.857 51.7073 107.64 51.5073 107.474C51.314 107.3 51.054 107.214 50.7273 107.214C50.4273 107.214 50.164 107.294 49.9373 107.454C49.7173 107.607 49.554 107.807 49.4473 108.054L48.5073 107.584C48.6073 107.317 48.7706 107.084 48.9973 106.884C49.224 106.677 49.4873 106.517 49.7873 106.404C50.094 106.29 50.4173 106.234 50.7573 106.234C51.184 106.234 51.5606 106.314 51.8873 106.474C52.2206 106.634 52.4773 106.857 52.6573 107.144C52.844 107.424 52.9373 107.75 52.9373 108.124V111.764H51.8573V110.784L52.0873 110.814C51.9606 111.034 51.7973 111.224 51.5973 111.384C51.404 111.544 51.1806 111.667 50.9273 111.754C50.6806 111.84 50.404 111.884 50.0973 111.884ZM57.8366 111.764V105.364H55.8566V104.314H60.9566V105.364H59.0066V111.764H57.8366ZM63.7658 111.884C63.2258 111.884 62.7458 111.76 62.3258 111.514C61.9124 111.26 61.5891 110.92 61.3558 110.494C61.1224 110.06 61.0058 109.577 61.0058 109.044C61.0058 108.497 61.1224 108.014 61.3558 107.594C61.5958 107.174 61.9158 106.844 62.3158 106.604C62.7158 106.357 63.1691 106.234 63.6758 106.234C64.0824 106.234 64.4458 106.304 64.7658 106.444C65.0858 106.584 65.3558 106.777 65.5758 107.024C65.7958 107.264 65.9624 107.54 66.0758 107.854C66.1958 108.167 66.2558 108.5 66.2558 108.854C66.2558 108.94 66.2524 109.03 66.2458 109.124C66.2391 109.217 66.2258 109.304 66.2058 109.384H61.8958V108.484H65.5658L65.0258 108.894C65.0924 108.567 65.0691 108.277 64.9558 108.024C64.8491 107.764 64.6824 107.56 64.4558 107.414C64.2358 107.26 63.9758 107.184 63.6758 107.184C63.3758 107.184 63.1091 107.26 62.8758 107.414C62.6424 107.56 62.4624 107.774 62.3358 108.054C62.2091 108.327 62.1591 108.66 62.1858 109.054C62.1524 109.42 62.2024 109.74 62.3358 110.014C62.4758 110.287 62.6691 110.5 62.9158 110.654C63.1691 110.807 63.4558 110.884 63.7758 110.884C64.1024 110.884 64.3791 110.81 64.6058 110.664C64.8391 110.517 65.0224 110.327 65.1558 110.094L66.0758 110.544C65.9691 110.797 65.8024 111.027 65.5758 111.234C65.3558 111.434 65.0891 111.594 64.7758 111.714C64.4691 111.827 64.1324 111.884 63.7658 111.884ZM67.5586 111.764V106.354H68.6386V107.444L68.5386 107.284C68.6586 106.93 68.8519 106.677 69.1186 106.524C69.3852 106.364 69.7052 106.284 70.0786 106.284H70.4086V107.314H69.9386C69.5652 107.314 69.2619 107.43 69.0286 107.664C68.8019 107.89 68.6886 108.217 68.6886 108.644V111.764H67.5586ZM73.3116 111.884C72.9049 111.884 72.5483 111.794 72.2416 111.614C71.9349 111.427 71.6949 111.17 71.5216 110.844C71.3549 110.51 71.2716 110.127 71.2716 109.694V106.354H72.4016V109.594C72.4016 109.84 72.4516 110.057 72.5516 110.244C72.6516 110.43 72.7916 110.577 72.9716 110.684C73.1516 110.784 73.3583 110.834 73.5916 110.834C73.8316 110.834 74.0416 110.78 74.2216 110.674C74.4016 110.567 74.5416 110.417 74.6416 110.224C74.7483 110.03 74.8016 109.804 74.8016 109.544V106.354H75.9216V111.764H74.8516V110.704L74.9716 110.844C74.8449 111.177 74.6349 111.434 74.3416 111.614C74.0483 111.794 73.7049 111.884 73.3116 111.884ZM77.441 113.764V106.354H78.521V107.474L78.391 107.214C78.591 106.907 78.8577 106.667 79.191 106.494C79.5243 106.32 79.9043 106.234 80.331 106.234C80.8443 106.234 81.3043 106.357 81.711 106.604C82.1243 106.85 82.4477 107.187 82.681 107.614C82.921 108.04 83.041 108.52 83.041 109.054C83.041 109.587 82.921 110.067 82.681 110.494C82.4477 110.92 82.1277 111.26 81.721 111.514C81.3143 111.76 80.851 111.884 80.331 111.884C79.911 111.884 79.5277 111.797 79.181 111.624C78.841 111.45 78.5777 111.2 78.391 110.874L78.571 110.664V113.764H77.441ZM80.221 110.834C80.541 110.834 80.8243 110.757 81.071 110.604C81.3177 110.45 81.511 110.24 81.651 109.974C81.7977 109.7 81.871 109.394 81.871 109.054C81.871 108.714 81.7977 108.41 81.651 108.144C81.511 107.877 81.3177 107.667 81.071 107.514C80.8243 107.36 80.541 107.284 80.221 107.284C79.9077 107.284 79.6243 107.36 79.371 107.514C79.1243 107.667 78.9277 107.877 78.781 108.144C78.641 108.41 78.571 108.714 78.571 109.054C78.571 109.394 78.641 109.7 78.781 109.974C78.9277 110.24 79.1243 110.45 79.371 110.604C79.6243 110.757 79.9077 110.834 80.221 110.834ZM86.8402 111.884C86.3202 111.884 85.8535 111.76 85.4402 111.514C85.0335 111.26 84.7102 110.92 84.4702 110.494C84.2369 110.067 84.1202 109.587 84.1202 109.054C84.1202 108.52 84.2402 108.04 84.4802 107.614C84.7202 107.187 85.0435 106.85 85.4502 106.604C85.8569 106.357 86.3169 106.234 86.8302 106.234C87.2635 106.234 87.6469 106.32 87.9802 106.494C88.3135 106.667 88.5769 106.907 88.7702 107.214L88.6002 107.474V104.194H89.7202V111.764H88.6502V110.664L88.7802 110.874C88.5935 111.2 88.3269 111.45 87.9802 111.624C87.6335 111.797 87.2535 111.884 86.8402 111.884ZM86.9502 110.834C87.2635 110.834 87.5435 110.757 87.7902 110.604C88.0435 110.45 88.2402 110.24 88.3802 109.974C88.5269 109.7 88.6002 109.394 88.6002 109.054C88.6002 108.714 88.5269 108.41 88.3802 108.144C88.2402 107.877 88.0435 107.667 87.7902 107.514C87.5435 107.36 87.2635 107.284 86.9502 107.284C86.6369 107.284 86.3535 107.36 86.1002 107.514C85.8469 107.667 85.6502 107.877 85.5102 108.144C85.3702 108.41 85.3002 108.714 85.3002 109.054C85.3002 109.394 85.3702 109.7 85.5102 109.974C85.6502 110.24 85.8435 110.45 86.0902 110.604C86.3435 110.757 86.6302 110.834 86.9502 110.834ZM92.8594 111.884C92.4928 111.884 92.1694 111.82 91.8894 111.694C91.6161 111.56 91.4028 111.38 91.2494 111.154C91.0961 110.92 91.0194 110.647 91.0194 110.334C91.0194 110.04 91.0828 109.777 91.2094 109.544C91.3428 109.31 91.5461 109.114 91.8194 108.954C92.0928 108.794 92.4361 108.68 92.8494 108.614L94.7294 108.304V109.194L93.0694 109.484C92.7694 109.537 92.5494 109.634 92.4094 109.774C92.2694 109.907 92.1994 110.08 92.1994 110.294C92.1994 110.5 92.2761 110.67 92.4294 110.804C92.5894 110.93 92.7928 110.994 93.0394 110.994C93.3461 110.994 93.6128 110.927 93.8394 110.794C94.0728 110.66 94.2528 110.484 94.3794 110.264C94.5061 110.037 94.5694 109.787 94.5694 109.514V108.124C94.5694 107.857 94.4694 107.64 94.2694 107.474C94.0761 107.3 93.8161 107.214 93.4894 107.214C93.1894 107.214 92.9261 107.294 92.6994 107.454C92.4794 107.607 92.3161 107.807 92.2094 108.054L91.2694 107.584C91.3694 107.317 91.5328 107.084 91.7594 106.884C91.9861 106.677 92.2494 106.517 92.5494 106.404C92.8561 106.29 93.1794 106.234 93.5194 106.234C93.9461 106.234 94.3228 106.314 94.6494 106.474C94.9828 106.634 95.2394 106.857 95.4194 107.144C95.6061 107.424 95.6994 107.75 95.6994 108.124V111.764H94.6194V110.784L94.8494 110.814C94.7228 111.034 94.5594 111.224 94.3594 111.384C94.1661 111.544 93.9428 111.667 93.6894 111.754C93.4428 111.84 93.1661 111.884 92.8594 111.884ZM99.463 111.824C98.8964 111.824 98.4564 111.664 98.143 111.344C97.8297 111.024 97.673 110.574 97.673 109.994V107.374H96.723V106.354H96.873C97.1264 106.354 97.323 106.28 97.463 106.134C97.603 105.987 97.673 105.787 97.673 105.534V105.114H98.803V106.354H100.033V107.374H98.803V109.944C98.803 110.13 98.833 110.29 98.893 110.424C98.953 110.55 99.0497 110.65 99.183 110.724C99.3164 110.79 99.4897 110.824 99.703 110.824C99.7564 110.824 99.8164 110.82 99.883 110.814C99.9497 110.807 100.013 110.8 100.073 110.794V111.764C99.9797 111.777 99.8764 111.79 99.763 111.804C99.6497 111.817 99.5497 111.824 99.463 111.824ZM103.818 111.884C103.278 111.884 102.798 111.76 102.378 111.514C101.965 111.26 101.641 110.92 101.408 110.494C101.175 110.06 101.058 109.577 101.058 109.044C101.058 108.497 101.175 108.014 101.408 107.594C101.648 107.174 101.968 106.844 102.368 106.604C102.768 106.357 103.221 106.234 103.728 106.234C104.135 106.234 104.498 106.304 104.818 106.444C105.138 106.584 105.408 106.777 105.628 107.024C105.848 107.264 106.015 107.54 106.128 107.854C106.248 108.167 106.308 108.5 106.308 108.854C106.308 108.94 106.305 109.03 106.298 109.124C106.291 109.217 106.278 109.304 106.258 109.384H101.948V108.484H105.618L105.078 108.894C105.145 108.567 105.121 108.277 105.008 108.024C104.901 107.764 104.735 107.56 104.508 107.414C104.288 107.26 104.028 107.184 103.728 107.184C103.428 107.184 103.161 107.26 102.928 107.414C102.695 107.56 102.515 107.774 102.388 108.054C102.261 108.327 102.211 108.66 102.238 109.054C102.205 109.42 102.255 109.74 102.388 110.014C102.528 110.287 102.721 110.5 102.968 110.654C103.221 110.807 103.508 110.884 103.828 110.884C104.155 110.884 104.431 110.81 104.658 110.664C104.891 110.517 105.075 110.327 105.208 110.094L106.128 110.544C106.021 110.797 105.855 111.027 105.628 111.234C105.408 111.434 105.141 111.594 104.828 111.714C104.521 111.827 104.185 111.884 103.818 111.884Z" fill="white"/>
<g clip-path="url(#clip0_290_1420)">
<path d="M67.8491 89.0034H66.7705L67.1301 68.9717H67.4896L67.8491 89.0034Z" fill="#E6E6E6"/>
<path d="M68.7001 56.3422L70.4382 53.791C69.9228 52.4387 69.3274 51.1151 68.655 49.8265L67.5311 50.6886L68.421 49.3824C67.5729 47.7968 66.9056 46.7979 66.9056 46.7979C66.9056 46.7979 63.4197 52.0149 62.2551 57.5386L64.4855 60.8124L62.0163 58.9183C61.9284 59.5617 61.8831 60.2098 61.8809 60.8587C61.8809 67.4006 64.1305 72.7038 66.9056 72.7038C69.6807 72.7038 71.9303 67.4006 71.9303 60.8587C71.9303 58.8306 71.4472 56.7088 70.7808 54.7461L68.7001 56.3422Z" fill="#FED04D"/>
<path d="M40.5326 89.0034H39.4541L39.8136 68.9717H40.173L40.5326 89.0034Z" fill="#E6E6E6"/>
<path d="M41.788 56.3422L43.5261 53.791C43.0107 52.4387 42.4153 51.1151 41.7429 49.8265L40.619 50.6886L41.5089 49.3824C40.6608 47.7968 39.9935 46.7979 39.9935 46.7979C39.9935 46.7979 36.5076 52.0149 35.343 57.5386L37.5734 60.8124L35.1042 58.9183C35.0163 59.5617 34.971 60.2098 34.9688 60.8587C34.9688 67.4006 37.2184 72.7038 39.9935 72.7038C42.7685 72.7038 45.0182 67.4006 45.0182 60.8587C45.0182 58.8306 44.5351 56.7088 43.8687 54.7461L41.788 56.3422Z" fill="#FED04D"/>
<path d="M53.9364 88.9416H51.7793L52.4984 47.7402H53.2175L53.9364 88.9416Z" fill="#E6E6E6"/>
<path d="M55.8116 21.7625L59.3955 16.5022C58.3327 13.7139 57.1051 10.9847 55.7187 8.3277L53.4012 10.1054L55.2362 7.41211C53.4874 4.14283 52.1114 2.08301 52.1114 2.08301C52.1114 2.08301 44.9239 12.8401 42.5226 24.2295L47.1215 30.9797L42.0303 27.0742C41.849 28.4009 41.7557 29.7372 41.751 31.075C41.751 44.5638 46.3895 55.4986 52.1114 55.4986C57.8334 55.4986 62.4719 44.5638 62.4719 31.075C62.4719 26.8934 61.4758 22.5185 60.1018 18.4715L55.8116 21.7625Z" fill="#FED04D"/>
<path d="M129 88.8848H0V89.1939H129V88.8848Z" fill="#3F3D56"/>
<path d="M116.104 40.3452C116.158 40.3452 116.211 40.3351 116.261 40.3155C116.311 40.296 116.356 40.2673 116.394 40.2311C116.432 40.195 116.462 40.1521 116.483 40.1048C116.503 40.0576 116.514 40.007 116.514 39.9559V35.8035C116.514 35.7411 116.499 35.6794 116.469 35.6239C116.439 35.5683 116.395 35.5205 116.342 35.4845C116.288 35.4486 116.226 35.4256 116.16 35.4175C116.095 35.4094 116.029 35.4165 115.967 35.4381V30.7429C115.967 30.5725 115.932 30.4038 115.863 30.2463C115.795 30.0889 115.694 29.9459 115.567 29.8254C115.44 29.7049 115.29 29.6093 115.124 29.5441C114.958 29.4789 114.78 29.4453 114.601 29.4453H69.9239C69.7445 29.4453 69.5668 29.4789 69.401 29.5441C69.2353 29.6093 69.0847 29.7049 68.9578 29.8254C68.8309 29.9459 68.7303 30.0889 68.6616 30.2463C68.593 30.4038 68.5576 30.5725 68.5576 30.7429V87.7076C68.5576 88.0517 68.7016 88.3818 68.9578 88.6251C69.214 88.8684 69.5615 89.0051 69.9239 89.0052H114.601C114.963 89.0051 115.311 88.8684 115.567 88.6251C115.823 88.3818 115.967 88.0517 115.967 87.7076V46.1605C116.029 46.1821 116.095 46.1892 116.16 46.1811C116.226 46.173 116.288 46.15 116.342 46.1141C116.395 46.0781 116.439 46.0303 116.469 45.9747C116.499 45.9192 116.514 45.8575 116.514 45.7951V41.6427C116.514 41.5803 116.499 41.5186 116.469 41.4631C116.439 41.4075 116.395 41.3597 116.342 41.3237C116.288 41.2878 116.226 41.2648 116.16 41.2567C116.095 41.2486 116.029 41.2557 115.967 41.2773V40.3213C116.011 40.3367 116.057 40.3447 116.104 40.3452Z" fill="#3F3D56"/>
<path d="M111.869 31.9756C112.049 31.9756 112.226 32.0091 112.392 32.0744C112.558 32.1396 112.709 32.2351 112.835 32.3556C112.962 32.4761 113.063 32.6192 113.132 32.7766C113.2 32.934 113.236 33.1028 113.236 33.2732V85.1772C113.236 85.5213 113.092 85.8514 112.835 86.0947C112.579 86.3381 112.232 86.4748 111.869 86.4748H72.6573C72.2949 86.4748 71.9474 86.3381 71.6912 86.0947C71.435 85.8514 71.291 85.5213 71.291 85.1772V33.2732C71.291 32.929 71.435 32.599 71.6912 32.3556C71.9474 32.1123 72.2949 31.9756 72.6573 31.9756H111.869Z" fill="white"/>
<path d="M92.2633 31.2617C92.5651 31.2617 92.8098 31.0293 92.8098 30.7427C92.8098 30.456 92.5651 30.2236 92.2633 30.2236C91.9615 30.2236 91.7168 30.456 91.7168 30.7427C91.7168 31.0293 91.9615 31.2617 92.2633 31.2617Z" fill="white"/>
<path d="M108.489 38.7842H74.9072V41.9537H108.489V38.7842Z" fill="#FED04D"/>
<path d="M108.489 46.25H74.9072V47.4505H108.489V46.25Z" fill="#E6E6E6"/>
<path d="M108.489 49.9146H74.9072V51.115H108.489V49.9146Z" fill="#E6E6E6"/>
<path d="M92.2589 53.625H74.9072V54.8255H92.2589V53.625Z" fill="#E6E6E6"/>
<path d="M108.489 57.4014H74.9072V58.6019H108.489V57.4014Z" fill="#E6E6E6"/>
<path d="M108.489 61.1777H74.9072V62.3782H108.489V61.1777Z" fill="#E6E6E6"/>
<path d="M91.6779 64.9546H74.9072V66.1551H91.6779V64.9546Z" fill="#E6E6E6"/>
<path d="M108.489 68.731H74.9072V69.9314H108.489V68.731Z" fill="#E6E6E6"/>
<path d="M108.489 72.5073H74.9072V73.7078H108.489V72.5073Z" fill="#E6E6E6"/>
<path d="M108.529 77.1392H97.9238V80.4504H108.529V77.1392Z" fill="#FED04D"/>
<path d="M38.9245 50.5077H38.6856V42.9504C38.6856 41.7854 38.1982 40.668 37.3308 39.8442C36.4634 39.0204 35.287 38.5576 34.0603 38.5576H17.1106C16.5032 38.5576 15.9018 38.6712 15.3406 38.892C14.7794 39.1128 14.2696 39.4363 13.8401 39.8442C13.4106 40.2521 13.0699 40.7364 12.8374 41.2694C12.605 41.8023 12.4854 42.3735 12.4854 42.9504V84.6121C12.4854 85.189 12.605 85.7602 12.8374 86.2932C13.0699 86.8261 13.4106 87.3104 13.8401 87.7183C14.2696 88.1262 14.7794 88.4498 15.3406 88.6705C15.9018 88.8913 16.5032 89.0049 17.1106 89.0049H34.0603C35.287 89.0049 36.4634 88.5421 37.3308 87.7183C38.1982 86.8945 38.6856 85.7772 38.6856 84.6121V55.8776H38.9245V50.5077Z" fill="#3F3D56"/>
<path d="M37.6505 42.6489V84.5139C37.6505 85.384 37.2866 86.2184 36.6388 86.8337C35.991 87.4489 35.1124 87.7946 34.1963 87.7946H17.214C16.2979 87.7946 15.4193 87.4489 14.7715 86.8337C14.1237 86.2184 13.7598 85.384 13.7598 84.5139V42.6489C13.7598 41.8646 14.0878 41.1125 14.6717 40.558C15.2556 40.0034 16.0475 39.6919 16.8732 39.6919H19.2709C19.1803 39.907 19.14 40.1381 19.1527 40.3695C19.1654 40.6008 19.2308 40.8267 19.3444 41.0317C19.4826 41.2581 19.6784 41.4479 19.9139 41.5838C20.1494 41.7197 20.4169 41.7973 20.6922 41.8096H30.5725C30.8477 41.7973 31.1153 41.7197 31.3508 41.5838C31.5863 41.4478 31.7821 41.258 31.9203 41.0316C32.0339 40.8266 32.0992 40.6007 32.1119 40.3694C32.1246 40.1381 32.0842 39.907 31.9937 39.6919H34.5371C35.3628 39.6919 36.1547 40.0034 36.7386 40.558C37.3225 41.1125 37.6505 41.8646 37.6505 42.6489Z" fill="white"/>
<path d="M57.3279 31.2861C57.3279 31.2861 55.5263 30.675 54.3681 33.1194C53.2099 35.5638 51.4082 38.2527 51.4082 38.2527L52.4377 38.4971C52.4377 38.4971 52.6951 36.786 53.3385 36.5416L53.0812 38.7416C53.0812 38.7416 60.8026 41.3082 64.2772 38.4971L64.1485 37.6416C64.1485 37.6416 64.6632 37.7638 64.6632 38.4971L65.0493 38.1305C65.0493 38.1305 64.6632 37.3971 63.505 36.4194C62.7448 35.7776 62.4836 34.5566 62.3938 33.7933C62.3266 33.1559 62.0581 32.5526 61.6235 32.0627C60.8538 31.2155 59.4513 30.3151 57.3279 31.2861Z" fill="#2F2E41"/>
<path d="M46.7471 52.2558L48.4318 54.2922L49.504 53.1284L48.585 51.6738L46.7471 52.2558Z" fill="#FBBEBE"/>
<path d="M46.1341 83.5298L45.5215 86.5844L47.0531 87.3118L48.1252 86.5844V83.5298H46.1341Z" fill="#FBBEBE"/>
<path d="M56.8553 83.5298L57.4681 86.5844L55.9365 87.3118L54.8643 86.5844V83.5298H56.8553Z" fill="#FBBEBE"/>
<path d="M50.5757 56.0376L48.4313 70.5836L45.3682 83.8207L49.0441 84.257L51.9541 71.8928L55.6299 61.4196L55.1704 73.9293L54.4047 84.257H57.1615L59.1525 70.2927L61.3542 59.9105L61.2967 56.0376H50.5757Z" fill="#2F2E41"/>
<path d="M46.5937 86.2934C46.5937 86.2934 45.8279 85.4207 45.3684 85.8571C44.909 86.2934 43.8368 88.039 43.8368 88.039C43.8368 88.039 41.3863 89.3481 43.3774 89.639C45.3684 89.93 45.9811 89.639 45.9811 89.4936C45.9811 89.3481 46.2874 88.9117 46.2874 88.9117L47.0532 89.0572L48.1253 88.7663C48.1253 88.7663 48.5848 86.0861 48.1253 86.1898C47.6658 86.2934 46.7469 86.7298 46.5937 86.2934Z" fill="#2F2E41"/>
<path d="M56.396 86.2934C56.396 86.2934 57.1618 85.4207 57.6212 85.8571C58.0807 86.2934 59.1528 88.039 59.1528 88.039C59.1528 88.039 61.6034 89.3481 59.6123 89.639C57.6212 89.93 57.0086 89.639 57.0086 89.4936C57.0086 89.3481 56.7023 88.9117 56.7023 88.9117L55.9365 89.0572L54.8644 88.7663C54.8644 88.7663 54.4049 86.0861 54.8644 86.1898C55.3238 86.2934 56.2428 86.7298 56.396 86.2934Z" fill="#2F2E41"/>
<path d="M57.8513 38.8009C59.543 38.8009 60.9145 37.4984 60.9145 35.8916C60.9145 34.2849 59.543 32.9824 57.8513 32.9824C56.1595 32.9824 54.7881 34.2849 54.7881 35.8916C54.7881 37.4984 56.1595 38.8009 57.8513 38.8009Z" fill="#FBBEBE"/>
<path d="M59.919 37.7095C59.919 37.7095 59.6127 40.1823 59.7658 40.7642C59.919 41.346 60.2253 42.2188 60.2253 42.2188L55.3242 41.346C55.3242 41.346 56.7026 38.5822 56.3963 38.1459C56.09 37.7095 59.919 37.7095 59.919 37.7095Z" fill="#FBBEBE"/>
<path d="M60.3783 41.2008L55.3241 40.1826L52.4141 57.0561C53.7258 56.7159 55.1159 56.7667 56.3962 57.2016C58.5404 57.9289 61.4505 57.2016 61.4505 57.2016L60.8378 41.3463L60.3783 41.2008Z" fill="#FED04D"/>
<path d="M56.3529 38.8462L54.5577 39.7462L52.2603 40.1826L49.8098 45.7101L50.1161 49.6376C50.1161 49.6376 47.5124 54.1468 47.2061 56.6197C47.2061 56.6197 47.5124 60.4017 52.5666 60.2562L55.9361 51.3831C55.9361 51.3831 57.3146 44.6919 55.9361 42.8009C55.9361 42.8009 56.9229 39.2553 56.3529 38.8462Z" fill="#2F2E41"/>
<path d="M53.1793 40.1824L52.6834 40.1021L52.2604 40.1824C52.2604 40.1824 51.1883 40.3279 49.963 41.3461C48.7377 42.3643 44.6024 45.5645 44.2961 46.4372C43.9898 47.31 44.1429 48.7646 44.6024 49.6374C45.0619 50.5101 45.9808 51.6738 45.9808 51.6738L46.4403 52.692L49.044 51.9647C49.044 51.9647 47.3593 48.9101 47.5124 47.6009L50.5756 45.2735L53.1793 40.1824Z" fill="#2F2E41"/>
<path d="M59.7492 39.5039L62.063 42.2191L63.2883 43.6737L61.7567 48.6194L60.9909 52.8378C60.9909 52.8378 62.8288 59.529 61.2972 61.5654C61.2972 61.5654 60.3783 62.5837 60.0719 61.42C59.7656 60.2563 59.7656 54.7288 59.7656 54.7288C59.7656 54.7288 58.5403 47.4557 59.153 45.5647C59.7656 43.6737 59.1201 39.8434 59.7492 39.5039Z" fill="#2F2E41"/>
<path d="M61.9098 60.5468V62.0014C61.9098 62.0014 61.6034 66.8017 63.135 66.2198C64.6666 65.638 63.5945 62.0014 63.5945 62.0014L63.4414 60.4014L61.9098 60.5468Z" fill="#FBBEBE"/>
<path d="M54.4362 36.0465C55.6011 35.2459 56.544 34.3236 57.1678 33.2266C57.1678 33.2266 59.3056 35.4825 60.612 35.5953C61.9185 35.7081 60.7308 32.8882 60.7308 32.8882L58.3555 32.3242L56.0989 32.5498L54.3174 33.6778L54.4362 36.0465Z" fill="#2F2E41"/>
<path d="M62.0626 43.2373L63.2878 43.6737L63.4411 45.1283L64.0537 54.0014L63.7473 60.6928L61.45 60.8382L60.6842 53.4196L60.3779 45.2738L62.0626 43.2373Z" fill="#2F2E41"/>
<path d="M34.9802 51.5571H16.3633V53.3143H34.9802V51.5571Z" fill="#FED04D"/>
<path d="M34.9802 55.6963H16.3633V56.3618H34.9802V55.6963Z" fill="#E6E6E6"/>
<path d="M34.9802 57.7275H16.3633V58.3931H34.9802V57.7275Z" fill="#E6E6E6"/>
<path d="M25.9826 59.7847H16.3633V60.4502H25.9826V59.7847Z" fill="#E6E6E6"/>
<path d="M34.9802 61.8779H16.3633V62.5435H34.9802V61.8779Z" fill="#E6E6E6"/>
<path d="M34.9802 63.9717H16.3633V64.6372H34.9802V63.9717Z" fill="#E6E6E6"/>
<path d="M25.6605 66.0654H16.3633V66.731H25.6605V66.0654Z" fill="#E6E6E6"/>
<path d="M34.9802 68.1587H16.3633V68.8242H34.9802V68.1587Z" fill="#E6E6E6"/>
<path d="M34.9802 70.2524H16.3633V70.918H34.9802V70.2524Z" fill="#E6E6E6"/>
<path d="M35.002 72.8203H29.123V74.656H35.002V72.8203Z" fill="#FED04D"/>
<path opacity="0.1" d="M129 62.2679C129.002 64.3229 128.741 66.3704 128.223 68.3652C128.049 69.0366 127.846 69.6948 127.616 70.3397C127.333 71.1347 127.006 71.9147 126.636 72.6764C126.449 73.061 126.252 73.4386 126.044 73.8092C126.047 75.9165 125.592 78.0015 124.707 79.9326C123.107 83.397 120.254 86.1983 116.668 87.8264C114.423 88.8469 111.97 89.3831 109.483 89.3968H24.1786C20.3829 89.4049 16.6527 88.4549 13.3672 86.6434C12.8817 86.3754 12.4086 86.0899 11.948 85.787C10.9478 85.1285 10.0082 84.3902 9.13915 83.5801C7.96266 82.4833 6.92619 81.258 6.05129 79.9295C3.99579 76.8189 2.90689 73.217 2.91071 69.5409C0.829067 66.0599 -0.384766 61.89 -0.384766 57.4092C-0.384766 51.7558 1.54418 46.5986 4.71333 42.6947C5.37404 41.8791 6.09776 41.1116 6.87846 40.3988C7.64876 39.6934 8.4767 39.0475 9.35445 38.4672C10.0565 38.0021 10.7904 37.5824 11.5514 37.2109C11.8689 37.056 12.1875 36.9115 12.5115 36.7764C12.796 36.656 13.0838 36.544 13.3749 36.4383C13.7243 36.3112 14.078 36.195 14.4361 36.0896C14.7942 35.9843 15.1475 35.8914 15.4961 35.8112C16.0087 35.6918 16.5302 35.5948 17.0604 35.5201C17.4998 35.4584 17.9392 35.4154 18.3786 35.3819C18.7279 35.3582 19.0801 35.3442 19.4353 35.3401H19.6275C20.0186 35.3401 20.4075 35.3547 20.793 35.3798C20.8337 35.3024 20.8776 35.2238 20.9183 35.1464C21.0721 34.8679 21.2313 34.5894 21.3917 34.3162V34.3088C21.4192 34.2617 21.4466 34.2146 21.4752 34.1685C21.6048 33.9456 21.7399 33.7247 21.8784 33.5058C21.9421 33.4012 22.0047 33.3027 22.0695 33.2033C22.0838 33.1792 22.098 33.1562 22.1145 33.1321C22.1804 33.0274 22.2474 32.9227 22.3155 32.818C22.6546 32.3022 23.0072 31.7945 23.3734 31.2947C23.4053 31.2518 23.4349 31.2099 23.4668 31.1681C23.5239 31.0906 23.5766 31.0142 23.6403 30.9377C23.7919 30.7357 23.9479 30.5326 24.105 30.3326C24.2148 30.1913 24.3247 30.05 24.4433 29.9139C24.7289 29.5621 25.0222 29.2124 25.3221 28.8669C25.622 28.5215 25.9384 28.1739 26.258 27.8336C26.302 27.7865 26.3459 27.7404 26.392 27.6933L26.8611 27.2065C26.8842 27.1835 26.9039 27.1625 26.9259 27.1416C26.9819 27.084 27.0358 27.0264 27.0962 26.9699C27.3477 26.7166 27.6059 26.4663 27.8651 26.2193C29.1893 24.9653 30.6 23.7971 32.0877 22.7226C32.1459 22.6786 32.2053 22.6367 32.2635 22.5948C32.5425 22.3938 32.8259 22.196 33.1093 22.0012C34.6685 20.9358 36.298 19.9671 37.9877 19.1013C38.1042 19.0384 38.2228 18.9788 38.3425 18.9191C39.8579 18.1556 41.416 17.472 43.01 16.8713C43.8786 16.544 44.7625 16.2383 45.6618 15.9542C46.2572 15.7689 46.8547 15.592 47.46 15.4307C48.3959 15.1746 49.3436 14.9436 50.3029 14.7377C53.1292 14.1333 56.0045 13.7599 58.8975 13.6217C59.7763 13.5777 60.665 13.5557 61.5635 13.5557C65.8993 13.5502 70.2181 14.0709 74.4159 15.1052C74.4593 15.1677 74.5186 15.2186 74.5884 15.2532C74.6582 15.2879 74.736 15.305 74.8146 15.303H75.1837C75.3441 15.3438 75.5034 15.3868 75.6638 15.4307C76.5594 15.6771 77.4422 15.9455 78.3122 16.2358L78.5319 16.3112C80.6792 17.0389 82.7685 17.9136 84.7834 18.9285C86.5995 19.8416 88.3483 20.8713 90.0177 22.0106C90.2748 22.1865 90.5282 22.3642 90.7779 22.5435C91.0811 22.3572 91.3894 22.1795 91.7028 22.0106C92.9133 21.354 94.1989 20.832 95.5344 20.4549C98.3265 19.6674 101.281 19.5573 104.129 20.1346C107.781 20.8726 111.088 22.7048 113.758 25.3105C114.846 26.3733 115.815 27.5409 116.65 28.7947C116.71 28.8847 116.77 28.9758 116.829 29.0679C117.544 30.1814 118.16 31.3508 118.667 32.5636C118.686 32.6076 118.705 32.6505 118.721 32.6945C119.19 33.8295 119.569 34.9966 119.853 36.186C119.866 36.2456 119.881 36.3064 119.895 36.3671C120.16 37.5181 120.341 38.6855 120.435 39.8607C120.435 39.9025 120.435 39.9455 120.444 39.9884C120.49 40.5963 120.513 41.2108 120.514 41.832C120.514 42.3869 120.494 42.9376 120.458 43.483C120.458 43.5427 120.449 43.6055 120.444 43.6662C120.434 43.8253 120.42 43.9803 120.405 44.1405C121.244 44.7851 122.029 45.4907 122.754 46.2511C123.074 46.584 123.384 46.9298 123.683 47.2886C124.596 48.3782 125.398 49.5479 126.078 50.7821C127.932 54.1302 129 58.0603 129 62.2679Z" fill="#FED04D"/>
</g>
<defs>
<clipPath id="clip0_290_1420">
<rect width="129" height="89.7637" fill="white"/>
</clipPath>
</defs>
</svg>
