<svg width="146" height="106" viewBox="0 0 146 106" fill="none" xmlns="http://www.w3.org/2000/svg">
<path d="M27.7182 94.9165L30.3382 87.4665H31.7982L34.4182 94.9165H33.1582L32.5882 93.2465H29.5582L28.9782 94.9165H27.7182ZM29.8982 92.1965H32.2282L30.9082 88.2965H31.2382L29.8982 92.1965ZM35.392 94.9165V89.5065H36.472V90.5665L36.342 90.4265C36.4753 90.0865 36.6887 89.8298 36.982 89.6565C37.2753 89.4765 37.6153 89.3865 38.002 89.3865C38.402 89.3865 38.7553 89.4732 39.062 89.6465C39.3687 89.8198 39.6087 90.0598 39.782 90.3665C39.9553 90.6732 40.042 91.0265 40.042 91.4265V94.9165H38.922V91.7265C38.922 91.4532 38.872 91.2232 38.772 91.0365C38.672 90.8432 38.5287 90.6965 38.342 90.5965C38.162 90.4898 37.9553 90.4365 37.722 90.4365C37.4887 90.4365 37.2787 90.4898 37.092 90.5965C36.912 90.6965 36.772 90.8432 36.672 91.0365C36.572 91.2298 36.522 91.4598 36.522 91.7265V94.9165H35.392ZM44.0614 97.1165C43.668 97.1165 43.3047 97.0532 42.9714 96.9265C42.638 96.7998 42.3514 96.6232 42.1114 96.3965C41.8714 96.1765 41.6914 95.9165 41.5714 95.6165L42.6114 95.1865C42.7047 95.4398 42.8747 95.6498 43.1214 95.8165C43.3747 95.9832 43.6847 96.0665 44.0514 96.0665C44.338 96.0665 44.5947 96.0098 44.8214 95.8965C45.048 95.7898 45.228 95.6298 45.3614 95.4165C45.4947 95.2098 45.5614 94.9598 45.5614 94.6665V93.4465L45.7614 93.6765C45.5747 94.0232 45.3147 94.2865 44.9814 94.4665C44.6547 94.6465 44.2847 94.7365 43.8714 94.7365C43.3714 94.7365 42.9214 94.6198 42.5214 94.3865C42.1214 94.1532 41.8047 93.8332 41.5714 93.4265C41.3447 93.0198 41.2314 92.5632 41.2314 92.0565C41.2314 91.5432 41.3447 91.0865 41.5714 90.6865C41.8047 90.2865 42.118 89.9698 42.5114 89.7365C42.9047 89.5032 43.3547 89.3865 43.8614 89.3865C44.2747 89.3865 44.6414 89.4765 44.9614 89.6565C45.288 89.8298 45.5547 90.0832 45.7614 90.4165L45.6114 90.6965V89.5065H46.6814V94.6665C46.6814 95.1332 46.568 95.5498 46.3414 95.9165C46.1214 96.2898 45.8147 96.5832 45.4214 96.7965C45.028 97.0098 44.5747 97.1165 44.0614 97.1165ZM44.0014 93.6865C44.3014 93.6865 44.568 93.6165 44.8014 93.4765C45.0347 93.3298 45.218 93.1365 45.3514 92.8965C45.4914 92.6498 45.5614 92.3732 45.5614 92.0665C45.5614 91.7598 45.4914 91.4832 45.3514 91.2365C45.2114 90.9898 45.0247 90.7965 44.7914 90.6565C44.558 90.5098 44.2947 90.4365 44.0014 90.4365C43.6947 90.4365 43.4214 90.5098 43.1814 90.6565C42.9414 90.7965 42.7514 90.9898 42.6114 91.2365C42.478 91.4765 42.4114 91.7532 42.4114 92.0665C42.4114 92.3665 42.478 92.6398 42.6114 92.8865C42.7514 93.1332 42.9414 93.3298 43.1814 93.4765C43.4214 93.6165 43.6947 93.6865 44.0014 93.6865ZM48.2041 94.9165V87.3465H49.3341V92.4165L48.8941 92.3065L51.6041 89.5065H53.0141L50.9741 91.6765L53.1041 94.9165H51.8041L49.9041 92.0465L50.5741 91.9565L48.9741 93.6565L49.3341 92.9065V94.9165H48.2041ZM56.0079 95.0365C55.6013 95.0365 55.2446 94.9465 54.9379 94.7665C54.6313 94.5798 54.3913 94.3232 54.2179 93.9965C54.0513 93.6632 53.9679 93.2798 53.9679 92.8465V89.5065H55.0979V92.7465C55.0979 92.9932 55.1479 93.2098 55.2479 93.3965C55.3479 93.5832 55.4879 93.7298 55.6679 93.8365C55.8479 93.9365 56.0546 93.9865 56.2879 93.9865C56.5279 93.9865 56.7379 93.9332 56.9179 93.8265C57.0979 93.7198 57.2379 93.5698 57.3379 93.3765C57.4446 93.1832 57.4979 92.9565 57.4979 92.6965V89.5065H58.6179V94.9165H57.5479V93.8565L57.6679 93.9965C57.5413 94.3298 57.3313 94.5865 57.0379 94.7665C56.7446 94.9465 56.4013 95.0365 56.0079 95.0365ZM62.4773 94.9765C61.9106 94.9765 61.4706 94.8165 61.1573 94.4965C60.844 94.1765 60.6873 93.7265 60.6873 93.1465V90.5265H59.7373V89.5065H59.8873C60.1406 89.5065 60.3373 89.4332 60.4773 89.2865C60.6173 89.1398 60.6873 88.9398 60.6873 88.6865V88.2665H61.8173V89.5065H63.0473V90.5265H61.8173V93.0965C61.8173 93.2832 61.8473 93.4432 61.9073 93.5765C61.9673 93.7032 62.064 93.8032 62.1973 93.8765C62.3306 93.9432 62.504 93.9765 62.7173 93.9765C62.7706 93.9765 62.8306 93.9732 62.8973 93.9665C62.964 93.9598 63.0273 93.9532 63.0873 93.9465V94.9165C62.994 94.9298 62.8906 94.9432 62.7773 94.9565C62.664 94.9698 62.564 94.9765 62.4773 94.9765ZM65.9612 95.0365C65.5945 95.0365 65.2712 94.9732 64.9912 94.8465C64.7179 94.7132 64.5045 94.5332 64.3512 94.3065C64.1979 94.0732 64.1212 93.7998 64.1212 93.4865C64.1212 93.1932 64.1845 92.9298 64.3112 92.6965C64.4445 92.4632 64.6479 92.2665 64.9212 92.1065C65.1945 91.9465 65.5379 91.8332 65.9512 91.7665L67.8312 91.4565V92.3465L66.1712 92.6365C65.8712 92.6898 65.6512 92.7865 65.5112 92.9265C65.3712 93.0598 65.3012 93.2332 65.3012 93.4465C65.3012 93.6532 65.3779 93.8232 65.5312 93.9565C65.6912 94.0832 65.8945 94.1465 66.1412 94.1465C66.4479 94.1465 66.7145 94.0798 66.9412 93.9465C67.1745 93.8132 67.3545 93.6365 67.4812 93.4165C67.6079 93.1898 67.6712 92.9398 67.6712 92.6665V91.2765C67.6712 91.0098 67.5712 90.7932 67.3712 90.6265C67.1779 90.4532 66.9179 90.3665 66.5912 90.3665C66.2912 90.3665 66.0279 90.4465 65.8012 90.6065C65.5812 90.7598 65.4179 90.9598 65.3112 91.2065L64.3712 90.7365C64.4712 90.4698 64.6345 90.2365 64.8612 90.0365C65.0879 89.8298 65.3512 89.6698 65.6512 89.5565C65.9579 89.4432 66.2812 89.3865 66.6212 89.3865C67.0479 89.3865 67.4245 89.4665 67.7512 89.6265C68.0845 89.7865 68.3412 90.0098 68.5212 90.2965C68.7079 90.5765 68.8012 90.9032 68.8012 91.2765V94.9165H67.7212V93.9365L67.9512 93.9665C67.8245 94.1865 67.6612 94.3765 67.4612 94.5365C67.2679 94.6965 67.0445 94.8198 66.7912 94.9065C66.5445 94.9932 66.2679 95.0365 65.9612 95.0365ZM70.3225 94.9165V89.5065H71.4025V90.5665L71.2725 90.4265C71.4058 90.0865 71.6191 89.8298 71.9125 89.6565C72.2058 89.4765 72.5458 89.3865 72.9325 89.3865C73.3325 89.3865 73.6858 89.4732 73.9925 89.6465C74.2991 89.8198 74.5391 90.0598 74.7125 90.3665C74.8858 90.6732 74.9725 91.0265 74.9725 91.4265V94.9165H73.8525V91.7265C73.8525 91.4532 73.8025 91.2232 73.7025 91.0365C73.6025 90.8432 73.4591 90.6965 73.2725 90.5965C73.0925 90.4898 72.8858 90.4365 72.6525 90.4365C72.4191 90.4365 72.2091 90.4898 72.0225 90.5965C71.8425 90.6965 71.7025 90.8432 71.6025 91.0365C71.5025 91.2298 71.4525 91.4598 71.4525 91.7265V94.9165H70.3225ZM78.4399 94.9165V87.4665H79.3899L83.5699 93.2365L83.1199 93.3065V87.4665H84.2899V94.9165H83.3399L79.1899 89.1065L79.6199 89.0265V94.9165H78.4399ZM86.4025 97.1265C86.2691 97.1265 86.1358 97.1132 86.0025 97.0865C85.8758 97.0665 85.7591 97.0332 85.6525 96.9865V96.0165C85.7325 96.0365 85.8291 96.0532 85.9425 96.0665C86.0558 96.0865 86.1658 96.0965 86.2725 96.0965C86.5858 96.0965 86.8158 96.0265 86.9625 95.8865C87.1158 95.7532 87.2525 95.5432 87.3725 95.2565L87.7325 94.4365L87.7125 95.3865L85.3725 89.5065H86.5825L88.3125 94.0165H87.9025L89.6225 89.5065H90.8425L88.4525 95.5065C88.3258 95.8265 88.1658 96.1065 87.9725 96.3465C87.7858 96.5932 87.5625 96.7832 87.3025 96.9165C87.0491 97.0565 86.7491 97.1265 86.4025 97.1265ZM93.2405 95.0365C92.8738 95.0365 92.5505 94.9732 92.2705 94.8465C91.9972 94.7132 91.7838 94.5332 91.6305 94.3065C91.4772 94.0732 91.4005 93.7998 91.4005 93.4865C91.4005 93.1932 91.4638 92.9298 91.5905 92.6965C91.7238 92.4632 91.9272 92.2665 92.2005 92.1065C92.4738 91.9465 92.8172 91.8332 93.2305 91.7665L95.1105 91.4565V92.3465L93.4505 92.6365C93.1505 92.6898 92.9305 92.7865 92.7905 92.9265C92.6505 93.0598 92.5805 93.2332 92.5805 93.4465C92.5805 93.6532 92.6572 93.8232 92.8105 93.9565C92.9705 94.0832 93.1738 94.1465 93.4205 94.1465C93.7272 94.1465 93.9938 94.0798 94.2205 93.9465C94.4538 93.8132 94.6338 93.6365 94.7605 93.4165C94.8872 93.1898 94.9505 92.9398 94.9505 92.6665V91.2765C94.9505 91.0098 94.8505 90.7932 94.6505 90.6265C94.4572 90.4532 94.1972 90.3665 93.8705 90.3665C93.5705 90.3665 93.3072 90.4465 93.0805 90.6065C92.8605 90.7598 92.6972 90.9598 92.5905 91.2065L91.6505 90.7365C91.7505 90.4698 91.9138 90.2365 92.1405 90.0365C92.3672 89.8298 92.6305 89.6698 92.9305 89.5565C93.2372 89.4432 93.5605 89.3865 93.9005 89.3865C94.3272 89.3865 94.7038 89.4665 95.0305 89.6265C95.3638 89.7865 95.6205 90.0098 95.8005 90.2965C95.9872 90.5765 96.0805 90.9032 96.0805 91.2765V94.9165H95.0005V93.9365L95.2305 93.9665C95.1038 94.1865 94.9405 94.3765 94.7405 94.5365C94.5472 94.6965 94.3238 94.8198 94.0705 94.9065C93.8238 94.9932 93.5472 95.0365 93.2405 95.0365ZM97.6018 94.9165V89.5065H98.6818V90.6765L98.5418 90.4965C98.6551 90.1298 98.8618 89.8532 99.1618 89.6665C99.4618 89.4798 99.8051 89.3865 100.192 89.3865C100.625 89.3865 101.008 89.5032 101.342 89.7365C101.682 89.9632 101.908 90.2665 102.022 90.6465L101.702 90.6765C101.862 90.2432 102.105 89.9198 102.432 89.7065C102.765 89.4932 103.145 89.3865 103.572 89.3865C103.945 89.3865 104.282 89.4732 104.582 89.6465C104.888 89.8198 105.132 90.0598 105.312 90.3665C105.492 90.6732 105.582 91.0232 105.582 91.4165V94.9165H104.452V91.7265C104.452 91.4532 104.402 91.2232 104.302 91.0365C104.208 90.8432 104.075 90.6965 103.902 90.5965C103.735 90.4898 103.538 90.4365 103.312 90.4365C103.085 90.4365 102.885 90.4898 102.712 90.5965C102.538 90.6965 102.402 90.8432 102.302 91.0365C102.202 91.2298 102.152 91.4598 102.152 91.7265V94.9165H101.032V91.7265C101.032 91.4532 100.982 91.2232 100.882 91.0365C100.788 90.8432 100.655 90.6965 100.482 90.5965C100.315 90.4898 100.115 90.4365 99.8818 90.4365C99.6551 90.4365 99.4551 90.4898 99.2818 90.5965C99.1084 90.6965 98.9718 90.8432 98.8718 91.0365C98.7784 91.2298 98.7318 91.4598 98.7318 91.7265V94.9165H97.6018ZM108.611 95.0365C108.245 95.0365 107.921 94.9732 107.641 94.8465C107.368 94.7132 107.155 94.5332 107.001 94.3065C106.848 94.0732 106.771 93.7998 106.771 93.4865C106.771 93.1932 106.835 92.9298 106.961 92.6965C107.095 92.4632 107.298 92.2665 107.571 92.1065C107.845 91.9465 108.188 91.8332 108.601 91.7665L110.481 91.4565V92.3465L108.821 92.6365C108.521 92.6898 108.301 92.7865 108.161 92.9265C108.021 93.0598 107.951 93.2332 107.951 93.4465C107.951 93.6532 108.028 93.8232 108.181 93.9565C108.341 94.0832 108.545 94.1465 108.791 94.1465C109.098 94.1465 109.365 94.0798 109.591 93.9465C109.825 93.8132 110.005 93.6365 110.131 93.4165C110.258 93.1898 110.321 92.9398 110.321 92.6665V91.2765C110.321 91.0098 110.221 90.7932 110.021 90.6265C109.828 90.4532 109.568 90.3665 109.241 90.3665C108.941 90.3665 108.678 90.4465 108.451 90.6065C108.231 90.7598 108.068 90.9598 107.961 91.2065L107.021 90.7365C107.121 90.4698 107.285 90.2365 107.511 90.0365C107.738 89.8298 108.001 89.6698 108.301 89.5565C108.608 89.4432 108.931 89.3865 109.271 89.3865C109.698 89.3865 110.075 89.4665 110.401 89.6265C110.735 89.7865 110.991 90.0098 111.171 90.2965C111.358 90.5765 111.451 90.9032 111.451 91.2765V94.9165H110.371V93.9365L110.601 93.9665C110.475 94.1865 110.311 94.3765 110.111 94.5365C109.918 94.6965 109.695 94.8198 109.441 94.9065C109.195 94.9932 108.918 95.0365 108.611 95.0365ZM112.972 94.9165V89.5065H114.052V90.5665L113.922 90.4265C114.056 90.0865 114.269 89.8298 114.562 89.6565C114.856 89.4765 115.196 89.3865 115.582 89.3865C115.982 89.3865 116.336 89.4732 116.642 89.6465C116.949 89.8198 117.189 90.0598 117.362 90.3665C117.536 90.6732 117.622 91.0265 117.622 91.4265V94.9165H116.502V91.7265C116.502 91.4532 116.452 91.2232 116.352 91.0365C116.252 90.8432 116.109 90.6965 115.922 90.5965C115.742 90.4898 115.536 90.4365 115.302 90.4365C115.069 90.4365 114.859 90.4898 114.672 90.5965C114.492 90.6965 114.352 90.8432 114.252 91.0365C114.152 91.2298 114.102 91.4598 114.102 91.7265V94.9165H112.972Z" fill="white"/>
<g clip-path="url(#clip0_290_1472)">
<path opacity="0.1" d="M129.124 47.107C129.125 49.1098 128.904 51.1054 128.463 53.0495C128.315 53.7039 128.143 54.3454 127.947 54.9739C127.706 55.7488 127.428 56.509 127.114 57.2514C126.955 57.6262 126.787 57.9942 126.61 58.3554C126.613 60.4092 126.226 62.4413 125.474 64.3234C124.113 67.6999 121.687 70.4301 118.639 72.0169C116.73 73.0115 114.644 73.5341 112.53 73.5475H40.0024C36.7753 73.5553 33.6038 72.6294 30.8104 70.8639C30.3976 70.6027 29.9954 70.3245 29.6037 70.0293C28.7534 69.3875 27.9544 68.6679 27.2156 67.8784C26.2153 66.8094 25.3341 65.6152 24.5902 64.3204C22.8426 61.2887 21.9168 57.7782 21.92 54.1954C20.1502 50.8027 19.1182 46.7386 19.1182 42.3715C19.1182 36.8616 20.7582 31.8353 23.4527 28.0304C24.0144 27.2355 24.6297 26.4876 25.2935 25.7928C25.9484 25.1053 26.6524 24.4758 27.3986 23.9103C27.9955 23.4569 28.6195 23.0478 29.2666 22.6858C29.5365 22.5348 29.8073 22.394 30.0828 22.2624C30.3247 22.145 30.5694 22.0359 30.8169 21.9328C31.1139 21.809 31.4147 21.6957 31.7191 21.593C32.0236 21.4903 32.324 21.3998 32.6204 21.3216C33.0562 21.2053 33.4996 21.1107 33.9504 21.0379C34.3239 20.9777 34.6975 20.9359 35.0711 20.9033C35.3681 20.8801 35.6676 20.8665 35.9696 20.8624H36.133C36.4655 20.8624 36.7961 20.8767 37.124 20.9012C37.1585 20.8257 37.1959 20.7492 37.2304 20.6737C37.3612 20.4023 37.4966 20.1309 37.633 19.8645V19.8574C37.6563 19.8115 37.6797 19.7656 37.7039 19.7207C37.8141 19.5033 37.929 19.288 38.0467 19.0748C38.1009 18.9727 38.1541 18.8768 38.2092 18.7799C38.2214 18.7564 38.2335 18.734 38.2475 18.7105C38.3035 18.6085 38.3605 18.5064 38.4184 18.4044C38.7067 17.9017 39.0065 17.4068 39.3178 16.9198C39.3449 16.878 39.3701 16.8371 39.3972 16.7963C39.4458 16.7208 39.4906 16.6463 39.5448 16.5719C39.6737 16.3749 39.8063 16.177 39.9398 15.9821C40.0332 15.8443 40.1266 15.7066 40.2275 15.5739C40.4703 15.2311 40.7197 14.8903 40.9747 14.5536C41.2296 14.2169 41.4986 13.8781 41.7704 13.5465C41.8078 13.5006 41.8451 13.4557 41.8843 13.4098L42.2831 12.9353C42.3028 12.9129 42.3196 12.8925 42.3382 12.872C42.3859 12.8159 42.4316 12.7598 42.483 12.7047C42.6969 12.4578 42.9164 12.2139 43.1368 11.9731C44.2626 10.751 45.462 9.61243 46.7269 8.56513C46.7764 8.52227 46.8268 8.48146 46.8763 8.44064C47.1136 8.24474 47.3545 8.05189 47.5955 7.8621C48.9211 6.82369 50.3065 5.87961 51.7432 5.03572C51.8422 4.9745 51.9431 4.91634 52.0449 4.85818C53.3332 4.11406 54.658 3.44778 56.0133 2.86237C56.7517 2.54333 57.5032 2.24539 58.2678 1.96853C58.774 1.78793 59.2821 1.61549 59.7967 1.45836C60.5925 1.20871 61.3982 0.983552 62.2138 0.782882C64.6168 0.193816 67.0614 -0.170072 69.5211 -0.304817C70.2683 -0.347672 71.0238 -0.369099 71.7878 -0.369099C75.4742 -0.374431 79.1461 0.133024 82.7151 1.14103C82.752 1.20195 82.8025 1.25162 82.8618 1.28535C82.9211 1.31909 82.9873 1.33579 83.0542 1.33387H83.368C83.5043 1.37367 83.6397 1.4155 83.7761 1.45836C84.5376 1.69848 85.2882 1.96003 86.0279 2.24301L86.2147 2.31648C88.0404 3.0257 89.8167 3.87822 91.5298 4.86736C93.0739 5.75724 94.5608 6.76086 95.9801 7.87129C96.1987 8.04271 96.4141 8.21583 96.6264 8.39065C96.8842 8.20902 97.1463 8.0359 97.4128 7.87129C98.442 7.23128 99.535 6.72253 100.67 6.35504C103.044 5.58755 105.556 5.48022 107.978 6.04281C111.083 6.76216 113.894 8.54778 116.165 11.0874C117.09 12.1232 117.914 13.2612 118.623 14.4832C118.674 14.5709 118.726 14.6597 118.775 14.7495C119.384 15.8347 119.907 16.9744 120.339 18.1565C120.355 18.1993 120.37 18.2412 120.384 18.284C120.783 19.3902 121.105 20.5277 121.346 21.6869C121.358 21.7451 121.371 21.8042 121.382 21.8634C121.608 22.9852 121.762 24.123 121.841 25.2683C121.841 25.3092 121.841 25.351 121.849 25.3928C121.888 25.9853 121.908 26.5843 121.909 27.1897C121.909 27.7305 121.892 28.2672 121.861 28.7988C121.861 28.8569 121.854 28.9181 121.849 28.9773C121.841 29.1324 121.828 29.2834 121.816 29.4395C122.53 30.0678 123.197 30.7555 123.813 31.4966C124.085 31.8211 124.349 32.1581 124.603 32.5078C125.379 33.5697 126.061 34.7098 126.639 35.9127C128.216 39.1758 129.124 43.0062 129.124 47.107Z" fill="#FED04D"/>
<path d="M124.428 73.7716C126.186 73.7716 127.612 73.5123 127.612 73.1925C127.612 72.8726 126.186 72.6133 124.428 72.6133C122.67 72.6133 121.244 72.8726 121.244 73.1925C121.244 73.5123 122.67 73.7716 124.428 73.7716Z" fill="#F2F2F2"/>
<path d="M128.143 17.8818H127.878V23.9631H128.143V17.8818Z" fill="#F2F2F2"/>
<path d="M125.225 13.9727H123.633V73.9168H125.225V13.9727Z" fill="#F2F2F2"/>
<path d="M131.717 18.6783H117.14C116.98 18.6783 116.822 18.6412 116.677 18.5694C116.531 18.4976 116.401 18.3929 116.295 18.262C116.189 18.1312 116.11 17.9773 116.063 17.8106C116.016 17.6438 116.002 17.468 116.021 17.2949L117.879 1.0781C117.913 0.780608 118.046 0.507027 118.252 0.308579C118.458 0.110131 118.723 0.000424186 118.998 0H129.859C130.134 0.000424144 130.399 0.110131 130.605 0.308579C130.811 0.507027 130.944 0.780608 130.978 1.0781L132.835 17.2949C132.855 17.468 132.841 17.6438 132.794 17.8106C132.747 17.9773 132.668 18.1312 132.562 18.262C132.456 18.3929 132.326 18.4976 132.18 18.5694C132.034 18.6412 131.876 18.6783 131.717 18.6783Z" fill="#F2F2F2"/>
<path d="M128.011 24.9768C128.524 24.9768 128.939 24.523 128.939 23.9633C128.939 23.4035 128.524 22.9497 128.011 22.9497C127.498 22.9497 127.082 23.4035 127.082 23.9633C127.082 24.523 127.498 24.9768 128.011 24.9768Z" fill="#F2F2F2"/>
<path d="M30.3421 57.8252C29.6719 60.3629 27.7149 62.1393 25.6736 63.6483C25.3886 63.8591 25.1034 64.065 24.8182 64.266C24.8163 64.267 24.8143 64.2689 24.8123 64.2699C24.7986 64.2795 24.7849 64.2891 24.7721 64.2988C24.7132 64.3402 24.6543 64.3817 24.596 64.4226L24.628 64.4383C24.628 64.4383 24.6595 64.4566 24.6251 64.4413C24.6148 64.4366 24.6041 64.4324 24.5938 64.4277C23.4079 63.9056 22.201 63.3451 21.2922 62.3672C20.3494 61.3517 19.7985 59.7589 20.309 58.4248C20.3761 58.25 20.4608 58.084 20.5617 57.9298C20.6031 57.8651 20.6477 57.8032 20.6941 57.7425C20.9757 57.3673 21.3437 57.0809 21.7604 56.9125C22.1771 56.7441 22.6273 56.6999 23.0648 56.7843C23.5023 56.8688 23.9113 57.079 24.2498 57.3932C24.5882 57.7074 24.8438 58.1143 24.9904 58.5721C25.1404 57.048 23.989 55.7714 22.8809 54.8294C21.7724 53.888 20.5128 52.8627 20.2984 51.3471C20.1788 50.5038 20.4474 49.6866 20.9368 49.0306C20.952 49.0107 20.9671 48.9908 20.9827 48.9714C21.5785 48.2073 22.4164 47.7167 23.3291 47.5975C25.0289 47.4047 26.6801 48.3867 27.9149 49.6766C29.9025 51.752 31.104 54.9399 30.3421 57.8252Z" fill="#FED14D"/>
<path d="M27.1479 54.5057C27.4741 55.0596 27.7246 55.6626 27.8914 56.2954C28.0325 56.8611 28.0952 57.4465 28.0777 58.0325C28.0322 59.2381 27.722 60.4142 27.1734 61.4618C26.7601 62.2566 26.2565 62.9912 25.6744 63.6481C25.3894 63.8588 25.1043 64.0647 24.8191 64.2658C24.8171 64.2667 24.8151 64.2686 24.8132 64.2696C24.7995 64.2792 24.7857 64.2889 24.7729 64.2985C24.7141 64.34 24.6552 64.3814 24.5968 64.4223C24.5968 64.4223 24.6604 64.4563 24.6259 64.441C24.6157 64.4363 24.6049 64.4321 24.5947 64.4274C24.701 63.4763 24.5968 62.5112 24.291 61.6131C23.9852 60.715 23.4866 59.9099 22.8371 59.2654C22.1859 58.6307 21.4065 58.173 20.5625 57.9295C20.6039 57.8648 20.6485 57.8029 20.6949 57.7422C21.0209 57.8419 21.3382 57.973 21.643 58.1338C22.7327 58.7049 23.625 59.6438 24.1877 60.8115C24.6927 61.8718 24.91 63.0673 24.8142 64.2577C24.8629 64.2095 24.9117 64.1603 24.959 64.1115C25.8602 63.1945 26.6606 62.142 27.2023 60.9273C27.6722 59.8985 27.9032 58.7595 27.8748 57.6104C27.8306 56.3575 27.3733 55.197 26.711 54.1866C25.9852 53.1088 25.1278 52.1443 24.1625 51.32C23.1898 50.4696 22.1253 49.7524 20.993 49.1842C20.9674 49.1712 20.9474 49.148 20.9372 49.1193C20.9269 49.0907 20.9271 49.0588 20.9377 49.0303C20.9452 49.0048 20.9617 48.9835 20.9836 48.9711C20.9948 48.9658 21.007 48.9634 21.0192 48.9639C21.0315 48.9645 21.0434 48.9681 21.0542 48.9744C21.194 49.0446 21.3329 49.1159 21.4706 49.1902C22.6177 49.809 23.69 50.581 24.6627 51.4884C25.6024 52.3627 26.4869 53.3617 27.1479 54.5057Z" fill="white"/>
<path d="M20.6668 64.2153H28.0114C28.092 64.2153 28.1716 64.234 28.2451 64.2702C28.3185 64.3063 28.3841 64.3591 28.4374 64.4251C28.4907 64.491 28.5306 64.5685 28.5543 64.6525C28.5781 64.7366 28.5852 64.8251 28.5752 64.9124L27.6394 73.0836C27.622 73.2335 27.5552 73.3714 27.4514 73.4714C27.3476 73.5714 27.214 73.6266 27.0756 73.6269H21.6026C21.4642 73.6266 21.3306 73.5714 21.2268 73.4714C21.123 73.3714 21.0562 73.2335 21.0389 73.0836L20.103 64.9124C20.093 64.8251 20.1001 64.7366 20.1239 64.6525C20.1477 64.5685 20.1875 64.491 20.2409 64.4251C20.2942 64.3591 20.3597 64.3063 20.4332 64.2702C20.5066 64.234 20.5863 64.2153 20.6668 64.2153Z" fill="#F2F2F2"/>
<path d="M44.6135 73.6901C45.1212 73.6901 45.5327 73.2409 45.5327 72.6868C45.5327 72.1328 45.1212 71.6836 44.6135 71.6836C44.1059 71.6836 43.6943 72.1328 43.6943 72.6868C43.6943 73.2409 44.1059 73.6901 44.6135 73.6901Z" fill="#CCCCCC"/>
<path d="M102.675 73.6901C103.183 73.6901 103.594 73.2409 103.594 72.6868C103.594 72.1328 103.183 71.6836 102.675 71.6836C102.167 71.6836 101.756 72.1328 101.756 72.6868C101.756 73.2409 102.167 73.6901 102.675 73.6901Z" fill="#CCCCCC"/>
<path d="M61.4652 58.7252H47.0648C46.3947 58.7244 45.7522 58.4334 45.2783 57.9162C44.8044 57.399 44.5379 56.6978 44.5371 55.9663V45.2652C44.5379 44.5338 44.8044 43.8325 45.2783 43.3153C45.7522 42.7981 46.3947 42.5072 47.0648 42.5063H61.4652C62.1354 42.5072 62.7779 42.7981 63.2517 43.3153C63.7256 43.8325 63.9922 44.5338 63.9929 45.2652V55.9663C63.9922 56.6978 63.7256 57.399 63.2517 57.9162C62.7779 58.4334 62.1354 58.7244 61.4652 58.7252Z" fill="#33323D"/>
<path d="M80.8451 58.8087H66.4447C65.7746 58.8079 65.1321 58.5169 64.6582 57.9997C64.1843 57.4825 63.9177 56.7813 63.917 56.0498V45.3487C63.9177 44.6173 64.1843 43.916 64.6582 43.3988C65.1321 42.8816 65.7746 42.5907 66.4447 42.5898H80.8451C81.5152 42.5907 82.1577 42.8816 82.6316 43.3988C83.1055 43.916 83.3721 44.6173 83.3728 45.3487V56.0498C83.3721 56.7813 83.1055 57.4825 82.6316 57.9997C82.1577 58.5169 81.5152 58.8079 80.8451 58.8087Z" fill="#33323D"/>
<path d="M100.224 58.8922H85.8236C85.1535 58.8913 84.511 58.6004 84.0371 58.0832C83.5632 57.566 83.2967 56.8647 83.2959 56.1333V45.4322C83.2967 44.7008 83.5632 43.9995 84.0371 43.4823C84.511 42.9651 85.1535 42.6742 85.8236 42.6733H100.224C100.894 42.6742 101.537 42.9651 102.011 43.4823C102.484 43.9995 102.751 44.7008 102.752 45.4322V56.1333C102.751 56.8648 102.484 57.566 102.011 58.0832C101.537 58.6004 100.894 58.8913 100.224 58.8922Z" fill="#33323D"/>
<path d="M105.739 58.1396H42.3164V72.6028H105.739V58.1396Z" fill="#33323D"/>
<path d="M44.6143 72.6867H41.8568C40.463 72.6867 39.3291 71.2815 39.3291 69.5542V54.4614H44.6143V72.6867Z" fill="#33323D"/>
<path d="M105.432 72.6868H102.675V52.1206H107.96V69.152C107.96 71.1011 106.826 72.6868 105.432 72.6868Z" fill="#33323D"/>
<path d="M64.0701 61.1496H44.6143V56.6351C51.0996 52.5748 57.5848 52.5748 64.0701 56.6351V61.1496Z" fill="#4D4C5D"/>
<path d="M83.449 61.2331H63.9932V56.7186C70.4785 52.6583 76.9637 52.6583 83.449 56.7186V61.2331Z" fill="#4D4C5D"/>
<path d="M102.828 61.3166H83.3721V56.8021C89.8574 52.7418 96.3426 52.7418 102.828 56.8021V61.3166Z" fill="#4D4C5D"/>
<path d="M40.8611 58.307C43.357 58.307 45.3803 56.0986 45.3803 53.3744C45.3803 50.6503 43.357 48.4419 40.8611 48.4419C38.3651 48.4419 36.3418 50.6503 36.3418 53.3744C36.3418 56.0986 38.3651 58.307 40.8611 58.307Z" fill="#4D4C5D"/>
<path d="M107.041 58.14C109.537 58.14 111.56 55.9316 111.56 53.2074C111.56 50.4833 109.537 48.2749 107.041 48.2749C104.545 48.2749 102.521 50.4833 102.521 53.2074C102.521 55.9316 104.545 58.14 107.041 58.14Z" fill="#4D4C5D"/>
<path d="M93.7284 43.544C93.7389 43.6233 93.7437 43.7033 93.7426 43.7834L99.1597 47.8585L100.604 47.1121L101.921 49.3444L99.4816 50.937C99.2845 51.0657 99.0545 51.1211 98.8261 51.0949C98.5977 51.0688 98.3832 50.9624 98.2149 50.7919L92.7288 45.2344C92.4566 45.3181 92.1675 45.3092 91.9 45.2091C91.6325 45.1091 91.3992 44.9225 91.2312 44.6741C91.0633 44.4258 90.9686 44.1276 90.9597 43.8191C90.9508 43.5106 91.0282 43.2065 91.1815 42.9472C91.3349 42.6878 91.5569 42.4856 91.8181 42.3674C92.0794 42.2492 92.3674 42.2205 92.6438 42.2853C92.9203 42.3501 93.1722 42.5052 93.3659 42.7301C93.5597 42.9549 93.6861 43.2388 93.7284 43.544Z" fill="#FFB8B8"/>
<path d="M99.2639 47.5081C99.2877 47.4182 99.329 47.3349 99.3851 47.264C99.4411 47.193 99.5104 47.1361 99.5884 47.0971L102.312 45.7349C102.68 45.4736 103.128 45.3821 103.557 45.4805C103.987 45.5789 104.363 45.8592 104.604 46.2599C104.844 46.6606 104.929 47.1491 104.84 47.6182C104.751 48.0873 104.496 48.4987 104.129 48.7624L101.877 50.9356C101.813 50.9976 101.737 51.0438 101.655 51.071C101.573 51.0982 101.487 51.1057 101.402 51.0931C101.317 51.0805 101.235 51.0481 101.163 50.998C101.09 50.9479 101.028 50.8814 100.982 50.8029L99.3369 48.0448C99.2901 47.9664 99.2593 47.8778 99.2467 47.7852C99.2341 47.6925 99.24 47.598 99.2639 47.5081Z" fill="#FED04D"/>
<path d="M93.6602 43.8099L93.633 43.812L93.5586 42.6906C93.5349 42.3321 93.3224 42.0568 93.0841 42.0756L91.5046 42.2004C91.2663 42.2192 90.8277 42.5459 90.8515 42.9044L90.8707 43.1932L91.2594 49.0567C91.2831 49.4152 91.7602 49.6696 91.9985 49.6508L93.578 49.5261C93.8163 49.5072 93.9903 49.2014 93.9665 48.8429L93.6859 44.6103L93.7131 44.6082L93.6602 43.8099Z" fill="#3F3D56"/>
<path d="M93.4676 42.7022L93.8748 48.8454C93.8926 49.1131 93.7627 49.3415 93.5847 49.3556L91.9976 49.481C91.8197 49.495 91.661 49.2894 91.6433 49.0217L91.236 42.8784C91.2183 42.6107 91.3481 42.3823 91.5261 42.3682L91.7186 42.353C91.7053 42.4077 91.7082 42.4655 91.7269 42.5183C91.7456 42.571 91.7791 42.616 91.8227 42.6466C91.841 42.6562 91.8612 42.6605 91.8814 42.6591L92.7863 42.5876C92.8709 42.5808 92.9326 42.4722 92.9241 42.3449C92.9222 42.3156 92.9164 42.2867 92.907 42.2591L93.1132 42.2429C93.2912 42.2288 93.4498 42.4344 93.4676 42.7022Z" fill="white"/>
<path d="M71.2022 56.8878L70.6787 55.2072L76.3691 52.2036L77.1417 54.6842L71.2022 56.8878Z" fill="#FFB8B8"/>
<path d="M69.8431 57.8701L68.1553 52.451L68.2181 52.4277C68.4719 52.3335 68.7402 52.2948 69.0076 52.3138C69.2751 52.3328 69.5366 52.4091 69.777 52.5384C70.0175 52.6676 70.2323 52.8473 70.4091 53.0672C70.5859 53.2871 70.7214 53.5428 70.8076 53.8198L71.8386 57.1298L69.8431 57.8701Z" fill="#2F2E41"/>
<path d="M93.7872 58.087C92.5668 58.1618 91.3499 57.8838 90.2594 57.2809L83.5682 52.3126L75.7551 55.4703C75.5477 55.5473 75.3212 55.5356 75.1215 55.4374C74.9217 55.3393 74.7635 55.1621 74.6788 54.9416L74.2959 53.9363C74.2085 53.7101 74.206 53.4556 74.2889 53.2275C74.3717 52.9994 74.5333 52.8159 74.7389 52.7164L82.2033 49.0578C83.0995 48.6201 84.1048 48.5252 85.0565 48.7884L95.419 51.6706L98.1581 55.2209L98.1277 55.2667C96.783 57.2915 95.1881 57.9764 93.7872 58.087Z" fill="#2F2E41"/>
<path d="M102.25 43.2517C104.049 43.2517 105.508 41.6595 105.508 39.6954C105.508 37.7313 104.049 36.1392 102.25 36.1392C100.45 36.1392 98.9912 37.7313 98.9912 39.6954C98.9912 41.6595 100.45 43.2517 102.25 43.2517Z" fill="#FFB8B8"/>
<path d="M98.9051 56.8039L93.6611 52.5444L97.2375 49.7703C97.1352 49.411 96.6814 47.3566 99.1632 45.9563C99.9488 45.5131 100.515 45.1316 100.845 44.8224C101.315 44.3806 101.916 44.1413 102.535 44.1496C102.926 44.1564 103.31 44.2623 103.656 44.4589C104.003 44.6555 104.303 44.9375 104.532 45.2825C104.762 45.6275 104.914 46.0261 104.978 46.4467C105.042 46.8673 105.016 47.2984 104.901 47.7058C104.383 49.5418 103.559 51.9747 102.571 53.1382C101.453 54.4527 100.24 55.6676 98.9448 56.7714L98.9051 56.8039Z" fill="#FED04D"/>
<path d="M72.0342 58.3771L71.5107 56.6963L77.2011 53.6929L77.9737 56.1733L72.0342 58.3771Z" fill="#FFB8B8"/>
<path d="M70.6742 59.3594L68.9863 53.9402L69.0491 53.9169C69.3029 53.8227 69.5712 53.784 69.8387 53.803C70.1062 53.822 70.3676 53.8984 70.6081 54.0276C70.8485 54.1569 71.0633 54.3366 71.2402 54.5565C71.417 54.7763 71.5524 55.0321 71.6387 55.3091L72.6696 58.619L70.6742 59.3594Z" fill="#2F2E41"/>
<path d="M94.6183 59.5763C93.3978 59.6511 92.1809 59.373 91.0905 58.7702L84.3992 53.8019L76.5861 56.9596C76.3787 57.0366 76.1523 57.0248 75.9525 56.9267C75.7528 56.8285 75.5946 56.6513 75.5099 56.4308L75.1269 55.4255C75.0396 55.1994 75.0371 54.9449 75.1199 54.7168C75.2028 54.4886 75.3644 54.3051 75.5699 54.2057L83.0344 50.547C83.9306 50.1094 84.9358 50.0145 85.8876 50.2777L96.2501 53.1598L98.9891 56.7102L98.9587 56.756C97.6141 58.7808 96.0191 59.4657 94.6183 59.5763Z" fill="#2F2E41"/>
<path d="M93.1141 47.8101C93.1547 47.8769 93.1904 47.947 93.2209 48.0199L99.7148 49.1711L100.728 47.8215L102.793 49.2234L101.213 51.8028C101.086 52.0112 100.9 52.1687 100.683 52.2518C100.466 52.3349 100.231 52.3391 100.012 52.2636L92.8738 49.805C92.6606 50.0077 92.3959 50.1349 92.1149 50.1694C91.8339 50.204 91.5499 50.1443 91.3007 49.9984C91.0515 49.8525 90.8489 49.6273 90.7199 49.3526C90.5908 49.078 90.5414 48.767 90.5783 48.461C90.6151 48.155 90.7365 47.8684 90.9262 47.6395C91.1159 47.4106 91.3649 47.2502 91.6402 47.1795C91.9155 47.1089 92.2039 47.1314 92.4672 47.244C92.7305 47.3567 92.9561 47.5541 93.1141 47.8101Z" fill="#FFB8B8"/>
<path d="M99.6718 48.8053C99.658 48.7129 99.6627 48.6183 99.6855 48.528C99.7083 48.4378 99.7487 48.3539 99.8039 48.2822L101.731 45.7783C101.961 45.3702 102.33 45.0783 102.757 44.9665C103.183 44.8547 103.633 44.9322 104.008 45.1819C104.382 45.4317 104.651 45.8333 104.755 46.2988C104.858 46.7643 104.788 47.2557 104.561 47.6652L103.378 50.6815C103.344 50.7675 103.294 50.8447 103.23 50.9076C103.167 50.9705 103.092 51.0178 103.01 51.0461C102.928 51.0745 102.842 51.0832 102.757 51.0718C102.672 51.0604 102.59 51.0292 102.517 50.9801L99.9483 49.2562C99.8752 49.2072 99.8127 49.1415 99.7649 49.0637C99.7172 48.9859 99.6854 48.8977 99.6718 48.8053Z" fill="#FED04D"/>
<path d="M101.379 43.612C102.326 42.2825 102.851 40.653 102.875 38.9693C102.429 39.3308 101.925 39.5967 101.388 39.753C100.819 39.9185 100.193 39.9518 99.6571 39.6853C98.9024 39.3101 98.4561 38.3532 98.5417 37.4529C98.6274 36.5527 99.1974 35.7484 99.9396 35.3447C100.699 34.9569 101.566 34.8997 102.363 35.1846C102.785 34.7927 103.301 34.5417 103.85 34.4617C104.399 34.3818 104.957 34.4762 105.458 34.7337C106.612 35.3516 107.25 36.7823 107.36 38.1793C107.471 39.5763 107.142 40.9653 106.816 42.3217L106.779 42.4749C106.678 42.8972 106.383 43.7073 106.383 43.7073C106.383 43.7073 104.669 43.3383 103.988 43.1017C103.002 43.4909 101.379 43.612 101.379 43.612Z" fill="#2F2E41"/>
<path d="M93.2112 43.9528L91.8151 44.0631C91.78 44.0658 91.7453 44.0533 91.7187 44.0281C91.6921 44.003 91.6757 43.9674 91.6732 43.9291C91.6707 43.8908 91.6822 43.853 91.7052 43.8239C91.7282 43.7949 91.7608 43.777 91.7959 43.7742L93.192 43.664C93.2094 43.6626 93.2269 43.6649 93.2435 43.6709C93.26 43.6768 93.2754 43.6863 93.2886 43.6988C93.3018 43.7112 93.3126 43.7264 93.3204 43.7434C93.3283 43.7604 93.3329 43.7789 93.3342 43.7979C93.3355 43.8169 93.3333 43.836 93.3278 43.8541C93.3223 43.8721 93.3136 43.8888 93.3021 43.9032C93.2907 43.9176 93.2768 43.9294 93.2612 43.9379C93.2456 43.9464 93.2286 43.9515 93.2112 43.9528Z" fill="#3F3D56"/>
<path d="M93.2593 44.6745L91.8632 44.7847C91.8458 44.7861 91.8283 44.7838 91.8118 44.7778C91.7952 44.7719 91.7799 44.7624 91.7667 44.7499C91.7535 44.7375 91.7426 44.7223 91.7348 44.7053C91.727 44.6883 91.7223 44.6698 91.721 44.6508C91.7198 44.6318 91.722 44.6127 91.7275 44.5946C91.733 44.5766 91.7417 44.5599 91.7531 44.5455C91.7646 44.5311 91.7785 44.5193 91.7941 44.5108C91.8097 44.5023 91.8267 44.4972 91.8441 44.4959L93.2402 44.3856C93.2753 44.3829 93.3099 44.3954 93.3365 44.4205C93.3631 44.4457 93.3795 44.4813 93.3821 44.5196C93.3846 44.5579 93.3731 44.5957 93.3501 44.6248C93.3271 44.6538 93.2944 44.6717 93.2593 44.6745Z" fill="#3F3D56"/>
<path d="M93.3066 45.3966L91.9105 45.5069C91.8755 45.5096 91.8409 45.497 91.8143 45.4719C91.7878 45.4467 91.7714 45.4111 91.7689 45.3729C91.7664 45.3346 91.7778 45.2969 91.8008 45.2678C91.8237 45.2388 91.8563 45.2209 91.8914 45.2181L93.2874 45.1078C93.3225 45.105 93.3572 45.1176 93.3838 45.1427C93.4104 45.1678 93.4268 45.2035 93.4293 45.2418C93.4319 45.2801 93.4204 45.3179 93.3974 45.3469C93.3743 45.376 93.3417 45.3939 93.3066 45.3966Z" fill="#3F3D56"/>
<path d="M133.744 73.9165H13.8182C13.783 73.9165 13.7493 73.9013 13.7244 73.8741C13.6995 73.847 13.6855 73.8101 13.6855 73.7717C13.6855 73.7333 13.6995 73.6965 13.7244 73.6694C13.7493 73.6422 13.783 73.627 13.8182 73.627H133.744C133.779 73.627 133.813 73.6422 133.838 73.6694C133.863 73.6965 133.877 73.7333 133.877 73.7717C133.877 73.8101 133.863 73.847 133.838 73.8741C133.813 73.9013 133.779 73.9165 133.744 73.9165Z" fill="#3F3D56"/>
<path d="M77.4668 25.7008H64.068C63.7514 25.7004 63.448 25.563 63.2241 25.3187C63.0003 25.0744 62.8744 24.7431 62.874 24.3977V11.8007C62.8744 11.4552 63.0003 11.124 63.2241 10.8797C63.448 10.6354 63.7514 10.498 64.068 10.4976H77.4668C77.7833 10.498 78.0868 10.6354 78.3106 10.8797C78.5344 11.124 78.6604 11.4552 78.6607 11.8007V24.3977C78.6604 24.7431 78.5344 25.0744 78.3106 25.3187C78.0868 25.563 77.7833 25.7004 77.4668 25.7008ZM64.068 10.7871C63.8218 10.7874 63.5857 10.8943 63.4116 11.0843C63.2375 11.2744 63.1396 11.532 63.1393 11.8007V24.3977C63.1396 24.6664 63.2375 24.924 63.4116 25.114C63.5857 25.304 63.8218 25.4109 64.068 25.4112H77.4668C77.713 25.4109 77.949 25.304 78.1231 25.114C78.2972 24.924 78.3951 24.6664 78.3954 24.3977V11.8007C78.3951 11.532 78.2972 11.2744 78.1231 11.0843C77.949 10.8943 77.713 10.7874 77.4668 10.7871H64.068Z" fill="#F2F2F2"/>
<path d="M75.5078 23.746H66.027C65.7281 23.7456 65.4415 23.6158 65.2301 23.3851C65.0187 23.1544 64.8998 22.8415 64.8994 22.5152V13.6829C64.8998 13.3566 65.0187 13.0438 65.2301 12.813C65.4415 12.5823 65.7281 12.4525 66.027 12.4521H75.5078C75.8068 12.4525 76.0934 12.5823 76.3048 12.813C76.5162 13.0438 76.6351 13.3566 76.6354 13.6829V22.5152C76.6351 22.8415 76.5162 23.1544 76.3048 23.3851C76.0934 23.6158 75.8068 23.7456 75.5078 23.746Z" fill="#E6E6E6"/>
<path d="M70.8332 8.61492C71.1996 8.61492 71.4965 8.29079 71.4965 7.89096C71.4965 7.49112 71.1996 7.16699 70.8332 7.16699C70.4669 7.16699 70.1699 7.49112 70.1699 7.89096C70.1699 8.29079 70.4669 8.61492 70.8332 8.61492Z" fill="#F2F2F2"/>
<path d="M72.2283 10.7169L70.8341 8.17387L69.4478 10.7164L69.2197 10.5684L70.8334 7.60889L72.456 10.568L72.2283 10.7169Z" fill="#F2F2F2"/>
<path d="M72.3594 17.0856C72.359 16.8665 72.3369 16.6481 72.2936 16.4341H70.3031C70.1624 16.4341 70.0274 16.4951 69.9279 16.6037C69.8284 16.7123 69.7725 16.8596 69.7725 17.0133V20.1153C70.4747 20.0609 71.132 19.7181 71.612 19.156C72.092 18.5938 72.3591 17.8541 72.3594 17.0856Z" fill="#FED04D"/>
<path d="M69.5729 20.2708C69.0224 20.271 68.4831 20.1013 68.0173 19.7813C67.5514 19.4612 67.1779 19.0039 66.94 18.4621C66.7021 17.9203 66.6094 17.3162 66.6727 16.7193C66.7359 16.1225 66.9525 15.5574 67.2975 15.0892C67.6424 14.6209 68.1017 14.2688 68.6222 14.0733C69.1427 13.8778 69.7032 13.8469 70.2391 13.9843C70.775 14.1216 71.2644 14.4216 71.6508 14.8496C72.0371 15.2775 72.3047 15.816 72.4226 16.4029L72.4578 16.5786H70.3025C70.197 16.5787 70.0959 16.6245 70.0213 16.7059C69.9466 16.7874 69.9047 16.8978 69.9046 17.0129V20.2499L69.7582 20.2612C69.6968 20.2661 69.6354 20.2708 69.5729 20.2708ZM69.5729 14.1895C68.8692 14.1895 68.1944 14.4946 67.6968 15.0377C67.1992 15.5807 66.9197 16.3173 66.9197 17.0853C66.9197 17.8534 67.1992 18.5899 67.6968 19.133C68.1944 19.6761 68.8692 19.9812 69.5729 19.9812C69.5952 19.9812 69.6172 19.9805 69.6392 19.9794V17.0129C69.6394 16.821 69.7094 16.637 69.8337 16.5013C69.9581 16.3655 70.1267 16.2892 70.3025 16.289H72.1229C71.9622 15.6857 71.627 15.1552 71.1675 14.7768C70.7079 14.3985 70.1486 14.1924 69.5729 14.1895Z" fill="white"/>
<path d="M73.4868 21.212H70.303C70.1271 21.2118 69.9585 21.1354 69.8341 20.9997C69.7098 20.864 69.6399 20.68 69.6396 20.488V19.9802L69.7629 19.9707C70.1427 19.9421 70.5124 19.8243 70.8467 19.6255C71.181 19.4267 71.472 19.1515 71.7 18.8186C71.9279 18.4858 72.0873 18.1032 72.1674 17.697C72.2474 17.2908 72.2462 16.8705 72.1639 16.4648L72.1286 16.2891H73.4868C73.6627 16.2893 73.8313 16.3656 73.9556 16.5014C74.08 16.6371 74.1499 16.8211 74.1501 17.013V20.488C74.1499 20.68 74.08 20.864 73.9556 20.9997C73.8313 21.1354 73.6627 21.2118 73.4868 21.212ZM69.905 20.2471V20.488C69.9051 20.6032 69.9471 20.7136 70.0217 20.7951C70.0963 20.8765 70.1974 20.9223 70.303 20.9224H73.4868C73.5923 20.9223 73.6935 20.8765 73.7681 20.7951C73.8427 20.7136 73.8847 20.6032 73.8848 20.488V17.013C73.8847 16.8979 73.8427 16.7875 73.7681 16.706C73.6935 16.6246 73.5923 16.5788 73.4868 16.5786H72.4538C72.4789 16.7462 72.4917 16.9157 72.4919 17.0854C72.4894 17.8665 72.2248 18.6195 71.7482 19.2021C71.2715 19.7847 70.6158 20.1565 69.905 20.2471Z" fill="white"/>
</g>
<defs>
<clipPath id="clip0_290_1472">
<rect width="120.191" height="73.9166" fill="white" transform="translate(13.6855)"/>
</clipPath>
</defs>
</svg>
