<svg width="271" height="175" viewBox="0 0 271 175" fill="none" xmlns="http://www.w3.org/2000/svg">
<path d="M9.40761 165.73L14.1236 152.32H16.7516L21.4676 165.73H19.1996L18.1736 162.724H12.7196L11.6756 165.73H9.40761ZM13.3316 160.834H17.5256L15.1496 153.814H15.7436L13.3316 160.834ZM23.2205 165.73V155.992H25.1645V157.9L24.9305 157.648C25.1705 157.036 25.5545 156.574 26.0825 156.262C26.6105 155.938 27.2225 155.776 27.9185 155.776C28.6385 155.776 29.2745 155.932 29.8265 156.244C30.3785 156.556 30.8105 156.988 31.1225 157.54C31.4345 158.092 31.5905 158.728 31.5905 159.448V165.73H29.5745V159.988C29.5745 159.496 29.4845 159.082 29.3045 158.746C29.1245 158.398 28.8665 158.134 28.5305 157.954C28.2065 157.762 27.8345 157.666 27.4145 157.666C26.9945 157.666 26.6165 157.762 26.2805 157.954C25.9565 158.134 25.7045 158.398 25.5245 158.746C25.3445 159.094 25.2545 159.508 25.2545 159.988V165.73H23.2205ZM38.8254 169.69C38.1174 169.69 37.4634 169.576 36.8634 169.348C36.2634 169.12 35.7474 168.802 35.3154 168.394C34.8834 167.998 34.5594 167.53 34.3434 166.99L36.2154 166.216C36.3834 166.672 36.6894 167.05 37.1334 167.35C37.5894 167.65 38.1474 167.8 38.8074 167.8C39.3234 167.8 39.7854 167.698 40.1934 167.494C40.6014 167.302 40.9254 167.014 41.1654 166.63C41.4054 166.258 41.5254 165.808 41.5254 165.28V163.084L41.8854 163.498C41.5494 164.122 41.0814 164.596 40.4814 164.92C39.8934 165.244 39.2274 165.406 38.4834 165.406C37.5834 165.406 36.7734 165.196 36.0534 164.776C35.3334 164.356 34.7634 163.78 34.3434 163.048C33.9354 162.316 33.7314 161.494 33.7314 160.582C33.7314 159.658 33.9354 158.836 34.3434 158.116C34.7634 157.396 35.3274 156.826 36.0354 156.406C36.7434 155.986 37.5534 155.776 38.4654 155.776C39.2094 155.776 39.8694 155.938 40.4454 156.262C41.0334 156.574 41.5134 157.03 41.8854 157.63L41.6154 158.134V155.992H43.5414V165.28C43.5414 166.12 43.3374 166.87 42.9294 167.53C42.5334 168.202 41.9814 168.73 41.2734 169.114C40.5654 169.498 39.7494 169.69 38.8254 169.69ZM38.7174 163.516C39.2574 163.516 39.7374 163.39 40.1574 163.138C40.5774 162.874 40.9074 162.526 41.1474 162.094C41.3994 161.65 41.5254 161.152 41.5254 160.6C41.5254 160.048 41.3994 159.55 41.1474 159.106C40.8954 158.662 40.5594 158.314 40.1394 158.062C39.7194 157.798 39.2454 157.666 38.7174 157.666C38.1654 157.666 37.6734 157.798 37.2414 158.062C36.8094 158.314 36.4674 158.662 36.2154 159.106C35.9754 159.538 35.8554 160.036 35.8554 160.6C35.8554 161.14 35.9754 161.632 36.2154 162.076C36.4674 162.52 36.8094 162.874 37.2414 163.138C37.6734 163.39 38.1654 163.516 38.7174 163.516ZM46.2823 165.73V152.104H48.3163V161.23L47.5243 161.032L52.4023 155.992H54.9403L51.2683 159.898L55.1023 165.73H52.7623L49.3423 160.564L50.5483 160.402L47.6683 163.462L48.3163 162.112V165.73H46.2823ZM60.3292 165.946C59.5972 165.946 58.9552 165.784 58.4032 165.46C57.8512 165.124 57.4192 164.662 57.1072 164.074C56.8072 163.474 56.6572 162.784 56.6572 162.004V155.992H58.6912V161.824C58.6912 162.268 58.7812 162.658 58.9612 162.994C59.1412 163.33 59.3932 163.594 59.7172 163.786C60.0412 163.966 60.4132 164.056 60.8332 164.056C61.2652 164.056 61.6432 163.96 61.9672 163.768C62.2912 163.576 62.5432 163.306 62.7232 162.958C62.9152 162.61 63.0112 162.202 63.0112 161.734V155.992H65.0272V165.73H63.1012V163.822L63.3172 164.074C63.0892 164.674 62.7112 165.136 62.1832 165.46C61.6552 165.784 61.0372 165.946 60.3292 165.946ZM71.9741 165.838C70.9541 165.838 70.1621 165.55 69.5981 164.974C69.0341 164.398 68.7521 163.588 68.7521 162.544V157.828H67.0421V155.992H67.3121C67.7681 155.992 68.1221 155.86 68.3741 155.596C68.6261 155.332 68.7521 154.972 68.7521 154.516V153.76H70.7861V155.992H73.0001V157.828H70.7861V162.454C70.7861 162.79 70.8401 163.078 70.9481 163.318C71.0561 163.546 71.2301 163.726 71.4701 163.858C71.7101 163.978 72.0221 164.038 72.4061 164.038C72.5021 164.038 72.6101 164.032 72.7301 164.02C72.8501 164.008 72.9641 163.996 73.0721 163.984V165.73C72.9041 165.754 72.7181 165.778 72.5141 165.802C72.3101 165.826 72.1301 165.838 71.9741 165.838ZM78.2451 165.946C77.5851 165.946 77.0031 165.832 76.4991 165.604C76.0071 165.364 75.6231 165.04 75.3471 164.632C75.0711 164.212 74.9331 163.72 74.9331 163.156C74.9331 162.628 75.0471 162.154 75.2751 161.734C75.5151 161.314 75.8811 160.96 76.3731 160.672C76.8651 160.384 77.4831 160.18 78.2271 160.06L81.6111 159.502V161.104L78.6231 161.626C78.0831 161.722 77.6871 161.896 77.4351 162.148C77.1831 162.388 77.0571 162.7 77.0571 163.084C77.0571 163.456 77.1951 163.762 77.4711 164.002C77.7591 164.23 78.1251 164.344 78.5691 164.344C79.1211 164.344 79.6011 164.224 80.0091 163.984C80.4291 163.744 80.7531 163.426 80.9811 163.03C81.2091 162.622 81.3231 162.172 81.3231 161.68V159.178C81.3231 158.698 81.1431 158.308 80.7831 158.008C80.4351 157.696 79.9671 157.54 79.3791 157.54C78.8391 157.54 78.3651 157.684 77.9571 157.972C77.5611 158.248 77.2671 158.608 77.0751 159.052L75.3831 158.206C75.5631 157.726 75.8571 157.306 76.2651 156.946C76.6731 156.574 77.1471 156.286 77.6871 156.082C78.2391 155.878 78.8211 155.776 79.4331 155.776C80.2011 155.776 80.8791 155.92 81.4671 156.208C82.0671 156.496 82.5291 156.898 82.8531 157.414C83.1891 157.918 83.3571 158.506 83.3571 159.178V165.73H81.4131V163.966L81.8271 164.02C81.5991 164.416 81.3051 164.758 80.9451 165.046C80.5971 165.334 80.1951 165.556 79.7391 165.712C79.2951 165.868 78.7971 165.946 78.2451 165.946ZM86.0953 165.73V155.992H88.0393V157.9L87.8053 157.648C88.0453 157.036 88.4293 156.574 88.9573 156.262C89.4853 155.938 90.0973 155.776 90.7933 155.776C91.5133 155.776 92.1493 155.932 92.7013 156.244C93.2533 156.556 93.6853 156.988 93.9973 157.54C94.3093 158.092 94.4653 158.728 94.4653 159.448V165.73H92.4493V159.988C92.4493 159.496 92.3593 159.082 92.1793 158.746C91.9993 158.398 91.7413 158.134 91.4053 157.954C91.0813 157.762 90.7093 157.666 90.2893 157.666C89.8693 157.666 89.4913 157.762 89.1553 157.954C88.8313 158.134 88.5793 158.398 88.3993 158.746C88.2193 159.094 88.1293 159.508 88.1293 159.988V165.73H86.0953ZM100.509 165.73V155.992H102.453V157.9L102.219 157.648C102.459 157.036 102.843 156.574 103.371 156.262C103.899 155.938 104.511 155.776 105.207 155.776C105.927 155.776 106.563 155.932 107.115 156.244C107.667 156.556 108.099 156.988 108.411 157.54C108.723 158.092 108.879 158.728 108.879 159.448V165.73H106.863V159.988C106.863 159.496 106.773 159.082 106.593 158.746C106.413 158.398 106.155 158.134 105.819 157.954C105.495 157.762 105.123 157.666 104.703 157.666C104.283 157.666 103.905 157.762 103.569 157.954C103.245 158.134 102.993 158.398 102.813 158.746C102.633 159.094 102.543 159.508 102.543 159.988V165.73H100.509ZM112.104 169.708C111.864 169.708 111.624 169.684 111.384 169.636C111.156 169.6 110.946 169.54 110.754 169.456V167.71C110.898 167.746 111.072 167.776 111.276 167.8C111.48 167.836 111.678 167.854 111.87 167.854C112.434 167.854 112.848 167.728 113.112 167.476C113.388 167.236 113.634 166.858 113.85 166.342L114.498 164.866L114.462 166.576L110.25 155.992H112.428L115.542 164.11H114.804L117.9 155.992H120.096L115.794 166.792C115.566 167.368 115.278 167.872 114.93 168.304C114.594 168.748 114.192 169.09 113.724 169.33C113.268 169.582 112.728 169.708 112.104 169.708ZM124.412 165.946C123.752 165.946 123.17 165.832 122.666 165.604C122.174 165.364 121.79 165.04 121.514 164.632C121.238 164.212 121.1 163.72 121.1 163.156C121.1 162.628 121.214 162.154 121.442 161.734C121.682 161.314 122.048 160.96 122.54 160.672C123.032 160.384 123.65 160.18 124.394 160.06L127.778 159.502V161.104L124.79 161.626C124.25 161.722 123.854 161.896 123.602 162.148C123.35 162.388 123.224 162.7 123.224 163.084C123.224 163.456 123.362 163.762 123.638 164.002C123.926 164.23 124.292 164.344 124.736 164.344C125.288 164.344 125.768 164.224 126.176 163.984C126.596 163.744 126.92 163.426 127.148 163.03C127.376 162.622 127.49 162.172 127.49 161.68V159.178C127.49 158.698 127.31 158.308 126.95 158.008C126.602 157.696 126.134 157.54 125.546 157.54C125.006 157.54 124.532 157.684 124.124 157.972C123.728 158.248 123.434 158.608 123.242 159.052L121.55 158.206C121.73 157.726 122.024 157.306 122.432 156.946C122.84 156.574 123.314 156.286 123.854 156.082C124.406 155.878 124.988 155.776 125.6 155.776C126.368 155.776 127.046 155.92 127.634 156.208C128.234 156.496 128.696 156.898 129.02 157.414C129.356 157.918 129.524 158.506 129.524 159.178V165.73H127.58V163.966L127.994 164.02C127.766 164.416 127.472 164.758 127.112 165.046C126.764 165.334 126.362 165.556 125.906 165.712C125.462 165.868 124.964 165.946 124.412 165.946ZM132.263 165.73V155.992H134.207V158.098L133.955 157.774C134.159 157.114 134.531 156.616 135.071 156.28C135.611 155.944 136.229 155.776 136.925 155.776C137.705 155.776 138.395 155.986 138.995 156.406C139.607 156.814 140.015 157.36 140.219 158.044L139.643 158.098C139.931 157.318 140.369 156.736 140.957 156.352C141.557 155.968 142.241 155.776 143.009 155.776C143.681 155.776 144.287 155.932 144.827 156.244C145.379 156.556 145.817 156.988 146.141 157.54C146.465 158.092 146.627 158.722 146.627 159.43V165.73H144.593V159.988C144.593 159.496 144.503 159.082 144.323 158.746C144.155 158.398 143.915 158.134 143.603 157.954C143.303 157.762 142.949 157.666 142.541 157.666C142.133 157.666 141.773 157.762 141.461 157.954C141.149 158.134 140.903 158.398 140.723 158.746C140.543 159.094 140.453 159.508 140.453 159.988V165.73H138.437V159.988C138.437 159.496 138.347 159.082 138.167 158.746C137.999 158.398 137.759 158.134 137.447 157.954C137.147 157.762 136.787 157.666 136.367 157.666C135.959 157.666 135.599 157.762 135.287 157.954C134.975 158.134 134.729 158.398 134.549 158.746C134.381 159.094 134.297 159.508 134.297 159.988V165.73H132.263ZM152.08 165.946C151.42 165.946 150.838 165.832 150.334 165.604C149.842 165.364 149.458 165.04 149.182 164.632C148.906 164.212 148.768 163.72 148.768 163.156C148.768 162.628 148.882 162.154 149.11 161.734C149.35 161.314 149.716 160.96 150.208 160.672C150.7 160.384 151.318 160.18 152.062 160.06L155.446 159.502V161.104L152.458 161.626C151.918 161.722 151.522 161.896 151.27 162.148C151.018 162.388 150.892 162.7 150.892 163.084C150.892 163.456 151.03 163.762 151.306 164.002C151.594 164.23 151.96 164.344 152.404 164.344C152.956 164.344 153.436 164.224 153.844 163.984C154.264 163.744 154.588 163.426 154.816 163.03C155.044 162.622 155.158 162.172 155.158 161.68V159.178C155.158 158.698 154.978 158.308 154.618 158.008C154.27 157.696 153.802 157.54 153.214 157.54C152.674 157.54 152.2 157.684 151.792 157.972C151.396 158.248 151.102 158.608 150.91 159.052L149.218 158.206C149.398 157.726 149.692 157.306 150.1 156.946C150.508 156.574 150.982 156.286 151.522 156.082C152.074 155.878 152.656 155.776 153.268 155.776C154.036 155.776 154.714 155.92 155.302 156.208C155.902 156.496 156.364 156.898 156.688 157.414C157.024 157.918 157.192 158.506 157.192 159.178V165.73H155.248V163.966L155.662 164.02C155.434 164.416 155.14 164.758 154.78 165.046C154.432 165.334 154.03 165.556 153.574 165.712C153.13 165.868 152.632 165.946 152.08 165.946ZM159.93 165.73V155.992H161.874V157.9L161.64 157.648C161.88 157.036 162.264 156.574 162.792 156.262C163.32 155.938 163.932 155.776 164.628 155.776C165.348 155.776 165.984 155.932 166.536 156.244C167.088 156.556 167.52 156.988 167.832 157.54C168.144 158.092 168.3 158.728 168.3 159.448V165.73H166.284V159.988C166.284 159.496 166.194 159.082 166.014 158.746C165.834 158.398 165.576 158.134 165.24 157.954C164.916 157.762 164.544 157.666 164.124 157.666C163.704 157.666 163.326 157.762 162.99 157.954C162.666 158.134 162.414 158.398 162.234 158.746C162.054 159.094 161.964 159.508 161.964 159.988V165.73H159.93ZM178.843 165.946C177.907 165.946 177.067 165.724 176.323 165.28C175.591 164.824 175.009 164.212 174.577 163.444C174.157 162.676 173.947 161.812 173.947 160.852C173.947 159.892 174.163 159.028 174.595 158.26C175.027 157.492 175.609 156.886 176.341 156.442C177.073 155.998 177.901 155.776 178.825 155.776C179.605 155.776 180.295 155.932 180.895 156.244C181.495 156.556 181.969 156.988 182.317 157.54L182.011 158.008V152.104H184.027V165.73H182.101V163.75L182.335 164.128C181.999 164.716 181.519 165.166 180.895 165.478C180.271 165.79 179.587 165.946 178.843 165.946ZM179.041 164.056C179.605 164.056 180.109 163.918 180.553 163.642C181.009 163.366 181.363 162.988 181.615 162.508C181.879 162.016 182.011 161.464 182.011 160.852C182.011 160.24 181.879 159.694 181.615 159.214C181.363 158.734 181.009 158.356 180.553 158.08C180.109 157.804 179.605 157.666 179.041 157.666C178.477 157.666 177.967 157.804 177.511 158.08C177.055 158.356 176.701 158.734 176.449 159.214C176.197 159.694 176.071 160.24 176.071 160.852C176.071 161.464 176.197 162.016 176.449 162.508C176.701 162.988 177.049 163.366 177.493 163.642C177.949 163.918 178.465 164.056 179.041 164.056ZM189.678 165.946C189.018 165.946 188.436 165.832 187.932 165.604C187.44 165.364 187.056 165.04 186.78 164.632C186.504 164.212 186.366 163.72 186.366 163.156C186.366 162.628 186.48 162.154 186.708 161.734C186.948 161.314 187.314 160.96 187.806 160.672C188.298 160.384 188.916 160.18 189.66 160.06L193.044 159.502V161.104L190.056 161.626C189.516 161.722 189.12 161.896 188.868 162.148C188.616 162.388 188.49 162.7 188.49 163.084C188.49 163.456 188.628 163.762 188.904 164.002C189.192 164.23 189.558 164.344 190.002 164.344C190.554 164.344 191.034 164.224 191.442 163.984C191.862 163.744 192.186 163.426 192.414 163.03C192.642 162.622 192.756 162.172 192.756 161.68V159.178C192.756 158.698 192.576 158.308 192.216 158.008C191.868 157.696 191.4 157.54 190.812 157.54C190.272 157.54 189.798 157.684 189.39 157.972C188.994 158.248 188.7 158.608 188.508 159.052L186.816 158.206C186.996 157.726 187.29 157.306 187.698 156.946C188.106 156.574 188.58 156.286 189.12 156.082C189.672 155.878 190.254 155.776 190.866 155.776C191.634 155.776 192.312 155.92 192.9 156.208C193.5 156.496 193.962 156.898 194.286 157.414C194.622 157.918 194.79 158.506 194.79 159.178V165.73H192.846V163.966L193.26 164.02C193.032 164.416 192.738 164.758 192.378 165.046C192.03 165.334 191.628 165.556 191.172 165.712C190.728 165.868 190.23 165.946 189.678 165.946ZM197.528 165.73V155.992H199.472V157.9L199.238 157.648C199.478 157.036 199.862 156.574 200.39 156.262C200.918 155.938 201.53 155.776 202.226 155.776C202.946 155.776 203.582 155.932 204.134 156.244C204.686 156.556 205.118 156.988 205.43 157.54C205.742 158.092 205.898 158.728 205.898 159.448V165.73H203.882V159.988C203.882 159.496 203.792 159.082 203.612 158.746C203.432 158.398 203.174 158.134 202.838 157.954C202.514 157.762 202.142 157.666 201.722 157.666C201.302 157.666 200.924 157.762 200.588 157.954C200.264 158.134 200.012 158.398 199.832 158.746C199.652 159.094 199.562 159.508 199.562 159.988V165.73H197.528ZM210.951 165.73L215.667 152.32H218.295L223.011 165.73H220.743L219.717 162.724H214.263L213.219 165.73H210.951ZM214.875 160.834H219.069L216.693 153.814H217.287L214.875 160.834ZM224.764 165.73V155.992H226.708V158.098L226.456 157.774C226.66 157.114 227.032 156.616 227.572 156.28C228.112 155.944 228.73 155.776 229.426 155.776C230.206 155.776 230.896 155.986 231.496 156.406C232.108 156.814 232.516 157.36 232.72 158.044L232.144 158.098C232.432 157.318 232.87 156.736 233.458 156.352C234.058 155.968 234.742 155.776 235.51 155.776C236.182 155.776 236.788 155.932 237.328 156.244C237.88 156.556 238.318 156.988 238.642 157.54C238.966 158.092 239.128 158.722 239.128 159.43V165.73H237.094V159.988C237.094 159.496 237.004 159.082 236.824 158.746C236.656 158.398 236.416 158.134 236.104 157.954C235.804 157.762 235.45 157.666 235.042 157.666C234.634 157.666 234.274 157.762 233.962 157.954C233.65 158.134 233.404 158.398 233.224 158.746C233.044 159.094 232.954 159.508 232.954 159.988V165.73H230.938V159.988C230.938 159.496 230.848 159.082 230.668 158.746C230.5 158.398 230.26 158.134 229.948 157.954C229.648 157.762 229.288 157.666 228.868 157.666C228.46 157.666 228.1 157.762 227.788 157.954C227.476 158.134 227.23 158.398 227.05 158.746C226.882 159.094 226.798 159.508 226.798 159.988V165.73H224.764ZM244.581 165.946C243.921 165.946 243.339 165.832 242.835 165.604C242.343 165.364 241.959 165.04 241.683 164.632C241.407 164.212 241.269 163.72 241.269 163.156C241.269 162.628 241.383 162.154 241.611 161.734C241.851 161.314 242.217 160.96 242.709 160.672C243.201 160.384 243.819 160.18 244.563 160.06L247.947 159.502V161.104L244.959 161.626C244.419 161.722 244.023 161.896 243.771 162.148C243.519 162.388 243.393 162.7 243.393 163.084C243.393 163.456 243.531 163.762 243.807 164.002C244.095 164.23 244.461 164.344 244.905 164.344C245.457 164.344 245.937 164.224 246.345 163.984C246.765 163.744 247.089 163.426 247.317 163.03C247.545 162.622 247.659 162.172 247.659 161.68V159.178C247.659 158.698 247.479 158.308 247.119 158.008C246.771 157.696 246.303 157.54 245.715 157.54C245.175 157.54 244.701 157.684 244.293 157.972C243.897 158.248 243.603 158.608 243.411 159.052L241.719 158.206C241.899 157.726 242.193 157.306 242.601 156.946C243.009 156.574 243.483 156.286 244.023 156.082C244.575 155.878 245.157 155.776 245.769 155.776C246.537 155.776 247.215 155.92 247.803 156.208C248.403 156.496 248.865 156.898 249.189 157.414C249.525 157.918 249.693 158.506 249.693 159.178V165.73H247.749V163.966L248.163 164.02C247.935 164.416 247.641 164.758 247.281 165.046C246.933 165.334 246.531 165.556 246.075 165.712C245.631 165.868 245.133 165.946 244.581 165.946ZM252.432 165.73V155.992H254.376V157.9L254.142 157.648C254.382 157.036 254.766 156.574 255.294 156.262C255.822 155.938 256.434 155.776 257.13 155.776C257.85 155.776 258.486 155.932 259.038 156.244C259.59 156.556 260.022 156.988 260.334 157.54C260.646 158.092 260.802 158.728 260.802 159.448V165.73H258.786V159.988C258.786 159.496 258.696 159.082 258.516 158.746C258.336 158.398 258.078 158.134 257.742 157.954C257.418 157.762 257.046 157.666 256.626 157.666C256.206 157.666 255.828 157.762 255.492 157.954C255.168 158.134 254.916 158.398 254.736 158.746C254.556 159.094 254.466 159.508 254.466 159.988V165.73H252.432Z" fill="white"/>
<g clip-path="url(#clip0_290_1472)">
<path opacity="0.1" d="M244.587 82.6763C244.591 86.1914 244.152 89.6938 243.28 93.1059C242.986 94.2545 242.645 95.3803 242.257 96.4834C241.781 97.8433 241.231 99.1776 240.607 100.481C240.293 101.138 239.961 101.784 239.611 102.418C239.616 106.023 238.85 109.589 237.36 112.893C234.665 118.819 229.862 123.61 223.826 126.395C220.046 128.141 215.916 129.058 211.729 129.082H68.1114C61.7211 129.095 55.4409 127.47 49.9095 124.372C49.0921 123.913 48.2956 123.425 47.5201 122.907C45.8363 121.78 44.2543 120.518 42.7912 119.132C40.8105 117.256 39.0655 115.16 37.5925 112.887C34.1319 107.566 32.2986 101.405 32.3051 95.117C28.8004 89.1626 26.7568 82.0298 26.7568 74.3651C26.7568 64.6947 30.0044 55.8732 35.3399 49.1953C36.4523 47.8001 37.6707 46.4874 38.9851 45.268C40.282 44.0614 41.6759 42.9566 43.1537 41.964C44.3356 41.1683 45.5713 40.4504 46.8525 39.815C47.387 39.55 47.9233 39.3028 48.4689 39.0718C48.9479 38.8659 49.4324 38.6743 49.9225 38.4934C50.5106 38.2761 51.1061 38.0773 51.709 37.897C52.3119 37.7168 52.9068 37.558 53.4937 37.4207C54.3568 37.2165 55.2346 37.0506 56.1273 36.9228C56.867 36.8172 57.6068 36.7438 58.3465 36.6865C58.9347 36.6459 59.5277 36.622 60.1257 36.6148H60.4493C61.1077 36.6148 61.7624 36.6399 62.4115 36.6829C62.48 36.5504 62.5539 36.416 62.6224 36.2835C62.8813 35.8072 63.1494 35.3308 63.4195 34.8634V34.8509C63.4657 34.7703 63.5119 34.6897 63.56 34.6109C63.7782 34.2295 64.0057 33.8516 64.2387 33.4773C64.346 33.2982 64.4514 33.1299 64.5605 32.9598C64.5846 32.9186 64.6086 32.8792 64.6364 32.838C64.7473 32.6589 64.8601 32.4798 64.9748 32.3008C65.5457 31.4185 66.1393 30.5499 66.7558 29.6951C66.8094 29.6217 66.8594 29.5501 66.913 29.4784C67.0092 29.3459 67.0979 29.2152 67.2052 29.0845C67.4604 28.7388 67.723 28.3914 67.9875 28.0494C68.1724 27.8076 68.3574 27.5659 68.5571 27.3331C69.038 26.7313 69.5317 26.1332 70.0366 25.5422C70.5415 24.9513 71.0742 24.3567 71.6123 23.7747C71.6863 23.6941 71.7603 23.6153 71.838 23.5347L72.6277 22.702C72.6665 22.6626 72.6998 22.6268 72.7368 22.591C72.8311 22.4925 72.9217 22.394 73.0234 22.2973C73.4469 21.8639 73.8815 21.4359 74.318 21.0133C76.5474 18.8683 78.9224 16.8701 81.4271 15.032C81.5251 14.9568 81.625 14.8851 81.723 14.8135C82.1928 14.4697 82.6699 14.1312 83.1471 13.7981C85.772 11.9756 88.5154 10.3187 91.3603 8.83756C91.5563 8.73011 91.7561 8.62803 91.9576 8.52596C94.5088 7.21996 97.1322 6.05059 99.8158 5.02313C101.278 4.46321 102.766 3.94029 104.28 3.45438C105.283 3.13741 106.289 2.83476 107.308 2.55898C108.883 2.12083 110.479 1.72565 112.094 1.37346C116.852 0.339599 121.693 -0.299055 126.564 -0.535544C128.043 -0.610758 129.539 -0.648365 131.052 -0.648365C138.352 -0.657722 145.623 0.232904 152.69 2.00203C152.763 2.10896 152.863 2.19613 152.981 2.25534C153.098 2.31455 153.229 2.34386 153.362 2.3405H153.983C154.253 2.41034 154.521 2.48376 154.791 2.55898C156.299 2.98041 157.785 3.43946 159.25 3.93611L159.62 4.06505C163.235 5.30981 166.753 6.80605 170.145 8.54207C173.203 10.1039 176.147 11.8653 178.957 13.8142C179.39 14.1151 179.817 14.4189 180.237 14.7257C180.748 14.407 181.267 14.1031 181.794 13.8142C183.832 12.691 185.997 11.7981 188.245 11.1531C192.946 9.80606 197.92 9.6177 202.715 10.6051C208.864 11.8676 214.431 15.0015 218.927 19.4589C220.758 21.2767 222.39 23.274 223.794 25.4187C223.896 25.5727 223.998 25.7285 224.096 25.8861C225.301 27.7907 226.337 29.791 227.192 31.8656C227.223 31.9408 227.255 32.0142 227.282 32.0894C228.072 34.0309 228.709 36.0274 229.187 38.0618C229.209 38.1639 229.235 38.2677 229.258 38.3716C229.705 40.3405 230.009 42.3374 230.167 44.3475C230.167 44.4192 230.167 44.4926 230.182 44.566C230.26 45.6059 230.299 46.6571 230.301 47.7196C230.301 48.6688 230.267 49.6107 230.206 50.5437C230.206 50.6458 230.192 50.7533 230.182 50.8571C230.166 51.1293 230.142 51.3944 230.118 51.6684C231.53 52.771 232.852 53.978 234.072 55.2786C234.61 55.8481 235.132 56.4397 235.636 57.0533C237.173 58.9171 238.523 60.9181 239.668 63.0293C242.79 68.7563 244.587 75.479 244.587 82.6763Z" fill="#FED04D"/>
<path d="M235.291 129.476C238.773 129.476 241.596 129.021 241.596 128.459C241.596 127.898 238.773 127.443 235.291 127.443C231.809 127.443 228.986 127.898 228.986 128.459C228.986 129.021 231.809 129.476 235.291 129.476Z" fill="#F2F2F2"/>
<path d="M242.646 31.3843H242.121V42.0575H242.646V31.3843Z" fill="#F2F2F2"/>
<path d="M236.867 24.5229H233.715V129.73H236.867V24.5229Z" fill="#F2F2F2"/>
<path d="M249.723 32.7819H220.86C220.543 32.7819 220.23 32.7168 219.942 32.5909C219.653 32.4649 219.395 32.2811 219.186 32.0514C218.976 31.8218 218.82 31.5517 218.726 31.2591C218.633 30.9664 218.605 30.6579 218.644 30.354L222.322 1.89215C222.39 1.37003 222.653 0.889876 223.061 0.541583C223.468 0.19329 223.994 0.000744483 224.538 0H246.046C246.59 0.000744409 247.115 0.19329 247.523 0.541583C247.93 0.889876 248.193 1.37003 248.261 1.89215L251.939 30.354C251.978 30.6579 251.95 30.9664 251.857 31.2591C251.764 31.5517 251.607 31.8218 251.397 32.0514C251.188 32.2811 250.93 32.4649 250.642 32.5909C250.353 32.7168 250.04 32.7819 249.723 32.7819Z" fill="#F2F2F2"/>
<path d="M242.384 43.8365C243.399 43.8365 244.223 43.0401 244.223 42.0577C244.223 41.0752 243.399 40.2788 242.384 40.2788C241.368 40.2788 240.545 41.0752 240.545 42.0577C240.545 43.0401 241.368 43.8365 242.384 43.8365Z" fill="#F2F2F2"/>
<path d="M48.9835 101.488C47.6563 105.942 43.7812 109.059 39.7389 111.708C39.1745 112.078 38.6099 112.439 38.0452 112.792C38.0413 112.794 38.0374 112.797 38.0335 112.799C38.0064 112.816 37.9791 112.832 37.9538 112.849C37.8373 112.922 37.7207 112.995 37.6051 113.067L37.6686 113.094C37.6686 113.094 37.7309 113.126 37.6627 113.099C37.6424 113.091 37.6211 113.084 37.6009 113.076C35.2526 112.159 32.8626 111.176 31.063 109.459C29.1961 107.677 28.1052 104.882 29.116 102.54C29.2489 102.233 29.4167 101.942 29.6164 101.671C29.6984 101.558 29.7867 101.449 29.8787 101.342C30.4363 100.684 31.1651 100.181 31.9901 99.8858C32.8152 99.5902 33.7067 99.5126 34.5731 99.6609C35.4394 99.8092 36.2493 100.178 36.9195 100.729C37.5897 101.281 38.0959 101.995 38.3861 102.799C38.6831 100.124 36.4031 97.8831 34.209 96.2299C32.0138 94.5775 29.5196 92.778 29.0952 90.118C28.8582 88.6381 29.3902 87.2038 30.3593 86.0524C30.3893 86.0175 30.4193 85.9825 30.4502 85.9485C31.6299 84.6075 33.2891 83.7464 35.0965 83.5372C38.4624 83.1988 41.7319 84.9223 44.1772 87.1862C48.1129 90.8288 50.4922 96.4237 48.9835 101.488Z" fill="#FED14D"/>
<path d="M42.6575 95.6623C43.3035 96.6346 43.7994 97.6928 44.1297 98.8035C44.409 99.7963 44.5334 100.824 44.4986 101.852C44.4085 103.968 43.7944 106.032 42.708 107.871C41.8896 109.266 40.8923 110.555 39.7397 111.708C39.1753 112.078 38.6107 112.439 38.0459 112.792C38.0421 112.794 38.0382 112.797 38.0343 112.799C38.0071 112.816 37.9799 112.833 37.9546 112.85C37.838 112.922 37.7214 112.995 37.6058 113.067C37.6058 113.067 37.7317 113.127 37.6635 113.1C37.6432 113.092 37.6219 113.084 37.6016 113.076C37.8121 111.407 37.6059 109.713 37.0004 108.137C36.3948 106.56 35.4075 105.147 34.1212 104.016C32.8318 102.902 31.2885 102.099 29.6172 101.672C29.6992 101.558 29.7875 101.449 29.8794 101.343C30.5249 101.518 31.1532 101.748 31.7568 102.03C33.9146 103.032 35.6814 104.68 36.7958 106.73C37.7957 108.591 38.2261 110.689 38.0363 112.778C38.1328 112.693 38.2294 112.607 38.3231 112.521C40.1075 110.912 41.6925 109.065 42.7651 106.933C43.6957 105.127 44.1531 103.128 44.0969 101.111C44.0094 98.9125 43.1037 96.8756 41.7924 95.1024C40.3551 93.2107 38.6572 91.5179 36.7459 90.0712C34.8197 88.5787 32.7119 87.3199 30.4696 86.3227C30.419 86.2999 30.3794 86.2591 30.3591 86.2089C30.3387 86.1586 30.3391 86.1027 30.3601 86.0527C30.3751 86.0078 30.4077 85.9705 30.451 85.9488C30.4732 85.9395 30.4974 85.9352 30.5216 85.9362C30.5458 85.9372 30.5695 85.9434 30.5908 85.9545C30.8677 86.0778 31.1426 86.2028 31.4154 86.3332C33.6869 87.4193 35.8102 88.7742 37.7364 90.3668C39.597 91.9013 41.3487 93.6545 42.6575 95.6623Z" fill="white"/>
<path d="M29.8243 112.704H44.368C44.5275 112.704 44.6852 112.736 44.8306 112.8C44.976 112.863 45.1059 112.956 45.2114 113.072C45.317 113.187 45.396 113.323 45.443 113.471C45.4901 113.618 45.5042 113.774 45.4844 113.927L43.6313 128.268C43.5969 128.531 43.4646 128.773 43.2591 128.949C43.0536 129.124 42.789 129.221 42.5149 129.222H31.6774C31.4033 129.221 31.1387 129.124 30.9332 128.949C30.7277 128.773 30.5954 128.531 30.561 128.268L28.7079 113.927C28.6881 113.774 28.7022 113.618 28.7493 113.471C28.7963 113.323 28.8753 113.187 28.9808 113.072C29.0864 112.956 29.2162 112.863 29.3617 112.8C29.5071 112.736 29.6648 112.704 29.8243 112.704Z" fill="#F2F2F2"/>
<path d="M77.244 129.332C78.2492 129.332 79.0641 128.544 79.0641 127.571C79.0641 126.599 78.2492 125.811 77.244 125.811C76.2387 125.811 75.4238 126.599 75.4238 127.571C75.4238 128.544 76.2387 129.332 77.244 129.332Z" fill="#CCCCCC"/>
<path d="M192.215 129.332C193.22 129.332 194.035 128.544 194.035 127.571C194.035 126.599 193.22 125.811 192.215 125.811C191.209 125.811 190.395 126.599 190.395 127.571C190.395 128.544 191.209 129.332 192.215 129.332Z" fill="#CCCCCC"/>
<path d="M110.612 103.068H82.0972C80.7701 103.066 79.4979 102.555 78.5595 101.648C77.6211 100.74 77.0933 99.5092 77.0918 98.2254V79.4441C77.0933 78.1604 77.6211 76.9296 78.5595 76.0219C79.4979 75.1141 80.7701 74.6035 82.0972 74.6021H110.612C111.94 74.6035 113.212 75.1141 114.15 76.0219C115.089 76.9296 115.616 78.1604 115.618 79.4441V98.2255C115.616 99.5092 115.088 100.74 114.15 101.648C113.212 102.555 111.94 103.066 110.612 103.068Z" fill="#33323D"/>
<path d="M148.987 103.214H120.472C119.145 103.213 117.873 102.702 116.934 101.795C115.996 100.887 115.468 99.6562 115.467 98.3724V79.5911C115.468 78.3073 115.996 77.0766 116.934 76.1688C117.873 75.2611 119.145 74.7505 120.472 74.749H148.987C150.315 74.7505 151.587 75.2611 152.525 76.1688C153.463 77.0766 153.991 78.3073 153.993 79.5911V98.3724C153.991 99.6562 153.463 100.887 152.525 101.795C151.587 102.702 150.315 103.213 148.987 103.214Z" fill="#33323D"/>
<path d="M187.361 103.361H158.845C157.518 103.36 156.246 102.849 155.308 101.941C154.369 101.033 153.841 99.8026 153.84 98.5189V79.7376C153.841 78.4538 154.369 77.2231 155.308 76.3153C156.246 75.4076 157.518 74.897 158.845 74.8955H187.361C188.688 74.897 189.96 75.4076 190.898 76.3153C191.837 77.2231 192.364 78.4538 192.366 79.7376V98.5189C192.364 99.8027 191.837 101.033 190.898 101.941C189.96 102.849 188.688 103.36 187.361 103.361Z" fill="#33323D"/>
<path d="M198.282 102.041H72.6934V127.425H198.282V102.041Z" fill="#33323D"/>
<path d="M77.2441 127.571H71.7837C69.0237 127.571 66.7783 125.105 66.7783 122.074V95.5845H77.2441V127.571Z" fill="#33323D"/>
<path d="M197.675 127.571H192.215V91.4761H202.681V121.368C202.681 124.788 200.435 127.571 197.675 127.571Z" fill="#33323D"/>
<path d="M115.77 107.323H77.2441V99.3993C90.0862 92.2731 102.928 92.2731 115.77 99.3993V107.323Z" fill="#4D4C5D"/>
<path d="M154.144 107.469H115.618V99.5458C128.46 92.4196 141.302 92.4196 154.144 99.5458V107.469Z" fill="#4D4C5D"/>
<path d="M192.518 107.616H153.992V99.6928C166.834 92.5666 179.676 92.5666 192.518 99.6928V107.616Z" fill="#4D4C5D"/>
<path d="M69.8113 102.334C74.7536 102.334 78.7602 98.4582 78.7602 93.677C78.7602 88.8959 74.7536 85.02 69.8113 85.02C64.8689 85.02 60.8623 88.8959 60.8623 93.677C60.8623 98.4582 64.8689 102.334 69.8113 102.334Z" fill="#4D4C5D"/>
<path d="M200.861 102.041C205.803 102.041 209.81 98.1647 209.81 93.3836C209.81 88.6024 205.803 84.7266 200.861 84.7266C195.919 84.7266 191.912 88.6024 191.912 93.3836C191.912 98.1647 195.919 102.041 200.861 102.041Z" fill="#4D4C5D"/>
<path d="M174.5 76.4237C174.52 76.5629 174.53 76.7034 174.528 76.844L185.255 83.9961L188.115 82.686L190.723 86.6039L185.892 89.3991C185.502 89.625 185.046 89.7222 184.594 89.6763C184.142 89.6304 183.717 89.4438 183.384 89.1445L172.52 79.3906C171.981 79.5374 171.409 79.5219 170.879 79.3463C170.349 79.1706 169.887 78.8431 169.555 78.4073C169.222 77.9715 169.035 77.4481 169.017 76.9066C168.999 76.3652 169.153 75.8314 169.456 75.3763C169.76 74.9211 170.2 74.5662 170.717 74.3587C171.234 74.1512 171.804 74.101 172.352 74.2147C172.899 74.3284 173.398 74.6007 173.782 74.9953C174.165 75.3899 174.416 75.8881 174.5 76.4237Z" fill="#FFB8B8"/>
<path d="M185.461 83.3803C185.508 83.2224 185.59 83.0762 185.701 82.9518C185.812 82.8273 185.949 82.7274 186.104 82.659L191.497 80.2682C192.226 79.8095 193.112 79.6489 193.963 79.8217C194.813 79.9944 195.559 80.4863 196.035 81.1896C196.511 81.8929 196.679 82.7502 196.503 83.5735C196.327 84.3968 195.821 85.1189 195.095 85.5816L190.636 89.3959C190.509 89.5047 190.359 89.5858 190.196 89.6335C190.034 89.6812 189.862 89.6944 189.694 89.6723C189.526 89.6502 189.364 89.5933 189.221 89.5054C189.077 89.4175 188.955 89.3007 188.862 89.1629L185.606 84.3223C185.513 84.1846 185.452 84.0291 185.427 83.8666C185.402 83.704 185.414 83.5381 185.461 83.3803Z" fill="#FED04D"/>
<path d="M174.364 76.8896L174.31 76.8934L174.163 74.9252C174.116 74.296 173.695 73.8128 173.224 73.8458L170.096 74.0648C169.624 74.0978 168.756 74.6713 168.803 75.3004L168.841 75.8073L169.61 86.0983C169.657 86.7274 170.602 87.174 171.074 87.1409L174.202 86.922C174.674 86.889 175.018 86.3522 174.971 85.7231L174.415 78.2944L174.469 78.2907L174.364 76.8896Z" fill="#3F3D56"/>
<path d="M173.983 74.946L174.789 85.7279C174.824 86.1978 174.567 86.5987 174.215 86.6233L171.072 86.8433C170.72 86.868 170.405 86.5071 170.37 86.0372L169.564 75.2553C169.529 74.7854 169.786 74.3845 170.138 74.3599L170.519 74.3332C170.493 74.4291 170.499 74.5307 170.536 74.6233C170.573 74.7158 170.639 74.7947 170.726 74.8485C170.762 74.8653 170.802 74.8729 170.842 74.8703L172.634 74.7449C172.801 74.733 172.923 74.5423 172.906 74.319C172.903 74.2675 172.891 74.2168 172.873 74.1684L173.281 74.1399C173.633 74.1152 173.948 74.4761 173.983 74.946Z" fill="white"/>
<path d="M129.893 99.8427L128.856 96.8931L140.124 91.6216L141.654 95.9752L129.893 99.8427Z" fill="#FFB8B8"/>
<path d="M127.203 101.567L123.86 92.0561L123.985 92.0152C124.487 91.8499 125.019 91.782 125.548 91.8154C126.078 91.8487 126.596 91.9826 127.072 92.2095C127.548 92.4364 127.973 92.7518 128.323 93.1377C128.674 93.5236 128.942 93.9725 129.112 94.4586L131.154 100.268L127.203 101.567Z" fill="#2F2E41"/>
<path d="M174.615 101.948C172.198 102.079 169.788 101.591 167.629 100.533L154.379 91.8133L138.908 97.3554C138.497 97.4905 138.049 97.4699 137.653 97.2976C137.257 97.1254 136.944 96.8143 136.776 96.4273L136.018 94.6629C135.845 94.2661 135.84 93.8194 136.004 93.419C136.168 93.0186 136.488 92.6965 136.895 92.522L151.676 86.1008C153.451 85.3327 155.442 85.1661 157.326 85.6281L177.846 90.6865L183.27 96.9176L183.209 96.998C180.547 100.552 177.388 101.754 174.615 101.948Z" fill="#2F2E41"/>
<path d="M191.374 75.9103C194.937 75.9103 197.826 73.1159 197.826 69.6688C197.826 66.2217 194.937 63.4272 191.374 63.4272C187.811 63.4272 184.922 66.2217 184.922 69.6688C184.922 73.1159 187.811 75.9103 191.374 75.9103Z" fill="#FFB8B8"/>
<path d="M184.749 99.696L174.365 92.2203L181.447 87.3514C181.244 86.7208 180.346 83.1153 185.26 80.6576C186.816 79.8798 187.937 79.2101 188.591 78.6675C189.521 77.8921 190.711 77.4722 191.938 77.4867C192.711 77.4986 193.471 77.6844 194.157 78.0295C194.844 78.3746 195.438 78.8695 195.892 79.475C196.346 80.0806 196.649 80.7801 196.776 81.5183C196.902 82.2564 196.85 83.013 196.622 83.7281C195.597 86.9504 193.965 91.2203 192.008 93.2624C189.794 95.5694 187.393 97.7017 184.828 99.639L184.749 99.696Z" fill="#FED04D"/>
<path d="M131.54 102.456L130.504 99.5066L141.772 94.2354L143.302 98.5887L131.54 102.456Z" fill="#FFB8B8"/>
<path d="M128.849 104.181L125.507 94.6699L125.631 94.629C126.134 94.4637 126.665 94.3958 127.195 94.4291C127.724 94.4625 128.242 94.5964 128.718 94.8233C129.194 95.0502 129.62 95.3656 129.97 95.7515C130.32 96.1374 130.588 96.5862 130.759 97.0724L132.8 102.882L128.849 104.181Z" fill="#2F2E41"/>
<path d="M176.261 104.562C173.844 104.693 171.435 104.205 169.275 103.147L156.025 94.427L140.554 99.9692C140.143 100.104 139.695 100.084 139.299 99.9114C138.904 99.7391 138.591 99.4281 138.423 99.0411L137.665 97.2767C137.492 96.8798 137.487 96.4331 137.651 96.0328C137.815 95.6324 138.135 95.3103 138.542 95.1358L153.323 88.7146C155.097 87.9465 157.088 87.7799 158.973 88.2418L179.492 93.3002L184.916 99.5314L184.856 99.6117C182.193 103.165 179.035 104.368 176.261 104.562Z" fill="#2F2E41"/>
<path d="M173.283 83.911C173.363 84.0282 173.434 84.1513 173.495 84.2792L186.354 86.2997L188.359 83.931L192.45 86.3914L189.321 90.9185C189.069 91.2842 188.7 91.5607 188.271 91.7066C187.842 91.8524 187.375 91.8597 186.942 91.7273L172.807 87.4121C172.385 87.768 171.861 87.9911 171.305 88.0517C170.748 88.1124 170.186 88.0077 169.692 87.7517C169.199 87.4956 168.798 87.1003 168.542 86.6182C168.287 86.1362 168.189 85.5904 168.262 85.0533C168.335 84.5162 168.575 84.0134 168.951 83.6116C169.326 83.2098 169.819 82.9282 170.365 82.8042C170.91 82.6802 171.481 82.7197 172.002 82.9174C172.524 83.1151 172.97 83.4617 173.283 83.911Z" fill="#FFB8B8"/>
<path d="M186.269 85.6577C186.242 85.4955 186.251 85.3295 186.296 85.171C186.342 85.0126 186.421 84.8655 186.531 84.7397L190.347 80.3451C190.802 79.6288 191.532 79.1164 192.378 78.9202C193.223 78.724 194.114 78.86 194.855 79.2983C195.597 79.7367 196.129 80.4416 196.334 81.2586C196.539 82.0756 196.401 82.938 195.95 83.6567L193.608 88.9505C193.542 89.1016 193.442 89.237 193.316 89.3474C193.19 89.4578 193.041 89.5408 192.879 89.5905C192.718 89.6403 192.546 89.6556 192.378 89.6357C192.209 89.6157 192.047 89.5608 191.902 89.4747L186.817 86.449C186.672 86.363 186.548 86.2478 186.454 86.1112C186.359 85.9746 186.296 85.8199 186.269 85.6577Z" fill="#FED04D"/>
<path d="M189.647 76.5426C191.522 74.2091 192.562 71.3493 192.609 68.3943C191.727 69.0287 190.728 69.4955 189.666 69.7698C188.538 70.0603 187.299 70.1187 186.237 69.6508C184.743 68.9923 183.859 67.3129 184.029 65.7329C184.198 64.1529 185.327 62.7414 186.797 62.0328C188.301 61.3522 190.017 61.2518 191.595 61.7518C192.43 61.0639 193.452 60.6234 194.54 60.4831C195.627 60.3427 196.733 60.5085 197.725 60.9605C200.009 62.0448 201.272 64.5559 201.491 67.0077C201.71 69.4596 201.059 71.8975 200.413 74.278L200.34 74.5469C200.139 75.288 199.555 76.7099 199.555 76.7099C199.555 76.7099 196.162 76.0622 194.814 75.647C192.86 76.3301 189.647 76.5426 189.647 76.5426Z" fill="#2F2E41"/>
<path d="M173.474 77.1404L170.709 77.3339C170.64 77.3388 170.571 77.3168 170.519 77.2727C170.466 77.2286 170.433 77.166 170.428 77.0988C170.423 77.0316 170.446 76.9652 170.492 76.9142C170.537 76.8633 170.602 76.8319 170.671 76.827L173.436 76.6335C173.47 76.631 173.505 76.6351 173.538 76.6456C173.571 76.6561 173.601 76.6727 173.627 76.6946C173.653 76.7164 173.675 76.743 173.69 76.7729C173.706 76.8027 173.715 76.8353 173.718 76.8686C173.72 76.9019 173.716 76.9354 173.705 76.9671C173.694 76.9988 173.677 77.0281 173.654 77.0534C173.631 77.0787 173.604 77.0993 173.573 77.1143C173.542 77.1292 173.508 77.1381 173.474 77.1404Z" fill="#3F3D56"/>
<path d="M173.57 78.408L170.806 78.6015C170.771 78.604 170.737 78.5999 170.704 78.5894C170.671 78.5789 170.641 78.5623 170.614 78.5404C170.588 78.5186 170.567 78.492 170.551 78.4621C170.536 78.4323 170.527 78.3997 170.524 78.3664C170.522 78.3331 170.526 78.2996 170.537 78.2679C170.548 78.2362 170.565 78.2068 170.588 78.1816C170.61 78.1563 170.638 78.1357 170.669 78.1207C170.7 78.1058 170.733 78.0969 170.768 78.0946L173.532 77.9011C173.602 77.8962 173.67 77.9182 173.723 77.9623C173.776 78.0064 173.808 78.069 173.813 78.1362C173.818 78.2034 173.795 78.2698 173.75 78.3208C173.704 78.3717 173.64 78.4031 173.57 78.408Z" fill="#3F3D56"/>
<path d="M173.665 79.6751L170.9 79.8686C170.831 79.8733 170.762 79.8512 170.71 79.8071C170.657 79.763 170.625 79.7005 170.62 79.6334C170.615 79.5663 170.638 79.5 170.683 79.449C170.728 79.3981 170.793 79.3667 170.862 79.3617L173.627 79.1681C173.696 79.1633 173.765 79.1853 173.818 79.2294C173.87 79.2735 173.903 79.336 173.908 79.4033C173.913 79.4705 173.89 79.5369 173.844 79.5879C173.799 79.6388 173.734 79.6702 173.665 79.6751Z" fill="#3F3D56"/>
<path d="M253.737 129.73H16.2627C16.193 129.73 16.1262 129.703 16.0769 129.655C16.0277 129.608 16 129.543 16 129.476C16 129.408 16.0277 129.344 16.0769 129.296C16.1262 129.248 16.193 129.222 16.2627 129.222H253.737C253.807 129.222 253.874 129.248 253.923 129.296C253.972 129.344 254 129.408 254 129.476C254 129.543 253.972 129.608 253.923 129.655C253.874 129.703 253.807 129.73 253.737 129.73Z" fill="#3F3D56"/>
<path d="M142.298 45.1068H115.766C115.139 45.1061 114.538 44.8649 114.095 44.4362C113.651 44.0074 113.402 43.4261 113.401 42.8197V20.7109C113.402 20.1046 113.651 19.5232 114.095 19.0945C114.538 18.6657 115.139 18.4245 115.766 18.4238H142.298C142.924 18.4245 143.525 18.6657 143.969 19.0945C144.412 19.5232 144.661 20.1046 144.662 20.7109V42.8197C144.661 43.4261 144.412 44.0074 143.969 44.4362C143.525 44.8649 142.924 45.1061 142.298 45.1068ZM115.766 18.9321C115.278 18.9326 114.811 19.1202 114.466 19.4537C114.121 19.7872 113.927 20.2393 113.927 20.7109V42.8197C113.927 43.2913 114.121 43.7435 114.466 44.077C114.811 44.4104 115.278 44.598 115.766 44.5986H142.298C142.785 44.598 143.253 44.4104 143.597 44.077C143.942 43.7435 144.136 43.2913 144.136 42.8197V20.7109C144.136 20.2393 143.942 19.7872 143.597 19.4537C143.253 19.1202 142.785 18.9326 142.298 18.9321H115.766Z" fill="#F2F2F2"/>
<path d="M138.419 41.6761H119.645C119.053 41.6755 118.485 41.4477 118.067 41.0427C117.648 40.6378 117.413 40.0888 117.412 39.5161V24.0145C117.413 23.4419 117.648 22.8928 118.067 22.4879C118.485 22.0829 119.053 21.8551 119.645 21.8545H138.419C139.011 21.8551 139.578 22.0829 139.997 22.4879C140.415 22.8928 140.651 23.4419 140.652 24.0145V39.5161C140.651 40.0888 140.415 40.6378 139.997 41.0427C139.578 41.4477 139.011 41.6755 138.419 41.6761Z" fill="#E6E6E6"/>
<path d="M129.163 15.1203C129.888 15.1203 130.477 14.5515 130.477 13.8497C130.477 13.148 129.888 12.5791 129.163 12.5791C128.438 12.5791 127.85 13.148 127.85 13.8497C127.85 14.5515 128.438 15.1203 129.163 15.1203Z" fill="#F2F2F2"/>
<path d="M131.924 18.8088L129.164 14.3456L126.418 18.808L125.967 18.5483L129.162 13.354L132.375 18.5475L131.924 18.8088Z" fill="#F2F2F2"/>
<path d="M132.184 29.9868C132.183 29.6022 132.14 29.2188 132.054 28.8433H128.112C127.834 28.8433 127.566 28.9504 127.369 29.141C127.172 29.3316 127.062 29.5902 127.062 29.8598V35.3042C128.452 35.2087 129.754 34.6071 130.704 33.6204C131.655 32.6338 132.183 31.3355 132.184 29.9868Z" fill="#FED04D"/>
<path d="M126.667 35.5774C125.577 35.5778 124.509 35.28 123.587 34.7183C122.664 34.1566 121.925 33.354 121.453 32.4031C120.982 31.4522 120.799 30.3918 120.924 29.3443C121.049 28.2968 121.478 27.305 122.161 26.4832C122.844 25.6615 123.754 25.0434 124.784 24.7003C125.815 24.3571 126.925 24.303 127.986 24.5441C129.047 24.7852 130.017 25.3117 130.782 26.0628C131.547 26.8139 132.077 27.7589 132.31 28.7889L132.38 29.0973H128.112C127.903 29.0975 127.703 29.1779 127.555 29.3208C127.407 29.4638 127.324 29.6575 127.324 29.8597V35.5408L127.034 35.5607C126.912 35.5692 126.791 35.5774 126.667 35.5774ZM126.667 24.9042C125.274 24.9042 123.937 25.4397 122.952 26.3929C121.967 27.346 121.413 28.6388 121.413 29.9867C121.413 31.3347 121.967 32.6274 122.952 33.5806C123.937 34.5337 125.274 35.0692 126.667 35.0692C126.711 35.0692 126.755 35.0679 126.798 35.066V29.8597C126.799 29.5228 126.937 29.1998 127.184 28.9616C127.43 28.7234 127.764 28.5894 128.112 28.589H131.716C131.398 27.5301 130.735 26.5992 129.825 25.9351C128.915 25.271 127.807 24.9094 126.667 24.9042Z" fill="white"/>
<path d="M134.417 37.2291H128.112C127.764 37.2287 127.43 37.0947 127.184 36.8565C126.938 36.6183 126.799 36.2953 126.799 35.9584V35.0672L127.043 35.0504C127.795 35.0002 128.527 34.7935 129.189 34.4446C129.851 34.0957 130.427 33.6126 130.879 33.0285C131.33 32.4444 131.646 31.7729 131.804 31.0599C131.963 30.347 131.96 29.6093 131.797 28.8973L131.727 28.5889H134.417C134.765 28.5893 135.099 28.7232 135.345 28.9615C135.591 29.1997 135.73 29.5226 135.73 29.8595V35.9584C135.73 36.2953 135.591 36.6183 135.345 36.8565C135.099 37.0947 134.765 37.2287 134.417 37.2291ZM127.324 35.5356V35.9584C127.324 36.1606 127.408 36.3544 127.555 36.4973C127.703 36.6402 127.903 36.7206 128.112 36.7208H134.417C134.626 36.7206 134.826 36.6402 134.974 36.4973C135.122 36.3544 135.205 36.1606 135.205 35.9584V29.8595C135.205 29.6574 135.122 29.4636 134.974 29.3207C134.826 29.1777 134.626 29.0973 134.417 29.0971H132.371C132.421 29.3911 132.446 29.6886 132.447 29.9865C132.442 31.3574 131.918 32.679 130.974 33.7015C130.03 34.724 128.732 35.3765 127.324 35.5356Z" fill="white"/>
</g>
<defs>
<clipPath id="clip0_290_1472">
<rect width="238" height="129.73" fill="white" transform="translate(16)"/>
</clipPath>
</defs>
</svg>
