<svg width="146" height="105" viewBox="0 0 146 105" fill="none" xmlns="http://www.w3.org/2000/svg">
<path d="M30.6785 98.8076V91.3576H31.8585V94.6376H35.3085V91.3576H36.4785V98.8076H35.3085V95.6876H31.8585V98.8076H30.6785ZM39.7322 98.9276C39.3656 98.9276 39.0422 98.8643 38.7622 98.7376C38.4889 98.6043 38.2756 98.4243 38.1222 98.1976C37.9689 97.9643 37.8922 97.691 37.8922 97.3776C37.8922 97.0843 37.9556 96.821 38.0822 96.5876C38.2156 96.3543 38.4189 96.1576 38.6922 95.9976C38.9656 95.8376 39.3089 95.7243 39.7222 95.6576L41.6022 95.3476V96.2376L39.9422 96.5276C39.6422 96.581 39.4222 96.6776 39.2822 96.8176C39.1422 96.951 39.0722 97.1243 39.0722 97.3376C39.0722 97.5443 39.1489 97.7143 39.3022 97.8476C39.4622 97.9743 39.6656 98.0376 39.9122 98.0376C40.2189 98.0376 40.4856 97.971 40.7122 97.8376C40.9456 97.7043 41.1256 97.5276 41.2522 97.3076C41.3789 97.081 41.4422 96.831 41.4422 96.5576V95.1676C41.4422 94.901 41.3422 94.6843 41.1422 94.5176C40.9489 94.3443 40.6889 94.2576 40.3622 94.2576C40.0622 94.2576 39.7989 94.3376 39.5722 94.4976C39.3522 94.651 39.1889 94.851 39.0822 95.0976L38.1422 94.6276C38.2422 94.361 38.4056 94.1276 38.6322 93.9276C38.8589 93.721 39.1222 93.561 39.4222 93.4476C39.7289 93.3343 40.0522 93.2776 40.3922 93.2776C40.8189 93.2776 41.1956 93.3576 41.5222 93.5176C41.8556 93.6776 42.1122 93.901 42.2922 94.1876C42.4789 94.4676 42.5722 94.7943 42.5722 95.1676V98.8076H41.4922V97.8276L41.7222 97.8576C41.5956 98.0776 41.4322 98.2676 41.2322 98.4276C41.0389 98.5876 40.8156 98.711 40.5622 98.7976C40.3156 98.8843 40.0389 98.9276 39.7322 98.9276ZM44.0935 98.8076V93.3976H45.1735V94.4876L45.0735 94.3276C45.1935 93.9743 45.3868 93.721 45.6535 93.5676C45.9201 93.4076 46.2401 93.3276 46.6135 93.3276H46.9435V94.3576H46.4735C46.1001 94.3576 45.7968 94.4743 45.5635 94.7076C45.3368 94.9343 45.2235 95.261 45.2235 95.6876V98.8076H44.0935ZM50.5265 101.008C50.1332 101.008 49.7698 100.944 49.4365 100.818C49.1032 100.691 48.8165 100.514 48.5765 100.288C48.3365 100.068 48.1565 99.8076 48.0365 99.5076L49.0765 99.0776C49.1698 99.331 49.3398 99.541 49.5865 99.7076C49.8398 99.8743 50.1498 99.9576 50.5165 99.9576C50.8032 99.9576 51.0598 99.901 51.2865 99.7876C51.5132 99.681 51.6932 99.521 51.8265 99.3076C51.9598 99.101 52.0265 98.851 52.0265 98.5576V97.3376L52.2265 97.5676C52.0398 97.9143 51.7798 98.1776 51.4465 98.3576C51.1198 98.5376 50.7498 98.6276 50.3365 98.6276C49.8365 98.6276 49.3865 98.511 48.9865 98.2776C48.5865 98.0443 48.2698 97.7243 48.0365 97.3176C47.8098 96.911 47.6965 96.4543 47.6965 95.9476C47.6965 95.4343 47.8098 94.9776 48.0365 94.5776C48.2698 94.1776 48.5832 93.861 48.9765 93.6276C49.3698 93.3943 49.8198 93.2776 50.3265 93.2776C50.7398 93.2776 51.1065 93.3676 51.4265 93.5476C51.7532 93.721 52.0198 93.9743 52.2265 94.3076L52.0765 94.5876V93.3976H53.1465V98.5576C53.1465 99.0243 53.0332 99.441 52.8065 99.8076C52.5865 100.181 52.2798 100.474 51.8865 100.688C51.4932 100.901 51.0398 101.008 50.5265 101.008ZM50.4665 97.5776C50.7665 97.5776 51.0332 97.5076 51.2665 97.3676C51.4998 97.221 51.6832 97.0276 51.8165 96.7876C51.9565 96.541 52.0265 96.2643 52.0265 95.9576C52.0265 95.651 51.9565 95.3743 51.8165 95.1276C51.6765 94.881 51.4898 94.6876 51.2565 94.5476C51.0232 94.401 50.7598 94.3276 50.4665 94.3276C50.1598 94.3276 49.8865 94.401 49.6465 94.5476C49.4065 94.6876 49.2165 94.881 49.0765 95.1276C48.9432 95.3676 48.8765 95.6443 48.8765 95.9576C48.8765 96.2576 48.9432 96.531 49.0765 96.7776C49.2165 97.0243 49.4065 97.221 49.6465 97.3676C49.8865 97.5076 50.1598 97.5776 50.4665 97.5776ZM56.2893 98.9276C55.9226 98.9276 55.5993 98.8643 55.3193 98.7376C55.0459 98.6043 54.8326 98.4243 54.6793 98.1976C54.5259 97.9643 54.4493 97.691 54.4493 97.3776C54.4493 97.0843 54.5126 96.821 54.6393 96.5876C54.7726 96.3543 54.9759 96.1576 55.2493 95.9976C55.5226 95.8376 55.8659 95.7243 56.2793 95.6576L58.1593 95.3476V96.2376L56.4993 96.5276C56.1993 96.581 55.9793 96.6776 55.8393 96.8176C55.6993 96.951 55.6293 97.1243 55.6293 97.3376C55.6293 97.5443 55.7059 97.7143 55.8593 97.8476C56.0193 97.9743 56.2226 98.0376 56.4693 98.0376C56.7759 98.0376 57.0426 97.971 57.2693 97.8376C57.5026 97.7043 57.6826 97.5276 57.8093 97.3076C57.9359 97.081 57.9993 96.831 57.9993 96.5576V95.1676C57.9993 94.901 57.8993 94.6843 57.6993 94.5176C57.5059 94.3443 57.2459 94.2576 56.9193 94.2576C56.6193 94.2576 56.3559 94.3376 56.1293 94.4976C55.9093 94.651 55.7459 94.851 55.6393 95.0976L54.6993 94.6276C54.7993 94.361 54.9626 94.1276 55.1893 93.9276C55.4159 93.721 55.6793 93.561 55.9793 93.4476C56.2859 93.3343 56.6093 93.2776 56.9493 93.2776C57.3759 93.2776 57.7526 93.3576 58.0793 93.5176C58.4126 93.6776 58.6693 93.901 58.8493 94.1876C59.0359 94.4676 59.1293 94.7943 59.1293 95.1676V98.8076H58.0493V97.8276L58.2793 97.8576C58.1526 98.0776 57.9893 98.2676 57.7893 98.4276C57.5959 98.5876 57.3726 98.711 57.1193 98.7976C56.8726 98.8843 56.5959 98.9276 56.2893 98.9276ZM64.0285 98.8076V92.4076H62.0485V91.3576H67.1485V92.4076H65.1985V98.8076H64.0285ZM69.9577 98.9276C69.4177 98.9276 68.9377 98.8043 68.5177 98.5576C68.1044 98.3043 67.781 97.9643 67.5477 97.5376C67.3144 97.1043 67.1977 96.621 67.1977 96.0876C67.1977 95.541 67.3144 95.0576 67.5477 94.6376C67.7877 94.2176 68.1077 93.8876 68.5077 93.6476C68.9077 93.401 69.361 93.2776 69.8677 93.2776C70.2744 93.2776 70.6377 93.3476 70.9577 93.4876C71.2777 93.6276 71.5477 93.821 71.7677 94.0676C71.9877 94.3076 72.1544 94.5843 72.2677 94.8976C72.3877 95.211 72.4477 95.5443 72.4477 95.8976C72.4477 95.9843 72.4444 96.0743 72.4377 96.1676C72.431 96.261 72.4177 96.3476 72.3977 96.4276H68.0877V95.5276H71.7577L71.2177 95.9376C71.2844 95.611 71.261 95.321 71.1477 95.0676C71.041 94.8076 70.8744 94.6043 70.6477 94.4576C70.4277 94.3043 70.1677 94.2276 69.8677 94.2276C69.5677 94.2276 69.301 94.3043 69.0677 94.4576C68.8344 94.6043 68.6544 94.8176 68.5277 95.0976C68.401 95.371 68.351 95.7043 68.3777 96.0976C68.3444 96.4643 68.3944 96.7843 68.5277 97.0576C68.6677 97.331 68.861 97.5443 69.1077 97.6976C69.361 97.851 69.6477 97.9276 69.9677 97.9276C70.2944 97.9276 70.571 97.8543 70.7977 97.7076C71.031 97.561 71.2144 97.371 71.3477 97.1376L72.2677 97.5876C72.161 97.841 71.9944 98.071 71.7677 98.2776C71.5477 98.4776 71.281 98.6376 70.9677 98.7576C70.661 98.871 70.3244 98.9276 69.9577 98.9276ZM73.7505 98.8076V93.3976H74.8305V94.4876L74.7305 94.3276C74.8505 93.9743 75.0438 93.721 75.3105 93.5676C75.5772 93.4076 75.8972 93.3276 76.2705 93.3276H76.6005V94.3576H76.1305C75.7572 94.3576 75.4538 94.4743 75.2205 94.7076C74.9938 94.9343 74.8805 95.261 74.8805 95.6876V98.8076H73.7505ZM76.7435 101.018C76.6702 101.018 76.5902 101.011 76.5035 100.998C76.4102 100.991 76.3335 100.981 76.2735 100.968V99.9876C76.4002 100.008 76.5269 100.018 76.6535 100.018C76.9335 100.018 77.1569 99.9443 77.3235 99.7976C77.4902 99.6576 77.5735 99.4443 77.5735 99.1576V93.3976H78.7035V99.1576C78.7035 99.551 78.6202 99.8876 78.4535 100.168C78.2869 100.448 78.0569 100.658 77.7635 100.798C77.4702 100.944 77.1302 101.018 76.7435 101.018ZM77.5735 92.6576V91.3576H78.7035V92.6576H77.5735ZM81.8447 98.9276C81.4781 98.9276 81.1547 98.8643 80.8747 98.7376C80.6014 98.6043 80.3881 98.4243 80.2347 98.1976C80.0814 97.9643 80.0047 97.691 80.0047 97.3776C80.0047 97.0843 80.0681 96.821 80.1947 96.5876C80.3281 96.3543 80.5314 96.1576 80.8047 95.9976C81.0781 95.8376 81.4214 95.7243 81.8347 95.6576L83.7147 95.3476V96.2376L82.0547 96.5276C81.7547 96.581 81.5347 96.6776 81.3947 96.8176C81.2547 96.951 81.1847 97.1243 81.1847 97.3376C81.1847 97.5443 81.2614 97.7143 81.4147 97.8476C81.5747 97.9743 81.7781 98.0376 82.0247 98.0376C82.3314 98.0376 82.5981 97.971 82.8247 97.8376C83.0581 97.7043 83.2381 97.5276 83.3647 97.3076C83.4914 97.081 83.5547 96.831 83.5547 96.5576V95.1676C83.5547 94.901 83.4547 94.6843 83.2547 94.5176C83.0614 94.3443 82.8014 94.2576 82.4747 94.2576C82.1747 94.2576 81.9114 94.3376 81.6847 94.4976C81.4647 94.651 81.3014 94.851 81.1947 95.0976L80.2547 94.6276C80.3547 94.361 80.5181 94.1276 80.7447 93.9276C80.9714 93.721 81.2347 93.561 81.5347 93.4476C81.8414 93.3343 82.1647 93.2776 82.5047 93.2776C82.9314 93.2776 83.3081 93.3576 83.6347 93.5176C83.9681 93.6776 84.2247 93.901 84.4047 94.1876C84.5914 94.4676 84.6847 94.7943 84.6847 95.1676V98.8076H83.6047V97.8276L83.8347 97.8576C83.7081 98.0776 83.5447 98.2676 83.3447 98.4276C83.1514 98.5876 82.9281 98.711 82.6747 98.7976C82.4281 98.8843 82.1514 98.9276 81.8447 98.9276ZM86.206 98.8076V93.3976H87.286V94.4576L87.156 94.3176C87.2893 93.9776 87.5026 93.721 87.796 93.5476C88.0893 93.3676 88.4293 93.2776 88.816 93.2776C89.216 93.2776 89.5693 93.3643 89.876 93.5376C90.1826 93.711 90.4226 93.951 90.596 94.2576C90.7693 94.5643 90.856 94.9176 90.856 95.3176V98.8076H89.736V95.6176C89.736 95.3443 89.686 95.1143 89.586 94.9276C89.486 94.7343 89.3426 94.5876 89.156 94.4876C88.976 94.381 88.7693 94.3276 88.536 94.3276C88.3026 94.3276 88.0926 94.381 87.906 94.4876C87.726 94.5876 87.586 94.7343 87.486 94.9276C87.386 95.121 87.336 95.351 87.336 95.6176V98.8076H86.206ZM94.8753 101.008C94.482 101.008 94.1187 100.944 93.7853 100.818C93.452 100.691 93.1653 100.514 92.9253 100.288C92.6853 100.068 92.5053 99.8076 92.3853 99.5076L93.4253 99.0776C93.5187 99.331 93.6887 99.541 93.9353 99.7076C94.1887 99.8743 94.4987 99.9576 94.8653 99.9576C95.152 99.9576 95.4087 99.901 95.6353 99.7876C95.862 99.681 96.042 99.521 96.1753 99.3076C96.3087 99.101 96.3753 98.851 96.3753 98.5576V97.3376L96.5753 97.5676C96.3887 97.9143 96.1287 98.1776 95.7953 98.3576C95.4687 98.5376 95.0987 98.6276 94.6853 98.6276C94.1853 98.6276 93.7353 98.511 93.3353 98.2776C92.9353 98.0443 92.6187 97.7243 92.3853 97.3176C92.1587 96.911 92.0453 96.4543 92.0453 95.9476C92.0453 95.4343 92.1587 94.9776 92.3853 94.5776C92.6187 94.1776 92.932 93.861 93.3253 93.6276C93.7187 93.3943 94.1687 93.2776 94.6753 93.2776C95.0887 93.2776 95.4553 93.3676 95.7753 93.5476C96.102 93.721 96.3687 93.9743 96.5753 94.3076L96.4253 94.5876V93.3976H97.4953V98.5576C97.4953 99.0243 97.382 99.441 97.1553 99.8076C96.9353 100.181 96.6287 100.474 96.2353 100.688C95.842 100.901 95.3887 101.008 94.8753 101.008ZM94.8153 97.5776C95.1153 97.5776 95.382 97.5076 95.6153 97.3676C95.8487 97.221 96.032 97.0276 96.1653 96.7876C96.3053 96.541 96.3753 96.2643 96.3753 95.9576C96.3753 95.651 96.3053 95.3743 96.1653 95.1276C96.0253 94.881 95.8387 94.6876 95.6053 94.5476C95.372 94.401 95.1087 94.3276 94.8153 94.3276C94.5087 94.3276 94.2353 94.401 93.9953 94.5476C93.7553 94.6876 93.5653 94.881 93.4253 95.1276C93.292 95.3676 93.2253 95.6443 93.2253 95.9576C93.2253 96.2576 93.292 96.531 93.4253 96.7776C93.5653 97.0243 93.7553 97.221 93.9953 97.3676C94.2353 97.5076 94.5087 97.5776 94.8153 97.5776ZM99.0181 98.8076V91.2376H100.148V96.3076L99.7081 96.1976L102.418 93.3976H103.828L101.788 95.5676L103.918 98.8076H102.618L100.718 95.9376L101.388 95.8476L99.7881 97.5476L100.148 96.7976V98.8076H99.0181ZM106.512 98.9276C106.145 98.9276 105.822 98.8643 105.542 98.7376C105.269 98.6043 105.055 98.4243 104.902 98.1976C104.749 97.9643 104.672 97.691 104.672 97.3776C104.672 97.0843 104.735 96.821 104.862 96.5876C104.995 96.3543 105.199 96.1576 105.472 95.9976C105.745 95.8376 106.089 95.7243 106.502 95.6576L108.382 95.3476V96.2376L106.722 96.5276C106.422 96.581 106.202 96.6776 106.062 96.8176C105.922 96.951 105.852 97.1243 105.852 97.3376C105.852 97.5443 105.929 97.7143 106.082 97.8476C106.242 97.9743 106.445 98.0376 106.692 98.0376C106.999 98.0376 107.265 97.971 107.492 97.8376C107.725 97.7043 107.905 97.5276 108.032 97.3076C108.159 97.081 108.222 96.831 108.222 96.5576V95.1676C108.222 94.901 108.122 94.6843 107.922 94.5176C107.729 94.3443 107.469 94.2576 107.142 94.2576C106.842 94.2576 106.579 94.3376 106.352 94.4976C106.132 94.651 105.969 94.851 105.862 95.0976L104.922 94.6276C105.022 94.361 105.185 94.1276 105.412 93.9276C105.639 93.721 105.902 93.561 106.202 93.4476C106.509 93.3343 106.832 93.2776 107.172 93.2776C107.599 93.2776 107.975 93.3576 108.302 93.5176C108.635 93.6776 108.892 93.901 109.072 94.1876C109.259 94.4676 109.352 94.7943 109.352 95.1676V98.8076H108.272V97.8276L108.502 97.8576C108.375 98.0776 108.212 98.2676 108.012 98.4276C107.819 98.5876 107.595 98.711 107.342 98.7976C107.095 98.8843 106.819 98.9276 106.512 98.9276ZM112.803 98.9276C112.396 98.9276 112.04 98.8376 111.733 98.6576C111.426 98.471 111.186 98.2143 111.013 97.8876C110.846 97.5543 110.763 97.171 110.763 96.7376V93.3976H111.893V96.6376C111.893 96.8843 111.943 97.101 112.043 97.2876C112.143 97.4743 112.283 97.621 112.463 97.7276C112.643 97.8276 112.85 97.8776 113.083 97.8776C113.323 97.8776 113.533 97.8243 113.713 97.7176C113.893 97.611 114.033 97.461 114.133 97.2676C114.24 97.0743 114.293 96.8476 114.293 96.5876V93.3976H115.413V98.8076H114.343V97.7476L114.463 97.8876C114.336 98.221 114.126 98.4776 113.833 98.6576C113.54 98.8376 113.196 98.9276 112.803 98.9276Z" fill="white"/>
<g clip-path="url(#clip0_290_1309)">
<path opacity="0.1" d="M137.394 49.2846C137.396 51.3636 137.137 53.4351 136.621 55.4533C136.447 56.1325 136.246 56.7984 136.016 57.4509C135.735 58.2552 135.409 59.0444 135.041 59.815C134.855 60.204 134.658 60.586 134.451 60.961C134.454 63.0929 134.001 65.2024 133.12 67.1561C131.527 70.661 128.687 73.4951 125.117 75.1424C122.882 76.1748 120.44 76.7173 117.964 76.7311H33.039C29.2603 76.7393 25.5466 75.7782 22.2758 73.9455C21.7924 73.6743 21.3214 73.3855 20.8628 73.0791C19.8671 72.4129 18.9317 71.6659 18.0665 70.8463C16.8952 69.7367 15.8634 68.497 14.9924 67.153C12.946 64.0059 11.862 60.3619 11.8658 56.6427C9.79339 53.1209 8.58496 48.9022 8.58496 44.3689C8.58496 38.6494 10.5053 33.4318 13.6604 29.4822C14.3181 28.657 15.0386 27.8806 15.8159 27.1594C16.5827 26.4457 17.407 25.7923 18.2808 25.2052C18.9797 24.7346 19.7104 24.31 20.4681 23.9342C20.7841 23.7774 21.1013 23.6312 21.4239 23.4946C21.7071 23.3728 21.9936 23.2595 22.2834 23.1525C22.6312 23.024 22.9833 22.9064 23.3399 22.7998C23.6964 22.6932 24.0481 22.5993 24.3952 22.518C24.9055 22.3973 25.4246 22.2992 25.9525 22.2236C26.3899 22.1611 26.8274 22.1177 27.2648 22.0838C27.6126 22.0598 27.9632 22.0457 28.3168 22.0414H28.5082C28.8975 22.0414 29.2847 22.0562 29.6685 22.0817C29.709 22.0033 29.7527 21.9239 29.7932 21.8455C29.9463 21.5637 30.1049 21.282 30.2646 21.0055V20.9981C30.2919 20.9505 30.3192 20.9028 30.3477 20.8562C30.4767 20.6306 30.6112 20.4071 30.749 20.1857C30.8124 20.0798 30.8748 19.9803 30.9393 19.8796C30.9535 19.8553 30.9677 19.832 30.9841 19.8076C31.0498 19.7017 31.1165 19.5958 31.1843 19.4899C31.5218 18.968 31.8729 18.4543 32.2374 17.9487C32.2691 17.9053 32.2987 17.863 32.3304 17.8206C32.3872 17.7422 32.4397 17.6649 32.5032 17.5876C32.6541 17.3831 32.8094 17.1777 32.9658 16.9754C33.0751 16.8324 33.1845 16.6894 33.3026 16.5517C33.5869 16.1958 33.8789 15.842 34.1775 15.4925C34.476 15.143 34.791 14.7913 35.1092 14.4471C35.153 14.3994 35.1967 14.3528 35.2426 14.3052L35.7096 13.8126C35.7326 13.7893 35.7523 13.7682 35.7741 13.747C35.8299 13.6887 35.8835 13.6305 35.9436 13.5733C36.1941 13.317 36.4511 13.0638 36.7092 12.8138C38.0274 11.5452 39.4318 10.3633 40.913 9.27618C40.9709 9.23169 41.03 9.18933 41.0879 9.14696C41.3657 8.9436 41.6479 8.74341 41.93 8.5464C43.4822 7.46848 45.1045 6.48847 46.7867 5.61247C46.9026 5.54892 47.0207 5.48855 47.1399 5.42818C48.6485 4.65574 50.1998 3.96411 51.7867 3.35642C52.6513 3.02525 53.5313 2.71597 54.4266 2.42858C55.0194 2.2411 55.6143 2.0621 56.2169 1.89899C57.1486 1.63984 58.092 1.40612 59.0471 1.19781C61.8608 0.58633 64.7234 0.208597 67.6034 0.0687244C68.4783 0.0242388 69.3631 0.00199629 70.2576 0.00199629C74.5741 -0.00353835 78.8737 0.523225 83.0528 1.56958C83.096 1.63283 83.1551 1.68438 83.2245 1.7194C83.294 1.75442 83.3715 1.77175 83.4498 1.76977H83.8172C83.9769 1.81108 84.1354 1.8545 84.2951 1.89899C85.1868 2.14825 86.0657 2.41975 86.9318 2.7135L87.1505 2.78976C89.2883 3.52598 91.3683 4.41093 93.3742 5.43771C95.1822 6.36144 96.9233 7.40326 98.5852 8.55594C98.8411 8.73388 99.0934 8.91358 99.342 9.09506C99.6438 8.90652 99.9508 8.72682 100.263 8.55594C101.468 7.89157 102.748 7.36347 104.077 6.98199C106.857 6.1853 109.798 6.07389 112.634 6.65788C116.27 7.40461 119.562 9.25817 122.22 11.8945C123.303 12.9696 124.268 14.151 125.099 15.4194C125.159 15.5105 125.219 15.6027 125.277 15.6959C125.989 16.8223 126.602 18.0055 127.108 19.2325C127.126 19.277 127.145 19.3204 127.161 19.3649C127.628 20.5131 128.005 21.694 128.288 22.8972C128.301 22.9576 128.316 23.019 128.329 23.0805C128.594 24.245 128.774 25.426 128.867 26.615C128.867 26.6573 128.867 26.7008 128.876 26.7442C128.922 27.3592 128.945 27.9809 128.946 28.6094C128.946 29.1708 128.926 29.7279 128.89 30.2797C128.89 30.3401 128.881 30.4036 128.876 30.4651C128.866 30.6261 128.852 30.7828 128.838 30.9449C129.673 31.597 130.455 32.3109 131.176 33.0802C131.494 33.417 131.803 33.7669 132.101 34.1298C133.009 35.2322 133.808 36.4157 134.485 37.6643C136.331 41.0516 137.394 45.0277 137.394 49.2846Z" fill="#FED04D"/>
<path opacity="0.1" d="M125.035 70.1326C125.035 72.5401 122.459 74.793 117.963 76.7334H33.0383C29.109 76.7334 25.429 75.3565 22.2751 72.9553C21.4822 72.0444 21.0645 71.1007 21.0645 70.1315C21.0645 67.5725 23.9778 65.1841 29.0149 63.1653L29.1571 63.1102C30.5788 62.5457 32.1678 62.0129 33.9044 61.5119C33.9482 61.4992 33.993 61.4875 34.0368 61.4727C35.4147 61.0808 36.8805 60.7094 38.4341 60.3585C38.4834 60.3479 38.5315 60.3362 38.5807 60.3277C39.18 60.19 39.7913 60.0619 40.4158 59.9337L40.6564 59.885C45.2003 58.972 50.3654 58.2475 55.9668 57.7561H55.9734C56.7578 57.6854 57.5507 57.6222 58.3519 57.5665C59.2432 57.4976 60.1455 57.4394 61.0575 57.3853C61.7541 57.3419 62.4595 57.3048 63.1671 57.2709C63.1697 57.2699 63.1725 57.2693 63.1753 57.2693C63.1781 57.2693 63.1809 57.2699 63.1835 57.2709C66.3757 57.1152 69.674 57.0337 73.0467 57.0337C81.3865 57.0337 89.2692 57.5294 96.254 58.4106C96.2605 58.4095 96.2672 58.4095 96.2737 58.4106C97.3476 58.5462 98.4019 58.6892 99.4299 58.8417C99.724 58.8862 100.017 58.9307 100.305 58.9762C101.465 59.1577 102.595 59.3494 103.695 59.5514C116.632 61.9335 125.035 65.7878 125.035 70.1326Z" fill="#FED04D"/>
<path d="M103.894 25.7673C103.894 25.7673 102.737 25.3129 99.0559 26.9473C95.3749 28.5816 94.9156 28.375 93.963 28.1293C93.0105 27.8836 92.479 27.82 91.4576 26.4547C91.4576 26.4547 90.7369 22.6724 90.0359 22.0856C89.3349 21.4988 86.3756 22.4203 86.3756 22.4203C86.3756 22.4203 82.8225 23.2094 82.1456 18.6073C82.1456 18.6073 82.6257 15.1416 81.9717 14.0782C81.9717 14.0782 83.2928 14.629 85.4712 13.7393C87.6497 12.8496 89.394 14.6978 89.394 14.6978C89.394 14.6978 89.9408 16.0748 89.8861 16.8967C89.8314 17.7186 90.177 18.0268 91.2159 17.6297C91.2159 17.6297 91.7266 16.9264 91.0037 15.7634C90.2809 14.6004 89.7647 13.735 89.9659 12.8326C90.1671 11.9302 90.7478 10.6772 92.6124 10.0512C94.477 9.42524 97.0087 9.30979 98.2237 8.81516C99.4387 8.32052 99.7384 8.00488 99.7384 8.00488C99.7384 8.00488 98.9903 8.73042 100.752 11.8073C102.514 14.8843 101.391 16.2188 101.391 16.2188C101.391 16.2188 100.454 18.3827 96.3154 18.2069C96.3154 18.2069 92.3281 18.3478 94.5022 19.9853C94.5022 19.9853 95.8943 19.7109 97.9755 19.0701C100.057 18.4293 101.559 21.0741 101.932 22.9139C102.305 24.7537 103.894 25.7673 103.894 25.7673Z" fill="#FED04D"/>
<path d="M98.5344 10.3355L98.5563 10.3291C98.7159 10.9159 96.9344 13.2757 95.4111 15.1515L95.3936 15.1378C97.5414 12.4962 98.658 10.7898 98.5344 10.3355Z" fill="#444053"/>
<path d="M95.4246 15.1016L95.4345 15.1249C94.2173 16.6225 92.6873 18.4083 91.4625 19.7355C91.3455 19.8615 91.2296 19.9939 91.118 20.1295L91.083 20.102C91.1924 19.9664 91.3116 19.8329 91.4286 19.7069C92.6523 18.385 94.2063 16.6003 95.4246 15.1016Z" fill="#444053"/>
<path d="M91.1122 20.0684L91.1363 20.1086C88.9075 22.8042 88.7599 26.9933 88.7544 27.0261L88.2842 26.4965C88.2896 26.4626 88.8682 22.783 91.1122 20.0684Z" fill="#444053"/>
<path d="M101.315 24.3061C101.315 24.3061 98.6904 22.9821 96.6388 23.4587C94.5872 23.9353 89.9733 21.7746 89.9733 21.7746C89.9733 21.7746 88.0158 21.0046 87.6221 20.1265C87.6221 20.1265 86.278 18.7496 86.2004 18.0389C86.1228 17.3282 84.8159 15.5371 83.9629 15.4683" stroke="#444053" stroke-miterlimit="10"/>
<path d="M100.929 25.5805C100.929 25.5805 99.6054 24.7162 99.7596 23.71" stroke="#444053" stroke-miterlimit="10"/>
<path d="M98.8991 26.6954C98.8991 26.6954 97.0061 26.0302 96.8213 23.4204" stroke="#444053" stroke-miterlimit="10"/>
<path d="M95.8462 27.3715C95.8462 27.3715 94.0373 25.9183 94.6377 23.3784" stroke="#444053" stroke-miterlimit="10"/>
<path d="M92.1728 26.6617C92.1728 26.6617 90.9698 24.215 92.0405 22.623" stroke="#444053" stroke-miterlimit="10"/>
<path d="M101.34 22.6929C101.34 22.6929 99.9717 23.1165 100.265 23.8114" stroke="#444053" stroke-miterlimit="10"/>
<path d="M99.6889 20.292C99.6889 20.292 97.8571 20.8544 97.8145 23.3636" stroke="#444053" stroke-miterlimit="10"/>
<path d="M97.1337 19.707C97.1337 19.707 95.466 21.7004 95.5885 23.5116" stroke="#444053" stroke-miterlimit="10"/>
<path d="M94.2142 20.4888C94.2142 20.4888 92.5585 22.0225 92.7696 22.8751" stroke="#444053" stroke-miterlimit="10"/>
<path d="M93.2159 19.9477C93.2159 19.9477 91.6629 20.2167 91.4453 19.7231" stroke="#444053" stroke-miterlimit="10"/>
<path d="M91.1973 18.1323C91.1973 18.1323 91.9814 19.1385 92.1815 18.9129" stroke="#444053" stroke-miterlimit="10"/>
<path d="M98.9757 17.4955C98.9757 17.4955 95.0606 17.7709 94.1748 16.627" stroke="#444053" stroke-miterlimit="10"/>
<path d="M90.3789 13.0605C90.3789 13.0605 92.2151 16.8789 93.5504 17.3651" stroke="#444053" stroke-miterlimit="10"/>
<path d="M92.3008 11.2422C92.3008 11.2422 93.4283 14.7544 94.8259 15.8507" stroke="#444053" stroke-miterlimit="10"/>
<path d="M100.622 14.5964C100.622 14.5964 97.6453 15.8335 95.8584 14.5815" stroke="#444053" stroke-width="0.75" stroke-miterlimit="10"/>
<path d="M94.9521 10.4932C94.9521 10.4932 95.6324 13.0744 96.5488 13.6982" stroke="#444053" stroke-width="0.75" stroke-miterlimit="10"/>
<path d="M100.173 11.7041C100.173 11.7041 98.4993 12.3184 97.876 11.8482" stroke="#444053" stroke-width="0.75" stroke-miterlimit="10"/>
<path d="M89.7639 18.9751C89.7639 18.9751 89.7639 21.2259 89.1318 21.3858" stroke="#444053" stroke-miterlimit="10"/>
<path d="M84.5928 21.8913C84.5928 21.8913 87.1081 22.1031 88.264 20.8438" stroke="#444053" stroke-miterlimit="10"/>
<path d="M89.1167 16.3169C89.1167 16.3169 88.5086 18.5994 86.8311 19.2148" stroke="#444053" stroke-miterlimit="10"/>
<path d="M83.085 19.4868C83.085 19.4868 84.8632 20.0852 86.3931 18.561" stroke="#444053" stroke-miterlimit="10"/>
<path d="M87.1383 14.354C87.1383 14.354 86.9709 16.2923 85.8828 17.2" stroke="#444053" stroke-miterlimit="10"/>
<path d="M83.1533 16.5327C83.1533 16.5327 84.6286 16.5422 84.9742 16.0762" stroke="#444053" stroke-miterlimit="10"/>
<path d="M93.8238 23.8931H51.8076V44.4348H93.8238V23.8931Z" fill="#33323D"/>
<path d="M107.045 50.6753H38.7188V64.1968H107.045V50.6753Z" fill="#33323D"/>
<path d="M55.0294 54.0552H90.0652L97.0456 76.8074H47.6465L55.0294 54.0552Z" fill="white"/>
<path d="M36.7725 42.6138V49.6351V51.1137V64.1956H49.8607V51.7153H95.9036V64.1956H108.992V51.1137V49.6351V42.6138H36.7725Z" fill="#504F60"/>
<path opacity="0.1" d="M108.992 42.6138H36.7725V49.634H108.992V42.6138Z" fill="#33323D"/>
<path opacity="0.8" d="M105.099 47.1652C105.692 47.1652 106.173 46.6995 106.173 46.1251C106.173 45.5506 105.692 45.085 105.099 45.085C104.506 45.085 104.025 45.5506 104.025 46.1251C104.025 46.6995 104.506 47.1652 105.099 47.1652Z" fill="#8CCF4D"/>
<path opacity="0.8" d="M100.267 47.1652C100.86 47.1652 101.341 46.6995 101.341 46.1251C101.341 45.5506 100.86 45.085 100.267 45.085C99.6742 45.085 99.1934 45.5506 99.1934 46.1251C99.1934 46.6995 99.6742 47.1652 100.267 47.1652Z" fill="#FA5959"/>
<path d="M92.2806 18.9521H53.3516V41.3136H92.2806V18.9521Z" fill="white"/>
<path d="M98.2021 51.5894C98.2841 52.4548 97.6093 53.2947 97.8062 54.142C97.8478 54.3232 97.9287 54.4948 97.9582 54.6716C98.0391 55.1747 97.7296 55.6514 97.4333 56.0729L94.8928 59.6932C94.7909 59.852 94.669 59.9979 94.5298 60.1275C94.0431 60.5511 93.3148 60.5024 92.6772 60.6274C92.2289 60.7154 91.8056 60.8961 91.436 61.157C91.4199 61.1693 91.4092 61.1872 91.4062 61.2068C91.4031 61.2265 91.4079 61.2465 91.4196 61.2629C91.5247 61.4026 91.6642 61.5145 91.8254 61.5885C91.9866 61.6625 92.1644 61.6962 92.3426 61.6866C92.4093 61.7713 92.3426 61.8984 92.2507 61.9577C92.114 62.0488 91.9226 62.0732 91.8996 62.2977C91.89 62.3757 91.9061 62.4547 91.9456 62.5233C92.0484 62.675 92.208 62.7821 92.3907 62.822C93.2656 63.0826 94.2203 62.625 94.8786 62.0022C95.537 61.3794 96.0094 60.5935 96.6557 59.9591C97.0133 59.6085 97.4213 59.3077 97.7887 58.9677C98.5236 58.2898 99.101 57.4647 99.6478 56.6375C99.8284 56.3976 99.9646 56.1292 100.05 55.8441C100.118 55.5624 100.087 55.2648 100.166 54.9852C100.269 54.6197 100.546 54.3285 100.775 54.0213C101.227 53.4197 101.528 52.6846 101.468 51.9432C101.407 51.2018 100.935 50.472 100.213 50.2199C99.9894 50.1336 99.743 50.1191 99.51 50.1786C99.2137 50.2665 98.996 50.5038 98.7937 50.7304L98.3114 51.2695C98.1912 51.3889 98.0958 51.5295 98.0304 51.6837C97.9993 51.7614 97.9922 51.8462 98.0098 51.9278C98.0275 52.0094 98.0692 52.0843 98.1299 52.1434" fill="#FBBEBE"/>
<path opacity="0.05" d="M98.2021 51.5894C98.2841 52.4548 97.6093 53.2947 97.8062 54.142C97.8478 54.3232 97.9287 54.4948 97.9582 54.6716C98.0391 55.1747 97.7296 55.6514 97.4333 56.0729L94.8928 59.6932C94.7909 59.852 94.669 59.9979 94.5298 60.1275C94.0431 60.5511 93.3148 60.5024 92.6772 60.6274C92.2289 60.7154 91.8056 60.8961 91.436 61.157C91.4199 61.1693 91.4092 61.1872 91.4062 61.2068C91.4031 61.2265 91.4079 61.2465 91.4196 61.2629C91.5247 61.4026 91.6642 61.5145 91.8254 61.5885C91.9866 61.6625 92.1644 61.6962 92.3426 61.6866C92.4093 61.7713 92.3426 61.8984 92.2507 61.9577C92.114 62.0488 91.9226 62.0732 91.8996 62.2977C91.89 62.3757 91.9061 62.4547 91.9456 62.5233C92.0484 62.675 92.208 62.7821 92.3907 62.822C93.2656 63.0826 94.2203 62.625 94.8786 62.0022C95.537 61.3794 96.0094 60.5935 96.6557 59.9591C97.0133 59.6085 97.4213 59.3077 97.7887 58.9677C98.5236 58.2898 99.101 57.4647 99.6478 56.6375C99.8284 56.3976 99.9646 56.1292 100.05 55.8441C100.118 55.5624 100.087 55.2648 100.166 54.9852C100.269 54.6197 100.546 54.3285 100.775 54.0213C101.227 53.4197 101.528 52.6846 101.468 51.9432C101.407 51.2018 100.935 50.472 100.213 50.2199C99.9894 50.1336 99.743 50.1191 99.51 50.1786C99.2137 50.2665 98.996 50.5038 98.7937 50.7304L98.3114 51.2695C98.1912 51.3889 98.0958 51.5295 98.0304 51.6837C97.9993 51.7614 97.9922 51.8462 98.0098 51.9278C98.0275 52.0094 98.0692 52.0843 98.1299 52.1434" fill="black"/>
<path d="M100.125 73.8629C99.5699 74.1902 98.8787 74.2114 98.2335 74.1341C98.1241 74.1224 98.0071 74.115 97.9404 74.1923C97.8442 74.3056 97.9579 74.4709 98.0749 74.562C98.4561 74.8384 98.9035 75.0166 99.3752 75.0799C99.7962 75.1368 100.221 75.164 100.646 75.1615C101.805 75.1805 102.971 75.1996 104.119 75.0375C104.186 75.0327 104.25 75.0143 104.308 74.9835C104.383 74.9334 104.434 74.8575 104.452 74.7717C104.532 74.4836 104.38 74.1722 104.151 73.972C103.922 73.7718 103.628 73.6595 103.341 73.5483L102.332 73.1681C102.095 73.0781 101.716 72.8419 101.457 72.8599C100.986 72.8969 100.526 73.6362 100.125 73.8629Z" fill="#3F3D56"/>
<path opacity="0.05" d="M100.125 73.8629C99.5699 74.1902 98.8787 74.2114 98.2335 74.1341C98.1241 74.1224 98.0071 74.115 97.9404 74.1923C97.8442 74.3056 97.9579 74.4709 98.0749 74.562C98.4561 74.8384 98.9035 75.0166 99.3752 75.0799C99.7962 75.1368 100.221 75.164 100.646 75.1615C101.805 75.1805 102.971 75.1996 104.119 75.0375C104.186 75.0327 104.25 75.0143 104.308 74.9835C104.383 74.9334 104.434 74.8575 104.452 74.7717C104.532 74.4836 104.38 74.1722 104.151 73.972C103.922 73.7718 103.628 73.6595 103.341 73.5483L102.332 73.1681C102.095 73.0781 101.716 72.8419 101.457 72.8599C100.986 72.8969 100.526 73.6362 100.125 73.8629Z" fill="black"/>
<path d="M100.829 60.8934C100.41 61.4346 99.9751 62.0585 100.079 62.7289C100.135 63.0901 100.344 63.4089 100.497 63.7426C100.688 64.2016 100.83 64.6787 100.92 65.1661C101.077 65.8747 101.235 66.5854 101.331 67.3046C101.441 68.117 100.927 70.4673 100.878 71.2861C100.866 71.4831 100.843 71.697 100.701 71.839C100.646 71.8951 100.571 71.9449 100.547 72.0137C100.532 72.0838 100.543 72.1569 100.58 72.2192C100.817 72.7371 101.302 73.1216 101.84 73.3419C102.378 73.5622 103.687 73.9404 104.271 73.9605C104.348 73.9695 104.427 73.9593 104.499 73.9308C104.578 73.8852 104.64 73.8166 104.677 73.7349C105.099 72.9543 104.693 70.175 104.7 69.2927C104.7 68.5513 104.884 67.8268 104.852 67.0917C104.824 66.5017 104.661 65.9266 104.602 65.3377C104.505 64.3728 104.687 63.4047 104.871 62.4514C105.011 61.7217 105.151 60.9908 105.331 60.2685C105.44 59.8289 105.567 59.3841 105.817 58.9975C106.015 58.6935 106.284 58.4403 106.511 58.1501C107.138 57.3536 107.416 56.3499 107.286 55.356C107.273 55.2585 105.829 55.7108 105.703 55.7638C105.185 55.9771 104.709 56.2744 104.294 56.6429C103.966 56.9501 103.698 57.3621 103.405 57.7074C102.991 58.1946 102.583 58.6857 102.181 59.1807C101.724 59.7491 101.273 60.32 100.829 60.8934Z" fill="#464353"/>
<path opacity="0.05" d="M100.829 60.8586C100.41 61.3998 99.9751 62.0237 100.079 62.6952C100.135 63.0553 100.344 63.3741 100.497 63.7078C100.688 64.1668 100.83 64.6439 100.92 65.1313C101.077 65.8399 101.235 66.5506 101.331 67.2698C101.441 68.0822 100.927 70.4336 100.878 71.2523C100.866 71.4483 100.843 71.6633 100.701 71.8041C100.646 71.8603 100.571 71.9101 100.547 71.9789C100.531 72.051 100.542 72.1265 100.58 72.1907C100.817 72.7076 101.302 73.0932 101.84 73.3124C102.378 73.5317 103.687 73.7361 104.271 73.7541C104.348 73.7631 104.427 73.7529 104.499 73.7244C104.578 73.6788 104.64 73.6102 104.677 73.5285C105.099 72.7479 104.693 70.1455 104.7 69.2642C104.7 68.5228 104.884 67.7973 104.852 67.0622C104.824 66.4722 104.661 65.8971 104.602 65.3082C104.505 64.3433 104.687 63.3752 104.871 62.423C105.011 61.6922 105.151 60.9613 105.331 60.239C105.44 59.7994 105.567 59.3545 105.817 58.9679C106.015 58.665 106.284 58.4108 106.511 58.127C107.137 57.33 107.416 56.3266 107.286 55.3328C107.273 55.2343 105.829 55.6866 105.703 55.7406C105.185 55.9542 104.708 56.2522 104.294 56.6219C103.966 56.9301 103.698 57.341 103.405 57.681C102.991 58.1683 102.583 58.6597 102.181 59.1554C101.724 59.7203 101.273 60.288 100.829 60.8586Z" fill="black"/>
<path d="M96.1602 48.9764C97.4606 48.9764 98.5147 47.9554 98.5147 46.6959C98.5147 45.4365 97.4606 44.4155 96.1602 44.4155C94.8598 44.4155 93.8057 45.4365 93.8057 46.6959C93.8057 47.9554 94.8598 48.9764 96.1602 48.9764Z" fill="#FBBEBE"/>
<path d="M98.2802 46.601C98.4977 46.9373 98.7828 47.2278 99.1185 47.4553C99.4542 47.6827 99.8337 47.8424 100.234 47.9249L100.057 48.5467C99.7511 49.6196 99.4012 50.754 98.5514 51.4976C98.6444 51.1343 98.5241 50.7434 98.3119 50.431C98.085 50.127 97.816 49.8547 97.5125 49.6217L96.1575 48.48C96.1171 48.4511 96.0827 48.4151 96.0558 48.374C96.0231 48.2937 96.0231 48.2044 96.0558 48.1241C96.2286 47.604 96.7218 47.2767 97.121 46.9272C97.3218 46.745 97.5015 46.5423 97.6569 46.3224C97.9346 45.9485 98.102 46.3224 98.2802 46.601Z" fill="#FBBEBE"/>
<path d="M93.0577 44.4042L93.0052 43.9806C93.377 44.0738 93.7292 43.7687 93.9665 43.451C94.2038 43.1332 94.4247 42.7604 94.7867 42.6291C95.2241 42.4681 95.6922 42.7254 96.1121 42.9373C96.5829 43.191 97.0998 43.3547 97.6344 43.4192C97.7197 43.422 97.8043 43.4355 97.886 43.4595C98.1594 43.5537 98.2895 43.8831 98.3289 44.1871C98.3682 44.4911 98.3573 44.8089 98.4929 45.0779C98.5946 45.2812 98.7707 45.4327 98.8778 45.6329C99.1655 46.1731 98.8877 46.9103 99.1917 47.4399L98.4371 46.7694C98.3671 46.708 98.2698 46.6444 98.1943 46.6963C98.1189 46.7482 98.1298 46.8266 98.1047 46.8976C98.0314 47.1094 97.7635 47.1687 97.5677 47.0871C97.372 47.0056 97.2309 46.8255 97.0876 46.6635C96.7541 46.2822 96.3571 45.9475 95.8847 45.7844C95.6802 45.7084 95.4614 45.6757 95.2428 45.6883C95.0242 45.7009 94.8109 45.7586 94.6172 45.8574C94.265 46.0502 94.0069 46.4993 93.5761 46.5152C92.9844 46.5364 92.7384 45.4698 92.4639 45.0482C92.5638 44.975 92.6341 44.8701 92.6624 44.7519C92.6908 44.6336 92.6755 44.5095 92.6192 44.4011C92.6673 44.3831 93.05 44.3354 93.0577 44.4042Z" fill="#464353"/>
<path d="M102.872 73.8452C102.407 74.2471 101.803 74.4652 101.179 74.4563C101.021 74.4563 100.801 74.486 100.8 74.6396C100.803 74.6853 100.819 74.7293 100.846 74.7667C101.043 75.0844 101.355 75.3205 101.721 75.4297C102.06 75.5293 102.423 75.5124 102.777 75.4954L103.81 75.4435C104.005 75.4329 104.201 75.4234 104.396 75.4001C104.59 75.3768 104.8 75.3376 105.004 75.309C105.502 75.24 106.006 75.2169 106.508 75.2401C106.642 75.2454 106.796 75.2401 106.879 75.1427C106.962 75.0453 106.917 74.8694 106.887 74.7286C106.826 74.4383 106.887 74.1344 106.83 73.8431C106.73 73.3315 106.277 72.9407 105.776 72.7553C105.311 72.5837 104.486 72.3878 104.046 72.6727C103.573 72.9798 103.289 73.4798 102.872 73.8452Z" fill="#3F3D56"/>
<path d="M103.895 56.7277C103.987 57.1514 104.406 57.4691 104.419 57.8928C104.429 58.236 104.175 58.5283 103.994 58.8196C103.82 59.1247 103.674 59.4436 103.556 59.7728C103.211 60.6273 102.784 61.4483 102.279 62.2248C102.036 62.5966 101.765 63.0012 101.821 63.4386C101.859 63.6428 101.933 63.8391 102.04 64.0191L102.767 65.4183C102.927 65.6977 103.051 65.9946 103.139 66.3027C103.201 66.5685 103.208 66.8439 103.248 67.1151C103.363 67.973 103.778 68.8373 103.533 69.6687C103.512 69.7408 103.435 69.8276 103.377 69.7747C103.617 70.2089 103.814 70.6474 103.792 71.1399C103.782 71.3984 103.7 71.6695 103.799 71.9089C103.855 72.0021 103.893 72.105 103.909 72.2118C103.909 72.2817 103.875 72.3485 103.867 72.4237C103.847 72.6217 104.034 72.787 104.23 72.8473C104.426 72.9077 104.637 72.9056 104.834 72.9628C105.213 73.0687 105.482 73.3865 105.807 73.6068C106.136 73.8277 106.525 73.9503 106.925 73.9595C106.981 73.9653 107.039 73.9542 107.089 73.9277C107.117 73.9036 107.14 73.8738 107.156 73.8404C107.172 73.807 107.18 73.7707 107.181 73.7339C107.198 73.5585 107.171 73.3816 107.101 73.2189C107.031 73.0561 106.921 72.9125 106.78 72.8007C106.719 72.763 106.669 72.7114 106.633 72.6503C106.614 72.5961 106.609 72.5384 106.618 72.4819C106.678 71.7119 106.663 70.9383 106.576 70.1708C106.536 69.9278 106.524 69.6814 106.538 69.4357C106.559 69.2313 106.623 69.0279 106.599 68.8235C106.575 68.6191 106.469 68.4348 106.405 68.2378C106.296 67.8883 106.324 67.5133 106.312 67.1468C106.293 66.5113 106.143 65.8885 105.993 65.27C105.935 65.0274 105.869 64.7722 105.691 64.5921C105.54 64.4396 105.296 64.2923 105.353 64.089C105.384 64.0137 105.431 63.9455 105.491 63.8888C105.562 63.8034 105.613 63.705 105.643 63.5995C105.673 63.4941 105.68 63.3838 105.665 63.2755C105.729 63.292 105.797 63.2862 105.857 63.2591C105.917 63.232 105.965 63.1853 105.993 63.1272C107.175 62.5881 108.131 61.5078 108.552 60.3088C108.576 60.2204 108.612 60.1358 108.661 60.0577C108.771 59.9095 108.961 59.8459 109.129 59.7633C109.659 59.5059 110.025 59.0219 110.361 58.5484C110.557 58.273 110.751 57.9892 110.835 57.6661C110.881 57.4573 110.903 57.2441 110.901 57.0306L110.931 55.9269C110.936 55.8556 110.929 55.7839 110.909 55.7151C110.881 55.6492 110.839 55.5897 110.786 55.5403C110.466 55.2096 110.044 54.9869 109.583 54.9048C109.273 54.8508 108.956 54.8614 108.642 54.836C108.033 54.7873 107.431 54.6051 106.822 54.6474C105.864 54.7152 105.012 55.3582 104.56 56.179C104.402 56.4724 104.236 56.7277 103.895 56.7277Z" fill="#464353"/>
<path d="M98.5804 49.5508C98.5942 49.7209 98.5707 49.892 98.5115 50.0528C98.4371 50.2074 98.249 50.3271 98.0861 50.2646C98.1353 50.1587 98.004 50.0327 97.8826 50.0464C97.8226 50.0594 97.7667 50.0863 97.7198 50.1249C97.673 50.1635 97.6365 50.2125 97.6136 50.2678C97.5321 50.4252 97.5048 50.6038 97.536 50.7773C97.5743 50.9891 97.7033 51.201 97.6694 51.4128C97.6421 51.5929 97.5054 51.7729 97.5786 51.9424C97.6257 52.0185 97.6848 52.0871 97.7536 52.1457C97.8497 52.2599 97.8969 52.4055 97.8853 52.5524C97.8737 52.6992 97.8042 52.8362 97.6913 52.9348L99.5263 52.9698C99.4596 53.2674 99.5963 53.5714 99.7538 53.8351C100.194 54.56 100.802 55.1763 101.53 55.6357C102.258 56.0951 103.085 56.3851 103.948 56.4831C103.901 56.5097 103.861 56.546 103.831 56.5893C103.801 56.6327 103.781 56.682 103.772 56.7337C103.764 56.7854 103.767 56.8383 103.783 56.8886C103.798 56.9388 103.824 56.9852 103.86 57.0243C104.009 57.1673 104.262 57.1493 104.449 57.0561C104.636 56.9629 104.783 56.8093 104.954 56.6907C105.255 56.483 105.623 56.3868 105.991 56.4195C106.22 56.4407 106.443 56.5127 106.674 56.5255C107.354 56.5604 107.938 56.087 108.589 55.8899C109.066 55.748 109.605 55.748 110.011 55.4599C110.183 55.336 110.325 55.1326 110.274 54.9303C110.232 54.8142 110.164 54.7081 110.076 54.6189C109.846 54.3308 109.71 53.9834 109.546 53.6561C109.219 53.0074 108.769 52.424 108.219 51.936C107.806 51.5847 107.367 51.2616 106.907 50.969C106.795 50.8881 106.676 50.8172 106.551 50.7572C106.384 50.7045 106.221 50.6404 106.063 50.5654C105.844 50.4341 105.723 50.2021 105.558 50.0147C105.193 49.6037 104.635 49.4141 104.186 49.0911C103.885 48.8792 103.621 48.589 103.261 48.4842C103.087 48.4333 102.901 48.4291 102.726 48.3782C102.33 48.2617 102.042 47.9207 101.652 47.783C101.344 47.6771 101.005 47.7025 100.679 47.6633C100.321 47.6202 99.978 47.4942 99.6805 47.2958C99.5818 47.2187 99.471 47.1572 99.3524 47.1136C98.8614 46.9685 98.821 47.855 98.775 48.1632C98.7018 48.6346 98.5804 49.0879 98.5804 49.5508Z" fill="#FED04D"/>
<path d="M99.0595 52.527C99.1415 53.3923 98.4668 54.2312 98.6636 55.0796C98.7052 55.2607 98.7861 55.4323 98.8156 55.6092C98.8977 56.1123 98.5871 56.5889 98.2907 57.0094L95.7503 60.6212C95.6484 60.7801 95.5264 60.9259 95.3872 61.0555C94.9005 61.4792 94.1722 61.4305 93.5346 61.5554C93.0864 61.6437 92.6631 61.8243 92.2934 62.085C92.2773 62.0974 92.2666 62.1152 92.2636 62.1348C92.2605 62.1545 92.2653 62.1746 92.277 62.1909C92.3819 62.3308 92.5214 62.4429 92.6826 62.5169C92.8439 62.591 93.0218 62.6245 93.2 62.6146C93.2667 62.7004 93.2 62.8265 93.1081 62.8858C92.9714 62.9779 92.78 63.0023 92.7571 63.2268C92.7475 63.3048 92.7635 63.3838 92.803 63.4524C92.9061 63.6038 93.0656 63.7108 93.2481 63.7511C94.123 64.0117 95.0777 63.5541 95.736 62.9313C96.3944 62.3085 96.8668 61.5226 97.5142 60.8882C97.8719 60.5376 98.2798 60.2368 98.6461 59.8968C99.3821 59.2189 99.953 58.3938 100.505 57.5666C100.686 57.3266 100.822 57.0582 100.908 56.7732C100.976 56.4915 100.945 56.1939 101.024 55.9142C101.126 55.5488 101.403 55.2565 101.633 54.9504C102.084 54.3488 102.385 53.6137 102.325 52.8723C102.265 52.1308 101.792 51.4011 101.071 51.149C100.847 51.0622 100.6 51.0477 100.367 51.1077C100.072 51.1956 99.8535 51.4329 99.6511 51.6595L99.1689 52.1986C99.0486 52.3177 98.9535 52.4584 98.8889 52.6128C98.8576 52.6902 98.8503 52.7748 98.8678 52.8562C98.8853 52.9377 98.9268 53.0124 98.9873 53.0714" fill="#FBBEBE"/>
<path d="M100.346 48.971C100.011 48.99 99.6438 49.0218 99.4076 49.2527C99.3092 49.3587 99.2294 49.4797 99.1713 49.6107C98.9428 50.063 98.7197 50.5354 98.7033 51.0385C98.6891 51.441 98.8126 51.8339 98.8728 52.2322C98.9253 52.5626 98.7919 52.8995 98.7634 53.2342C99.1779 53.1113 99.7247 52.9439 100.101 52.7363C100.347 52.5801 100.609 52.4481 100.883 52.3423C101.282 52.2142 101.952 52.4345 102.329 52.6156C102.349 52.3572 102.15 51.9091 102.171 51.6507C102.174 51.5425 102.194 51.4354 102.23 51.3329C102.287 51.2244 102.354 51.1212 102.43 51.0247C102.575 50.7974 102.642 50.5313 102.621 50.2648C102.6 49.9984 102.492 49.7452 102.313 49.5419C101.978 49.1754 101.45 49.0377 100.948 48.9816C100.632 48.9458 100.313 48.9348 99.9948 48.9487" fill="#FED04D"/>
<path d="M50.7998 41.5611L48.6432 38.5318C48.6432 38.5318 48.6027 37.7819 48.4616 37.6072C48.3206 37.4324 48.431 37.0426 48.431 37.0426C48.431 37.0426 48.583 36.8308 48.4518 36.8085C48.3206 36.7863 48.431 36.3118 48.431 36.3118L48.4212 35.5523C48.4212 35.5523 48.5426 34.8215 48.442 34.6467C48.4122 34.5993 48.3974 34.5446 48.3991 34.4891C48.4009 34.4337 48.4192 34.3799 48.4518 34.3343C48.4518 34.3343 48.5721 33.9159 48.4518 33.8047C48.3315 33.6935 48.361 33.0453 48.3906 32.5284C48.4201 32.0115 48.1795 31.7202 48.1795 31.6429C48.1795 31.5656 47.3833 30.8051 47.3833 30.7363C47.3833 30.6674 46.8792 30.3857 46.5763 30.3126C46.2733 30.2395 46.1235 30.176 46.1334 30.1368C46.1432 30.0976 45.6598 29.9429 45.6598 29.9429C45.6598 29.9429 45.2366 29.9133 45.0748 29.7089C44.9129 29.5044 44.4186 29.4451 44.4066 29.443L44.3967 29.4027C44.3967 29.3879 44.3912 29.3731 44.388 29.3583C44.4279 29.2966 44.4644 29.233 44.4973 29.1676L44.5258 29.1083C44.7029 29.1094 44.876 29.0572 45.0212 28.959C45.0927 28.9016 45.1511 28.8304 45.1927 28.75C45.2343 28.6696 45.2582 28.5817 45.2629 28.4919C45.2715 28.3118 45.2307 28.1327 45.1447 27.9729C45.0562 27.7981 44.926 27.6159 44.972 27.4253C44.9916 27.3437 45.0419 27.2717 45.0682 27.1912C45.1074 27.034 45.0815 26.8683 44.996 26.7294C44.9195 26.5885 44.8134 26.4635 44.7281 26.3269C44.6199 26.152 44.5475 25.9585 44.5148 25.7571C44.5087 25.6499 44.4824 25.5447 44.4372 25.4467C44.3914 25.3777 44.331 25.3188 44.26 25.2741C43.9445 25.056 43.5637 24.9444 43.1763 24.9563C42.9018 24.9648 42.6295 25.0368 42.3561 25.004C42.1932 24.9768 42.0329 24.9365 41.8771 24.8832C41.5391 24.7858 41.1487 24.7466 40.8545 24.9341C40.5604 25.1215 40.4433 25.4901 40.2432 25.7814C40.0671 26.0356 39.8058 26.2496 39.6745 26.5228C39.6745 26.5228 39.6745 26.5122 39.6745 26.508C39.6415 26.5702 39.6162 26.636 39.5991 26.704C39.5615 26.9198 39.5769 27.1411 39.6439 27.3501C39.6587 27.4626 39.7169 27.5655 39.8069 27.6382C39.9064 27.7006 40.0431 27.6858 40.159 27.7059L40.1459 27.761C40.0279 28.3085 40.1266 28.879 40.4226 29.3593C40.7185 29.8396 41.1901 30.1946 41.7436 30.3539C41.7436 30.374 41.7436 30.3931 41.7436 30.4132C41.7434 30.4692 41.7397 30.525 41.7327 30.5806C41.7327 30.5806 40.7189 30.3783 40.4466 30.5149C40.1743 30.6515 39.6406 30.7585 39.5597 30.8326C39.4788 30.9068 39.2776 30.8528 39.096 31.3103C38.9145 31.7679 38.8948 32.235 38.6586 32.45C38.4224 32.665 38.3064 32.8101 38.2955 32.9658C38.2846 33.1215 38.3261 33.1607 38.2354 33.2094C38.1446 33.2582 38.0166 33.4626 38.0538 33.541C38.0677 33.5945 38.0647 33.6509 38.0453 33.7028C38.0258 33.7548 37.9907 33.7998 37.9445 33.8322C37.8966 33.8648 37.8584 33.9089 37.8337 33.9602C37.8089 34.0115 37.7985 34.0682 37.8034 34.1246C37.8034 34.1246 37.7421 34.3364 37.6011 34.3883C37.46 34.4402 37.3692 34.758 37.3692 34.758L36.9121 35.2664L36.0066 34.2962C35.9386 34.2236 35.8437 34.1802 35.7427 34.1752C35.6416 34.1702 35.5427 34.2042 35.4675 34.2697L35.0224 34.6573C34.8508 34.6977 34.6958 34.787 34.5773 34.9137C34.4808 35.0106 34.4027 35.1231 34.3465 35.2462L34.1037 35.4581C34.027 35.5501 33.9801 35.662 33.9688 35.7798C33.9575 35.8976 33.9824 36.0159 34.0403 36.1201L34.621 36.7418V36.7471C34.4153 36.7646 34.2198 36.8418 34.06 36.9685C33.1938 37.7099 33.1851 38.391 33.3141 38.7024C33.4432 39.0138 34.5434 40.2117 34.5434 40.2117C34.5434 40.2117 35.182 41.0156 36.1039 41.4424L36.0974 41.4499C36.0784 41.469 36.0605 41.4892 36.0438 41.5102L36.0285 41.5293L36.0143 41.5484L35.9978 41.5717C35.9934 41.5778 35.9894 41.5841 35.9858 41.5907L35.9683 41.6183C35.9643 41.6244 35.9606 41.6308 35.9574 41.6373C35.9497 41.65 35.9432 41.6628 35.9366 41.6755C35.9342 41.6796 35.932 41.6838 35.93 41.6882C35.9213 41.7051 35.9125 41.7221 35.9049 41.7411L35.8961 41.7602C35.8907 41.7729 35.8863 41.7856 35.8808 41.7994C35.8774 41.8077 35.8745 41.8162 35.8721 41.8248L35.859 41.8629C35.8554 41.8719 35.8525 41.8811 35.8502 41.8905C35.8502 41.9043 35.8415 41.918 35.8382 41.9329C35.8349 41.9477 35.8327 41.9498 35.8305 41.9593C35.8283 41.9689 35.8196 42.0049 35.8152 42.0292C35.8152 42.0377 35.8152 42.0472 35.8097 42.0568C35.8043 42.0663 35.8043 42.0896 35.801 42.1066C35.7977 42.1235 35.801 42.1299 35.801 42.1426L35.7944 42.1902V42.2284C35.7944 42.2464 35.7944 42.2644 35.789 42.2834C35.7835 42.3025 35.789 42.3057 35.789 42.3173C35.789 42.348 35.789 42.3788 35.789 42.4116C35.7693 43.5513 35.8382 43.7165 35.8382 43.7165C35.8832 43.8218 35.9565 43.9134 36.0506 43.9818C36.1447 44.0502 36.256 44.0928 36.373 44.1052C36.4303 44.1096 36.488 44.1067 36.5446 44.0968C37.0696 44.0088 38.2944 43.8044 38.7319 43.8849C38.9932 43.9315 39.4755 43.8616 39.8189 43.7991L39.9097 43.7822L39.972 43.976L40.171 43.923L40.3405 44.0173L40.4499 44.0777C40.6489 44.7301 41.456 44.5077 41.456 44.5077L41.6474 44.6136L43.5929 44.6624C43.8113 44.7898 44.0421 44.8962 44.2819 44.9801C44.3136 44.9901 44.3462 44.9972 44.3792 45.0013C44.5611 45.0156 44.7437 45.0188 44.926 45.0108C45.0748 45.0108 45.1896 45.0013 45.1896 45.0013C45.1896 45.0013 45.1699 44.4897 45.1415 43.9167C45.7445 43.9022 46.3463 43.8545 46.9437 43.7737C47.9826 43.5979 48.4157 42.6827 48.5754 42.1934C48.6232 42.3933 48.6571 42.5961 48.6771 42.8003C48.7195 42.98 48.7736 43.1568 48.8389 43.3299C48.8946 43.4682 48.9681 43.5992 49.0577 43.7197C49.8232 43.4665 49.3595 43.0842 49.1987 42.9211C49.038 42.758 49.3081 42.6192 49.3081 42.6192C49.3081 42.6192 49.5203 42.4826 49.4995 42.3565C49.4787 42.2305 49.4689 42.0938 50.1556 42.1034C50.8424 42.1129 50.7998 41.5611 50.7998 41.5611ZM40.1568 35.3426C40.1656 35.3977 40.2662 35.9983 40.3471 36.1561C40.3713 36.2603 40.379 36.3674 40.3701 36.4738C39.9643 36.4421 39.5411 36.4251 39.5411 36.4251C39.553 36.4394 39.5606 36.4567 39.563 36.4749L39.4985 36.4611L39.4066 36.4399L40.1546 35.3373L40.1568 35.3426ZM38.6739 37.6262L39.3771 37.7321L39.4361 37.7406C39.4163 37.8456 39.4042 37.9517 39.4 38.0584C39.4 38.069 39.4154 38.0806 39.4383 38.0944C39.4285 38.1479 39.4241 38.2021 39.4252 38.2564C39.4361 38.3094 39.7642 38.4259 40.1415 38.5223C40.136 38.5424 40.1317 38.5615 40.1262 38.5784C39.7926 38.409 39.2688 38.3295 39.2087 38.2035C39.1485 38.0774 37.3638 37.4737 37.3638 37.4737L37.1866 37.3879L37.6557 37.4737L37.7848 37.461C38.0771 37.5347 38.3741 37.5899 38.6739 37.6262Z" fill="url(#paint0_linear_290_1309)"/>
<path d="M48.5055 41.9847C48.5055 41.9847 48.2267 43.6201 46.8083 43.8616C45.3899 44.1031 40.6546 44.0554 40.6546 44.0554C40.6546 44.0554 37.9468 43.6773 36.968 41.4625C35.9893 39.2478 35.3593 38.3655 36.2025 38.3274C37.0457 38.2892 41.5677 39.8102 41.8269 39.8272C42.0861 39.8441 48.756 36.46 48.5055 41.9847Z" fill="#65617D"/>
<path opacity="0.05" d="M48.5055 41.9847C48.5055 41.9847 48.2267 43.6201 46.8083 43.8616C45.3899 44.1031 40.6546 44.0554 40.6546 44.0554C40.6546 44.0554 37.9468 43.6773 36.968 41.4625C35.9893 39.2478 35.3593 38.3655 36.2025 38.3274C37.0457 38.2892 41.5677 39.8102 41.8269 39.8272C42.0861 39.8441 48.756 36.46 48.5055 41.9847Z" fill="black"/>
<path d="M35.8075 43.8058C35.8514 43.9105 35.9238 44.0018 36.017 44.0698C36.1102 44.1379 36.2207 44.1803 36.3368 44.1924C36.3942 44.1958 36.4518 44.1926 36.5085 44.1829C37.0279 44.096 38.2462 43.8926 38.676 43.971C38.9341 44.0166 39.412 43.9477 39.7521 43.8863C39.9785 43.845 40.1447 43.8058 40.1447 43.8058C40.1447 43.8058 39.7444 42.5189 39.6952 42.4808C39.646 42.4426 37.8962 41.4216 37.8962 41.4216L36.5117 41.3252C36.3253 41.3522 36.1569 41.4478 36.0415 41.5921C35.896 41.7637 35.7703 42.0444 35.7615 42.5051C35.7386 43.6395 35.8075 43.8058 35.8075 43.8058Z" fill="#3F3D56"/>
<path opacity="0.05" d="M35.8076 43.8058C35.8515 43.9105 35.924 44.0018 36.0172 44.0698C36.1103 44.1379 36.2208 44.1802 36.3369 44.1924C36.2013 44.0229 36.0757 43.846 35.9607 43.6628L35.9683 42.7244C35.9408 42.467 35.976 42.2069 36.0709 41.965C36.1659 41.7232 36.318 41.5062 36.5151 41.3315C36.5151 41.3315 35.7857 41.3792 35.7649 42.5115C35.7441 43.6437 35.8076 43.8058 35.8076 43.8058Z" fill="black"/>
<path opacity="0.1" d="M41.8125 41.753L43.1018 40.7754L45.1294 38.8403L44.5826 38.8159C44.5005 38.8668 44.2709 39.0278 44.2621 39.2205C44.2523 39.4567 43.7153 39.2375 43.4343 39.372C43.1532 39.5065 41.7862 41.2044 41.5467 41.1927C41.3072 41.1811 41.1169 41.0751 41.0163 41.2404L41.0098 41.251L41.8125 41.753Z" fill="black"/>
<path opacity="0.1" d="M36.0381 41.5939C36.084 41.6151 36.131 41.6363 36.1781 41.6553C37.1568 42.0621 38.3653 42.9136 38.456 43.0683C38.5107 43.1626 39.2117 43.5746 39.752 43.8839C39.9783 43.8425 40.1446 43.8034 40.1446 43.8034C40.1446 43.8034 39.7443 42.5165 39.6951 42.4783C39.6459 42.4402 37.8961 41.4191 37.8961 41.4191L36.5116 41.3228C36.3234 41.35 36.1535 41.4473 36.0381 41.5939Z" fill="black"/>
<path d="M33.3217 38.8212C33.4508 39.1305 34.54 40.321 34.54 40.321C34.54 40.321 35.229 41.1917 36.2089 41.5921C37.1887 41.9924 38.3961 42.8504 38.4857 43.005C38.5437 43.1046 39.3245 43.56 39.8735 43.8725L39.9971 43.9424L40.2694 44.096L40.4138 44.1754C40.4138 44.1754 40.7484 43.9159 41.082 43.6543C41.4155 43.3927 41.7381 43.1363 41.7381 43.1247C41.7381 43.113 41.8781 42.7667 41.8475 42.7476C41.8169 42.7286 41.7633 42.6036 41.6364 42.4479C41.5025 42.2752 41.3282 42.1358 41.1279 42.0411C40.838 41.8969 40.6069 41.6621 40.4717 41.3749C40.4717 41.3749 40.428 41.3442 40.3624 41.3029C40.2263 41.2124 40.0744 41.1467 39.914 41.1091C39.6953 41.0826 39.2841 40.6473 39.2841 40.6473C39.1242 40.5464 38.9908 40.4108 38.8947 40.2511C38.7854 40.0393 37.2401 39.0077 37.0969 38.9123L40.8523 41.2489L41.7512 41.8081L43.0406 40.8316L45.0681 38.8964L44.3988 38.8668C43.4146 38.8255 41.6648 38.7609 41.4461 38.8096C41.267 38.8495 41.0823 38.8613 40.8993 38.8445C40.8993 38.8445 40.4006 38.8657 40.0704 38.6973C39.7401 38.5289 39.2206 38.4495 39.1605 38.3245C39.1003 38.1995 37.3331 37.6 37.3331 37.6C37.3331 37.6 34.9272 36.3618 34.0665 37.0969C33.2058 37.832 33.1916 38.5098 33.3217 38.8212Z" fill="#65617D"/>
<path d="M41.083 31.7192L41.3925 32.7158L41.7928 34.9602L43.2615 35.0566L43.6814 34.3788L44.1057 33.6966C44.1057 33.6966 44.3704 32.79 44.5607 31.913C44.728 31.1366 44.8384 30.3825 44.6558 30.3009C44.4929 30.2289 44.3868 29.9673 44.3168 29.6855C44.308 29.6516 44.3004 29.6156 44.2938 29.5796C44.2448 29.3415 44.212 29.1006 44.1954 28.8583C44.1954 28.8583 41.1191 28.7037 41.5489 29.9323C41.6256 30.1422 41.6648 30.3632 41.6648 30.5858C41.6648 30.643 41.6648 30.6992 41.6539 30.7521C41.6325 30.9427 41.5708 31.1269 41.4726 31.2933C41.3744 31.4597 41.2417 31.6047 41.083 31.7192Z" fill="#EE8E9E"/>
<path d="M40.4443 31.5549L40.5537 33.2496L40.803 34.6911L41.083 35.3595L41.3334 39.0115C41.3334 39.0115 43.7394 39.2816 44.3277 39.0062C44.3711 38.9901 44.409 38.9626 44.4371 38.9268C45.1446 37.892 44.9128 34.8945 44.9128 34.8945L45.1818 32.9594L45.0025 31.9553L44.565 31.9108L44.2304 31.8758C44.2304 31.8758 44.1549 31.9659 44.0456 32.1057C43.7492 32.4838 43.2046 33.2295 43.2418 33.5398C43.291 33.9635 43.1816 34.4009 43.011 34.4687C42.8404 34.5365 42.7015 34.653 42.672 34.5365C42.6295 34.4388 42.6188 34.3309 42.6414 34.2272C42.672 34.062 42.5112 33.5589 42.5112 33.5589C42.5112 33.5589 42.2422 32.9689 42.2619 32.7179C42.2816 32.4668 42.2324 32.1756 42.1525 32.1078C42.0727 32.04 41.9623 31.9722 42.0519 31.6629C42.1416 31.3536 41.6582 30.751 41.6582 30.751L40.4443 31.5549Z" fill="#E3E8F4"/>
<path opacity="0.1" d="M43.6255 35.7835L43.7261 38.6761L44.3024 38.9865C44.3457 38.9697 44.3835 38.9418 44.4118 38.906C45.1194 37.8712 44.8875 34.8737 44.8875 34.8737L45.1576 32.9386L44.9772 31.9345L44.5397 31.89C44.7082 31.1136 44.8175 30.3605 44.6349 30.2779C44.4719 30.2059 44.3659 29.9443 44.297 29.6636L43.9853 31.7099C43.9853 31.7099 44.0115 31.8942 44.0203 32.0849C44.0332 32.2054 44.0247 32.3272 43.9951 32.445C43.9547 32.6034 43.948 32.7681 43.9754 32.929C43.795 33.2362 43.7053 33.806 43.6616 34.3557C43.6025 35.0866 43.6255 35.7835 43.6255 35.7835Z" fill="black"/>
<path d="M44.3066 29.6128C44.3066 29.6128 44.8107 29.6732 44.9704 29.8765C45.13 30.0799 45.55 30.1095 45.55 30.1095C45.55 30.1095 46.029 30.2642 46.0191 30.3023C46.0093 30.3405 46.1591 30.3998 46.4566 30.4771C46.754 30.5544 47.256 30.8351 47.256 30.9008C47.256 30.9664 48.0445 31.7227 48.0445 31.8C48.0445 31.8773 48.284 32.1675 48.2545 32.6802C48.2249 33.1928 48.1943 33.8453 48.3146 33.9512C48.4349 34.0571 48.3146 34.4734 48.3146 34.4734C48.2823 34.5187 48.2642 34.5721 48.2624 34.6271C48.2607 34.6822 48.2754 34.7366 48.3048 34.7837C48.4043 34.9574 48.284 35.683 48.284 35.683L48.2949 36.4382C48.2949 36.4382 48.1856 36.9116 48.3146 36.9317C48.4437 36.9519 48.2949 37.1637 48.2949 37.1637C48.2949 37.1637 48.1856 37.5503 48.3245 37.7251C48.4633 37.8998 48.5038 38.6434 48.5038 38.6434L50.6418 41.6525C50.6418 41.6525 50.6724 42.2043 49.9933 42.1948C49.3142 42.1853 49.3229 42.3208 49.3437 42.4458C49.3645 42.5708 49.1534 42.7074 49.1534 42.7074C49.1534 42.7074 48.8844 42.843 49.044 43.0072C49.2037 43.1714 49.663 43.5495 48.9041 43.8005C48.8146 43.6811 48.7412 43.5512 48.6853 43.4139C48.621 43.2432 48.5677 43.0688 48.5257 42.8917C48.5257 42.8917 48.4557 42.1556 48.3157 42.0592C48.1757 41.9628 48.1954 41.4979 48.1954 41.4979C48.1954 41.4979 48.3955 41.1208 48.1156 40.9683C47.8356 40.8157 43.7805 38.6381 43.7805 38.6381L43.6821 35.7444C43.6821 35.7444 43.6121 33.6059 44.0321 32.8899C44.0046 32.7289 44.0113 32.5642 44.0517 32.4059C44.1217 32.2321 44.0419 31.6708 44.0419 31.6708L44.3066 29.6128Z" fill="#3F3D56"/>
<path opacity="0.1" d="M41.6882 30.7777C41.6882 30.7777 40.6843 30.5775 40.4141 30.7131C40.144 30.8487 39.6158 30.9546 39.5393 31.0309C39.4627 31.1071 39.2604 31.051 39.0799 31.5054C38.8995 31.9598 38.8809 32.4248 38.6502 32.6377C38.4194 32.8505 38.3013 32.9957 38.2915 33.1503C38.2816 33.3049 38.321 33.3441 38.2313 33.3918C38.1416 33.4394 38.0126 33.6439 38.0509 33.7212C38.0891 33.7985 40.1287 35.5017 40.1287 35.5017C40.1287 35.5017 40.2293 36.1499 40.319 36.3141C40.4087 36.4782 40.2195 38.7428 40.0193 38.8974C39.8192 39.052 41.3634 39.0393 41.3634 39.0393C41.3634 39.0393 41.4334 37.5565 41.4935 37.476C41.5537 37.3955 41.4531 35.812 41.4531 35.812C41.4531 35.812 41.4432 34.4573 41.5734 34.0993C41.7035 33.7413 41.6827 32.5508 41.6827 32.5508C41.6827 32.5508 41.7975 31.8369 41.9375 31.6706C42.0775 31.5043 41.6882 30.7777 41.6882 30.7777Z" fill="black"/>
<path d="M41.6583 30.7489C41.6583 30.7489 40.6544 30.5487 40.3843 30.6832C40.1142 30.8177 39.5848 30.9258 39.5094 31.001C39.4339 31.0762 39.2294 31.02 39.0501 31.4755C38.8707 31.9309 38.8499 32.3938 38.6203 32.6067C38.3906 32.8196 38.2703 32.9647 38.2605 33.1193C38.2507 33.274 38.2911 33.3132 38.2003 33.3619C38.1096 33.4106 37.9816 33.6129 38.021 33.6902C38.0604 33.7675 40.0988 35.4707 40.0988 35.4707C40.0988 35.4707 40.1984 36.1189 40.2891 36.2831C40.3799 36.4473 40.1885 38.7118 39.9884 38.8664C39.7883 39.0211 41.3379 39.0073 41.3379 39.0073C41.3379 39.0073 41.4079 37.5245 41.4669 37.445C41.526 37.3656 41.4276 35.78 41.4276 35.78C41.4276 35.78 41.4177 34.4264 41.5479 34.0683C41.678 33.7103 41.6627 32.5198 41.6627 32.5198C41.6627 32.5198 41.7775 31.8059 41.9175 31.6397C42.0575 31.4734 41.6583 30.7489 41.6583 30.7489Z" fill="#3F3D56"/>
<path opacity="0.1" d="M41.5539 29.9305C41.6306 30.1403 41.6698 30.3613 41.6698 30.584C42.1606 30.7232 42.6852 30.6998 43.1606 30.5175C43.6361 30.3353 44.0351 30.0045 44.2945 29.5778C44.2455 29.3397 44.2126 29.0987 44.1961 28.8565C44.1961 28.8565 41.1241 28.7008 41.5539 29.9305Z" fill="black"/>
<path d="M40.0342 28.4009C40.0338 28.9688 40.2584 29.5152 40.6617 29.9273C41.0651 30.3395 41.6163 30.5861 42.2018 30.6162C42.7873 30.6463 43.3624 30.4576 43.8085 30.0891C44.2546 29.7205 44.5377 29.2003 44.5993 28.6355C44.661 28.0708 44.4965 27.5047 44.1399 27.054C43.7832 26.6032 43.2616 26.3022 42.6826 26.2131C42.1035 26.1239 41.5112 26.2533 41.0278 26.5747C40.5444 26.896 40.2067 27.3848 40.0845 27.9402C40.051 28.0916 40.0341 28.2461 40.0342 28.4009Z" fill="#EE8E9E"/>
<path d="M38.5661 33.5317L38.0193 33.6959C38.0333 33.7493 38.0303 33.8056 38.0108 33.8573C37.9913 33.9091 37.9561 33.954 37.9099 33.9861C37.8624 34.0183 37.8244 34.0621 37.8 34.1131C37.7756 34.1641 37.7656 34.2204 37.771 34.2763C37.771 34.2763 37.7109 34.4882 37.5709 34.538C37.4309 34.5877 37.3413 34.9055 37.3413 34.9055L36.8819 35.4181C36.8819 35.4181 36.7113 35.5537 36.742 35.6215C36.7726 35.6893 36.5615 35.7084 36.5615 35.7084L36.6709 37.4306L37.6201 37.6053L38.2096 37.5471L38.6886 37.3734L39.1085 37.1308L39.2977 36.6574L40.1376 35.4181L38.5661 33.5317Z" fill="#3F3D56"/>
<path d="M36.6977 35.8404C36.6977 35.8404 35.4794 34.1383 34.5696 35.0566C33.6597 35.9749 34.9392 37.4662 35.2388 37.4175C35.5385 37.3688 36.9678 37.2915 36.9678 37.2915L36.6977 35.8404Z" fill="#EE8E9E"/>
<path d="M39.5678 35.1046L34.1861 32.4443C34.1033 32.4033 34.0019 32.4352 33.9596 32.5154L31.861 36.4975C31.8187 36.5777 31.8516 36.676 31.9345 36.7169L37.3162 39.3773C37.399 39.4183 37.5004 39.3864 37.5427 39.3062L39.6413 35.3241C39.6836 35.2438 39.6507 35.1456 39.5678 35.1046Z" fill="#3F3D56"/>
<path d="M39.0678 35.3409L34.292 32.98L32.455 36.4658L37.2308 38.8267L39.0678 35.3409Z" fill="#FED04D"/>
<path d="M33.19 34.7159C33.2383 34.7159 33.2775 34.6779 33.2775 34.6311C33.2775 34.5843 33.2383 34.5464 33.19 34.5464C33.1417 34.5464 33.1025 34.5843 33.1025 34.6311C33.1025 34.6779 33.1417 34.7159 33.19 34.7159Z" fill="#E6E8EC"/>
<path d="M38.3593 37.3369C38.4396 37.3369 38.5048 37.2738 38.5048 37.196C38.5048 37.1182 38.4396 37.0552 38.3593 37.0552C38.279 37.0552 38.2139 37.1182 38.2139 37.196C38.2139 37.2738 38.279 37.3369 38.3593 37.3369Z" fill="#E6E8EC"/>
<path d="M35.9092 36.1986C35.8983 37.4759 38.6257 37.7471 38.6257 37.7471L39.3224 37.853L39.6351 37.9007L39.7653 36.653C39.7653 36.653 39.622 36.6318 39.4437 36.5915C39.1791 36.5322 38.8368 36.4295 38.7657 36.2844C38.6509 36.0439 35.9169 34.9212 35.9092 36.1986Z" fill="#EE8E9E"/>
<path opacity="0.1" d="M40.085 27.9401C40.1477 27.9446 40.2068 27.97 40.2523 28.0121C40.3288 28.0915 40.3332 28.2324 40.4338 28.2811C40.4714 28.2965 40.5129 28.3009 40.553 28.2938C40.8188 28.2578 40.9719 27.9676 41.2278 27.8871C41.3765 27.8501 41.5339 27.8632 41.674 27.9242C41.7309 27.942 41.7821 27.9738 41.8227 28.0163C41.908 28.1223 41.8479 28.2811 41.8872 28.4103C41.9419 28.5904 42.1639 28.6614 42.3553 28.6847C42.5467 28.708 42.7632 28.7217 42.8911 28.8616C42.9335 28.914 42.9639 28.9745 42.9803 29.0391C42.9967 29.1038 42.9987 29.1711 42.9863 29.2365C42.9748 29.2821 42.9748 29.3297 42.9863 29.3753C43.0388 29.5204 43.298 29.4981 43.3658 29.3837C43.4161 29.3001 43.4008 29.2312 43.5178 29.2079C43.6014 29.2015 43.6853 29.2157 43.7617 29.2492C43.9653 29.3169 44.1797 29.3488 44.3949 29.3435C44.5317 29.0608 44.6053 28.7532 44.6109 28.441C44.6165 28.1288 44.5538 27.819 44.4271 27.5318C44.3004 27.2447 44.1124 26.9868 43.8755 26.7749C43.6387 26.5631 43.3583 26.4021 43.0527 26.3026C42.7471 26.2031 42.4232 26.1672 42.1023 26.1974C41.7814 26.2276 41.4707 26.3231 41.1906 26.4777C40.9105 26.6323 40.6673 26.8425 40.477 27.0945C40.2866 27.3466 40.1534 27.6347 40.0861 27.9401H40.085Z" fill="black"/>
<path d="M42.9848 29.3171C42.9734 29.2715 42.9734 29.2239 42.9848 29.1783C42.9973 29.1131 42.9953 29.0459 42.9789 28.9815C42.9625 28.917 42.9321 28.8566 42.8897 28.8045C42.7617 28.6636 42.5463 28.6509 42.3538 28.6265C42.1614 28.6021 41.9404 28.5322 41.8858 28.3522C41.8464 28.223 41.9065 28.0651 41.8212 27.9592C41.7813 27.9159 41.7299 27.8841 41.6725 27.8671C41.5325 27.8058 41.3752 27.7923 41.2263 27.8289C40.9704 27.9094 40.8173 28.1997 40.5516 28.2357C40.5114 28.2433 40.4698 28.2388 40.4324 28.223C40.3318 28.1742 40.323 28.0334 40.2508 27.9539C40.1294 27.83 39.8987 27.9105 39.7511 27.8184C39.6615 27.746 39.6037 27.6434 39.5892 27.5313C39.5231 27.3236 39.5081 27.1038 39.5455 26.8895C39.6318 26.5304 39.9643 26.2836 40.1754 25.9754C40.3733 25.6894 40.4849 25.3272 40.7812 25.1376C41.0776 24.948 41.4593 24.9903 41.795 25.0867C41.9493 25.1401 42.1081 25.1805 42.2696 25.2075C42.5397 25.2393 42.811 25.1683 43.0822 25.1598C43.4666 25.1478 43.8442 25.2595 44.1561 25.4776C44.2264 25.522 44.2861 25.5805 44.3311 25.6492C44.3762 25.7465 44.4028 25.8509 44.4098 25.9574C44.4418 26.1573 44.5134 26.3494 44.6209 26.523C44.704 26.6596 44.8101 26.7825 44.8855 26.9233C44.9699 27.0614 44.9957 27.2258 44.9577 27.382C44.9314 27.4614 44.8811 27.5334 44.8615 27.615C44.8177 27.8035 44.9457 27.9846 45.0332 28.1584C45.1183 28.3173 45.1586 28.4953 45.1502 28.6742C45.1455 28.7633 45.1218 28.8506 45.0806 28.9304C45.0394 29.0103 44.9815 29.081 44.9107 29.1381C44.7621 29.2379 44.5851 29.2901 44.4043 29.2874C44.1851 29.2939 43.9666 29.262 43.7591 29.1932C43.6826 29.1602 43.5988 29.146 43.5152 29.1519C43.3982 29.1752 43.4135 29.244 43.3632 29.3277C43.2965 29.44 43.0384 29.4622 42.9848 29.3171Z" fill="#3F3D56"/>
<path opacity="0.1" d="M41.7525 41.81L43.0418 40.8334L45.0694 38.8983L44.4001 38.8687C44.3215 38.9375 44.2714 39.0315 44.259 39.1334C44.2492 39.3696 43.7122 39.1493 43.4311 39.2849C43.1501 39.4205 41.7831 41.1173 41.5436 41.1056C41.3041 41.094 41.1138 40.9881 41.0132 41.1522L41.0066 41.1628C40.9667 41.2074 40.913 41.2382 40.8535 41.2507L41.7525 41.81Z" fill="black"/>
<path d="M39.1553 41.7422L39.8027 43.7451L39.9044 44.0628L40.2128 43.9813L40.893 43.8002L43.9201 42.9952C44.3014 42.9792 44.6746 42.883 45.0137 42.7135C45.586 42.4029 46.2409 42.2646 46.8947 42.3163C47.295 42.3523 47.7401 42.1849 48.1097 41.524C48.1097 41.524 48.9485 39.1249 46.8313 38.4375C44.7141 37.7501 44.6124 38.803 44.6124 38.803L44.5828 38.8199C44.5008 38.8707 44.2712 39.0317 44.2624 39.2245C44.2526 39.4607 43.7156 39.2415 43.4345 39.376C43.1535 39.5105 41.7865 41.2084 41.547 41.1967C41.3075 41.1851 41.1172 41.0791 41.0166 41.2444L41.01 41.255C40.9357 41.3535 40.7137 41.3768 40.566 41.3799C40.5201 41.3823 40.4741 41.3823 40.4282 41.3799L40.4085 41.3852L40.2554 41.4297L39.1553 41.7422Z" fill="#65617D"/>
<path opacity="0.1" d="M39.3223 37.8543L39.635 37.9019L39.7652 36.6542C39.7652 36.6542 39.6219 36.633 39.4437 36.5928C39.4907 36.7675 39.3835 37.4401 39.3223 37.8543Z" fill="black"/>
<path opacity="0.1" d="M47.4915 32.0221C47.4915 32.0221 48.4199 31.7604 48.1903 34.3152C48.0308 35.8745 47.3465 37.3397 46.2426 38.4852C46.2426 38.4852 44.2642 39.3262 43.3751 39.1906C42.486 39.055 41.8375 39.0264 41.8375 39.0264C41.5574 38.8894 41.2509 38.8104 40.9375 38.7945C40.4388 38.7754 39.39 38.4767 39.3693 38.3782C39.3485 38.2797 39.6295 36.8593 39.5092 36.7534C39.5092 36.7534 40.908 36.8085 41.0479 36.9059C41.1879 37.0034 41.3881 36.9345 41.5379 36.9059C41.6877 36.8773 42.147 36.4918 43.0558 36.8307C43.0558 36.8307 43.3653 36.8593 43.4856 36.782C43.5837 36.7378 43.6953 36.731 43.7984 36.763C43.8761 36.7379 43.9498 36.7023 44.0171 36.657C44.0466 36.6189 44.2872 36.657 44.2872 36.657C44.3015 36.6632 44.317 36.6664 44.3327 36.6662C44.3484 36.6661 44.3639 36.6627 44.3781 36.6563C44.3923 36.6499 44.4049 36.6406 44.4151 36.629C44.4253 36.6174 44.4327 36.6039 44.437 36.5892C44.4686 36.5103 44.5162 36.4383 44.577 36.3774C44.577 36.3774 44.846 34.9073 45.3556 34.3554C45.3963 34.321 45.4276 34.2773 45.4467 34.2284C45.4658 34.1794 45.4721 34.1266 45.465 34.0748C45.4235 33.918 46.2929 31.7117 47.4915 32.0221Z" fill="black"/>
<path d="M47.4668 31.825C47.4668 31.825 48.3964 31.5645 48.1667 34.1182C48.0077 35.6775 47.3233 37.1429 46.219 38.2882C46.219 38.2882 44.2407 39.1302 43.3516 38.9946C42.4625 38.8591 41.8129 38.8273 41.8129 38.8273C41.5332 38.6902 41.227 38.6112 40.914 38.5953C40.4142 38.5752 39.3654 38.2776 39.3457 38.1791C39.326 38.0806 39.6049 36.6602 39.4857 36.5532C39.4857 36.5532 40.8844 36.6094 41.0244 36.7068C41.1644 36.8042 41.3634 36.7343 41.5132 36.7068C41.6631 36.6793 42.1224 36.2927 43.0323 36.6305C43.0323 36.6305 43.3418 36.6602 43.461 36.5829C43.5591 36.539 43.6705 36.5318 43.7737 36.5627C43.8512 36.5371 43.9248 36.5015 43.9924 36.4568C44.022 36.4176 44.2615 36.4568 44.2615 36.4568C44.2758 36.463 44.2913 36.4662 44.307 36.466C44.3227 36.4659 44.3382 36.4625 44.3524 36.4561C44.3666 36.4497 44.3792 36.4403 44.3894 36.4288C44.3995 36.4172 44.407 36.4037 44.4113 36.389C44.4429 36.3101 44.4905 36.2381 44.5513 36.1772C44.5513 36.1772 44.8214 34.7071 45.331 34.1552C45.3717 34.1208 45.403 34.0771 45.4221 34.0282C45.4411 33.9792 45.4474 33.9264 45.4404 33.8745C45.3999 33.722 46.2682 31.5189 47.4668 31.825Z" fill="#3F3D56"/>
<path opacity="0.1" d="M40.252 41.4244L41.5708 42.9708L41.5796 42.9623C41.5894 42.9326 41.7196 42.6043 41.6889 42.5842C41.6583 42.564 41.4298 42.0811 40.9704 41.8777C40.7368 41.7674 40.5406 41.5947 40.4051 41.3799L40.252 41.4244Z" fill="black"/>
<path opacity="0.1" d="M40.2692 44.1011L40.4136 44.1805C40.4136 44.1805 40.7482 43.921 41.0818 43.6594C41.4153 43.3978 41.7379 43.1415 41.7379 43.1298C41.7379 43.1182 41.8779 42.7718 41.8473 42.7527C41.8167 42.7337 41.7631 42.6087 41.6362 42.453C40.7417 42.2105 41.3082 42.8121 41.3869 42.8396C41.3869 42.8396 40.2988 42.5971 40.2386 43.7463C40.2334 43.8653 40.2437 43.9845 40.2692 44.1011Z" fill="black"/>
<path d="M41.373 44.5873L41.5633 44.6932L43.4913 44.7409C43.7075 44.8682 43.9361 44.9746 44.1737 45.0587C44.2052 45.0677 44.2374 45.0745 44.27 45.0788C44.4489 45.0929 44.6286 45.0961 44.808 45.0883C44.9557 45.0883 45.0694 45.0788 45.0694 45.0788C45.0694 45.0788 44.9786 42.7242 44.9097 42.4764C44.8769 42.3577 44.7151 42.3832 44.5554 42.4425C44.4357 42.4899 44.3201 42.5466 44.2098 42.6119C44.2098 42.6119 43.3918 42.6893 43.2617 42.7571C43.1315 42.8248 42.7619 42.7179 42.5322 42.7571C42.3026 42.7962 41.8925 42.4954 41.8925 42.4954C40.7737 42.1374 41.4036 42.8047 41.4835 42.8344C41.4835 42.8344 40.3899 42.5918 40.3341 43.741C40.2783 44.8902 41.373 44.5873 41.373 44.5873Z" fill="#3F3D56"/>
<path d="M44.1611 43.6783C44.1819 44.1655 44.5745 44.7703 44.8086 45.0902C44.9562 45.0902 45.0699 45.0806 45.0699 45.0806C45.0699 45.0806 44.9792 42.7261 44.9103 42.4782C44.8775 42.3596 44.7156 42.385 44.5559 42.4444C44.3624 42.796 44.1436 43.2843 44.1611 43.6783Z" fill="#565387"/>
<path opacity="0.1" d="M44.1611 43.6783C44.1819 44.1655 44.5745 44.7703 44.8086 45.0902C44.9562 45.0902 45.0699 45.0806 45.0699 45.0806C45.0699 45.0806 44.9792 42.7261 44.9103 42.4782C44.8775 42.3596 44.7156 42.385 44.5559 42.4444C44.3624 42.796 44.1436 43.2843 44.1611 43.6783Z" fill="black"/>
<path opacity="0.05" d="M43.8303 43.7429C43.9638 44.2132 43.9616 44.7407 44.1737 45.0605C44.2052 45.0696 44.2374 45.0763 44.27 45.0806C44.4489 45.0948 44.6286 45.098 44.808 45.0902C44.9557 45.0902 45.0694 45.0806 45.0694 45.0806C45.0694 45.0806 44.9786 42.7261 44.9097 42.4782C44.8769 42.3596 44.7151 42.385 44.5554 42.4444C44.4357 42.4918 44.3201 42.5485 44.2098 42.6138C44.2098 42.6138 43.6608 43.1402 43.8303 43.7429Z" fill="black"/>
<path opacity="0.1" d="M37.1787 38.9692C37.1787 38.9692 38.1367 39.27 38.9482 40.3398L37.1787 38.9692Z" fill="black"/>
<g opacity="0.1">
<path d="M44.9612 27.3584C44.9612 27.3658 44.9612 27.3722 44.9558 27.3796C44.9466 27.4072 44.9352 27.4341 44.9219 27.4601C44.9324 27.4253 44.9456 27.3913 44.9612 27.3584Z" fill="black"/>
<path d="M39.5437 26.8892C39.5599 26.8215 39.5849 26.756 39.6181 26.6943C39.6181 26.7102 39.6071 26.7272 39.6028 26.7441C39.5663 26.9586 39.5817 27.1783 39.6476 27.386C39.6621 27.4978 39.7195 27.6003 39.8084 27.673C39.9571 27.7652 40.1878 27.6847 40.3092 27.8086C40.3858 27.888 40.3902 28.0289 40.4908 28.0776C40.5282 28.0935 40.5698 28.0979 40.61 28.0903C40.8757 28.0543 41.0288 27.7641 41.2847 27.6836C41.4336 27.6465 41.5911 27.6599 41.7309 27.7217C41.7882 27.7387 41.8397 27.7706 41.8796 27.8139C41.9649 27.9198 41.9048 28.0776 41.9442 28.2068C41.9988 28.3869 42.2208 28.4579 42.4122 28.4812C42.6036 28.5045 42.8201 28.5182 42.9481 28.6591C42.9905 28.7113 43.0209 28.7716 43.0373 28.8361C43.0537 28.9006 43.0557 28.9677 43.0432 29.033C43.0318 29.0786 43.0318 29.1262 43.0432 29.1718C43.0957 29.3169 43.3549 29.2946 43.4227 29.1802C43.473 29.0966 43.4577 29.0277 43.5747 29.0044C43.6583 28.9985 43.7421 29.0127 43.8186 29.0457C44.0261 29.1145 44.2446 29.1464 44.4638 29.14C44.6446 29.1427 44.8216 29.0904 44.9702 28.9906C45.0351 28.9412 45.0881 28.8787 45.1255 28.8074C45.0917 28.9371 45.0148 29.0525 44.9067 29.1357C44.7582 29.2355 44.5811 29.2878 44.4004 29.2851C44.1812 29.2916 43.9626 29.2596 43.7552 29.1908C43.6786 29.1578 43.5949 29.1436 43.5113 29.1495C43.3943 29.1728 43.4096 29.2417 43.3604 29.3253C43.2915 29.4397 43.0323 29.462 42.9798 29.3169C42.9689 29.2712 42.9689 29.2238 42.9798 29.1781C42.9923 29.1128 42.9903 29.0457 42.9739 28.9812C42.9575 28.9168 42.927 28.8564 42.8847 28.8042C42.7567 28.6634 42.5413 28.6506 42.3488 28.6263C42.1563 28.6019 41.9354 28.532 41.8807 28.352C41.8414 28.2227 41.9015 28.0649 41.8162 27.959C41.7766 27.9159 41.7255 27.884 41.6686 27.8668C41.5282 27.8056 41.3705 27.7921 41.2213 27.8287C40.9665 27.9092 40.8123 28.1994 40.5465 28.2354C40.5064 28.243 40.4648 28.2386 40.4273 28.2227C40.3267 28.174 40.318 28.0331 40.2458 27.9537C40.1244 27.8298 39.8947 27.9103 39.746 27.8181C39.6565 27.7458 39.5986 27.6432 39.5842 27.5311C39.5191 27.3231 39.5053 27.1033 39.5437 26.8892Z" fill="black"/>
</g>
<path opacity="0.1" d="M45.1161 34.6341C44.9324 34.8735 44.7235 35.0949 44.5617 35.347C44.3858 35.5955 44.3004 35.8936 44.3189 36.1943C44.4862 36.028 44.5638 35.7971 44.6688 35.5885C44.8482 35.2347 45.115 34.935 45.3414 34.6108C45.384 34.5484 45.6596 34.1872 45.5207 34.1723C45.4048 34.1565 45.1784 34.5526 45.1161 34.6341Z" fill="black"/>
<path d="M46.1011 57.2974C46.2334 57.7084 46.3669 58.1204 46.532 58.5197C46.8295 59.2139 47.2039 59.8748 47.6486 60.4908C47.9352 60.8964 48.2433 61.2874 48.5716 61.6623C48.9828 62.1315 49.4464 62.6039 49.5864 63.2034C49.6706 63.5498 49.6422 63.9109 49.6772 64.2626C49.7122 64.6142 49.8314 64.9913 50.1278 65.2031C50.3388 65.3546 50.6089 65.4001 50.8681 65.4393C51.054 65.4679 51.2859 65.4775 51.3821 65.3218C51.4158 65.2582 51.4334 65.1877 51.4335 65.1163L51.4784 64.5983C51.4871 64.4861 51.5287 64.3431 51.6446 64.3378C51.7605 64.3325 51.8185 64.4818 51.9169 64.5496C52.0481 64.6386 52.245 64.5496 52.3172 64.4151C52.3771 64.2695 52.381 64.1078 52.3281 63.9597C52.2485 63.6648 52.1053 63.3897 51.9079 63.1524C51.7105 62.915 51.4635 62.7209 51.1831 62.5827C50.9883 62.5067 50.8016 62.4127 50.6254 62.302C50.4464 62.1513 50.298 61.9695 50.1879 61.7661C49.173 60.1477 48.1527 58.5208 47.4364 56.7593C47.2953 56.4446 47.1999 56.1124 47.1532 55.7722C47.1182 55.4258 47.1739 55.0774 47.1969 54.73C47.2393 54.1059 47.1795 53.4792 47.0197 52.8732C46.9848 52.7141 46.9231 52.5617 46.8371 52.422C46.5418 51.9888 45.8529 51.9242 45.4154 52.2229C45.2544 52.3429 45.1208 52.494 45.0233 52.6667C44.9258 52.8394 44.8664 53.0298 44.8489 53.2259C44.8172 53.5776 45.0261 53.9419 45.1322 54.2692C45.4537 55.2797 45.7767 56.2891 46.1011 57.2974Z" fill="#A1616A"/>
<path opacity="0.05" d="M46.1011 57.2974C46.2334 57.7084 46.3669 58.1204 46.532 58.5197C46.8295 59.2139 47.2039 59.8748 47.6486 60.4908C47.9352 60.8964 48.2433 61.2874 48.5716 61.6623C48.9828 62.1315 49.4464 62.6039 49.5864 63.2034C49.6706 63.5498 49.6422 63.9109 49.6772 64.2626C49.7122 64.6142 49.8314 64.9913 50.1278 65.2031C50.3388 65.3546 50.6089 65.4001 50.8681 65.4393C51.054 65.4679 51.2859 65.4775 51.3821 65.3218C51.4158 65.2582 51.4334 65.1877 51.4335 65.1163L51.4784 64.5983C51.4871 64.4861 51.5287 64.3431 51.6446 64.3378C51.7605 64.3325 51.8185 64.4818 51.9169 64.5496C52.0481 64.6386 52.245 64.5496 52.3172 64.4151C52.3771 64.2695 52.381 64.1078 52.3281 63.9597C52.2485 63.6648 52.1053 63.3897 51.9079 63.1524C51.7105 62.915 51.4635 62.7209 51.1831 62.5827C50.9883 62.5067 50.8016 62.4127 50.6254 62.302C50.4464 62.1513 50.298 61.9695 50.1879 61.7661C49.173 60.1477 48.1527 58.5208 47.4364 56.7593C47.2953 56.4446 47.1999 56.1124 47.1532 55.7722C47.1182 55.4258 47.1739 55.0774 47.1969 54.73C47.2393 54.1059 47.1795 53.4792 47.0197 52.8732C46.9848 52.7141 46.9231 52.5617 46.8371 52.422C46.5418 51.9888 45.8529 51.9242 45.4154 52.2229C45.2544 52.3429 45.1208 52.494 45.0233 52.6667C44.9258 52.8394 44.8664 53.0298 44.8489 53.2259C44.8172 53.5776 45.0261 53.9419 45.1322 54.2692C45.4537 55.2797 45.7767 56.2891 46.1011 57.2974Z" fill="black"/>
<path d="M39.7248 74.6022C39.9227 74.6689 40.1331 74.6935 40.3416 74.6743C40.3569 74.509 40.5866 74.472 40.7572 74.4804C40.8397 74.4778 40.9215 74.4961 40.9945 74.5334C41.0371 74.5599 41.07 74.598 41.1115 74.6255C41.1856 74.6649 41.2687 74.6856 41.3532 74.6859L42.2412 74.7579C42.6371 74.7908 43.0494 74.8204 43.4201 74.6838C43.494 74.6611 43.5596 74.6185 43.6093 74.5609C43.7099 74.4211 43.6093 74.2209 43.4704 74.1193C43.3315 74.0176 43.1522 73.972 43.0122 73.8682C42.7038 73.6405 42.6611 73.2147 42.4982 72.8737C42.3824 72.6586 42.2395 72.4583 42.0728 72.2773C41.952 72.1219 41.8112 71.982 41.6539 71.8611C41.2974 71.6122 40.8884 71.6175 40.4696 71.5815C40.1743 71.556 39.8965 71.5391 39.6844 71.7933C39.4219 72.1111 39.5269 72.7466 39.5433 73.1173C39.5638 73.6161 39.6245 74.1126 39.7248 74.6022Z" fill="#514E7F"/>
<path opacity="0.05" d="M39.7248 74.6022C39.9227 74.6689 40.1331 74.6935 40.3416 74.6743C40.3569 74.509 40.5866 74.472 40.7572 74.4804C40.8397 74.4778 40.9215 74.4961 40.9945 74.5334C41.0371 74.5599 41.07 74.598 41.1115 74.6255C41.1856 74.6649 41.2687 74.6856 41.3532 74.6859L42.2412 74.7579C42.6371 74.7908 43.0494 74.8204 43.4201 74.6838C43.494 74.6611 43.5596 74.6185 43.6093 74.5609C43.7099 74.4211 43.6093 74.2209 43.4704 74.1193C43.3315 74.0176 43.1522 73.972 43.0122 73.8682C42.7038 73.6405 42.6611 73.2147 42.4982 72.8737C42.3824 72.6586 42.2395 72.4583 42.0728 72.2773C41.952 72.1219 41.8112 71.982 41.6539 71.8611C41.2974 71.6122 40.8884 71.6175 40.4696 71.5815C40.1743 71.556 39.8965 71.5391 39.6844 71.7933C39.4219 72.1111 39.5269 72.7466 39.5433 73.1173C39.5638 73.6161 39.6245 74.1126 39.7248 74.6022Z" fill="black"/>
<path d="M40.084 57.8726C39.8128 57.9573 39.6947 58.2846 39.745 58.5568C39.7953 58.8291 39.9637 59.0642 40.1026 59.3057C40.4985 59.991 40.6691 60.7748 41.0015 61.4897C41.2498 62.0193 41.5855 62.5171 41.8305 63.0531C42.0754 63.589 42.2274 64.1938 42.0787 64.7626C42.0065 65.039 41.8666 65.2922 41.7736 65.5644C41.6816 65.8594 41.6215 66.1629 41.5942 66.47C41.4738 67.5131 41.4522 68.5646 41.5297 69.6115C41.5304 69.7391 41.5579 69.8653 41.6106 69.9822C41.6664 70.0881 41.7627 70.1941 41.72 70.3C41.7014 70.3434 41.661 70.3752 41.6413 70.4175C41.5844 70.5362 41.6981 70.6622 41.802 70.7469C41.7835 70.7788 41.7585 70.8067 41.7287 70.8291C41.6988 70.8515 41.6646 70.8678 41.6281 70.8772C41.7027 70.9232 41.7599 70.9912 41.7914 71.0711C41.823 71.151 41.8271 71.2387 41.8031 71.321C41.7113 71.3348 41.7058 71.4714 41.7638 71.5435C41.8217 71.6155 41.9136 71.66 41.9551 71.7415C41.9796 71.808 41.9769 71.8809 41.9476 71.9455C41.9184 72.0101 41.8647 72.0614 41.7977 72.0889C41.661 72.1399 41.512 72.1509 41.369 72.1207C41.1265 72.088 40.887 72.037 40.6527 71.9682C40.5302 71.9449 40.4205 71.8796 40.3437 71.7842C40.267 71.6889 40.2283 71.5699 40.2349 71.4492C40.1807 71.0181 40.1643 70.5833 40.1857 70.1496C40.224 68.0482 40.1857 65.9446 40.0916 63.8443C40.0534 62.9969 39.7909 62.1761 39.453 61.3965C39.2662 60.9981 39.0585 60.6093 38.8307 60.2314C38.343 59.3671 37.9121 58.4096 38.0236 57.4299C38.0357 57.324 38.075 57.1979 38.1833 57.181C38.2256 57.1766 38.2684 57.1835 38.3069 57.2011C38.5315 57.3027 38.7489 57.4188 38.9576 57.5485C39.3004 57.7432 39.687 57.8544 40.084 57.8726Z" fill="#464353"/>
<path opacity="0.05" d="M40.084 57.8726C39.8128 57.9573 39.6947 58.2846 39.745 58.5568C39.7953 58.8291 39.9637 59.0642 40.1026 59.3057C40.4985 59.991 40.6691 60.7748 41.0015 61.4897C41.2498 62.0193 41.5855 62.5171 41.8305 63.0531C42.0754 63.589 42.2274 64.1938 42.0787 64.7626C42.0065 65.039 41.8666 65.2922 41.7736 65.5644C41.6816 65.8594 41.6215 66.1629 41.5942 66.47C41.4738 67.5131 41.4522 68.5646 41.5297 69.6115C41.5304 69.7391 41.5579 69.8653 41.6106 69.9822C41.6664 70.0881 41.7627 70.1941 41.72 70.3C41.7014 70.3434 41.661 70.3752 41.6413 70.4175C41.5844 70.5362 41.6981 70.6622 41.802 70.7469C41.7835 70.7788 41.7585 70.8067 41.7287 70.8291C41.6988 70.8515 41.6646 70.8678 41.6281 70.8772C41.7027 70.9232 41.7599 70.9912 41.7914 71.0711C41.823 71.151 41.8271 71.2387 41.8031 71.321C41.7113 71.3348 41.7058 71.4714 41.7638 71.5435C41.8217 71.6155 41.9136 71.66 41.9551 71.7415C41.9796 71.808 41.9769 71.8809 41.9476 71.9455C41.9184 72.0101 41.8647 72.0614 41.7977 72.0889C41.661 72.1399 41.512 72.1509 41.369 72.1207C41.1265 72.088 40.887 72.037 40.6527 71.9682C40.5302 71.9449 40.4205 71.8796 40.3437 71.7842C40.267 71.6889 40.2283 71.5699 40.2349 71.4492C40.1807 71.0181 40.1643 70.5833 40.1857 70.1496C40.224 68.0482 40.1857 65.9446 40.0916 63.8443C40.0534 62.9969 39.7909 62.1761 39.453 61.3965C39.2662 60.9981 39.0585 60.6093 38.8307 60.2314C38.343 59.3671 37.9121 58.4096 38.0236 57.4299C38.0357 57.324 38.075 57.1979 38.1833 57.181C38.2256 57.1766 38.2684 57.1835 38.3069 57.2011C38.5315 57.3027 38.7489 57.4188 38.9576 57.5485C39.3004 57.7432 39.687 57.8544 40.084 57.8726Z" fill="black"/>
<path d="M36.4171 55.3179C36.2757 55.2299 36.1126 55.1802 35.9447 55.1738C35.75 55.1834 35.5838 55.3073 35.4318 55.4259C35.2517 55.5598 35.0807 55.7049 34.92 55.8602C34.5871 56.2038 34.3552 56.6274 34.2483 57.087C34.1414 57.5466 34.1634 58.0256 34.3119 58.4742C34.4727 58.9413 34.7669 59.3533 35.0578 59.7569L35.6483 60.5788C36.5494 61.8318 37.4506 63.0848 38.3943 64.3082C38.3946 64.3383 38.4046 64.3675 38.4231 64.3917C38.4416 64.4159 38.4675 64.4337 38.4971 64.4427C38.531 64.4512 38.5737 64.4501 38.5945 64.4777C38.6041 64.4948 38.6083 64.5144 38.6065 64.5338C38.6044 64.6243 38.5867 64.7138 38.554 64.7986C38.5387 64.8266 38.5348 64.8591 38.5431 64.8897C38.5737 64.9585 38.7027 64.9193 38.7443 64.984C38.7716 65.0263 38.7377 65.0814 38.7016 65.1174C38.6656 65.1534 38.6207 65.1937 38.6273 65.2435C38.6338 65.2932 38.7235 65.3494 38.7202 65.4108C38.7202 65.4468 38.6874 65.4744 38.6645 65.5029C38.6323 65.5485 38.6177 65.6036 38.6231 65.6585C38.6285 65.7135 38.6536 65.7649 38.694 65.8038C38.7563 66.4011 38.4206 66.9689 38.3539 67.5641C38.2445 68.5047 38.6874 69.423 38.741 70.3667C38.7378 70.4729 38.7587 70.5785 38.8023 70.676C38.893 70.8391 39.1303 70.9376 39.1183 71.123C39.1011 71.1991 39.0789 71.2741 39.0516 71.3475C39.033 71.4534 39.0855 71.5593 39.0877 71.6653C39.0899 71.7712 38.9925 71.9015 38.8897 71.8591C38.967 72.1091 39.0359 72.3611 39.0964 72.6153L41.1634 72.7806C41.1856 72.6007 41.1794 72.4185 41.1448 72.2404C41.1021 72.0466 41.0124 71.8665 40.9654 71.6748C40.9348 71.5804 40.9262 71.4807 40.9402 71.3827C40.9542 71.2847 40.9905 71.1909 41.0463 71.1081C40.9925 71.1088 40.9401 71.0909 40.8985 71.0578C40.8569 71.0246 40.8287 70.9783 40.8189 70.927C40.8016 70.8237 40.8034 70.7183 40.8243 70.6156C40.879 70.0934 40.6526 69.5787 40.6592 69.0544C40.6658 68.6413 40.8156 68.2441 40.891 67.8384C41.0529 66.9699 40.8845 66.0283 41.2836 65.235C41.5253 64.7573 41.86 64.2277 41.5888 63.7648C41.4553 63.5361 41.2191 63.3793 41.0649 63.1632C40.9392 62.959 40.8449 62.7381 40.785 62.5076C40.4667 61.5543 39.9516 60.6689 39.5 59.7622C39.3746 59.5349 39.2816 59.2923 39.2233 59.0409C39.1914 58.8203 39.1797 58.5973 39.1883 58.3747C39.1883 57.9749 39.1631 57.5756 39.1128 57.1789C39.1026 57.005 39.0514 56.8358 38.963 56.6842C38.8738 56.5695 38.7624 56.4728 38.6349 56.3993C37.9569 55.9491 37.1498 55.6918 36.4171 55.3179Z" fill="#464353"/>
<path d="M38.8938 75.3365C39.0923 75.4023 39.3029 75.4265 39.5117 75.4075C39.527 75.2423 39.7556 75.2052 39.9262 75.2137C40.0087 75.211 40.0905 75.2293 40.1635 75.2666C40.2061 75.2931 40.2389 75.3323 40.2816 75.3588C40.3555 75.3986 40.4387 75.4194 40.5233 75.4191L41.4102 75.4912C41.8072 75.524 42.2184 75.5547 42.5902 75.417C42.6639 75.3947 42.7293 75.352 42.7783 75.2942C42.8789 75.1543 42.7783 74.9552 42.6394 74.8535C42.5005 74.7519 42.3212 74.7053 42.1823 74.6015C41.8728 74.3737 41.8312 73.949 41.6672 73.6079C41.5524 73.3922 41.4098 73.1915 41.2429 73.0106C41.1217 72.8554 40.9806 72.7159 40.8229 72.5954C40.4675 72.3454 40.0574 72.3507 39.6397 72.3147C39.3433 72.2893 39.0655 72.2734 38.8544 72.5265C38.592 72.8443 38.697 73.4798 38.7123 73.8516C38.7328 74.3504 38.7935 74.8469 38.8938 75.3365Z" fill="#514E7F"/>
<path d="M48.055 51.8513C49.1857 51.8513 50.1023 50.9636 50.1023 49.8685C50.1023 48.7735 49.1857 47.8857 48.055 47.8857C46.9244 47.8857 46.0078 48.7735 46.0078 49.8685C46.0078 50.9636 46.9244 51.8513 48.055 51.8513Z" fill="#A1616A"/>
<path d="M46.1236 50.457C45.8305 50.7017 45.4095 50.7197 45.0245 50.7578C44.2014 50.8397 43.4001 51.0643 42.6591 51.4209C42.5565 51.4637 42.4636 51.5256 42.3857 51.603C42.3191 51.6871 42.2718 51.7838 42.2468 51.8869C42.1764 52.11 42.15 52.3439 42.1691 52.5764C42.1959 52.8019 42.2629 53.0213 42.3671 53.2246C42.6512 53.7943 43.0896 54.2786 43.6356 54.6259C43.7319 54.6953 43.841 54.7461 43.9572 54.7753C44.2262 54.8293 44.4865 54.6789 44.7522 54.6111C44.9939 54.55 45.2487 54.5578 45.486 54.6333C45.7047 54.7054 45.9442 54.8367 46.1608 54.7488C46.2994 54.6737 46.4071 54.5548 46.4659 54.412C46.675 54.0292 46.8616 53.6353 47.0247 53.232C47.0833 53.0746 47.1509 52.9204 47.227 52.7702C47.4644 52.3328 47.8745 51.9949 48.079 51.5405C48.0997 51.5059 48.1123 51.4672 48.1157 51.4272C48.1191 51.3873 48.1133 51.3471 48.0986 51.3096C48.0607 51.259 48.0082 51.2203 47.9477 51.1984C47.6453 51.0307 47.3698 50.8213 47.1297 50.5767C46.9952 50.4517 46.748 50.1138 46.5545 50.0842C46.3368 50.0482 46.2712 50.3341 46.1236 50.457Z" fill="#A1616A"/>
<path d="M46.1719 54.4865C45.9346 54.5924 45.6546 54.5468 45.3977 54.4949C44.7349 54.3604 44.0645 54.2248 43.451 53.9473C43.2594 53.8763 43.0933 53.7526 42.9731 53.5914C42.8985 53.4536 42.8531 53.3027 42.8397 53.1477L42.7304 52.4062C42.691 52.1488 42.7588 51.9105 42.7653 51.65C42.7695 51.6211 42.7677 51.5917 42.76 51.5635C42.7523 51.5353 42.7389 51.5089 42.7205 51.4858C42.6831 51.4553 42.6347 51.4405 42.586 51.4445C42.2787 51.4498 42.0928 51.7622 41.8773 51.9741C41.7528 52.0964 41.604 52.1929 41.4399 52.2579C41.2431 52.3363 41.0025 52.3914 40.9204 52.582C40.8876 52.6615 40.892 52.7515 40.857 52.831C40.7192 53.1487 40.132 53.0428 39.9821 53.3605C39.9395 53.4495 39.9428 53.5607 39.8728 53.6306C39.8028 53.7005 39.6715 53.6995 39.5633 53.7164C39.1357 53.7842 38.929 54.2619 38.5637 54.4875C38.2564 54.6782 37.8605 54.6739 37.5292 54.8222C37.3454 54.9048 37.1825 55.0341 36.9878 55.0881C36.7932 55.1421 36.5734 55.1135 36.3645 55.1188C36.3422 55.1168 36.3197 55.1192 36.2985 55.1259C36.2772 55.1327 36.2576 55.1436 36.2409 55.158C36.2279 55.1771 36.2194 55.1988 36.2158 55.2215C36.2122 55.2441 36.2137 55.2673 36.2201 55.2893C36.3214 55.9156 36.5894 56.5056 36.9976 57.0011C37.4059 57.4966 37.9404 57.8806 38.5484 58.1152C38.619 58.1369 38.686 58.1683 38.7474 58.2084C38.9334 58.3429 38.9662 58.6321 39.1772 58.7274C39.2534 58.7534 39.3355 58.7584 39.4145 58.742C39.4934 58.7255 39.5661 58.6882 39.6245 58.6342C39.741 58.5256 39.8505 58.4103 39.9526 58.2889C40.1453 58.094 40.3983 57.965 40.6733 57.9214C40.927 57.8822 41.2102 57.9108 41.4158 57.7593C41.4999 57.6846 41.5782 57.6038 41.6499 57.5178C41.8022 57.3802 41.983 57.2755 42.1803 57.2107C42.7193 57.0044 43.289 56.8832 43.8677 56.8516C44.4068 56.823 44.9613 56.8707 45.4709 56.7012C45.6032 56.6615 45.7252 56.5946 45.8285 56.5053C45.9381 56.3905 46.0196 56.2533 46.0669 56.1038C46.2508 55.5835 46.287 55.025 46.1719 54.4865Z" fill="#FED04D"/>
<path d="M43.5331 51.5639C43.684 51.5502 43.836 51.5639 43.988 51.5639C44.1663 51.5639 44.3424 51.5216 44.5206 51.5205C44.8029 51.525 45.0763 51.6167 45.301 51.7823C45.5257 51.9478 45.6898 52.1786 45.7695 52.4409C45.7845 52.4828 45.7872 52.5279 45.7772 52.5712C45.7713 52.5926 45.7577 52.6112 45.7388 52.6236C45.7199 52.6361 45.6971 52.6415 45.6744 52.639C45.6152 52.4824 45.5378 52.3328 45.4436 52.1931C45.2741 51.969 45.0325 51.8058 44.7569 51.7292C44.482 51.6537 44.1924 51.6436 43.9126 51.6995C43.7956 51.7207 43.6818 51.7503 43.5681 51.7811L43.0213 51.9272C42.9207 51.9537 42.819 51.9802 42.7217 52.0151C42.6462 52.0427 42.5172 52.1433 42.4428 52.1475C42.3422 52.1475 42.4231 52.0628 42.4679 52.0056C42.5572 51.8877 42.6822 51.7996 42.8256 51.7535C43.0528 51.6634 43.2903 51.5997 43.5331 51.5639Z" fill="#FED04D"/>
<path d="M44.913 57.52C45.0453 57.9309 45.1776 58.343 45.3439 58.7423C45.641 59.4367 46.0154 60.0976 46.4604 60.7134C46.7471 61.119 47.0552 61.51 47.3834 61.8849C47.7935 62.3541 48.2518 62.8265 48.3983 63.4249C48.4825 63.7723 48.4541 64.1335 48.4891 64.4841C48.5241 64.8347 48.6433 65.2128 48.9385 65.4246C49.1507 65.575 49.4208 65.6206 49.68 65.6608C49.8648 65.6894 50.0967 65.699 50.194 65.5433C50.227 65.4794 50.2446 65.4092 50.2454 65.3378L50.2891 64.8198C50.299 64.7076 50.3405 64.5646 50.4554 64.5593C50.5702 64.554 50.6303 64.7033 50.7288 64.7711C50.86 64.8601 51.0568 64.7711 51.129 64.6366C51.1885 64.4909 51.1923 64.3294 51.14 64.1812C51.0599 63.8865 50.9166 63.6115 50.7193 63.3743C50.522 63.137 50.2751 62.9427 49.995 62.8042C49.8 62.7279 49.6129 62.6339 49.4361 62.5235C49.2568 62.3727 49.1084 62.1905 48.9987 61.9865C47.9827 60.3692 46.9624 58.7423 46.2472 56.9798C46.1061 56.6653 46.0104 56.3335 45.9628 55.9937C45.9289 55.6473 45.9836 55.2989 46.0077 54.9515C46.0501 54.3274 45.9903 53.7007 45.8305 53.0947C45.7957 52.9354 45.7336 52.7829 45.6468 52.6435C45.3526 52.2092 44.6625 52.1457 44.2251 52.4444C44.0639 52.5643 43.9302 52.7154 43.8325 52.8881C43.7347 53.0608 43.6752 53.2513 43.6575 53.4474C43.6258 53.7991 43.8358 54.1634 43.9408 54.4907C44.2637 55.5019 44.5878 56.5116 44.913 57.52Z" fill="#A1616A"/>
<path d="M51.0327 48.4662C51.0491 48.3009 50.896 48.1484 50.7221 48.0425C50.539 47.9516 50.3632 47.8475 50.1961 47.7311C50.0408 47.6008 49.9555 47.4314 49.8002 47.3011C49.6237 47.1709 49.4233 47.0742 49.2097 47.0162C48.7553 46.8619 48.2782 46.7792 47.7968 46.7715C47.3101 46.7715 46.8125 46.8774 46.4462 47.1178C46.3558 47.1729 46.2777 47.2449 46.2165 47.3297C46.1587 47.4314 46.1216 47.5428 46.1071 47.658C46.0198 48.0134 45.9017 48.361 45.7539 48.6971C45.6019 49.071 45.44 49.4586 45.0824 49.7478C44.6997 50.056 44.1146 50.2339 43.862 50.6068C43.834 50.6399 43.8144 50.6789 43.8048 50.7206C43.7951 50.7623 43.7956 50.8057 43.8062 50.8472C43.8423 50.9415 43.9582 51.0061 44.0654 51.0654C44.6865 51.4107 45.2224 51.8587 45.498 52.3936C45.7736 52.9285 45.7659 53.5587 45.3733 54.0512C45.229 54.2334 45.0299 54.4495 45.171 54.6327C45.3897 54.9113 46.1214 54.7513 46.292 55.0458C46.3455 55.1401 46.3138 55.247 46.3138 55.3498C46.3138 55.6591 46.6211 55.9334 46.9941 56.0764C47.367 56.2194 47.7989 56.2533 48.2189 56.2713C48.3304 56.0286 48.3413 55.7537 48.2495 55.5034C48.2215 55.4494 48.2105 55.3886 48.2178 55.3286C48.2491 55.2619 48.2977 55.2043 48.3589 55.1613C48.8072 54.7503 48.7121 54.1466 48.4431 53.6583C48.174 53.17 47.7541 52.7241 47.5977 52.2104C47.5201 51.9551 47.5201 51.6681 47.729 51.4562C47.8488 51.3544 47.9781 51.2632 48.115 51.184C48.3596 51.0232 48.548 50.7942 48.6552 50.5273C48.781 50.1895 48.7646 49.7859 49.1299 49.5582C49.4809 49.3464 49.9741 49.4078 50.3623 49.2627C50.6609 49.1483 51.0087 48.7087 51.0327 48.4662Z" fill="#464353"/>
<path d="M72.2378 65.0625C70.5701 64.3942 70.0802 63.9112 70.0802 62.9441C70.0802 62.2027 70.417 61.3469 71.8934 61.3469C72.7095 61.3353 73.5112 61.5563 74.1987 61.9824L74.6788 60.7527C74.1221 60.4349 73.3369 60.1394 72.1864 60.1024V58.3018H71.2164V60.1765C69.4524 60.4551 68.431 61.6244 68.431 63.1655C68.431 64.7808 69.4153 65.6355 71.375 66.378C72.7945 66.9383 73.537 67.5696 73.537 68.5906C73.537 69.6498 72.6173 70.4103 71.2558 70.4103C70.183 70.4103 68.9669 70.0576 68.2768 69.6117L67.8164 70.8552C68.4879 71.3201 69.6383 71.6538 70.7495 71.6728V73.5476H72.3997V71.6167C74.3682 71.299 75.4279 69.922 75.4279 68.4604C75.4279 66.808 74.2129 65.8421 72.2378 65.0625Z" fill="url(#paint1_linear_290_1309)"/>
<path d="M70.7543 73.1235V71.2488C69.6432 71.2297 68.4928 70.8961 67.8213 70.4311L68.2817 69.1876C68.9718 69.6335 70.1878 69.9862 71.2607 69.9862C72.6222 69.9862 73.5376 69.2257 73.5376 68.1666C73.5376 67.1455 72.7906 66.5142 71.3711 65.9571C69.4158 65.2157 68.4271 64.3599 68.4271 62.7446C68.4271 61.2035 69.4486 60.0342 71.2126 59.7556V57.8809H72.1826V59.6815C73.3331 59.7185 74.1183 60.0151 74.6749 60.3318L74.1948 61.5562C73.5073 61.1301 72.7056 60.9091 71.8895 60.9207C70.4131 60.9207 70.0763 61.7755 70.0763 62.5179C70.0763 63.4829 70.5662 63.9658 72.234 64.6363C74.209 65.4159 75.424 66.3818 75.424 68.0342C75.424 69.5011 74.3698 70.8749 72.3958 71.1905V73.1235H70.7543Z" fill="#FED04D"/>
</g>
<defs>
<linearGradient id="paint0_linear_290_1309" x1="42.0302" y1="45.0214" x2="42.0302" y2="24.8017" gradientUnits="userSpaceOnUse">
<stop stop-color="#808080" stop-opacity="0.25"/>
<stop offset="0.54" stop-color="#808080" stop-opacity="0.12"/>
<stop offset="1" stop-color="#808080" stop-opacity="0.1"/>
</linearGradient>
<linearGradient id="paint1_linear_290_1309" x1="67.8208" y1="65.9257" x2="75.4279" y2="65.9257" gradientUnits="userSpaceOnUse">
<stop stop-color="#808080" stop-opacity="0.25"/>
<stop offset="0.54" stop-color="#808080" stop-opacity="0.12"/>
<stop offset="1" stop-color="#808080" stop-opacity="0.1"/>
</linearGradient>
<clipPath id="clip0_290_1309">
<rect width="128.807" height="76.8075" fill="white" transform="translate(8.58691)"/>
</clipPath>
</defs>
</svg>
