<svg width="2905" height="182" viewBox="0 0 2905 182" fill="none" xmlns="http://www.w3.org/2000/svg">
<path d="M2905 0V182H0V0L2905 0Z" fill="#5B6366"/>
<path opacity="0.5" d="M1803.51 68.0967H1666.07V58.6646H1803.51V68.0967Z" fill="white"/>
<path opacity="0.5" d="M1522.67 58.5762H1397.94V68.0083H1522.67V58.5762Z" fill="white"/>
<path opacity="0.5" d="M1253.97 58.5762H1111.37V68.0083H1253.97V58.5762Z" fill="white"/>
<path opacity="0.5" d="M967.286 58.4878H836.83V67.9199H967.286V58.4878Z" fill="white"/>
<path opacity="0.5" d="M2904.57 68.025H2783.55V58.9873H2904.57V68.025Z" fill="white"/>
<path opacity="0.5" d="M2639.74 58.5762H2515.01V68.0083H2639.74V58.5762Z" fill="white"/>
<path opacity="0.5" d="M2371.03 58.5762H2228.44V68.0083H2371.03V58.5762Z" fill="white"/>
<path opacity="0.5" d="M2084.35 58.4878H1953.9V67.9199H2084.35V58.4878Z" fill="white"/>
<path opacity="0.5" d="M692.171 58.3999H547.627V67.832H692.171V58.3999Z" fill="white"/>
<path opacity="0.5" d="M401.711 67.7439H242.277V58.2236H401.825L401.711 67.7439Z" fill="white"/>
<path opacity="0.5" d="M66.0116 68.2845H0V58.2427H66.0116V68.2845Z" fill="white"/>
</svg>
