<svg width="54" height="54" viewBox="0 0 54 54" fill="none" xmlns="http://www.w3.org/2000/svg">
<path d="M26.9998 6.1875C18.6973 6.1875 11.9248 12.96 11.9248 21.2625C11.9248 31.5675 25.4248 46.7325 25.9873 47.3625C26.5273 47.97 27.4723 47.97 28.0123 47.3625C28.5973 46.7325 42.0748 31.5675 42.0748 21.2625C42.0748 12.96 35.3023 6.1875 26.9998 6.1875Z" fill="#FF0000" stroke="#FF0000" stroke-width="1.5" stroke-linecap="round" stroke-linejoin="round"/>
<path d="M27.8658 26.5168C30.7743 26.0538 32.7568 23.3206 32.2939 20.4121C31.8309 17.5036 29.0978 15.521 26.1892 15.984C23.2807 16.447 21.2982 19.1801 21.7611 22.0886C22.2241 24.9972 24.9572 26.9797 27.8658 26.5168Z" fill="white"/>
</svg>
