<svg width="16" height="8" viewBox="0 0 16 8" fill="none" xmlns="http://www.w3.org/2000/svg">
<g clip-path="url(#clip0_197_505)">
<path d="M11.9278 8.00016C12.5211 8.00016 13.0021 7.52355 13.0021 6.93563C13.0021 6.3477 12.5211 5.87109 11.9278 5.87109C11.3345 5.87109 10.8535 6.3477 10.8535 6.93563C10.8535 7.52355 11.3345 8.00016 11.9278 8.00016Z" fill="#FED04D"/>
<path d="M4.08599 8.00016C4.6793 8.00016 5.16027 7.52355 5.16027 6.93563C5.16027 6.3477 4.6793 5.87109 4.08599 5.87109C3.49269 5.87109 3.01172 6.3477 3.01172 6.93563C3.01172 7.52355 3.49269 8.00016 4.08599 8.00016Z" fill="#FED04D"/>
<path d="M14.6249 2.64192H11.7663C11.4364 2.6438 11.116 2.53223 10.8598 2.32625C10.6036 2.12026 10.4274 1.83259 10.3612 1.51228C10.2763 1.08611 10.0448 0.702361 9.7061 0.426551C9.36743 0.150742 8.94265 -2.307e-05 8.50429 2.64785e-09C8.50429 2.64785e-09 2.42379 2.64785e-09 1.91571 2.64785e-09C1.40763 2.64785e-09 0.920365 0.200003 0.561099 0.556012C0.201833 0.912021 0 1.39487 0 1.89834C0 2.40182 0 5.82524 0 5.82524C0.00152434 6.18535 0.146954 6.53019 0.404457 6.78428C0.66196 7.03838 1.01056 7.18104 1.37396 7.18104H2.27188C2.3369 7.18074 2.39918 7.15501 2.44515 7.10945C2.49113 7.06389 2.51709 7.00218 2.5174 6.93775C2.51245 6.73014 2.54954 6.52366 2.62645 6.33049C2.70337 6.13732 2.81857 5.96138 2.96525 5.81305C3.11192 5.66473 3.2871 5.54703 3.48043 5.4669C3.67377 5.38678 3.88135 5.34585 4.09091 5.34654C4.30048 5.34723 4.50778 5.38951 4.70058 5.4709C4.89337 5.55229 5.06776 5.67114 5.21344 5.82042C5.35912 5.9697 5.47314 6.1464 5.54877 6.34007C5.6244 6.53374 5.6601 6.74046 5.65377 6.94803C5.65407 7.01034 5.67919 7.07001 5.72365 7.11408C5.76812 7.15814 5.82834 7.18302 5.89122 7.18332H10.1215C10.1533 7.18318 10.1848 7.17674 10.214 7.16436C10.2433 7.15198 10.2698 7.13393 10.2919 7.11126C10.314 7.08859 10.3314 7.06176 10.3429 7.03235C10.3544 7.00295 10.3598 6.97156 10.3589 6.94003C10.354 6.73243 10.391 6.52594 10.468 6.33277C10.5449 6.1396 10.6601 5.96366 10.8068 5.81534C10.9534 5.66701 11.1286 5.54931 11.3219 5.46919C11.5153 5.38906 11.7229 5.34814 11.9324 5.34882C12.142 5.34951 12.3493 5.3918 12.5421 5.47319C12.7349 5.55458 12.9093 5.67342 13.055 5.82271C13.2006 5.97199 13.3147 6.14868 13.3903 6.34235C13.4659 6.53602 13.5016 6.74274 13.4953 6.95031C13.4956 7.01282 13.5209 7.07267 13.5656 7.11676C13.6103 7.16086 13.6708 7.18561 13.7339 7.18561H14.6249C14.8053 7.18576 14.984 7.15069 15.1508 7.08241C15.3175 7.01412 15.4691 6.91396 15.5968 6.78764C15.7245 6.66132 15.8258 6.51131 15.895 6.34618C15.9642 6.18105 15.9998 6.00404 16 5.82524V4.00343C16 3.82453 15.9644 3.6474 15.8953 3.48214C15.8262 3.31688 15.7249 3.16673 15.5972 3.04029C15.4695 2.91385 15.3179 2.81358 15.151 2.74523C14.9842 2.67687 14.8054 2.64177 14.6249 2.64192Z" fill="#FED04D"/>
</g>
<defs>
<clipPath id="clip0_197_505">
<rect width="16" height="8" fill="white"/>
</clipPath>
</defs>
</svg>
