<svg width="32" height="16" viewBox="0 0 32 16" fill="none" xmlns="http://www.w3.org/2000/svg">
<g clip-path="url(#clip0_290_1530)">
<path d="M23.8556 16.0003C25.0422 16.0003 26.0041 15.0471 26.0041 13.8713C26.0041 12.6954 25.0422 11.7422 23.8556 11.7422C22.669 11.7422 21.707 12.6954 21.707 13.8713C21.707 15.0471 22.669 16.0003 23.8556 16.0003Z" fill="#FED04D"/>
<path d="M8.17199 16.0003C9.3586 16.0003 10.3205 15.0471 10.3205 13.8713C10.3205 12.6954 9.3586 11.7422 8.17199 11.7422C6.98538 11.7422 6.02344 12.6954 6.02344 13.8713C6.02344 15.0471 6.98538 16.0003 8.17199 16.0003Z" fill="#FED04D"/>
<path d="M29.2498 5.28384H23.5326C22.8727 5.2876 22.232 5.06447 21.7195 4.65249C21.2071 4.24051 20.8547 3.66518 20.7224 3.02456C20.5526 2.17222 20.0895 1.40472 19.4122 0.853102C18.7349 0.301483 17.8853 -4.61401e-05 17.0086 5.29571e-09C17.0086 5.29571e-09 4.84758 5.29571e-09 3.83142 5.29571e-09C2.81527 5.29571e-09 1.84073 0.400007 1.1222 1.11202C0.403667 1.82404 0 2.78974 0 3.79669C0 4.80363 0 11.6505 0 11.6505C0.00304867 12.3707 0.293907 13.0604 0.808914 13.5686C1.32392 14.0768 2.02113 14.3621 2.74793 14.3621H4.54376C4.67381 14.3615 4.79835 14.31 4.89031 14.2189C4.98226 14.1278 5.03419 14.0044 5.0348 13.8755C5.02491 13.4603 5.09907 13.0473 5.25291 12.661C5.40675 12.2746 5.63714 11.9228 5.93049 11.6261C6.22384 11.3295 6.57419 11.0941 6.96087 10.9338C7.34754 10.7736 7.7627 10.6917 8.18183 10.6931C8.60095 10.6945 9.01556 10.779 9.40115 10.9418C9.78675 11.1046 10.1355 11.3423 10.4269 11.6408C10.7182 11.9394 10.9463 12.2928 11.0975 12.6801C11.2488 13.0675 11.3202 13.4809 11.3075 13.8961C11.3081 14.0207 11.3584 14.14 11.4473 14.2282C11.5362 14.3163 11.6567 14.366 11.7824 14.3666H20.2429C20.3066 14.3664 20.3695 14.3535 20.4281 14.3287C20.4866 14.304 20.5396 14.2679 20.5838 14.2225C20.6281 14.1772 20.6627 14.1235 20.6858 14.0647C20.7088 14.0059 20.7197 13.9431 20.7178 13.8801C20.7079 13.4649 20.7821 13.0519 20.9359 12.6655C21.0898 12.2792 21.3202 11.9273 21.6135 11.6307C21.9069 11.334 22.2572 11.0986 22.6439 10.9384C23.0306 10.7781 23.4457 10.6963 23.8648 10.6976C24.284 10.699 24.6986 10.7836 25.0842 10.9464C25.4698 11.1092 25.8185 11.3468 26.1099 11.6454C26.4013 11.944 26.6293 12.2974 26.7806 12.6847C26.9318 13.072 27.0032 13.4855 26.9906 13.9006C26.9912 14.0256 27.0417 14.1453 27.1311 14.2335C27.2206 14.3217 27.3416 14.3712 27.4678 14.3712H29.2498C29.6106 14.3715 29.968 14.3014 30.3015 14.1648C30.635 14.0282 30.9381 13.8279 31.1935 13.5753C31.4489 13.3226 31.6516 13.0226 31.7899 12.6924C31.9283 12.3621 31.9997 12.0081 32 11.6505V8.00685C32 7.64907 31.9288 7.29479 31.7906 6.96427C31.6524 6.63375 31.4498 6.33347 31.1943 6.08058C30.9389 5.8277 30.6357 5.62717 30.3021 5.49046C29.9684 5.35375 29.6108 5.28354 29.2498 5.28384Z" fill="#FED04D"/>
</g>
<defs>
<clipPath id="clip0_290_1530">
<rect width="32" height="16" fill="white"/>
</clipPath>
</defs>
</svg>
