<svg width="114" height="30" viewBox="0 0 114 30" fill="none" xmlns="http://www.w3.org/2000/svg">
<path d="M19.2775 20.5059C20.0748 20.5059 20.7211 19.8498 20.7211 19.0406C20.7211 18.2313 20.0748 17.5752 19.2775 17.5752C18.4803 17.5752 17.834 18.2313 17.834 19.0406C17.834 19.8498 18.4803 20.5059 19.2775 20.5059Z" fill="#FED04D"/>
<path d="M8.74141 20.5059C9.53866 20.5059 10.185 19.8498 10.185 19.0406C10.185 18.2313 9.53866 17.5752 8.74141 17.5752C7.94415 17.5752 7.29785 18.2313 7.29785 19.0406C7.29785 19.8498 7.94415 20.5059 8.74141 20.5059Z" fill="#FED04D"/>
<path d="M22.9022 13.1308H19.061C18.6176 13.1334 18.1871 12.9798 17.8428 12.6963C17.4985 12.4127 17.2618 12.0167 17.1729 11.5758C17.0588 10.9892 16.7477 10.461 16.2926 10.0813C15.8375 9.70164 15.2667 9.49411 14.6776 9.49414C14.6776 9.49414 6.50697 9.49414 5.82424 9.49414C5.14151 9.49414 4.48674 9.76945 4.00398 10.2595C3.52121 10.7496 3.25 11.4142 3.25 12.1073C3.25 12.8003 3.25 17.5127 3.25 17.5127C3.25205 18.0084 3.44747 18.4831 3.79349 18.8329C4.13951 19.1826 4.60794 19.379 5.09626 19.379H6.30284C6.39021 19.3786 6.47389 19.3432 6.53567 19.2805C6.59746 19.2178 6.63235 19.1328 6.63275 19.0441C6.62611 18.7583 6.67594 18.4741 6.7793 18.2082C6.88266 17.9423 7.03746 17.7001 7.23455 17.4959C7.43164 17.2918 7.66704 17.1298 7.92683 17.0195C8.18663 16.9092 8.46556 16.8528 8.74716 16.8538C9.02877 16.8547 9.30733 16.9129 9.5664 17.025C9.82547 17.137 10.0598 17.3006 10.2556 17.5061C10.4513 17.7116 10.6045 17.9548 10.7062 18.2214C10.8078 18.488 10.8558 18.7725 10.8473 19.0583C10.8477 19.144 10.8814 19.2262 10.9412 19.2868C11.0009 19.3475 11.0818 19.3817 11.1663 19.3822H16.8507C16.8935 19.382 16.9358 19.3731 16.9751 19.3561C17.0145 19.339 17.05 19.3142 17.0798 19.283C17.1095 19.2518 17.1328 19.2148 17.1482 19.1743C17.1637 19.1339 17.171 19.0907 17.1698 19.0473C17.1631 18.7615 17.213 18.4773 17.3163 18.2114C17.4197 17.9455 17.5745 17.7033 17.7716 17.4991C17.9687 17.2949 18.2041 17.1329 18.4639 17.0226C18.7237 16.9123 19.0026 16.856 19.2842 16.8569C19.5658 16.8579 19.8444 16.9161 20.1034 17.0281C20.3625 17.1402 20.5968 17.3037 20.7926 17.5092C20.9884 17.7147 21.1416 17.9579 21.2432 18.2245C21.3448 18.4911 21.3928 18.7757 21.3843 19.0614C21.3847 19.1475 21.4187 19.2298 21.4787 19.2905C21.5388 19.3512 21.6201 19.3853 21.7049 19.3853H22.9022C23.1446 19.3855 23.3848 19.3372 23.6088 19.2432C23.8329 19.1493 24.0366 19.0114 24.2081 18.8375C24.3797 18.6636 24.5159 18.4571 24.6089 18.2298C24.7018 18.0025 24.7498 17.7588 24.75 17.5127V15.005C24.75 14.7587 24.7022 14.5149 24.6093 14.2874C24.5164 14.0599 24.3803 13.8532 24.2087 13.6792C24.0371 13.5051 23.8334 13.3671 23.6092 13.273C23.385 13.1789 23.1448 13.1306 22.9022 13.1308Z" fill="#FED04D"/>
<path d="M32.676 21V12.04H29.904V10.57H37.044V12.04H34.314V21H32.676ZM37.2912 21V13.426H38.8032V14.952L38.6632 14.728C38.8312 14.2333 39.1019 13.8787 39.4752 13.664C39.8485 13.44 40.2965 13.328 40.8192 13.328H41.2812V14.77H40.6232C40.1005 14.77 39.6759 14.9333 39.3492 15.26C39.0319 15.5773 38.8732 16.0347 38.8732 16.632V21H37.2912ZM44.6315 21.168C44.1181 21.168 43.6655 21.0793 43.2735 20.902C42.8908 20.7153 42.5921 20.4633 42.3775 20.146C42.1628 19.8193 42.0555 19.4367 42.0555 18.998C42.0555 18.5873 42.1441 18.2187 42.3215 17.892C42.5081 17.5653 42.7928 17.29 43.1755 17.066C43.5581 16.842 44.0388 16.6833 44.6175 16.59L47.2495 16.156V17.402L44.9255 17.808C44.5055 17.8827 44.1975 18.018 44.0015 18.214C43.8055 18.4007 43.7075 18.6433 43.7075 18.942C43.7075 19.2313 43.8148 19.4693 44.0295 19.656C44.2535 19.8333 44.5381 19.922 44.8835 19.922C45.3128 19.922 45.6861 19.8287 46.0035 19.642C46.3301 19.4553 46.5821 19.208 46.7595 18.9C46.9368 18.5827 47.0255 18.2327 47.0255 17.85V15.904C47.0255 15.5307 46.8855 15.2273 46.6055 14.994C46.3348 14.7513 45.9708 14.63 45.5135 14.63C45.0935 14.63 44.7248 14.742 44.4075 14.966C44.0995 15.1807 43.8708 15.4607 43.7215 15.806L42.4055 15.148C42.5455 14.7747 42.7741 14.448 43.0915 14.168C43.4088 13.8787 43.7775 13.6547 44.1975 13.496C44.6268 13.3373 45.0795 13.258 45.5555 13.258C46.1528 13.258 46.6801 13.37 47.1375 13.594C47.6041 13.818 47.9635 14.1307 48.2155 14.532C48.4768 14.924 48.6075 15.3813 48.6075 15.904V21H47.0955V19.628L47.4175 19.67C47.2401 19.978 47.0115 20.244 46.7315 20.468C46.4608 20.692 46.1481 20.8647 45.7935 20.986C45.4481 21.1073 45.0608 21.168 44.6315 21.168ZM50.4572 21V13.426H51.9692V14.91L51.7872 14.714C51.9739 14.238 52.2725 13.8787 52.6832 13.636C53.0939 13.384 53.5699 13.258 54.1112 13.258C54.6712 13.258 55.1659 13.3793 55.5952 13.622C56.0245 13.8647 56.3605 14.2007 56.6032 14.63C56.8459 15.0593 56.9672 15.554 56.9672 16.114V21H55.3992V16.534C55.3992 16.1513 55.3292 15.8293 55.1892 15.568C55.0492 15.2973 54.8485 15.092 54.5872 14.952C54.3352 14.8027 54.0459 14.728 53.7192 14.728C53.3925 14.728 53.0985 14.8027 52.8372 14.952C52.5852 15.092 52.3892 15.2973 52.2492 15.568C52.1092 15.8387 52.0392 16.1607 52.0392 16.534V21H50.4572ZM61.4603 21.168C60.6857 21.168 60.0043 20.9767 59.4163 20.594C58.8377 20.2113 58.4317 19.698 58.1983 19.054L59.4163 18.48C59.6217 18.9093 59.9017 19.25 60.2563 19.502C60.6203 19.754 61.0217 19.88 61.4603 19.88C61.8337 19.88 62.137 19.796 62.3703 19.628C62.6037 19.46 62.7203 19.2313 62.7203 18.942C62.7203 18.7553 62.669 18.606 62.5663 18.494C62.4637 18.3727 62.333 18.2747 62.1743 18.2C62.025 18.1253 61.871 18.0693 61.7123 18.032L60.5223 17.696C59.869 17.5093 59.379 17.2293 59.0523 16.856C58.735 16.4733 58.5763 16.03 58.5763 15.526C58.5763 15.0687 58.693 14.672 58.9263 14.336C59.1597 13.9907 59.4817 13.7247 59.8923 13.538C60.303 13.3513 60.765 13.258 61.2783 13.258C61.969 13.258 62.585 13.4307 63.1263 13.776C63.6677 14.112 64.0503 14.5833 64.2743 15.19L63.0563 15.764C62.907 15.4 62.669 15.1107 62.3423 14.896C62.025 14.6813 61.6657 14.574 61.2643 14.574C60.919 14.574 60.6437 14.658 60.4383 14.826C60.233 14.9847 60.1303 15.1947 60.1303 15.456C60.1303 15.6333 60.177 15.7827 60.2703 15.904C60.3637 16.016 60.485 16.1093 60.6343 16.184C60.7837 16.2493 60.9377 16.3053 61.0963 16.352L62.3283 16.716C62.9537 16.8933 63.4343 17.1733 63.7703 17.556C64.1063 17.9293 64.2743 18.3773 64.2743 18.9C64.2743 19.348 64.153 19.7447 63.9103 20.09C63.677 20.426 63.3503 20.692 62.9303 20.888C62.5103 21.0747 62.0203 21.168 61.4603 21.168ZM69.1004 21.084C68.3071 21.084 67.6911 20.86 67.2524 20.412C66.8137 19.964 66.5944 19.334 66.5944 18.522V14.854H65.2644V13.426H65.4744C65.8291 13.426 66.1044 13.3233 66.3004 13.118C66.4964 12.9127 66.5944 12.6327 66.5944 12.278V11.69H68.1764V13.426H69.8984V14.854H68.1764V18.452C68.1764 18.7133 68.2184 18.9373 68.3024 19.124C68.3864 19.3013 68.5217 19.4413 68.7084 19.544C68.8951 19.6373 69.1377 19.684 69.4364 19.684C69.5111 19.684 69.5951 19.6793 69.6884 19.67C69.7817 19.6607 69.8704 19.6513 69.9544 19.642V21C69.8237 21.0187 69.6791 21.0373 69.5204 21.056C69.3617 21.0747 69.2217 21.084 69.1004 21.084ZM74.2002 21.168C73.6309 21.168 73.1316 21.042 72.7022 20.79C72.2729 20.5287 71.9369 20.1693 71.6942 19.712C71.4609 19.2453 71.3442 18.7087 71.3442 18.102V13.426H72.9262V17.962C72.9262 18.3073 72.9962 18.6107 73.1362 18.872C73.2762 19.1333 73.4722 19.3387 73.7242 19.488C73.9762 19.628 74.2656 19.698 74.5922 19.698C74.9282 19.698 75.2222 19.6233 75.4742 19.474C75.7262 19.3247 75.9222 19.1147 76.0622 18.844C76.2116 18.5733 76.2862 18.256 76.2862 17.892V13.426H77.8542V21H76.3562V19.516L76.5242 19.712C76.3469 20.1787 76.0529 20.538 75.6422 20.79C75.2316 21.042 74.7509 21.168 74.2002 21.168ZM83.2013 21.168C82.4733 21.168 81.82 20.9953 81.2413 20.65C80.672 20.2953 80.2193 19.8193 79.8833 19.222C79.5567 18.6247 79.3933 17.9527 79.3933 17.206C79.3933 16.4593 79.5613 15.7873 79.8973 15.19C80.2333 14.5927 80.686 14.1213 81.2553 13.776C81.8247 13.4307 82.4687 13.258 83.1873 13.258C83.794 13.258 84.3307 13.3793 84.7973 13.622C85.264 13.8647 85.6327 14.2007 85.9033 14.63L85.6653 14.994V10.402H87.2333V21H85.7353V19.46L85.9173 19.754C85.656 20.2113 85.2827 20.5613 84.7973 20.804C84.312 21.0467 83.78 21.168 83.2013 21.168ZM83.3553 19.698C83.794 19.698 84.186 19.5907 84.5313 19.376C84.886 19.1613 85.1613 18.8673 85.3573 18.494C85.5627 18.1113 85.6653 17.682 85.6653 17.206C85.6653 16.73 85.5627 16.3053 85.3573 15.932C85.1613 15.5587 84.886 15.2647 84.5313 15.05C84.186 14.8353 83.794 14.728 83.3553 14.728C82.9167 14.728 82.52 14.8353 82.1653 15.05C81.8107 15.2647 81.5353 15.5587 81.3393 15.932C81.1433 16.3053 81.0453 16.73 81.0453 17.206C81.0453 17.682 81.1433 18.1113 81.3393 18.494C81.5353 18.8673 81.806 19.1613 82.1513 19.376C82.506 19.5907 82.9073 19.698 83.3553 19.698ZM92.6363 21.168C91.8803 21.168 91.2083 20.9953 90.6203 20.65C90.0416 20.2953 89.5889 19.8193 89.2623 19.222C88.9356 18.6153 88.7723 17.9387 88.7723 17.192C88.7723 16.4267 88.9356 15.75 89.2623 15.162C89.5983 14.574 90.0463 14.112 90.6063 13.776C91.1663 13.4307 91.8009 13.258 92.5103 13.258C93.0796 13.258 93.5883 13.356 94.0363 13.552C94.4843 13.748 94.8623 14.0187 95.1703 14.364C95.4783 14.7 95.7116 15.0873 95.8702 15.526C96.0383 15.9647 96.1223 16.4313 96.1223 16.926C96.1223 17.0473 96.1176 17.1733 96.1083 17.304C96.0989 17.4347 96.0803 17.556 96.0523 17.668H90.0183V16.408H95.1562L94.4003 16.982C94.4936 16.5247 94.4609 16.1187 94.3023 15.764C94.1529 15.4 93.9196 15.1153 93.6023 14.91C93.2943 14.6953 92.9303 14.588 92.5103 14.588C92.0903 14.588 91.7169 14.6953 91.3903 14.91C91.0636 15.1153 90.8116 15.414 90.6343 15.806C90.4569 16.1887 90.3869 16.6553 90.4243 17.206C90.3776 17.7193 90.4476 18.1673 90.6343 18.55C90.8303 18.9327 91.1009 19.2313 91.4463 19.446C91.8009 19.6607 92.2023 19.768 92.6503 19.768C93.1076 19.768 93.4949 19.6653 93.8123 19.46C94.1389 19.2547 94.3956 18.9887 94.5823 18.662L95.8702 19.292C95.7209 19.6467 95.4876 19.9687 95.1703 20.258C94.8623 20.538 94.4889 20.762 94.0503 20.93C93.6209 21.0887 93.1496 21.168 92.6363 21.168ZM97.6662 21V13.426H99.1782V14.91L98.9962 14.714C99.1829 14.238 99.4815 13.8787 99.8922 13.636C100.303 13.384 100.779 13.258 101.32 13.258C101.88 13.258 102.375 13.3793 102.804 13.622C103.234 13.8647 103.57 14.2007 103.812 14.63C104.055 15.0593 104.176 15.554 104.176 16.114V21H102.608V16.534C102.608 16.1513 102.538 15.8293 102.398 15.568C102.258 15.2973 102.058 15.092 101.796 14.952C101.544 14.8027 101.255 14.728 100.928 14.728C100.602 14.728 100.308 14.8027 100.046 14.952C99.7942 15.092 99.5982 15.2973 99.4582 15.568C99.3182 15.8387 99.2482 16.1607 99.2482 16.534V21H97.6662ZM109.145 21.084C108.352 21.084 107.736 20.86 107.297 20.412C106.859 19.964 106.639 19.334 106.639 18.522V14.854H105.309V13.426H105.519C105.874 13.426 106.149 13.3233 106.345 13.118C106.541 12.9127 106.639 12.6327 106.639 12.278V11.69H108.221V13.426H109.943V14.854H108.221V18.452C108.221 18.7133 108.263 18.9373 108.347 19.124C108.431 19.3013 108.567 19.4413 108.753 19.544C108.94 19.6373 109.183 19.684 109.481 19.684C109.556 19.684 109.64 19.6793 109.733 19.67C109.827 19.6607 109.915 19.6513 109.999 19.642V21C109.869 21.0187 109.724 21.0373 109.565 21.056C109.407 21.0747 109.267 21.084 109.145 21.084Z" fill="white"/>
</svg>
