<svg width="204" height="30" viewBox="0 0 204 30" fill="none" xmlns="http://www.w3.org/2000/svg">
<path d="M37.5644 25.4999C39.0847 25.4999 40.3172 24.2488 40.3172 22.7055C40.3172 21.1622 39.0847 19.9111 37.5644 19.9111C36.044 19.9111 34.8115 21.1622 34.8115 22.7055C34.8115 24.2488 36.044 25.4999 37.5644 25.4999Z" fill="#FED04D"/>
<path d="M17.4706 25.4999C18.9909 25.4999 20.2234 24.2488 20.2234 22.7055C20.2234 21.1622 18.9909 19.9111 17.4706 19.9111C15.9503 19.9111 14.7178 21.1622 14.7178 22.7055C14.7178 24.2488 15.9503 25.4999 17.4706 25.4999Z" fill="#FED04D"/>
<path d="M44.4763 11.435H37.1511C36.3057 11.44 35.4847 11.1471 34.8282 10.6064C34.1716 10.0657 33.7201 9.31054 33.5506 8.46973C33.3331 7.35104 32.7397 6.3437 31.8719 5.6197C31.004 4.8957 29.9155 4.49994 28.7922 4.5C28.7922 4.5 13.211 4.5 11.909 4.5C10.6071 4.5 9.35843 5.02501 8.43782 5.95953C7.5172 6.89405 7 8.16154 7 9.48315C7 10.8048 7 19.7913 7 19.7913C7.00391 20.7365 7.37657 21.6417 8.03642 22.3087C8.69627 22.9758 9.58957 23.3502 10.5208 23.3502H12.8217C12.9883 23.3494 13.1479 23.2819 13.2657 23.1623C13.3835 23.0427 13.4501 22.8807 13.4508 22.7116C13.4382 22.1666 13.5332 21.6246 13.7303 21.1175C13.9274 20.6105 14.2226 20.1486 14.5984 19.7593C14.9743 19.3699 15.4232 19.061 15.9186 18.8506C16.414 18.6403 16.946 18.5329 17.483 18.5347C18.02 18.5365 18.5512 18.6475 19.0452 18.8611C19.5393 19.0748 19.9861 19.3867 20.3594 19.7786C20.7328 20.1705 21.0249 20.6343 21.2187 21.1427C21.4125 21.6511 21.504 22.1937 21.4878 22.7386C21.4886 22.9021 21.5529 23.0588 21.6669 23.1744C21.7808 23.2901 21.9351 23.3554 22.0962 23.3562H32.9362C33.0178 23.3559 33.0985 23.3389 33.1735 23.3064C33.2485 23.274 33.3163 23.2266 33.373 23.1671C33.4297 23.1075 33.4741 23.0371 33.5036 22.9599C33.5331 22.8827 33.5471 22.8003 33.5447 22.7176C33.532 22.1726 33.6271 21.6306 33.8242 21.1235C34.0213 20.6165 34.3165 20.1546 34.6923 19.7653C35.0682 19.3759 35.5171 19.0669 36.0125 18.8566C36.5079 18.6463 37.0398 18.5389 37.5768 18.5407C38.1138 18.5425 38.6451 18.6535 39.1391 18.8671C39.6331 19.0808 40.08 19.3927 40.4533 19.7846C40.8266 20.1765 41.1188 20.6403 41.3126 21.1487C41.5064 21.6571 41.5979 22.1997 41.5817 22.7446C41.5824 22.9087 41.6472 23.0658 41.7618 23.1815C41.8764 23.2972 42.0314 23.3622 42.1931 23.3622H44.4763C44.9386 23.3626 45.3965 23.2706 45.8238 23.0913C46.2511 22.9121 46.6395 22.6491 46.9667 22.3176C47.2939 21.986 47.5536 21.5922 47.7309 21.1587C47.9082 20.7253 47.9996 20.2606 48 19.7913V15.009C48 14.5394 47.9088 14.0744 47.7317 13.6406C47.5546 13.2068 47.295 12.8127 46.9677 12.4808C46.6405 12.1489 46.252 11.8857 45.8245 11.7062C45.397 11.5268 44.9389 11.4346 44.4763 11.435Z" fill="#FED04D"/>
<path d="M63.016 25V9.64H58.264V7.12H70.504V9.64H65.824V25H63.016ZM70.9277 25V12.016H73.5198V14.632L73.2798 14.248C73.5678 13.4 74.0318 12.792 74.6718 12.424C75.3118 12.04 76.0798 11.848 76.9758 11.848H77.7678V14.32H76.6398C75.7438 14.32 75.0158 14.6 74.4558 15.16C73.9118 15.704 73.6398 16.488 73.6398 17.512V25H70.9277ZM83.5111 25.288C82.6311 25.288 81.8551 25.136 81.1831 24.832C80.5271 24.512 80.0151 24.08 79.6471 23.536C79.2791 22.976 79.0951 22.32 79.0951 21.568C79.0951 20.864 79.2471 20.232 79.5511 19.672C79.8711 19.112 80.3591 18.64 81.0151 18.256C81.6711 17.872 82.4951 17.6 83.4871 17.44L87.9991 16.696V18.832L84.0151 19.528C83.2951 19.656 82.7671 19.888 82.4311 20.224C82.0951 20.544 81.9271 20.96 81.9271 21.472C81.9271 21.968 82.1111 22.376 82.4791 22.696C82.8631 23 83.3511 23.152 83.9431 23.152C84.6791 23.152 85.3191 22.992 85.8631 22.672C86.4231 22.352 86.8551 21.928 87.1591 21.4C87.4631 20.856 87.6151 20.256 87.6151 19.6V16.264C87.6151 15.624 87.3751 15.104 86.8951 14.704C86.4311 14.288 85.8071 14.08 85.0231 14.08C84.3031 14.08 83.6711 14.272 83.1271 14.656C82.5991 15.024 82.2071 15.504 81.9511 16.096L79.6951 14.968C79.9351 14.328 80.3271 13.768 80.8711 13.288C81.4151 12.792 82.0471 12.408 82.7671 12.136C83.5031 11.864 84.2791 11.728 85.0951 11.728C86.1191 11.728 87.0231 11.92 87.8071 12.304C88.6071 12.688 89.2231 13.224 89.6551 13.912C90.1031 14.584 90.3271 15.368 90.3271 16.264V25H87.7351V22.648L88.2871 22.72C87.9831 23.248 87.5911 23.704 87.1111 24.088C86.6471 24.472 86.1111 24.768 85.5031 24.976C84.9111 25.184 84.2471 25.288 83.5111 25.288ZM93.4981 25V12.016H96.0901V14.56L95.7781 14.224C96.0981 13.408 96.6101 12.792 97.3141 12.376C98.0181 11.944 98.8341 11.728 99.7621 11.728C100.722 11.728 101.57 11.936 102.306 12.352C103.042 12.768 103.618 13.344 104.034 14.08C104.45 14.816 104.658 15.664 104.658 16.624V25H101.97V17.344C101.97 16.688 101.85 16.136 101.61 15.688C101.37 15.224 101.026 14.872 100.578 14.632C100.146 14.376 99.6501 14.248 99.0901 14.248C98.5301 14.248 98.0261 14.376 97.5781 14.632C97.1461 14.872 96.8101 15.224 96.5701 15.688C96.3301 16.152 96.2101 16.704 96.2101 17.344V25H93.4981ZM112.361 25.288C111.033 25.288 109.865 24.96 108.857 24.304C107.865 23.648 107.169 22.768 106.769 21.664L108.857 20.68C109.209 21.416 109.689 22 110.297 22.432C110.921 22.864 111.609 23.08 112.361 23.08C113.001 23.08 113.521 22.936 113.921 22.648C114.321 22.36 114.521 21.968 114.521 21.472C114.521 21.152 114.433 20.896 114.257 20.704C114.081 20.496 113.857 20.328 113.585 20.2C113.329 20.072 113.065 19.976 112.793 19.912L110.753 19.336C109.633 19.016 108.793 18.536 108.233 17.896C107.689 17.24 107.417 16.48 107.417 15.616C107.417 14.832 107.617 14.152 108.017 13.576C108.417 12.984 108.969 12.528 109.673 12.208C110.377 11.888 111.169 11.728 112.049 11.728C113.233 11.728 114.289 12.024 115.217 12.616C116.145 13.192 116.801 14 117.185 15.04L115.097 16.024C114.841 15.4 114.433 14.904 113.873 14.536C113.329 14.168 112.713 13.984 112.025 13.984C111.433 13.984 110.961 14.128 110.609 14.416C110.257 14.688 110.081 15.048 110.081 15.496C110.081 15.8 110.161 16.056 110.321 16.264C110.481 16.456 110.689 16.616 110.945 16.744C111.201 16.856 111.465 16.952 111.737 17.032L113.849 17.656C114.921 17.96 115.745 18.44 116.321 19.096C116.897 19.736 117.185 20.504 117.185 21.4C117.185 22.168 116.977 22.848 116.561 23.44C116.161 24.016 115.601 24.472 114.881 24.808C114.161 25.128 113.321 25.288 112.361 25.288ZM125.458 25.144C124.098 25.144 123.042 24.76 122.29 23.992C121.538 23.224 121.162 22.144 121.162 20.752V14.464H118.882V12.016H119.242C119.85 12.016 120.322 11.84 120.658 11.488C120.994 11.136 121.162 10.656 121.162 10.048V9.04H123.874V12.016H126.826V14.464H123.874V20.632C123.874 21.08 123.946 21.464 124.09 21.784C124.234 22.088 124.466 22.328 124.786 22.504C125.106 22.664 125.522 22.744 126.034 22.744C126.162 22.744 126.306 22.736 126.466 22.72C126.626 22.704 126.778 22.688 126.922 22.672V25C126.698 25.032 126.45 25.064 126.178 25.096C125.906 25.128 125.666 25.144 125.458 25.144ZM134.2 25.288C133.224 25.288 132.368 25.072 131.632 24.64C130.896 24.192 130.32 23.576 129.904 22.792C129.504 21.992 129.304 21.072 129.304 20.032V12.016H132.016V19.792C132.016 20.384 132.136 20.904 132.376 21.352C132.616 21.8 132.952 22.152 133.384 22.408C133.816 22.648 134.312 22.768 134.872 22.768C135.448 22.768 135.952 22.64 136.384 22.384C136.816 22.128 137.152 21.768 137.392 21.304C137.648 20.84 137.776 20.296 137.776 19.672V12.016H140.464V25H137.896V22.456L138.184 22.792C137.88 23.592 137.376 24.208 136.672 24.64C135.968 25.072 135.144 25.288 134.2 25.288ZM149.631 25.288C148.383 25.288 147.263 24.992 146.271 24.4C145.295 23.792 144.519 22.976 143.943 21.952C143.383 20.928 143.103 19.776 143.103 18.496C143.103 17.216 143.391 16.064 143.967 15.04C144.543 14.016 145.319 13.208 146.295 12.616C147.271 12.024 148.375 11.728 149.607 11.728C150.647 11.728 151.567 11.936 152.367 12.352C153.167 12.768 153.799 13.344 154.263 14.08L153.855 14.704V6.832H156.543V25H153.975V22.36L154.287 22.864C153.839 23.648 153.199 24.248 152.367 24.664C151.535 25.08 150.623 25.288 149.631 25.288ZM149.895 22.768C150.647 22.768 151.319 22.584 151.911 22.216C152.519 21.848 152.991 21.344 153.327 20.704C153.679 20.048 153.855 19.312 153.855 18.496C153.855 17.68 153.679 16.952 153.327 16.312C152.991 15.672 152.519 15.168 151.911 14.8C151.319 14.432 150.647 14.248 149.895 14.248C149.143 14.248 148.463 14.432 147.855 14.8C147.247 15.168 146.775 15.672 146.439 16.312C146.103 16.952 145.935 17.68 145.935 18.496C145.935 19.312 146.103 20.048 146.439 20.704C146.775 21.344 147.239 21.848 147.831 22.216C148.439 22.584 149.127 22.768 149.895 22.768ZM165.805 25.288C164.509 25.288 163.357 24.992 162.349 24.4C161.357 23.792 160.581 22.976 160.021 21.952C159.461 20.912 159.181 19.752 159.181 18.472C159.181 17.16 159.461 16 160.021 14.992C160.597 13.984 161.365 13.192 162.325 12.616C163.285 12.024 164.373 11.728 165.589 11.728C166.565 11.728 167.437 11.896 168.205 12.232C168.973 12.568 169.621 13.032 170.149 13.624C170.677 14.2 171.077 14.864 171.349 15.616C171.637 16.368 171.781 17.168 171.781 18.016C171.781 18.224 171.773 18.44 171.757 18.664C171.741 18.888 171.709 19.096 171.661 19.288H161.317V17.128H170.125L168.829 18.112C168.989 17.328 168.933 16.632 168.661 16.024C168.405 15.4 168.005 14.912 167.461 14.56C166.933 14.192 166.309 14.008 165.589 14.008C164.869 14.008 164.229 14.192 163.669 14.56C163.109 14.912 162.677 15.424 162.373 16.096C162.069 16.752 161.949 17.552 162.013 18.496C161.933 19.376 162.053 20.144 162.373 20.8C162.709 21.456 163.173 21.968 163.765 22.336C164.373 22.704 165.061 22.888 165.829 22.888C166.613 22.888 167.277 22.712 167.821 22.36C168.381 22.008 168.821 21.552 169.141 20.992L171.349 22.072C171.093 22.68 170.693 23.232 170.149 23.728C169.621 24.208 168.981 24.592 168.229 24.88C167.493 25.152 166.685 25.288 165.805 25.288ZM174.428 25V12.016H177.02V14.56L176.708 14.224C177.028 13.408 177.54 12.792 178.244 12.376C178.948 11.944 179.764 11.728 180.692 11.728C181.652 11.728 182.5 11.936 183.236 12.352C183.972 12.768 184.548 13.344 184.964 14.08C185.38 14.816 185.588 15.664 185.588 16.624V25H182.9V17.344C182.9 16.688 182.78 16.136 182.54 15.688C182.3 15.224 181.956 14.872 181.508 14.632C181.076 14.376 180.58 14.248 180.02 14.248C179.46 14.248 178.956 14.376 178.508 14.632C178.076 14.872 177.74 15.224 177.5 15.688C177.26 16.152 177.14 16.704 177.14 17.344V25H174.428ZM194.106 25.144C192.746 25.144 191.69 24.76 190.938 23.992C190.186 23.224 189.81 22.144 189.81 20.752V14.464H187.53V12.016H187.89C188.498 12.016 188.97 11.84 189.306 11.488C189.642 11.136 189.81 10.656 189.81 10.048V9.04H192.522V12.016H195.474V14.464H192.522V20.632C192.522 21.08 192.594 21.464 192.738 21.784C192.882 22.088 193.114 22.328 193.434 22.504C193.754 22.664 194.17 22.744 194.682 22.744C194.81 22.744 194.954 22.736 195.114 22.72C195.274 22.704 195.426 22.688 195.57 22.672V25C195.346 25.032 195.098 25.064 194.826 25.096C194.554 25.128 194.314 25.144 194.106 25.144Z" fill="white"/>
</svg>
