<svg width="318" height="240" viewBox="0 0 318 240" fill="none" xmlns="http://www.w3.org/2000/svg">
<path d="M209.266 0.5H297.721C308.491 0.5 317.221 9.23045 317.221 20V239.5H189.766V20C189.766 9.23044 198.496 0.5 209.266 0.5Z" fill="#333333" stroke="#616161"/>
<path d="M148.456 0.5H169.266C180.035 0.5 188.766 9.23045 188.766 20V239.5H128.956V20C128.956 9.23044 137.687 0.5 148.456 0.5Z" fill="#333333" stroke="#616161"/>
<path d="M20 0.5H108.456C119.225 0.5 127.956 9.23045 127.956 20V239.5H20C9.23044 239.5 0.5 230.77 0.5 220V20C0.5 9.23044 9.23045 0.5 20 0.5Z" fill="#333333" stroke="#616161"/>
<path d="M20 0.5H127.956V21.449H0.5V20C0.5 9.23044 9.23045 0.5 20 0.5Z" fill="#333333" stroke="#616161"/>
<rect x="128.956" y="0.5" width="59.8096" height="20.949" fill="#333333" stroke="#616161"/>
<path d="M189.5 0.5H298C308.77 0.5 317.5 9.23045 317.5 20V21.25H189.5V0.5Z" fill="#333333" stroke="#616161"/>
<rect x="16.9844" y="36.1846" width="93.913" height="32.024" rx="16.012" fill="#424242"/>
<path d="M36.3317 52.955V44.015H40.0997C40.6597 44.015 41.1437 44.115 41.5517 44.315C41.9597 44.507 42.2717 44.787 42.4877 45.155C42.7037 45.515 42.8117 45.943 42.8117 46.439C42.8117 46.871 42.6997 47.267 42.4757 47.627C42.2597 47.979 41.9197 48.259 41.4557 48.467V47.867C41.8637 48.027 42.1957 48.231 42.4517 48.479C42.7077 48.719 42.8917 48.991 43.0037 49.295C43.1237 49.599 43.1837 49.919 43.1837 50.255C43.1837 51.095 42.9077 51.755 42.3557 52.235C41.8117 52.715 41.0637 52.955 40.1117 52.955H36.3317ZM37.7477 51.695H40.2197C40.6917 51.695 41.0677 51.567 41.3477 51.311C41.6277 51.047 41.7677 50.699 41.7677 50.267C41.7677 49.827 41.6277 49.479 41.3477 49.223C41.0677 48.959 40.6917 48.827 40.2197 48.827H37.7477V51.695ZM37.7477 47.579H40.1357C40.5197 47.579 40.8277 47.471 41.0597 47.255C41.2917 47.031 41.4077 46.739 41.4077 46.379C41.4077 46.019 41.2917 45.739 41.0597 45.539C40.8277 45.339 40.5197 45.239 40.1357 45.239H37.7477V47.579ZM47.5563 53.099C46.9083 53.099 46.3323 52.951 45.8283 52.655C45.3323 52.351 44.9443 51.943 44.6643 51.431C44.3843 50.911 44.2443 50.331 44.2443 49.691C44.2443 49.035 44.3843 48.455 44.6643 47.951C44.9523 47.447 45.3363 47.051 45.8163 46.763C46.2963 46.467 46.8403 46.319 47.4483 46.319C47.9363 46.319 48.3723 46.403 48.7563 46.571C49.1403 46.739 49.4643 46.971 49.7283 47.267C49.9923 47.555 50.1923 47.887 50.3283 48.263C50.4723 48.639 50.5443 49.039 50.5443 49.463C50.5443 49.567 50.5403 49.675 50.5323 49.787C50.5243 49.899 50.5083 50.003 50.4843 50.099H45.3123V49.019H49.7163L49.0683 49.511C49.1483 49.119 49.1203 48.771 48.9843 48.467C48.8563 48.155 48.6563 47.911 48.3843 47.735C48.1203 47.551 47.8083 47.459 47.4483 47.459C47.0883 47.459 46.7683 47.551 46.4883 47.735C46.2083 47.911 45.9923 48.167 45.8403 48.503C45.6883 48.831 45.6283 49.231 45.6603 49.703C45.6203 50.143 45.6803 50.527 45.8403 50.855C46.0083 51.183 46.2403 51.439 46.5363 51.623C46.8403 51.807 47.1843 51.899 47.5683 51.899C47.9603 51.899 48.2923 51.811 48.5643 51.635C48.8443 51.459 49.0643 51.231 49.2243 50.951L50.3283 51.491C50.2003 51.795 50.0003 52.071 49.7283 52.319C49.4643 52.559 49.1443 52.751 48.7683 52.895C48.4003 53.031 47.9963 53.099 47.5563 53.099ZM51.8677 52.955V46.463H53.1637V47.867L52.9957 47.651C53.1317 47.211 53.3797 46.879 53.7397 46.655C54.0997 46.431 54.5117 46.319 54.9757 46.319C55.4957 46.319 55.9557 46.459 56.3557 46.739C56.7637 47.011 57.0357 47.375 57.1717 47.831L56.7877 47.867C56.9797 47.347 57.2717 46.959 57.6637 46.703C58.0637 46.447 58.5197 46.319 59.0317 46.319C59.4797 46.319 59.8837 46.423 60.2437 46.631C60.6117 46.839 60.9037 47.127 61.1197 47.495C61.3357 47.863 61.4437 48.283 61.4437 48.755V52.955H60.0877V49.127C60.0877 48.799 60.0277 48.523 59.9077 48.299C59.7957 48.067 59.6357 47.891 59.4277 47.771C59.2277 47.643 58.9917 47.579 58.7197 47.579C58.4477 47.579 58.2077 47.643 57.9997 47.771C57.7917 47.891 57.6277 48.067 57.5077 48.299C57.3877 48.531 57.3277 48.807 57.3277 49.127V52.955H55.9837V49.127C55.9837 48.799 55.9237 48.523 55.8037 48.299C55.6917 48.067 55.5317 47.891 55.3237 47.771C55.1237 47.643 54.8837 47.579 54.6037 47.579C54.3317 47.579 54.0917 47.643 53.8837 47.771C53.6757 47.891 53.5117 48.067 53.3917 48.299C53.2797 48.531 53.2237 48.807 53.2237 49.127V52.955H51.8677ZM66.027 53.099C65.403 53.099 64.831 52.951 64.311 52.655C63.799 52.359 63.391 51.955 63.087 51.443C62.783 50.931 62.631 50.351 62.631 49.703C62.631 49.047 62.783 48.467 63.087 47.963C63.391 47.451 63.799 47.051 64.311 46.763C64.823 46.467 65.395 46.319 66.027 46.319C66.667 46.319 67.239 46.467 67.743 46.763C68.255 47.051 68.659 47.451 68.955 47.963C69.259 48.467 69.411 49.047 69.411 49.703C69.411 50.359 69.259 50.943 68.955 51.455C68.651 51.967 68.243 52.371 67.731 52.667C67.219 52.955 66.651 53.099 66.027 53.099ZM66.027 51.839C66.411 51.839 66.751 51.747 67.047 51.563C67.343 51.379 67.575 51.127 67.743 50.807C67.919 50.479 68.007 50.111 68.007 49.703C68.007 49.295 67.919 48.931 67.743 48.611C67.575 48.291 67.343 48.039 67.047 47.855C66.751 47.671 66.411 47.579 66.027 47.579C65.651 47.579 65.311 47.671 65.007 47.855C64.711 48.039 64.475 48.291 64.299 48.611C64.131 48.931 64.047 49.295 64.047 49.703C64.047 50.111 64.131 50.479 64.299 50.807C64.475 51.127 64.711 51.379 65.007 51.563C65.311 51.747 65.651 51.839 66.027 51.839ZM72.9645 52.955V44.015H74.3805V47.951H78.5205V44.015H79.9245V52.955H78.5205V49.211H74.3805V52.955H72.9645ZM81.645 52.955V46.463H83.001V52.955H81.645ZM81.645 45.575V44.015H83.001V45.575H81.645ZM83.5904 55.607C83.5024 55.607 83.4064 55.599 83.3024 55.583C83.1904 55.575 83.0984 55.563 83.0264 55.547V54.371C83.1784 54.395 83.3304 54.407 83.4824 54.407C83.8184 54.407 84.0864 54.319 84.2864 54.143C84.4864 53.975 84.5864 53.719 84.5864 53.375V46.463H85.9424V53.375C85.9424 53.847 85.8424 54.251 85.6424 54.587C85.4424 54.923 85.1664 55.175 84.8144 55.343C84.4624 55.519 84.0544 55.607 83.5904 55.607ZM84.5864 45.575V44.015H85.9424V45.575H84.5864ZM89.4718 53.099C89.0318 53.099 88.6438 53.023 88.3078 52.871C87.9798 52.711 87.7238 52.495 87.5398 52.223C87.3558 51.943 87.2638 51.615 87.2638 51.239C87.2638 50.887 87.3398 50.571 87.4918 50.291C87.6518 50.011 87.8958 49.775 88.2238 49.583C88.5518 49.391 88.9638 49.255 89.4598 49.175L91.7158 48.803V49.871L89.7238 50.219C89.3638 50.283 89.0998 50.399 88.9318 50.567C88.7638 50.727 88.6798 50.935 88.6798 51.191C88.6798 51.439 88.7718 51.643 88.9558 51.803C89.1478 51.955 89.3918 52.031 89.6878 52.031C90.0558 52.031 90.3758 51.951 90.6478 51.791C90.9278 51.631 91.1438 51.419 91.2958 51.155C91.4478 50.883 91.5238 50.583 91.5238 50.255V48.587C91.5238 48.267 91.4038 48.007 91.1638 47.807C90.9318 47.599 90.6198 47.495 90.2278 47.495C89.8678 47.495 89.5518 47.591 89.2798 47.783C89.0158 47.967 88.8198 48.207 88.6918 48.503L87.5638 47.939C87.6838 47.619 87.8798 47.339 88.1518 47.099C88.4238 46.851 88.7398 46.659 89.0998 46.523C89.4678 46.387 89.8558 46.319 90.2638 46.319C90.7758 46.319 91.2278 46.415 91.6198 46.607C92.0198 46.799 92.3278 47.067 92.5438 47.411C92.7678 47.747 92.8798 48.139 92.8798 48.587V52.955H91.5838V51.779L91.8598 51.815C91.7078 52.079 91.5118 52.307 91.2718 52.499C91.0398 52.691 90.7718 52.839 90.4678 52.943C90.1718 53.047 89.8398 53.099 89.4718 53.099ZM96.7813 53.099C96.2933 53.099 95.8653 52.991 95.4973 52.775C95.1293 52.551 94.8413 52.243 94.6333 51.851C94.4333 51.451 94.3333 50.991 94.3333 50.471V46.463H95.6893V50.351C95.6893 50.647 95.7493 50.907 95.8693 51.131C95.9893 51.355 96.1573 51.531 96.3733 51.659C96.5893 51.779 96.8373 51.839 97.1173 51.839C97.4053 51.839 97.6573 51.775 97.8733 51.647C98.0893 51.519 98.2573 51.339 98.3773 51.107C98.5053 50.875 98.5693 50.603 98.5693 50.291V46.463H99.9133V52.955H98.6293V51.683L98.7733 51.851C98.6213 52.251 98.3693 52.559 98.0173 52.775C97.6653 52.991 97.2533 53.099 96.7813 53.099Z" fill="white"/>
<rect x="32.0405" y="62.2289" width="64.3746" height="5.90769" rx="2.95385" fill="#00AD31"/>
<rect x="138.531" y="44.6177" width="40.6597" height="23.0285" rx="11.5142" fill="#424242"/>
<path d="M145.765 61.2759C145.061 61.2759 144.441 61.0839 143.905 60.6999C143.377 60.3079 142.965 59.7679 142.669 59.0799C142.373 58.3839 142.225 57.5759 142.225 56.6559C142.225 55.7359 142.373 54.9319 142.669 54.2439C142.965 53.5479 143.377 53.0079 143.905 52.6239C144.433 52.2399 145.049 52.0479 145.753 52.0479C146.457 52.0479 147.073 52.2399 147.601 52.6239C148.129 53.0079 148.541 53.5479 148.837 54.2439C149.133 54.9319 149.281 55.7359 149.281 56.6559C149.281 57.5759 149.133 58.3839 148.837 59.0799C148.549 59.7759 148.141 60.3159 147.613 60.6999C147.085 61.0839 146.469 61.2759 145.765 61.2759ZM145.765 60.3759C146.277 60.3759 146.725 60.2199 147.109 59.9079C147.493 59.5959 147.793 59.1639 148.009 58.6119C148.225 58.0519 148.333 57.3999 148.333 56.6559C148.333 55.9119 148.225 55.2639 148.009 54.7119C147.793 54.1519 147.493 53.7199 147.109 53.4159C146.725 53.1039 146.273 52.9479 145.753 52.9479C145.241 52.9479 144.793 53.1039 144.409 53.4159C144.025 53.7199 143.725 54.1519 143.509 54.7119C143.293 55.2639 143.185 55.9119 143.185 56.6559C143.185 57.3919 143.293 58.0399 143.509 58.5999C143.725 59.1599 144.025 59.5959 144.409 59.9079C144.801 60.2199 145.253 60.3759 145.765 60.3759ZM151.098 61.1319L155.13 53.0319H150.666V52.1919H156.126V53.0319L152.106 61.1319H151.098ZM157.902 61.1319V59.8119H158.862V61.1319H157.902ZM157.902 56.0199V54.6999H158.862V56.0199H157.902ZM163.627 61.2759C163.163 61.2759 162.735 61.1959 162.343 61.0359C161.951 60.8759 161.607 60.6479 161.311 60.3519C161.023 60.0559 160.803 59.7039 160.651 59.2959L161.419 58.9359C161.603 59.3999 161.891 59.7679 162.283 60.0399C162.675 60.3039 163.123 60.4359 163.627 60.4359C164.027 60.4359 164.383 60.3599 164.695 60.2079C165.007 60.0479 165.251 59.8199 165.427 59.5239C165.603 59.2279 165.691 58.8679 165.691 58.4439C165.691 58.0199 165.599 57.6599 165.415 57.3639C165.239 57.0679 164.995 56.8439 164.683 56.6919C164.371 56.5399 164.015 56.4639 163.615 56.4639C163.511 56.4639 163.395 56.4679 163.267 56.4759C163.147 56.4839 163.047 56.4959 162.967 56.5119L162.775 56.0919L165.187 53.0319H161.071V52.1919H166.267V53.0319L164.011 55.8759L163.891 55.7199C164.427 55.7359 164.903 55.8639 165.319 56.1039C165.735 56.3359 166.059 56.6519 166.291 57.0519C166.531 57.4519 166.651 57.9159 166.651 58.4439C166.651 58.9719 166.523 59.4519 166.267 59.8839C166.011 60.3079 165.655 60.6479 165.199 60.9039C164.743 61.1519 164.219 61.2759 163.627 61.2759ZM171.816 61.2759C171.112 61.2759 170.492 61.0839 169.956 60.6999C169.428 60.3079 169.016 59.7679 168.72 59.0799C168.424 58.3839 168.276 57.5759 168.276 56.6559C168.276 55.7359 168.424 54.9319 168.72 54.2439C169.016 53.5479 169.428 53.0079 169.956 52.6239C170.484 52.2399 171.1 52.0479 171.804 52.0479C172.508 52.0479 173.124 52.2399 173.652 52.6239C174.18 53.0079 174.592 53.5479 174.888 54.2439C175.184 54.9319 175.332 55.7359 175.332 56.6559C175.332 57.5759 175.184 58.3839 174.888 59.0799C174.6 59.7759 174.192 60.3159 173.664 60.6999C173.136 61.0839 172.52 61.2759 171.816 61.2759ZM171.816 60.3759C172.328 60.3759 172.776 60.2199 173.16 59.9079C173.544 59.5959 173.844 59.1639 174.06 58.6119C174.276 58.0519 174.384 57.3999 174.384 56.6559C174.384 55.9119 174.276 55.2639 174.06 54.7119C173.844 54.1519 173.544 53.7199 173.16 53.4159C172.776 53.1039 172.324 52.9479 171.804 52.9479C171.292 52.9479 170.844 53.1039 170.46 53.4159C170.076 53.7199 169.776 54.1519 169.56 54.7119C169.344 55.2639 169.236 55.9119 169.236 56.6559C169.236 57.3919 169.344 58.0399 169.56 58.5999C169.776 59.1599 170.076 59.5959 170.46 59.9079C170.852 60.2199 171.304 60.3759 171.816 60.3759Z" fill="white"/>
<rect x="196.102" y="44.6177" width="114.063" height="23.0285" rx="11.5142" fill="#424242"/>
<path d="M225.047 62.1319V52.7519H222.163V51.7019H229.023V52.7519H226.167V62.1319H225.047ZM232.683 62.2999C231.983 62.2999 231.348 62.1319 230.779 61.7959C230.219 61.4506 229.776 60.9793 229.449 60.3819C229.122 59.7846 228.959 59.1079 228.959 58.3519C228.959 57.5959 229.118 56.9286 229.435 56.3499C229.752 55.7619 230.182 55.2999 230.723 54.9639C231.274 54.6279 231.89 54.4599 232.571 54.4599C233.112 54.4599 233.593 54.5626 234.013 54.7679C234.442 54.9639 234.806 55.2346 235.105 55.5799C235.404 55.9159 235.632 56.2986 235.791 56.7279C235.95 57.1479 236.029 57.5819 236.029 58.0299C236.029 58.1233 236.024 58.2306 236.015 58.3519C236.006 58.4639 235.992 58.5806 235.973 58.7019H229.631V57.7219H235.371L234.867 58.1419C234.951 57.6286 234.89 57.1713 234.685 56.7699C234.489 56.3593 234.204 56.0373 233.831 55.8039C233.458 55.5613 233.038 55.4399 232.571 55.4399C232.104 55.4399 231.67 55.5613 231.269 55.8039C230.877 56.0466 230.569 56.3873 230.345 56.8259C230.121 57.2553 230.032 57.7686 230.079 58.3659C230.032 58.9633 230.126 59.4859 230.359 59.9339C230.602 60.3726 230.928 60.7133 231.339 60.9559C231.759 61.1986 232.207 61.3199 232.683 61.3199C233.234 61.3199 233.696 61.1893 234.069 60.9279C234.442 60.6666 234.746 60.3399 234.979 59.9479L235.875 60.4239C235.726 60.7599 235.497 61.0726 235.189 61.3619C234.881 61.6419 234.512 61.8706 234.083 62.0479C233.663 62.2159 233.196 62.2999 232.683 62.2999ZM237.88 62.1319V54.6279H238.93V55.8599L238.79 55.6779C238.968 55.3233 239.234 55.0433 239.588 54.8379C239.952 54.6326 240.391 54.5299 240.904 54.5299H241.38V55.5799H240.722C240.181 55.5799 239.747 55.7479 239.42 56.0839C239.094 56.4199 238.93 56.8959 238.93 57.5119V62.1319H237.88ZM242.611 62.1319V54.6279H243.661V56.0559L243.493 55.8459C243.698 55.4073 244.001 55.0666 244.403 54.8239C244.813 54.5813 245.261 54.4599 245.747 54.4599C246.325 54.4599 246.848 54.6233 247.315 54.9499C247.781 55.2766 248.113 55.7013 248.309 56.2239L248.015 56.2379C248.201 55.6593 248.523 55.2206 248.981 54.9219C249.447 54.6139 249.961 54.4599 250.521 54.4599C251.025 54.4599 251.487 54.5813 251.907 54.8239C252.336 55.0666 252.677 55.4026 252.929 55.8319C253.19 56.2519 253.321 56.7279 253.321 57.2599V62.1319H252.271V57.6659C252.271 57.2086 252.187 56.8213 252.019 56.5039C251.86 56.1866 251.641 55.9439 251.361 55.7759C251.081 55.5986 250.759 55.5099 250.395 55.5099C250.04 55.5099 249.718 55.5986 249.429 55.7759C249.139 55.9439 248.911 56.1913 248.743 56.5179C248.575 56.8353 248.491 57.2179 248.491 57.6659V62.1319H247.441V57.6659C247.441 57.2086 247.357 56.8213 247.189 56.5039C247.03 56.1866 246.811 55.9439 246.531 55.7759C246.251 55.5986 245.929 55.5099 245.565 55.5099C245.201 55.5099 244.874 55.5986 244.585 55.7759C244.305 55.9439 244.081 56.1913 243.913 56.5179C243.745 56.8353 243.661 57.2179 243.661 57.6659V62.1319H242.611ZM255.326 62.1319V54.6279H256.376V62.1319H255.326ZM255.326 53.2419V51.7019H256.376V53.2419H255.326ZM258.525 62.1319V54.6279H259.575V56.0839L259.337 56.0279C259.523 55.5426 259.827 55.1599 260.247 54.8799C260.676 54.5999 261.171 54.4599 261.731 54.4599C262.263 54.4599 262.739 54.5813 263.159 54.8239C263.588 55.0666 263.924 55.4026 264.167 55.8319C264.419 56.2519 264.545 56.7279 264.545 57.2599V62.1319H263.495V57.6659C263.495 57.2086 263.411 56.8213 263.243 56.5039C263.084 56.1866 262.855 55.9439 262.557 55.7759C262.267 55.5986 261.931 55.5099 261.549 55.5099C261.166 55.5099 260.825 55.5986 260.527 55.7759C260.228 55.9439 259.995 56.1913 259.827 56.5179C259.659 56.8353 259.575 57.2179 259.575 57.6659V62.1319H258.525ZM268.72 62.2999C268.244 62.2999 267.82 62.2113 267.446 62.0339C267.073 61.8473 266.779 61.5953 266.564 61.2779C266.35 60.9606 266.242 60.5966 266.242 60.1859C266.242 59.7939 266.326 59.4393 266.494 59.1219C266.662 58.7953 266.924 58.5199 267.278 58.2959C267.633 58.0719 268.086 57.9133 268.636 57.8199L271.576 57.3299V58.2819L268.888 58.7299C268.347 58.8233 267.955 58.9959 267.712 59.2479C267.479 59.4999 267.362 59.7986 267.362 60.1439C267.362 60.4799 267.493 60.7646 267.754 60.9979C268.025 61.2313 268.37 61.3479 268.79 61.3479C269.304 61.3479 269.752 61.2406 270.134 61.0259C270.517 60.8019 270.816 60.5033 271.03 60.1299C271.245 59.7566 271.352 59.3413 271.352 58.8839V56.9799C271.352 56.5319 271.189 56.1679 270.862 55.8879C270.536 55.6079 270.111 55.4679 269.588 55.4679C269.131 55.4679 268.73 55.5846 268.384 55.8179C268.039 56.0419 267.782 56.3359 267.614 56.6999L266.662 56.1819C266.802 55.8646 267.022 55.5753 267.32 55.3139C267.628 55.0526 267.978 54.8473 268.37 54.6979C268.762 54.5393 269.168 54.4599 269.588 54.4599C270.139 54.4599 270.624 54.5673 271.044 54.7819C271.474 54.9966 271.805 55.2953 272.038 55.6779C272.281 56.0513 272.402 56.4853 272.402 56.9799V62.1319H271.352V60.6339L271.506 60.7879C271.376 61.0679 271.17 61.3246 270.89 61.5579C270.62 61.7819 270.298 61.9639 269.924 62.1039C269.56 62.2346 269.159 62.2999 268.72 62.2999ZM274.562 62.1319V51.5339H275.612V62.1319H274.562ZM281.596 62.1319V52.6819H279.636V51.7019H282.716V62.1319H281.596Z" fill="white"/>
<rect x="196.102" y="94.6327" width="114.063" height="23.0285" rx="11.5142" fill="#424242"/>
<path d="M223.844 112.147V102.767H220.96V101.717H227.82V102.767H224.964V112.147H223.844ZM231.48 112.315C230.78 112.315 230.145 112.147 229.576 111.811C229.016 111.466 228.573 110.994 228.246 110.397C227.919 109.8 227.756 109.123 227.756 108.367C227.756 107.611 227.915 106.944 228.232 106.365C228.549 105.777 228.979 105.315 229.52 104.979C230.071 104.643 230.687 104.475 231.368 104.475C231.909 104.475 232.39 104.578 232.81 104.783C233.239 104.979 233.603 105.25 233.902 105.595C234.201 105.931 234.429 106.314 234.588 106.743C234.747 107.163 234.826 107.597 234.826 108.045C234.826 108.138 234.821 108.246 234.812 108.367C234.803 108.479 234.789 108.596 234.77 108.717H228.428V107.737H234.168L233.664 108.157C233.748 107.644 233.687 107.186 233.482 106.785C233.286 106.374 233.001 106.052 232.628 105.819C232.255 105.576 231.835 105.455 231.368 105.455C230.901 105.455 230.467 105.576 230.066 105.819C229.674 106.062 229.366 106.402 229.142 106.841C228.918 107.27 228.829 107.784 228.876 108.381C228.829 108.978 228.923 109.501 229.156 109.949C229.399 110.388 229.725 110.728 230.136 110.971C230.556 111.214 231.004 111.335 231.48 111.335C232.031 111.335 232.493 111.204 232.866 110.943C233.239 110.682 233.543 110.355 233.776 109.963L234.672 110.439C234.523 110.775 234.294 111.088 233.986 111.377C233.678 111.657 233.309 111.886 232.88 112.063C232.46 112.231 231.993 112.315 231.48 112.315ZM236.677 112.147V104.643H237.727V105.875L237.587 105.693C237.764 105.338 238.03 105.058 238.385 104.853C238.749 104.648 239.188 104.545 239.701 104.545H240.177V105.595H239.519C238.978 105.595 238.544 105.763 238.217 106.099C237.89 106.435 237.727 106.911 237.727 107.527V112.147H236.677ZM241.408 112.147V104.643H242.458V106.071L242.29 105.861C242.495 105.422 242.798 105.082 243.2 104.839C243.61 104.596 244.058 104.475 244.544 104.475C245.122 104.475 245.645 104.638 246.112 104.965C246.578 105.292 246.91 105.716 247.106 106.239L246.812 106.253C246.998 105.674 247.32 105.236 247.778 104.937C248.244 104.629 248.758 104.475 249.318 104.475C249.822 104.475 250.284 104.596 250.704 104.839C251.133 105.082 251.474 105.418 251.726 105.847C251.987 106.267 252.118 106.743 252.118 107.275V112.147H251.068V107.681C251.068 107.224 250.984 106.836 250.816 106.519C250.657 106.202 250.438 105.959 250.158 105.791C249.878 105.614 249.556 105.525 249.192 105.525C248.837 105.525 248.515 105.614 248.226 105.791C247.936 105.959 247.708 106.206 247.54 106.533C247.372 106.85 247.288 107.233 247.288 107.681V112.147H246.238V107.681C246.238 107.224 246.154 106.836 245.986 106.519C245.827 106.202 245.608 105.959 245.328 105.791C245.048 105.614 244.726 105.525 244.362 105.525C243.998 105.525 243.671 105.614 243.382 105.791C243.102 105.959 242.878 106.206 242.71 106.533C242.542 106.85 242.458 107.233 242.458 107.681V112.147H241.408ZM254.122 112.147V104.643H255.172V112.147H254.122ZM254.122 103.257V101.717H255.172V103.257H254.122ZM257.322 112.147V104.643H258.372V106.099L258.134 106.043C258.32 105.558 258.624 105.175 259.044 104.895C259.473 104.615 259.968 104.475 260.528 104.475C261.06 104.475 261.536 104.596 261.956 104.839C262.385 105.082 262.721 105.418 262.964 105.847C263.216 106.267 263.342 106.743 263.342 107.275V112.147H262.292V107.681C262.292 107.224 262.208 106.836 262.04 106.519C261.881 106.202 261.652 105.959 261.354 105.791C261.064 105.614 260.728 105.525 260.346 105.525C259.963 105.525 259.622 105.614 259.324 105.791C259.025 105.959 258.792 106.206 258.624 106.533C258.456 106.85 258.372 107.233 258.372 107.681V112.147H257.322ZM267.517 112.315C267.041 112.315 266.616 112.226 266.243 112.049C265.87 111.862 265.576 111.61 265.361 111.293C265.146 110.976 265.039 110.612 265.039 110.201C265.039 109.809 265.123 109.454 265.291 109.137C265.459 108.81 265.72 108.535 266.075 108.311C266.43 108.087 266.882 107.928 267.433 107.835L270.373 107.345V108.297L267.685 108.745C267.144 108.838 266.752 109.011 266.509 109.263C266.276 109.515 266.159 109.814 266.159 110.159C266.159 110.495 266.29 110.78 266.551 111.013C266.822 111.246 267.167 111.363 267.587 111.363C268.1 111.363 268.548 111.256 268.931 111.041C269.314 110.817 269.612 110.518 269.827 110.145C270.042 109.772 270.149 109.356 270.149 108.899V106.995C270.149 106.547 269.986 106.183 269.659 105.903C269.332 105.623 268.908 105.483 268.385 105.483C267.928 105.483 267.526 105.6 267.181 105.833C266.836 106.057 266.579 106.351 266.411 106.715L265.459 106.197C265.599 105.88 265.818 105.59 266.117 105.329C266.425 105.068 266.775 104.862 267.167 104.713C267.559 104.554 267.965 104.475 268.385 104.475C268.936 104.475 269.421 104.582 269.841 104.797C270.27 105.012 270.602 105.31 270.835 105.693C271.078 106.066 271.199 106.5 271.199 106.995V112.147H270.149V110.649L270.303 110.803C270.172 111.083 269.967 111.34 269.687 111.573C269.416 111.797 269.094 111.979 268.721 112.119C268.357 112.25 267.956 112.315 267.517 112.315ZM273.359 112.147V101.549H274.409V112.147H273.359ZM278.965 112.147L283.669 102.697H278.461V101.717H284.831V102.697L280.141 112.147H278.965Z" fill="white"/>
<rect x="196.102" y="144.648" width="114.063" height="23.0285" rx="11.5142" fill="#424242"/>
<path d="M223.236 162.162V152.782H220.352V151.732H227.212V152.782H224.356V162.162H223.236ZM230.871 162.33C230.171 162.33 229.537 162.162 228.967 161.826C228.407 161.481 227.964 161.009 227.637 160.412C227.311 159.815 227.147 159.138 227.147 158.382C227.147 157.626 227.306 156.959 227.623 156.38C227.941 155.792 228.37 155.33 228.911 154.994C229.462 154.658 230.078 154.49 230.759 154.49C231.301 154.49 231.781 154.593 232.201 154.798C232.631 154.994 232.995 155.265 233.293 155.61C233.592 155.946 233.821 156.329 233.979 156.758C234.138 157.178 234.217 157.612 234.217 158.06C234.217 158.153 234.213 158.261 234.203 158.382C234.194 158.494 234.18 158.611 234.161 158.732H227.819V157.752H233.559L233.055 158.172C233.139 157.659 233.079 157.201 232.873 156.8C232.677 156.389 232.393 156.067 232.019 155.834C231.646 155.591 231.226 155.47 230.759 155.47C230.293 155.47 229.859 155.591 229.457 155.834C229.065 156.077 228.757 156.417 228.533 156.856C228.309 157.285 228.221 157.799 228.267 158.396C228.221 158.993 228.314 159.516 228.547 159.964C228.79 160.403 229.117 160.743 229.527 160.986C229.947 161.229 230.395 161.35 230.871 161.35C231.422 161.35 231.884 161.219 232.257 160.958C232.631 160.697 232.934 160.37 233.167 159.978L234.063 160.454C233.914 160.79 233.685 161.103 233.377 161.392C233.069 161.672 232.701 161.901 232.271 162.078C231.851 162.246 231.385 162.33 230.871 162.33ZM236.069 162.162V154.658H237.119V155.89L236.979 155.708C237.156 155.353 237.422 155.073 237.777 154.868C238.141 154.663 238.579 154.56 239.093 154.56H239.569V155.61H238.911C238.369 155.61 237.935 155.778 237.609 156.114C237.282 156.45 237.119 156.926 237.119 157.542V162.162H236.069ZM240.799 162.162V154.658H241.849V156.086L241.681 155.876C241.887 155.437 242.19 155.097 242.591 154.854C243.002 154.611 243.45 154.49 243.935 154.49C244.514 154.49 245.037 154.653 245.503 154.98C245.97 155.307 246.301 155.731 246.497 156.254L246.203 156.268C246.39 155.689 246.712 155.251 247.169 154.952C247.636 154.644 248.149 154.49 248.709 154.49C249.213 154.49 249.675 154.611 250.095 154.854C250.525 155.097 250.865 155.433 251.117 155.862C251.379 156.282 251.509 156.758 251.509 157.29V162.162H250.459V157.696C250.459 157.239 250.375 156.851 250.207 156.534C250.049 156.217 249.829 155.974 249.549 155.806C249.269 155.629 248.947 155.54 248.583 155.54C248.229 155.54 247.907 155.629 247.617 155.806C247.328 155.974 247.099 156.221 246.931 156.548C246.763 156.865 246.679 157.248 246.679 157.696V162.162H245.629V157.696C245.629 157.239 245.545 156.851 245.377 156.534C245.219 156.217 244.999 155.974 244.719 155.806C244.439 155.629 244.117 155.54 243.753 155.54C243.389 155.54 243.063 155.629 242.773 155.806C242.493 155.974 242.269 156.221 242.101 156.548C241.933 156.865 241.849 157.248 241.849 157.696V162.162H240.799ZM253.514 162.162V154.658H254.564V162.162H253.514ZM253.514 153.272V151.732H254.564V153.272H253.514ZM256.713 162.162V154.658H257.763V156.114L257.525 156.058C257.712 155.573 258.015 155.19 258.435 154.91C258.865 154.63 259.359 154.49 259.919 154.49C260.451 154.49 260.927 154.611 261.347 154.854C261.777 155.097 262.113 155.433 262.355 155.862C262.607 156.282 262.733 156.758 262.733 157.29V162.162H261.683V157.696C261.683 157.239 261.599 156.851 261.431 156.534C261.273 156.217 261.044 155.974 260.745 155.806C260.456 155.629 260.12 155.54 259.737 155.54C259.355 155.54 259.014 155.629 258.715 155.806C258.417 155.974 258.183 156.221 258.015 156.548C257.847 156.865 257.763 157.248 257.763 157.696V162.162H256.713ZM266.909 162.33C266.433 162.33 266.008 162.241 265.635 162.064C265.261 161.877 264.967 161.625 264.753 161.308C264.538 160.991 264.431 160.627 264.431 160.216C264.431 159.824 264.515 159.469 264.683 159.152C264.851 158.825 265.112 158.55 265.467 158.326C265.821 158.102 266.274 157.943 266.825 157.85L269.765 157.36V158.312L267.077 158.76C266.535 158.853 266.143 159.026 265.901 159.278C265.667 159.53 265.551 159.829 265.551 160.174C265.551 160.51 265.681 160.795 265.943 161.028C266.213 161.261 266.559 161.378 266.979 161.378C267.492 161.378 267.94 161.271 268.323 161.056C268.705 160.832 269.004 160.533 269.219 160.16C269.433 159.787 269.541 159.371 269.541 158.914V157.01C269.541 156.562 269.377 156.198 269.051 155.918C268.724 155.638 268.299 155.498 267.777 155.498C267.319 155.498 266.918 155.615 266.573 155.848C266.227 156.072 265.971 156.366 265.803 156.73L264.851 156.212C264.991 155.895 265.21 155.605 265.509 155.344C265.817 155.083 266.167 154.877 266.559 154.728C266.951 154.569 267.357 154.49 267.777 154.49C268.327 154.49 268.813 154.597 269.233 154.812C269.662 155.027 269.993 155.325 270.227 155.708C270.469 156.081 270.591 156.515 270.591 157.01V162.162H269.541V160.664L269.695 160.818C269.564 161.098 269.359 161.355 269.079 161.588C268.808 161.812 268.486 161.994 268.113 162.134C267.749 162.265 267.347 162.33 266.909 162.33ZM272.75 162.162V151.564H273.8V162.162H272.75ZM283.2 162.162V159.698H277.894V158.788L283.2 151.732H284.18V158.788H285.454V159.698H284.18V162.162H283.2ZM278.748 159.194L278.622 158.788H283.2V152.698L283.55 152.796L278.748 159.194Z" fill="white"/>
<rect x="196.102" y="194.663" width="114.063" height="23.0285" rx="11.5142" fill="#424242"/>
<path d="M223.379 212.177V202.797H220.495V201.747H227.355V202.797H224.499V212.177H223.379ZM231.015 212.345C230.315 212.345 229.68 212.177 229.111 211.841C228.551 211.496 228.108 211.024 227.781 210.427C227.454 209.83 227.291 209.153 227.291 208.397C227.291 207.641 227.45 206.974 227.767 206.395C228.084 205.807 228.514 205.345 229.055 205.009C229.606 204.673 230.222 204.505 230.903 204.505C231.444 204.505 231.925 204.608 232.345 204.813C232.774 205.009 233.138 205.28 233.437 205.625C233.736 205.961 233.964 206.344 234.123 206.773C234.282 207.193 234.361 207.627 234.361 208.075C234.361 208.168 234.356 208.276 234.347 208.397C234.338 208.509 234.324 208.626 234.305 208.747H227.963V207.767H233.703L233.199 208.187C233.283 207.674 233.222 207.216 233.017 206.815C232.821 206.404 232.536 206.082 232.163 205.849C231.79 205.606 231.37 205.485 230.903 205.485C230.436 205.485 230.002 205.606 229.601 205.849C229.209 206.092 228.901 206.432 228.677 206.871C228.453 207.3 228.364 207.814 228.411 208.411C228.364 209.008 228.458 209.531 228.691 209.979C228.934 210.418 229.26 210.758 229.671 211.001C230.091 211.244 230.539 211.365 231.015 211.365C231.566 211.365 232.028 211.234 232.401 210.973C232.774 210.712 233.078 210.385 233.311 209.993L234.207 210.469C234.058 210.805 233.829 211.118 233.521 211.407C233.213 211.687 232.844 211.916 232.415 212.093C231.995 212.261 231.528 212.345 231.015 212.345ZM236.212 212.177V204.673H237.262V205.905L237.122 205.723C237.3 205.368 237.566 205.088 237.92 204.883C238.284 204.678 238.723 204.575 239.236 204.575H239.712V205.625H239.054C238.513 205.625 238.079 205.793 237.752 206.129C237.426 206.465 237.262 206.941 237.262 207.557V212.177H236.212ZM240.943 212.177V204.673H241.993V206.101L241.825 205.891C242.03 205.452 242.333 205.112 242.735 204.869C243.145 204.626 243.593 204.505 244.079 204.505C244.657 204.505 245.18 204.668 245.647 204.995C246.113 205.322 246.445 205.746 246.641 206.269L246.347 206.283C246.533 205.704 246.855 205.266 247.313 204.967C247.779 204.659 248.293 204.505 248.853 204.505C249.357 204.505 249.819 204.626 250.239 204.869C250.668 205.112 251.009 205.448 251.261 205.877C251.522 206.297 251.653 206.773 251.653 207.305V212.177H250.603V207.711C250.603 207.254 250.519 206.866 250.351 206.549C250.192 206.232 249.973 205.989 249.693 205.821C249.413 205.644 249.091 205.555 248.727 205.555C248.372 205.555 248.05 205.644 247.761 205.821C247.471 205.989 247.243 206.236 247.075 206.563C246.907 206.88 246.823 207.263 246.823 207.711V212.177H245.773V207.711C245.773 207.254 245.689 206.866 245.521 206.549C245.362 206.232 245.143 205.989 244.863 205.821C244.583 205.644 244.261 205.555 243.897 205.555C243.533 205.555 243.206 205.644 242.917 205.821C242.637 205.989 242.413 206.236 242.245 206.563C242.077 206.88 241.993 207.263 241.993 207.711V212.177H240.943ZM253.658 212.177V204.673H254.708V212.177H253.658ZM253.658 203.287V201.747H254.708V203.287H253.658ZM256.857 212.177V204.673H257.907V206.129L257.669 206.073C257.855 205.588 258.159 205.205 258.579 204.925C259.008 204.645 259.503 204.505 260.063 204.505C260.595 204.505 261.071 204.626 261.491 204.869C261.92 205.112 262.256 205.448 262.499 205.877C262.751 206.297 262.877 206.773 262.877 207.305V212.177H261.827V207.711C261.827 207.254 261.743 206.866 261.575 206.549C261.416 206.232 261.187 205.989 260.889 205.821C260.599 205.644 260.263 205.555 259.881 205.555C259.498 205.555 259.157 205.644 258.859 205.821C258.56 205.989 258.327 206.236 258.159 206.563C257.991 206.88 257.907 207.263 257.907 207.711V212.177H256.857ZM267.052 212.345C266.576 212.345 266.152 212.256 265.778 212.079C265.405 211.892 265.111 211.64 264.896 211.323C264.682 211.006 264.574 210.642 264.574 210.231C264.574 209.839 264.658 209.484 264.826 209.167C264.994 208.84 265.256 208.565 265.61 208.341C265.965 208.117 266.418 207.958 266.968 207.865L269.908 207.375V208.327L267.22 208.775C266.679 208.868 266.287 209.041 266.044 209.293C265.811 209.545 265.694 209.844 265.694 210.189C265.694 210.525 265.825 210.81 266.086 211.043C266.357 211.276 266.702 211.393 267.122 211.393C267.636 211.393 268.084 211.286 268.466 211.071C268.849 210.847 269.148 210.548 269.362 210.175C269.577 209.802 269.684 209.386 269.684 208.929V207.025C269.684 206.577 269.521 206.213 269.194 205.933C268.868 205.653 268.443 205.513 267.92 205.513C267.463 205.513 267.062 205.63 266.716 205.863C266.371 206.087 266.114 206.381 265.946 206.745L264.994 206.227C265.134 205.91 265.354 205.62 265.652 205.359C265.96 205.098 266.31 204.892 266.702 204.743C267.094 204.584 267.5 204.505 267.92 204.505C268.471 204.505 268.956 204.612 269.376 204.827C269.806 205.042 270.137 205.34 270.37 205.723C270.613 206.096 270.734 206.53 270.734 207.025V212.177H269.684V210.679L269.838 210.833C269.708 211.113 269.502 211.37 269.222 211.603C268.952 211.827 268.63 212.009 268.256 212.149C267.892 212.28 267.491 212.345 267.052 212.345ZM272.894 212.177V201.579H273.944V212.177H272.894ZM281.51 212.345C280.969 212.345 280.469 212.252 280.012 212.065C279.555 211.878 279.153 211.612 278.808 211.267C278.472 210.922 278.215 210.511 278.038 210.035L278.934 209.615C279.149 210.156 279.485 210.586 279.942 210.903C280.399 211.211 280.922 211.365 281.51 211.365C281.977 211.365 282.392 211.276 282.756 211.099C283.12 210.912 283.405 210.646 283.61 210.301C283.815 209.956 283.918 209.536 283.918 209.041C283.918 208.546 283.811 208.126 283.596 207.781C283.391 207.436 283.106 207.174 282.742 206.997C282.378 206.82 281.963 206.731 281.496 206.731C281.375 206.731 281.239 206.736 281.09 206.745C280.95 206.754 280.833 206.768 280.74 206.787L280.516 206.297L283.33 202.727H278.528V201.747H284.59V202.727L281.958 206.045L281.818 205.863C282.443 205.882 282.999 206.031 283.484 206.311C283.969 206.582 284.347 206.95 284.618 207.417C284.898 207.884 285.038 208.425 285.038 209.041C285.038 209.657 284.889 210.217 284.59 210.721C284.291 211.216 283.876 211.612 283.344 211.911C282.812 212.2 282.201 212.345 281.51 212.345Z" fill="white"/>
<rect x="137.451" y="94.6327" width="42.8186" height="23.0285" rx="11.5142" fill="#424242"/>
<path d="M144.264 111.291C143.56 111.291 142.94 111.099 142.404 110.715C141.876 110.323 141.464 109.783 141.168 109.095C140.872 108.399 140.724 107.591 140.724 106.671C140.724 105.751 140.872 104.947 141.168 104.259C141.464 103.563 141.876 103.023 142.404 102.639C142.932 102.255 143.548 102.063 144.252 102.063C144.956 102.063 145.572 102.255 146.1 102.639C146.628 103.023 147.04 103.563 147.336 104.259C147.632 104.947 147.78 105.751 147.78 106.671C147.78 107.591 147.632 108.399 147.336 109.095C147.048 109.791 146.64 110.331 146.112 110.715C145.584 111.099 144.968 111.291 144.264 111.291ZM144.264 110.391C144.776 110.391 145.224 110.235 145.608 109.923C145.992 109.611 146.292 109.179 146.508 108.627C146.724 108.067 146.832 107.415 146.832 106.671C146.832 105.927 146.724 105.279 146.508 104.727C146.292 104.167 145.992 103.735 145.608 103.431C145.224 103.119 144.772 102.963 144.252 102.963C143.74 102.963 143.292 103.119 142.908 103.431C142.524 103.735 142.224 104.167 142.008 104.727C141.792 105.279 141.684 105.927 141.684 106.671C141.684 107.407 141.792 108.055 142.008 108.615C142.224 109.175 142.524 109.611 142.908 109.923C143.3 110.235 143.752 110.391 144.264 110.391ZM152.417 111.291C151.841 111.291 151.325 111.175 150.869 110.943C150.421 110.703 150.065 110.379 149.801 109.971C149.545 109.555 149.417 109.087 149.417 108.567C149.417 107.999 149.577 107.491 149.897 107.043C150.225 106.595 150.665 106.283 151.217 106.107V106.359C150.793 106.175 150.465 105.903 150.233 105.543C150.001 105.175 149.885 104.783 149.885 104.367C149.885 103.927 149.997 103.535 150.221 103.191C150.445 102.847 150.745 102.575 151.121 102.375C151.505 102.167 151.937 102.063 152.417 102.063C152.905 102.063 153.337 102.163 153.713 102.363C154.089 102.555 154.385 102.827 154.601 103.179C154.825 103.523 154.937 103.919 154.937 104.367C154.937 104.815 154.817 105.215 154.577 105.567C154.337 105.911 154.021 106.175 153.629 106.359L153.617 106.107C154.169 106.283 154.605 106.595 154.925 107.043C155.253 107.491 155.417 107.999 155.417 108.567C155.417 109.087 155.285 109.555 155.021 109.971C154.765 110.379 154.409 110.703 153.953 110.943C153.505 111.175 152.993 111.291 152.417 111.291ZM152.417 110.451C152.825 110.451 153.181 110.375 153.485 110.223C153.789 110.063 154.025 109.843 154.193 109.563C154.369 109.275 154.457 108.943 154.457 108.567C154.457 108.191 154.369 107.863 154.193 107.583C154.025 107.295 153.789 107.075 153.485 106.923C153.181 106.763 152.825 106.683 152.417 106.683C152.009 106.683 151.649 106.763 151.337 106.923C151.033 107.075 150.797 107.295 150.629 107.583C150.461 107.863 150.377 108.191 150.377 108.567C150.377 108.943 150.461 109.275 150.629 109.563C150.797 109.843 151.033 110.063 151.337 110.223C151.649 110.375 152.009 110.451 152.417 110.451ZM152.417 105.843C152.713 105.843 152.977 105.783 153.209 105.663C153.441 105.535 153.625 105.363 153.761 105.147C153.905 104.923 153.977 104.663 153.977 104.367C153.977 104.071 153.905 103.815 153.761 103.599C153.625 103.383 153.441 103.215 153.209 103.095C152.977 102.967 152.713 102.903 152.417 102.903C152.121 102.903 151.853 102.967 151.613 103.095C151.381 103.215 151.193 103.383 151.049 103.599C150.913 103.815 150.845 104.071 150.845 104.367C150.845 104.663 150.913 104.923 151.049 105.147C151.193 105.363 151.381 105.535 151.613 105.663C151.853 105.783 152.121 105.843 152.417 105.843ZM157.42 111.147V109.827H158.38V111.147H157.42ZM157.42 106.035V104.715H158.38V106.035H157.42ZM164.022 111.291C163.318 111.291 162.698 111.099 162.162 110.715C161.634 110.323 161.222 109.783 160.926 109.095C160.63 108.399 160.482 107.591 160.482 106.671C160.482 105.751 160.63 104.947 160.926 104.259C161.222 103.563 161.634 103.023 162.162 102.639C162.69 102.255 163.306 102.063 164.01 102.063C164.714 102.063 165.33 102.255 165.858 102.639C166.386 103.023 166.798 103.563 167.094 104.259C167.39 104.947 167.538 105.751 167.538 106.671C167.538 107.591 167.39 108.399 167.094 109.095C166.806 109.791 166.398 110.331 165.87 110.715C165.342 111.099 164.726 111.291 164.022 111.291ZM164.022 110.391C164.534 110.391 164.982 110.235 165.366 109.923C165.75 109.611 166.05 109.179 166.266 108.627C166.482 108.067 166.59 107.415 166.59 106.671C166.59 105.927 166.482 105.279 166.266 104.727C166.05 104.167 165.75 103.735 165.366 103.431C164.982 103.119 164.53 102.963 164.01 102.963C163.498 102.963 163.05 103.119 162.666 103.431C162.282 103.735 161.982 104.167 161.766 104.727C161.55 105.279 161.442 105.927 161.442 106.671C161.442 107.407 161.55 108.055 161.766 108.615C161.982 109.175 162.282 109.611 162.666 109.923C163.058 110.235 163.51 110.391 164.022 110.391ZM172.811 111.291C172.107 111.291 171.487 111.099 170.951 110.715C170.423 110.323 170.011 109.783 169.715 109.095C169.419 108.399 169.271 107.591 169.271 106.671C169.271 105.751 169.419 104.947 169.715 104.259C170.011 103.563 170.423 103.023 170.951 102.639C171.479 102.255 172.095 102.063 172.799 102.063C173.503 102.063 174.119 102.255 174.647 102.639C175.175 103.023 175.587 103.563 175.883 104.259C176.179 104.947 176.327 105.751 176.327 106.671C176.327 107.591 176.179 108.399 175.883 109.095C175.595 109.791 175.187 110.331 174.659 110.715C174.131 111.099 173.515 111.291 172.811 111.291ZM172.811 110.391C173.323 110.391 173.771 110.235 174.155 109.923C174.539 109.611 174.839 109.179 175.055 108.627C175.271 108.067 175.379 107.415 175.379 106.671C175.379 105.927 175.271 105.279 175.055 104.727C174.839 104.167 174.539 103.735 174.155 103.431C173.771 103.119 173.319 102.963 172.799 102.963C172.287 102.963 171.839 103.119 171.455 103.431C171.071 103.735 170.771 104.167 170.555 104.727C170.339 105.279 170.231 105.927 170.231 106.671C170.231 107.407 170.339 108.055 170.555 108.615C170.771 109.175 171.071 109.611 171.455 109.923C171.847 110.235 172.299 110.391 172.811 110.391Z" fill="white"/>
<rect x="137.451" y="144.648" width="42.8186" height="23.0285" rx="11.5142" fill="#424242"/>
<path d="M144.264 161.306C143.56 161.306 142.94 161.114 142.404 160.73C141.876 160.338 141.464 159.798 141.168 159.11C140.872 158.414 140.724 157.606 140.724 156.686C140.724 155.766 140.872 154.962 141.168 154.274C141.464 153.578 141.876 153.038 142.404 152.654C142.932 152.27 143.548 152.078 144.252 152.078C144.956 152.078 145.572 152.27 146.1 152.654C146.628 153.038 147.04 153.578 147.336 154.274C147.632 154.962 147.78 155.766 147.78 156.686C147.78 157.606 147.632 158.414 147.336 159.11C147.048 159.806 146.64 160.346 146.112 160.73C145.584 161.114 144.968 161.306 144.264 161.306ZM144.264 160.406C144.776 160.406 145.224 160.25 145.608 159.938C145.992 159.626 146.292 159.194 146.508 158.642C146.724 158.082 146.832 157.43 146.832 156.686C146.832 155.942 146.724 155.294 146.508 154.742C146.292 154.182 145.992 153.75 145.608 153.446C145.224 153.134 144.772 152.978 144.252 152.978C143.74 152.978 143.292 153.134 142.908 153.446C142.524 153.75 142.224 154.182 142.008 154.742C141.792 155.294 141.684 155.942 141.684 156.686C141.684 157.422 141.792 158.07 142.008 158.63C142.224 159.19 142.524 159.626 142.908 159.938C143.3 160.25 143.752 160.406 144.264 160.406ZM152.417 161.306C151.841 161.306 151.325 161.19 150.869 160.958C150.421 160.718 150.065 160.394 149.801 159.986C149.545 159.57 149.417 159.102 149.417 158.582C149.417 158.014 149.577 157.506 149.897 157.058C150.225 156.61 150.665 156.298 151.217 156.122V156.374C150.793 156.19 150.465 155.918 150.233 155.558C150.001 155.19 149.885 154.798 149.885 154.382C149.885 153.942 149.997 153.55 150.221 153.206C150.445 152.862 150.745 152.59 151.121 152.39C151.505 152.182 151.937 152.078 152.417 152.078C152.905 152.078 153.337 152.178 153.713 152.378C154.089 152.57 154.385 152.842 154.601 153.194C154.825 153.538 154.937 153.934 154.937 154.382C154.937 154.83 154.817 155.23 154.577 155.582C154.337 155.926 154.021 156.19 153.629 156.374L153.617 156.122C154.169 156.298 154.605 156.61 154.925 157.058C155.253 157.506 155.417 158.014 155.417 158.582C155.417 159.102 155.285 159.57 155.021 159.986C154.765 160.394 154.409 160.718 153.953 160.958C153.505 161.19 152.993 161.306 152.417 161.306ZM152.417 160.466C152.825 160.466 153.181 160.39 153.485 160.238C153.789 160.078 154.025 159.858 154.193 159.578C154.369 159.29 154.457 158.958 154.457 158.582C154.457 158.206 154.369 157.878 154.193 157.598C154.025 157.31 153.789 157.09 153.485 156.938C153.181 156.778 152.825 156.698 152.417 156.698C152.009 156.698 151.649 156.778 151.337 156.938C151.033 157.09 150.797 157.31 150.629 157.598C150.461 157.878 150.377 158.206 150.377 158.582C150.377 158.958 150.461 159.29 150.629 159.578C150.797 159.858 151.033 160.078 151.337 160.238C151.649 160.39 152.009 160.466 152.417 160.466ZM152.417 155.858C152.713 155.858 152.977 155.798 153.209 155.678C153.441 155.55 153.625 155.378 153.761 155.162C153.905 154.938 153.977 154.678 153.977 154.382C153.977 154.086 153.905 153.83 153.761 153.614C153.625 153.398 153.441 153.23 153.209 153.11C152.977 152.982 152.713 152.918 152.417 152.918C152.121 152.918 151.853 152.982 151.613 153.11C151.381 153.23 151.193 153.398 151.049 153.614C150.913 153.83 150.845 154.086 150.845 154.382C150.845 154.678 150.913 154.938 151.049 155.162C151.193 155.378 151.381 155.55 151.613 155.678C151.853 155.798 152.121 155.858 152.417 155.858ZM157.42 161.162V159.842H158.38V161.162H157.42ZM157.42 156.05V154.73H158.38V156.05H157.42ZM164.022 161.306C163.318 161.306 162.698 161.114 162.162 160.73C161.634 160.338 161.222 159.798 160.926 159.11C160.63 158.414 160.482 157.606 160.482 156.686C160.482 155.766 160.63 154.962 160.926 154.274C161.222 153.578 161.634 153.038 162.162 152.654C162.69 152.27 163.306 152.078 164.01 152.078C164.714 152.078 165.33 152.27 165.858 152.654C166.386 153.038 166.798 153.578 167.094 154.274C167.39 154.962 167.538 155.766 167.538 156.686C167.538 157.606 167.39 158.414 167.094 159.11C166.806 159.806 166.398 160.346 165.87 160.73C165.342 161.114 164.726 161.306 164.022 161.306ZM164.022 160.406C164.534 160.406 164.982 160.25 165.366 159.938C165.75 159.626 166.05 159.194 166.266 158.642C166.482 158.082 166.59 157.43 166.59 156.686C166.59 155.942 166.482 155.294 166.266 154.742C166.05 154.182 165.75 153.75 165.366 153.446C164.982 153.134 164.53 152.978 164.01 152.978C163.498 152.978 163.05 153.134 162.666 153.446C162.282 153.75 161.982 154.182 161.766 154.742C161.55 155.294 161.442 155.942 161.442 156.686C161.442 157.422 161.55 158.07 161.766 158.63C161.982 159.19 162.282 159.626 162.666 159.938C163.058 160.25 163.51 160.406 164.022 160.406ZM172.811 161.306C172.107 161.306 171.487 161.114 170.951 160.73C170.423 160.338 170.011 159.798 169.715 159.11C169.419 158.414 169.271 157.606 169.271 156.686C169.271 155.766 169.419 154.962 169.715 154.274C170.011 153.578 170.423 153.038 170.951 152.654C171.479 152.27 172.095 152.078 172.799 152.078C173.503 152.078 174.119 152.27 174.647 152.654C175.175 153.038 175.587 153.578 175.883 154.274C176.179 154.962 176.327 155.766 176.327 156.686C176.327 157.606 176.179 158.414 175.883 159.11C175.595 159.806 175.187 160.346 174.659 160.73C174.131 161.114 173.515 161.306 172.811 161.306ZM172.811 160.406C173.323 160.406 173.771 160.25 174.155 159.938C174.539 159.626 174.839 159.194 175.055 158.642C175.271 158.082 175.379 157.43 175.379 156.686C175.379 155.942 175.271 155.294 175.055 154.742C174.839 154.182 174.539 153.75 174.155 153.446C173.771 153.134 173.319 152.978 172.799 152.978C172.287 152.978 171.839 153.134 171.455 153.446C171.071 153.75 170.771 154.182 170.555 154.742C170.339 155.294 170.231 155.942 170.231 156.686C170.231 157.422 170.339 158.07 170.555 158.63C170.771 159.19 171.071 159.626 171.455 159.938C171.847 160.25 172.299 160.406 172.811 160.406Z" fill="white"/>
<rect x="137.451" y="194.663" width="42.4588" height="23.0285" rx="11.5142" fill="#424242"/>
<path d="M144.584 211.321C143.88 211.321 143.26 211.129 142.724 210.745C142.196 210.353 141.784 209.813 141.488 209.125C141.192 208.429 141.044 207.621 141.044 206.701C141.044 205.781 141.192 204.977 141.488 204.289C141.784 203.593 142.196 203.053 142.724 202.669C143.252 202.285 143.868 202.093 144.572 202.093C145.276 202.093 145.892 202.285 146.42 202.669C146.948 203.053 147.36 203.593 147.656 204.289C147.952 204.977 148.1 205.781 148.1 206.701C148.1 207.621 147.952 208.429 147.656 209.125C147.368 209.821 146.96 210.361 146.432 210.745C145.904 211.129 145.288 211.321 144.584 211.321ZM144.584 210.421C145.096 210.421 145.544 210.265 145.928 209.953C146.312 209.641 146.612 209.209 146.828 208.657C147.044 208.097 147.152 207.445 147.152 206.701C147.152 205.957 147.044 205.309 146.828 204.757C146.612 204.197 146.312 203.765 145.928 203.461C145.544 203.149 145.092 202.993 144.572 202.993C144.06 202.993 143.612 203.149 143.228 203.461C142.844 203.765 142.544 204.197 142.328 204.757C142.112 205.309 142.004 205.957 142.004 206.701C142.004 207.437 142.112 208.085 142.328 208.645C142.544 209.205 142.844 209.641 143.228 209.953C143.62 210.265 144.072 210.421 144.584 210.421ZM150.709 211.177L153.817 207.109L153.997 207.001C153.877 207.193 153.737 207.345 153.577 207.457C153.417 207.569 153.241 207.649 153.049 207.697C152.857 207.745 152.645 207.769 152.413 207.769C151.893 207.769 151.425 207.649 151.009 207.409C150.593 207.161 150.261 206.825 150.013 206.401C149.773 205.969 149.653 205.477 149.653 204.925C149.653 204.381 149.777 203.897 150.025 203.473C150.281 203.049 150.625 202.713 151.057 202.465C151.497 202.217 151.989 202.093 152.533 202.093C153.093 202.093 153.589 202.221 154.021 202.477C154.453 202.725 154.793 203.073 155.041 203.521C155.289 203.961 155.413 204.469 155.413 205.045C155.413 205.365 155.373 205.681 155.293 205.993C155.221 206.305 155.109 206.613 154.957 206.917C154.805 207.221 154.613 207.525 154.381 207.829L151.861 211.177H150.709ZM152.533 206.905C152.909 206.905 153.241 206.821 153.529 206.653C153.817 206.477 154.041 206.241 154.201 205.945C154.369 205.641 154.453 205.301 154.453 204.925C154.453 204.541 154.369 204.201 154.201 203.905C154.033 203.601 153.805 203.365 153.517 203.197C153.229 203.021 152.901 202.933 152.533 202.933C152.165 202.933 151.837 203.021 151.549 203.197C151.261 203.365 151.033 203.601 150.865 203.905C150.697 204.201 150.613 204.541 150.613 204.925C150.613 205.301 150.693 205.641 150.853 205.945C151.021 206.241 151.249 206.477 151.537 206.653C151.833 206.821 152.165 206.905 152.533 206.905ZM157.365 211.177V209.857H158.325V211.177H157.365ZM157.365 206.065V204.745H158.325V206.065H157.365ZM163.967 211.321C163.263 211.321 162.643 211.129 162.107 210.745C161.579 210.353 161.167 209.813 160.871 209.125C160.575 208.429 160.427 207.621 160.427 206.701C160.427 205.781 160.575 204.977 160.871 204.289C161.167 203.593 161.579 203.053 162.107 202.669C162.635 202.285 163.251 202.093 163.955 202.093C164.659 202.093 165.275 202.285 165.803 202.669C166.331 203.053 166.743 203.593 167.039 204.289C167.335 204.977 167.483 205.781 167.483 206.701C167.483 207.621 167.335 208.429 167.039 209.125C166.751 209.821 166.343 210.361 165.815 210.745C165.287 211.129 164.671 211.321 163.967 211.321ZM163.967 210.421C164.479 210.421 164.927 210.265 165.311 209.953C165.695 209.641 165.995 209.209 166.211 208.657C166.427 208.097 166.535 207.445 166.535 206.701C166.535 205.957 166.427 205.309 166.211 204.757C165.995 204.197 165.695 203.765 165.311 203.461C164.927 203.149 164.475 202.993 163.955 202.993C163.443 202.993 162.995 203.149 162.611 203.461C162.227 203.765 161.927 204.197 161.711 204.757C161.495 205.309 161.387 205.957 161.387 206.701C161.387 207.437 161.495 208.085 161.711 208.645C161.927 209.205 162.227 209.641 162.611 209.953C163.003 210.265 163.455 210.421 163.967 210.421ZM172.756 211.321C172.052 211.321 171.432 211.129 170.896 210.745C170.368 210.353 169.956 209.813 169.66 209.125C169.364 208.429 169.216 207.621 169.216 206.701C169.216 205.781 169.364 204.977 169.66 204.289C169.956 203.593 170.368 203.053 170.896 202.669C171.424 202.285 172.04 202.093 172.744 202.093C173.448 202.093 174.064 202.285 174.592 202.669C175.12 203.053 175.532 203.593 175.828 204.289C176.124 204.977 176.272 205.781 176.272 206.701C176.272 207.621 176.124 208.429 175.828 209.125C175.54 209.821 175.132 210.361 174.604 210.745C174.076 211.129 173.46 211.321 172.756 211.321ZM172.756 210.421C173.268 210.421 173.716 210.265 174.1 209.953C174.484 209.641 174.784 209.209 175 208.657C175.216 208.097 175.324 207.445 175.324 206.701C175.324 205.957 175.216 205.309 175 204.757C174.784 204.197 174.484 203.765 174.1 203.461C173.716 203.149 173.264 202.993 172.744 202.993C172.232 202.993 171.784 203.149 171.4 203.461C171.016 203.765 170.716 204.197 170.5 204.757C170.284 205.309 170.176 205.957 170.176 206.701C170.176 207.437 170.284 208.085 170.5 208.645C170.716 209.205 171.016 209.641 171.4 209.953C171.792 210.265 172.244 210.421 172.756 210.421Z" fill="white"/>
<path opacity="0.6" d="M35.2978 15V13.9H35.7278C36.0611 13.9 36.3278 13.8033 36.5278 13.61C36.7278 13.41 36.8278 13.1433 36.8278 12.81V7.55H37.9978V12.77C37.9978 13.2233 37.9045 13.6167 37.7178 13.95C37.5378 14.2833 37.2745 14.5433 36.9278 14.73C36.5878 14.91 36.1878 15 35.7278 15H35.2978ZM42.6543 15.12C42.1143 15.12 41.6343 14.9967 41.2143 14.75C40.801 14.4967 40.4776 14.1567 40.2443 13.73C40.011 13.2967 39.8943 12.8133 39.8943 12.28C39.8943 11.7333 40.011 11.25 40.2443 10.83C40.4843 10.41 40.8043 10.08 41.2043 9.84C41.6043 9.59333 42.0576 9.47 42.5643 9.47C42.971 9.47 43.3343 9.54 43.6543 9.68C43.9743 9.82 44.2443 10.0133 44.4643 10.26C44.6843 10.5 44.851 10.7767 44.9643 11.09C45.0843 11.4033 45.1443 11.7367 45.1443 12.09C45.1443 12.1767 45.141 12.2667 45.1343 12.36C45.1276 12.4533 45.1143 12.54 45.0943 12.62H40.7843V11.72H44.4543L43.9143 12.13C43.981 11.8033 43.9576 11.5133 43.8443 11.26C43.7376 11 43.571 10.7967 43.3443 10.65C43.1243 10.4967 42.8643 10.42 42.5643 10.42C42.2643 10.42 41.9976 10.4967 41.7643 10.65C41.531 10.7967 41.351 11.01 41.2243 11.29C41.0976 11.5633 41.0476 11.8967 41.0743 12.29C41.041 12.6567 41.091 12.9767 41.2243 13.25C41.3643 13.5233 41.5576 13.7367 41.8043 13.89C42.0576 14.0433 42.3443 14.12 42.6643 14.12C42.991 14.12 43.2676 14.0467 43.4943 13.9C43.7276 13.7533 43.911 13.5633 44.0443 13.33L44.9643 13.78C44.8576 14.0333 44.691 14.2633 44.4643 14.47C44.2443 14.67 43.9776 14.83 43.6643 14.95C43.3576 15.0633 43.021 15.12 42.6543 15.12ZM46.9471 15V9.59H48.0271V10.65L47.8971 10.51C48.0304 10.17 48.2438 9.91333 48.5371 9.74C48.8304 9.56 49.1704 9.47 49.5571 9.47C49.9571 9.47 50.3104 9.55667 50.6171 9.73C50.9238 9.90333 51.1638 10.1433 51.3371 10.45C51.5104 10.7567 51.5971 11.11 51.5971 11.51V15H50.4771V11.81C50.4771 11.5367 50.4271 11.3067 50.3271 11.12C50.2271 10.9267 50.0838 10.78 49.8971 10.68C49.7171 10.5733 49.5104 10.52 49.2771 10.52C49.0438 10.52 48.8338 10.5733 48.6471 10.68C48.4671 10.78 48.3271 10.9267 48.2271 11.12C48.1271 11.3133 48.0771 11.5433 48.0771 11.81V15H46.9471ZM53.5065 15V9.59H54.6365V15H53.5065ZM53.5065 8.85V7.55H54.6365V8.85H53.5065ZM58.6577 15.12C58.1043 15.12 57.6177 14.9833 57.1977 14.71C56.7843 14.4367 56.4943 14.07 56.3277 13.61L57.1977 13.2C57.3443 13.5067 57.5443 13.75 57.7977 13.93C58.0577 14.11 58.3443 14.2 58.6577 14.2C58.9243 14.2 59.141 14.14 59.3077 14.02C59.4743 13.9 59.5577 13.7367 59.5577 13.53C59.5577 13.3967 59.521 13.29 59.4477 13.21C59.3743 13.1233 59.281 13.0533 59.1677 13C59.061 12.9467 58.951 12.9067 58.8377 12.88L57.9877 12.64C57.521 12.5067 57.171 12.3067 56.9377 12.04C56.711 11.7667 56.5977 11.45 56.5977 11.09C56.5977 10.7633 56.681 10.48 56.8477 10.24C57.0143 9.99333 57.2443 9.80333 57.5377 9.67C57.831 9.53667 58.161 9.47 58.5277 9.47C59.021 9.47 59.461 9.59333 59.8477 9.84C60.2343 10.08 60.5077 10.4167 60.6677 10.85L59.7977 11.26C59.691 11 59.521 10.7933 59.2877 10.64C59.061 10.4867 58.8043 10.41 58.5177 10.41C58.271 10.41 58.0743 10.47 57.9277 10.59C57.781 10.7033 57.7077 10.8533 57.7077 11.04C57.7077 11.1667 57.741 11.2733 57.8077 11.36C57.8743 11.44 57.961 11.5067 58.0677 11.56C58.1743 11.6067 58.2843 11.6467 58.3977 11.68L59.2777 11.94C59.7243 12.0667 60.0677 12.2667 60.3077 12.54C60.5477 12.8067 60.6677 13.1267 60.6677 13.5C60.6677 13.82 60.581 14.1033 60.4077 14.35C60.241 14.59 60.0077 14.78 59.7077 14.92C59.4077 15.0533 59.0577 15.12 58.6577 15.12ZM65.0329 15V7.55H68.1729C68.6396 7.55 69.0429 7.63333 69.3829 7.8C69.7229 7.96 69.9829 8.19333 70.1629 8.5C70.3429 8.8 70.4329 9.15667 70.4329 9.57C70.4329 9.93 70.3396 10.26 70.1529 10.56C69.9729 10.8533 69.6896 11.0867 69.3029 11.26V10.76C69.6429 10.8933 69.9196 11.0633 70.1329 11.27C70.3462 11.47 70.4996 11.6967 70.5929 11.95C70.6929 12.2033 70.7429 12.47 70.7429 12.75C70.7429 13.45 70.5129 14 70.0529 14.4C69.5996 14.8 68.9762 15 68.1829 15H65.0329ZM66.2129 13.95H68.2729C68.6662 13.95 68.9796 13.8433 69.2129 13.63C69.4462 13.41 69.5629 13.12 69.5629 12.76C69.5629 12.3933 69.4462 12.1033 69.2129 11.89C68.9796 11.67 68.6662 11.56 68.2729 11.56H66.2129V13.95ZM66.2129 10.52H68.2029C68.5229 10.52 68.7796 10.43 68.9729 10.25C69.1662 10.0633 69.2629 9.82 69.2629 9.52C69.2629 9.22 69.1662 8.98667 68.9729 8.82C68.7796 8.65333 68.5229 8.57 68.2029 8.57H66.2129V10.52ZM75.0867 15.12C74.5467 15.12 74.0667 14.9967 73.6467 14.75C73.2334 14.4967 72.9101 14.1567 72.6767 13.73C72.4434 13.2967 72.3267 12.8133 72.3267 12.28C72.3267 11.7333 72.4434 11.25 72.6767 10.83C72.9167 10.41 73.2367 10.08 73.6367 9.84C74.0367 9.59333 74.4901 9.47 74.9967 9.47C75.4034 9.47 75.7667 9.54 76.0867 9.68C76.4067 9.82 76.6767 10.0133 76.8967 10.26C77.1167 10.5 77.2834 10.7767 77.3967 11.09C77.5167 11.4033 77.5767 11.7367 77.5767 12.09C77.5767 12.1767 77.5734 12.2667 77.5667 12.36C77.5601 12.4533 77.5467 12.54 77.5267 12.62H73.2167V11.72H76.8867L76.3467 12.13C76.4134 11.8033 76.3901 11.5133 76.2767 11.26C76.1701 11 76.0034 10.7967 75.7767 10.65C75.5567 10.4967 75.2967 10.42 74.9967 10.42C74.6967 10.42 74.4301 10.4967 74.1967 10.65C73.9634 10.7967 73.7834 11.01 73.6567 11.29C73.5301 11.5633 73.4801 11.8967 73.5067 12.29C73.4734 12.6567 73.5234 12.9767 73.6567 13.25C73.7967 13.5233 73.9901 13.7367 74.2367 13.89C74.4901 14.0433 74.7767 14.12 75.0967 14.12C75.4234 14.12 75.7001 14.0467 75.9267 13.9C76.1601 13.7533 76.3434 13.5633 76.4767 13.33L77.3967 13.78C77.2901 14.0333 77.1234 14.2633 76.8967 14.47C76.6767 14.67 76.4101 14.83 76.0967 14.95C75.7901 15.0633 75.4534 15.12 75.0867 15.12ZM79.3795 15V9.59H80.4595V10.76L80.3195 10.58C80.4329 10.2133 80.6395 9.93667 80.9395 9.75C81.2395 9.56333 81.5829 9.47 81.9695 9.47C82.4029 9.47 82.7862 9.58667 83.1195 9.82C83.4595 10.0467 83.6862 10.35 83.7995 10.73L83.4795 10.76C83.6395 10.3267 83.8829 10.0033 84.2095 9.79C84.5429 9.57667 84.9229 9.47 85.3495 9.47C85.7229 9.47 86.0595 9.55667 86.3595 9.73C86.6662 9.90333 86.9095 10.1433 87.0895 10.45C87.2695 10.7567 87.3595 11.1067 87.3595 11.5V15H86.2295V11.81C86.2295 11.5367 86.1795 11.3067 86.0795 11.12C85.9862 10.9267 85.8529 10.78 85.6795 10.68C85.5129 10.5733 85.3162 10.52 85.0895 10.52C84.8629 10.52 84.6629 10.5733 84.4895 10.68C84.3162 10.78 84.1795 10.9267 84.0795 11.12C83.9795 11.3133 83.9295 11.5433 83.9295 11.81V15H82.8095V11.81C82.8095 11.5367 82.7595 11.3067 82.6595 11.12C82.5662 10.9267 82.4329 10.78 82.2595 10.68C82.0929 10.5733 81.8929 10.52 81.6595 10.52C81.4329 10.52 81.2329 10.5733 81.0595 10.68C80.8862 10.78 80.7495 10.9267 80.6495 11.12C80.5562 11.3133 80.5095 11.5433 80.5095 11.81V15H79.3795ZM91.879 15.12C91.359 15.12 90.8823 14.9967 90.449 14.75C90.0223 14.5033 89.6823 14.1667 89.429 13.74C89.1757 13.3133 89.049 12.83 89.049 12.29C89.049 11.7433 89.1757 11.26 89.429 10.84C89.6823 10.4133 90.0223 10.08 90.449 9.84C90.8757 9.59333 91.3523 9.47 91.879 9.47C92.4123 9.47 92.889 9.59333 93.309 9.84C93.7357 10.08 94.0723 10.4133 94.319 10.84C94.5723 11.26 94.699 11.7433 94.699 12.29C94.699 12.8367 94.5723 13.3233 94.319 13.75C94.0657 14.1767 93.7257 14.5133 93.299 14.76C92.8723 15 92.399 15.12 91.879 15.12ZM91.879 14.07C92.199 14.07 92.4823 13.9933 92.729 13.84C92.9757 13.6867 93.169 13.4767 93.309 13.21C93.4557 12.9367 93.529 12.63 93.529 12.29C93.529 11.95 93.4557 11.6467 93.309 11.38C93.169 11.1133 92.9757 10.9033 92.729 10.75C92.4823 10.5967 92.199 10.52 91.879 10.52C91.5657 10.52 91.2823 10.5967 91.029 10.75C90.7823 10.9033 90.5857 11.1133 90.439 11.38C90.299 11.6467 90.229 11.95 90.229 12.29C90.229 12.63 90.299 12.9367 90.439 13.21C90.5857 13.4767 90.7823 13.6867 91.029 13.84C91.2823 13.9933 91.5657 14.07 91.879 14.07Z" fill="white"/>
<path opacity="0.6" d="M144.716 15V7.55H147.426C147.926 7.55 148.366 7.64333 148.746 7.83C149.132 8.01 149.432 8.27667 149.646 8.63C149.859 8.97667 149.966 9.39333 149.966 9.88C149.966 10.36 149.856 10.7733 149.636 11.12C149.422 11.4667 149.126 11.7333 148.746 11.92C148.366 12.1067 147.926 12.2 147.426 12.2H145.896V15H144.716ZM145.896 11.15H147.456C147.722 11.15 147.956 11.0967 148.156 10.99C148.356 10.8833 148.512 10.7367 148.626 10.55C148.739 10.3567 148.796 10.13 148.796 9.87C148.796 9.61 148.739 9.38667 148.626 9.2C148.512 9.00667 148.356 8.86 148.156 8.76C147.956 8.65333 147.722 8.6 147.456 8.6H145.896V11.15ZM153.701 15.12C153.294 15.12 152.937 15.03 152.631 14.85C152.324 14.6633 152.084 14.4067 151.911 14.08C151.744 13.7467 151.661 13.3633 151.661 12.93V9.59H152.791V12.83C152.791 13.0767 152.841 13.2933 152.941 13.48C153.041 13.6667 153.181 13.8133 153.361 13.92C153.541 14.02 153.747 14.07 153.981 14.07C154.221 14.07 154.431 14.0167 154.611 13.91C154.791 13.8033 154.931 13.6533 155.031 13.46C155.137 13.2667 155.191 13.04 155.191 12.78V9.59H156.311V15H155.241V13.94L155.361 14.08C155.234 14.4133 155.024 14.67 154.731 14.85C154.437 15.03 154.094 15.12 153.701 15.12ZM158.33 15V7.43H159.46V12.5L159.02 12.39L161.73 9.59H163.14L161.1 11.76L163.23 15H161.93L160.03 12.13L160.7 12.04L159.1 13.74L159.46 12.99V15H158.33ZM166.634 15.12C166.227 15.12 165.87 15.03 165.564 14.85C165.257 14.6633 165.017 14.4067 164.844 14.08C164.677 13.7467 164.594 13.3633 164.594 12.93V9.59H165.724V12.83C165.724 13.0767 165.774 13.2933 165.874 13.48C165.974 13.6667 166.114 13.8133 166.294 13.92C166.474 14.02 166.68 14.07 166.914 14.07C167.154 14.07 167.364 14.0167 167.544 13.91C167.724 13.8033 167.864 13.6533 167.964 13.46C168.07 13.2667 168.124 13.04 168.124 12.78V9.59H169.244V15H168.174V13.94L168.294 14.08C168.167 14.4133 167.957 14.67 167.664 14.85C167.37 15.03 167.027 15.12 166.634 15.12ZM171.263 15V7.43H172.393V15H171.263Z" fill="white"/>
<path opacity="0.6" d="M232.586 15V8.6H230.606V7.55H235.706V8.6H233.756V15H232.586ZM239.015 15.12C238.475 15.12 237.995 14.9967 237.575 14.75C237.162 14.4967 236.839 14.1567 236.605 13.73C236.372 13.2967 236.255 12.8133 236.255 12.28C236.255 11.7333 236.372 11.25 236.605 10.83C236.845 10.41 237.165 10.08 237.565 9.84C237.965 9.59333 238.419 9.47 238.925 9.47C239.332 9.47 239.695 9.54 240.015 9.68C240.335 9.82 240.605 10.0133 240.825 10.26C241.045 10.5 241.212 10.7767 241.325 11.09C241.445 11.4033 241.505 11.7367 241.505 12.09C241.505 12.1767 241.502 12.2667 241.495 12.36C241.489 12.4533 241.475 12.54 241.455 12.62H237.145V11.72H240.815L240.275 12.13C240.342 11.8033 240.319 11.5133 240.205 11.26C240.099 11 239.932 10.7967 239.705 10.65C239.485 10.4967 239.225 10.42 238.925 10.42C238.625 10.42 238.359 10.4967 238.125 10.65C237.892 10.7967 237.712 11.01 237.585 11.29C237.459 11.5633 237.409 11.8967 237.435 12.29C237.402 12.6567 237.452 12.9767 237.585 13.25C237.725 13.5233 237.919 13.7367 238.165 13.89C238.419 14.0433 238.705 14.12 239.025 14.12C239.352 14.12 239.629 14.0467 239.855 13.9C240.089 13.7533 240.272 13.5633 240.405 13.33L241.325 13.78C241.219 14.0333 241.052 14.2633 240.825 14.47C240.605 14.67 240.339 14.83 240.025 14.95C239.719 15.0633 239.382 15.12 239.015 15.12ZM243.308 15V9.59H244.388V10.68L244.288 10.52C244.408 10.1667 244.602 9.91333 244.868 9.76C245.135 9.6 245.455 9.52 245.828 9.52H246.158V10.55H245.688C245.315 10.55 245.012 10.6667 244.778 10.9C244.552 11.1267 244.438 11.4533 244.438 11.88V15H243.308ZM247.631 15V9.59H248.711V10.76L248.571 10.58C248.685 10.2133 248.891 9.93667 249.191 9.75C249.491 9.56333 249.835 9.47 250.221 9.47C250.655 9.47 251.038 9.58667 251.371 9.82C251.711 10.0467 251.938 10.35 252.051 10.73L251.731 10.76C251.891 10.3267 252.135 10.0033 252.461 9.79C252.795 9.57667 253.175 9.47 253.601 9.47C253.975 9.47 254.311 9.55667 254.611 9.73C254.918 9.90333 255.161 10.1433 255.341 10.45C255.521 10.7567 255.611 11.1067 255.611 11.5V15H254.481V11.81C254.481 11.5367 254.431 11.3067 254.331 11.12C254.238 10.9267 254.105 10.78 253.931 10.68C253.765 10.5733 253.568 10.52 253.341 10.52C253.115 10.52 252.915 10.5733 252.741 10.68C252.568 10.78 252.431 10.9267 252.331 11.12C252.231 11.3133 252.181 11.5433 252.181 11.81V15H251.061V11.81C251.061 11.5367 251.011 11.3067 250.911 11.12C250.818 10.9267 250.685 10.78 250.511 10.68C250.345 10.5733 250.145 10.52 249.911 10.52C249.685 10.52 249.485 10.5733 249.311 10.68C249.138 10.78 249.001 10.9267 248.901 11.12C248.808 11.3133 248.761 11.5433 248.761 11.81V15H247.631ZM257.521 15V9.59H258.651V15H257.521ZM257.521 8.85V7.55H258.651V8.85H257.521ZM260.672 15V9.59H261.752V10.65L261.622 10.51C261.755 10.17 261.969 9.91333 262.262 9.74C262.555 9.56 262.895 9.47 263.282 9.47C263.682 9.47 264.035 9.55667 264.342 9.73C264.649 9.90333 264.889 10.1433 265.062 10.45C265.235 10.7567 265.322 11.11 265.322 11.51V15H264.202V11.81C264.202 11.5367 264.152 11.3067 264.052 11.12C263.952 10.9267 263.809 10.78 263.622 10.68C263.442 10.5733 263.235 10.52 263.002 10.52C262.769 10.52 262.559 10.5733 262.372 10.68C262.192 10.78 262.052 10.9267 261.952 11.12C261.852 11.3133 261.802 11.5433 261.802 11.81V15H260.672ZM268.851 15.12C268.485 15.12 268.161 15.0567 267.881 14.93C267.608 14.7967 267.395 14.6167 267.241 14.39C267.088 14.1567 267.011 13.8833 267.011 13.57C267.011 13.2767 267.075 13.0133 267.201 12.78C267.335 12.5467 267.538 12.35 267.811 12.19C268.085 12.03 268.428 11.9167 268.841 11.85L270.721 11.54V12.43L269.061 12.72C268.761 12.7733 268.541 12.87 268.401 13.01C268.261 13.1433 268.191 13.3167 268.191 13.53C268.191 13.7367 268.268 13.9067 268.421 14.04C268.581 14.1667 268.785 14.23 269.031 14.23C269.338 14.23 269.605 14.1633 269.831 14.03C270.065 13.8967 270.245 13.72 270.371 13.5C270.498 13.2733 270.561 13.0233 270.561 12.75V11.36C270.561 11.0933 270.461 10.8767 270.261 10.71C270.068 10.5367 269.808 10.45 269.481 10.45C269.181 10.45 268.918 10.53 268.691 10.69C268.471 10.8433 268.308 11.0433 268.201 11.29L267.261 10.82C267.361 10.5533 267.525 10.32 267.751 10.12C267.978 9.91333 268.241 9.75333 268.541 9.64C268.848 9.52667 269.171 9.47 269.511 9.47C269.938 9.47 270.315 9.55 270.641 9.71C270.975 9.87 271.231 10.0933 271.411 10.38C271.598 10.66 271.691 10.9867 271.691 11.36V15H270.611V14.02L270.841 14.05C270.715 14.27 270.551 14.46 270.351 14.62C270.158 14.78 269.935 14.9033 269.681 14.99C269.435 15.0767 269.158 15.12 268.851 15.12ZM273.713 15V7.43H274.843V15H273.713Z" fill="white"/>
<rect x="16.9844" y="85.6228" width="93.913" height="32.024" rx="16.012" fill="#424242"/>
<path d="M36.3493 102.393V93.4532H40.1173C40.6773 93.4532 41.1613 93.5532 41.5693 93.7532C41.9773 93.9452 42.2893 94.2252 42.5053 94.5932C42.7213 94.9532 42.8293 95.3812 42.8293 95.8772C42.8293 96.3092 42.7173 96.7052 42.4933 97.0652C42.2773 97.4172 41.9373 97.6972 41.4733 97.9052V97.3052C41.8813 97.4652 42.2133 97.6692 42.4693 97.9172C42.7253 98.1572 42.9093 98.4292 43.0213 98.7332C43.1413 99.0372 43.2013 99.3572 43.2013 99.6932C43.2013 100.533 42.9253 101.193 42.3733 101.673C41.8293 102.153 41.0813 102.393 40.1293 102.393H36.3493ZM37.7653 101.133H40.2373C40.7093 101.133 41.0853 101.005 41.3653 100.749C41.6453 100.485 41.7853 100.137 41.7853 99.7052C41.7853 99.2652 41.6453 98.9172 41.3653 98.6612C41.0853 98.3972 40.7093 98.2652 40.2373 98.2652H37.7653V101.133ZM37.7653 97.0172H40.1533C40.5373 97.0172 40.8453 96.9092 41.0773 96.6932C41.3093 96.4692 41.4253 96.1772 41.4253 95.8172C41.4253 95.4572 41.3093 95.1772 41.0773 94.9772C40.8453 94.7772 40.5373 94.6772 40.1533 94.6772H37.7653V97.0172ZM47.5739 102.537C46.9259 102.537 46.3499 102.389 45.8459 102.093C45.3499 101.789 44.9619 101.381 44.6819 100.869C44.4019 100.349 44.2619 99.7692 44.2619 99.1292C44.2619 98.4732 44.4019 97.8932 44.6819 97.3892C44.9699 96.8852 45.3539 96.4892 45.8339 96.2012C46.3139 95.9052 46.8579 95.7572 47.4659 95.7572C47.9539 95.7572 48.3899 95.8412 48.7739 96.0092C49.1579 96.1772 49.4819 96.4092 49.7459 96.7052C50.0099 96.9932 50.2099 97.3252 50.3459 97.7012C50.4899 98.0772 50.5619 98.4772 50.5619 98.9012C50.5619 99.0052 50.5579 99.1132 50.5499 99.2252C50.5419 99.3372 50.5259 99.4412 50.5019 99.5372H45.3299V98.4572H49.7339L49.0859 98.9492C49.1659 98.5572 49.1379 98.2092 49.0019 97.9052C48.8739 97.5932 48.6739 97.3492 48.4019 97.1732C48.1379 96.9892 47.8259 96.8972 47.4659 96.8972C47.1059 96.8972 46.7859 96.9892 46.5059 97.1732C46.2259 97.3492 46.0099 97.6052 45.8579 97.9412C45.7059 98.2692 45.6459 98.6692 45.6779 99.1412C45.6379 99.5812 45.6979 99.9652 45.8579 100.293C46.0259 100.621 46.2579 100.877 46.5539 101.061C46.8579 101.245 47.2019 101.337 47.5859 101.337C47.9779 101.337 48.3099 101.249 48.5819 101.073C48.8619 100.897 49.0819 100.669 49.2419 100.389L50.3459 100.929C50.2179 101.233 50.0179 101.509 49.7459 101.757C49.4819 101.997 49.1619 102.189 48.7859 102.333C48.4179 102.469 48.0139 102.537 47.5739 102.537ZM51.8853 102.393V95.9012H53.1813V97.3052L53.0133 97.0892C53.1493 96.6492 53.3973 96.3172 53.7573 96.0932C54.1173 95.8692 54.5293 95.7572 54.9933 95.7572C55.5133 95.7572 55.9733 95.8972 56.3733 96.1772C56.7813 96.4492 57.0533 96.8132 57.1893 97.2692L56.8053 97.3052C56.9973 96.7852 57.2893 96.3972 57.6813 96.1412C58.0813 95.8852 58.5373 95.7572 59.0493 95.7572C59.4973 95.7572 59.9013 95.8612 60.2613 96.0692C60.6293 96.2772 60.9213 96.5652 61.1373 96.9332C61.3533 97.3012 61.4613 97.7212 61.4613 98.1932V102.393H60.1053V98.5652C60.1053 98.2372 60.0453 97.9612 59.9253 97.7372C59.8133 97.5052 59.6533 97.3292 59.4453 97.2092C59.2453 97.0812 59.0093 97.0172 58.7373 97.0172C58.4653 97.0172 58.2253 97.0812 58.0173 97.2092C57.8093 97.3292 57.6453 97.5052 57.5253 97.7372C57.4053 97.9692 57.3453 98.2452 57.3453 98.5652V102.393H56.0013V98.5652C56.0013 98.2372 55.9413 97.9612 55.8213 97.7372C55.7093 97.5052 55.5493 97.3292 55.3413 97.2092C55.1413 97.0812 54.9013 97.0172 54.6213 97.0172C54.3493 97.0172 54.1093 97.0812 53.9013 97.2092C53.6933 97.3292 53.5293 97.5052 53.4093 97.7372C53.2973 97.9692 53.2413 98.2452 53.2413 98.5652V102.393H51.8853ZM66.0446 102.537C65.4206 102.537 64.8486 102.389 64.3286 102.093C63.8166 101.797 63.4086 101.393 63.1046 100.881C62.8006 100.369 62.6486 99.7892 62.6486 99.1412C62.6486 98.4852 62.8006 97.9052 63.1046 97.4012C63.4086 96.8892 63.8166 96.4892 64.3286 96.2012C64.8406 95.9052 65.4126 95.7572 66.0446 95.7572C66.6846 95.7572 67.2566 95.9052 67.7606 96.2012C68.2726 96.4892 68.6766 96.8892 68.9726 97.4012C69.2766 97.9052 69.4286 98.4852 69.4286 99.1412C69.4286 99.7972 69.2766 100.381 68.9726 100.893C68.6686 101.405 68.2606 101.809 67.7486 102.105C67.2366 102.393 66.6686 102.537 66.0446 102.537ZM66.0446 101.277C66.4286 101.277 66.7686 101.185 67.0646 101.001C67.3606 100.817 67.5926 100.565 67.7606 100.245C67.9366 99.9172 68.0246 99.5492 68.0246 99.1412C68.0246 98.7332 67.9366 98.3692 67.7606 98.0492C67.5926 97.7292 67.3606 97.4772 67.0646 97.2932C66.7686 97.1092 66.4286 97.0172 66.0446 97.0172C65.6686 97.0172 65.3286 97.1092 65.0246 97.2932C64.7286 97.4772 64.4926 97.7292 64.3166 98.0492C64.1486 98.3692 64.0646 98.7332 64.0646 99.1412C64.0646 99.5492 64.1486 99.9172 64.3166 100.245C64.4926 100.565 64.7286 100.817 65.0246 101.001C65.3286 101.185 65.6686 101.277 66.0446 101.277ZM72.9821 102.393V93.4532H76.7501C77.3101 93.4532 77.7941 93.5532 78.2021 93.7532C78.6101 93.9452 78.9221 94.2252 79.1381 94.5932C79.3541 94.9532 79.4621 95.3812 79.4621 95.8772C79.4621 96.3092 79.3501 96.7052 79.1261 97.0652C78.9101 97.4172 78.5701 97.6972 78.1061 97.9052V97.3052C78.5141 97.4652 78.8461 97.6692 79.1021 97.9172C79.3581 98.1572 79.5421 98.4292 79.6541 98.7332C79.7741 99.0372 79.8341 99.3572 79.8341 99.6932C79.8341 100.533 79.5581 101.193 79.0061 101.673C78.4621 102.153 77.7141 102.393 76.7621 102.393H72.9821ZM74.3981 101.133H76.8701C77.3421 101.133 77.7181 101.005 77.9981 100.749C78.2781 100.485 78.4181 100.137 78.4181 99.7052C78.4181 99.2652 78.2781 98.9172 77.9981 98.6612C77.7181 98.3972 77.3421 98.2652 76.8701 98.2652H74.3981V101.133ZM74.3981 97.0172H76.7861C77.1701 97.0172 77.4781 96.9092 77.7101 96.6932C77.9421 96.4692 78.0581 96.1772 78.0581 95.8172C78.0581 95.4572 77.9421 95.1772 77.7101 94.9772C77.4781 94.7772 77.1701 94.6772 76.7861 94.6772H74.3981V97.0172ZM81.1587 102.393V95.9012H82.5147V102.393H81.1587ZM81.1587 95.0132V93.4532H82.5147V95.0132H81.1587ZM84.1001 102.393V95.9012H85.3961V97.2092L85.2761 97.0172C85.4201 96.5932 85.6521 96.2892 85.9721 96.1052C86.2921 95.9132 86.6761 95.8172 87.1241 95.8172H87.5201V97.0532H86.9561C86.5081 97.0532 86.1441 97.1932 85.8641 97.4732C85.5921 97.7452 85.4561 98.1372 85.4561 98.6492V102.393H84.1001ZM90.7638 102.537C90.2758 102.537 89.8478 102.429 89.4798 102.213C89.1118 101.989 88.8238 101.681 88.6158 101.289C88.4158 100.889 88.3158 100.429 88.3158 99.9092V95.9012H89.6718V99.7892C89.6718 100.085 89.7318 100.345 89.8518 100.569C89.9718 100.793 90.1398 100.969 90.3558 101.097C90.5718 101.217 90.8198 101.277 91.0998 101.277C91.3878 101.277 91.6398 101.213 91.8558 101.085C92.0718 100.957 92.2398 100.777 92.3598 100.545C92.4878 100.313 92.5518 100.041 92.5518 99.7292V95.9012H93.8958V102.393H92.6118V101.121L92.7558 101.289C92.6038 101.689 92.3518 101.997 91.9998 102.213C91.6478 102.429 91.2358 102.537 90.7638 102.537Z" fill="white"/>
<rect x="32.0405" y="111.667" width="64.3746" height="5.90769" rx="2.95385" fill="#32E4FE"/>
<rect x="16.9844" y="135.96" width="93.913" height="32.024" rx="16.012" fill="#424242"/>
<path d="M41.6681 152.73V143.79H45.4361C45.9961 143.79 46.4801 143.89 46.8881 144.09C47.2961 144.282 47.6081 144.562 47.8241 144.93C48.0401 145.29 48.1481 145.718 48.1481 146.214C48.1481 146.646 48.0361 147.042 47.8121 147.402C47.5961 147.754 47.2561 148.034 46.7921 148.242V147.642C47.2001 147.802 47.5321 148.006 47.7881 148.254C48.0441 148.494 48.2281 148.766 48.3401 149.07C48.4601 149.374 48.5201 149.694 48.5201 150.03C48.5201 150.87 48.2441 151.53 47.6921 152.01C47.1481 152.49 46.4001 152.73 45.4481 152.73H41.6681ZM43.0841 151.47H45.5561C46.0281 151.47 46.4041 151.342 46.6841 151.086C46.9641 150.822 47.1041 150.474 47.1041 150.042C47.1041 149.602 46.9641 149.254 46.6841 148.998C46.4041 148.734 46.0281 148.602 45.5561 148.602H43.0841V151.47ZM43.0841 147.354H45.4721C45.8561 147.354 46.1641 147.246 46.3961 147.03C46.6281 146.806 46.7441 146.514 46.7441 146.154C46.7441 145.794 46.6281 145.514 46.3961 145.314C46.1641 145.114 45.8561 145.014 45.4721 145.014H43.0841V147.354ZM52.8927 152.874C52.2447 152.874 51.6687 152.726 51.1647 152.43C50.6687 152.126 50.2807 151.718 50.0007 151.206C49.7207 150.686 49.5807 150.106 49.5807 149.466C49.5807 148.81 49.7207 148.23 50.0007 147.726C50.2887 147.222 50.6727 146.826 51.1527 146.538C51.6327 146.242 52.1767 146.094 52.7847 146.094C53.2727 146.094 53.7087 146.178 54.0927 146.346C54.4767 146.514 54.8007 146.746 55.0647 147.042C55.3287 147.33 55.5287 147.662 55.6647 148.038C55.8087 148.414 55.8807 148.814 55.8807 149.238C55.8807 149.342 55.8767 149.45 55.8687 149.562C55.8607 149.674 55.8447 149.778 55.8207 149.874H50.6487V148.794H55.0527L54.4047 149.286C54.4847 148.894 54.4567 148.546 54.3207 148.242C54.1927 147.93 53.9927 147.686 53.7207 147.51C53.4567 147.326 53.1447 147.234 52.7847 147.234C52.4247 147.234 52.1047 147.326 51.8247 147.51C51.5447 147.686 51.3287 147.942 51.1767 148.278C51.0247 148.606 50.9647 149.006 50.9967 149.478C50.9567 149.918 51.0167 150.302 51.1767 150.63C51.3447 150.958 51.5767 151.214 51.8727 151.398C52.1767 151.582 52.5207 151.674 52.9047 151.674C53.2967 151.674 53.6287 151.586 53.9007 151.41C54.1807 151.234 54.4007 151.006 54.5607 150.726L55.6647 151.266C55.5367 151.57 55.3367 151.846 55.0647 152.094C54.8007 152.334 54.4807 152.526 54.1047 152.67C53.7367 152.806 53.3327 152.874 52.8927 152.874ZM57.2041 152.73V146.238H58.5001V147.642L58.3321 147.426C58.4681 146.986 58.7161 146.654 59.0761 146.43C59.4361 146.206 59.8481 146.094 60.3121 146.094C60.8321 146.094 61.2921 146.234 61.6921 146.514C62.1001 146.786 62.3721 147.15 62.5081 147.606L62.1241 147.642C62.3161 147.122 62.6081 146.734 63.0001 146.478C63.4001 146.222 63.8561 146.094 64.3681 146.094C64.8161 146.094 65.2201 146.198 65.5801 146.406C65.9481 146.614 66.2401 146.902 66.4561 147.27C66.6721 147.638 66.7801 148.058 66.7801 148.53V152.73H65.4241V148.902C65.4241 148.574 65.3641 148.298 65.2441 148.074C65.1321 147.842 64.9721 147.666 64.7641 147.546C64.5641 147.418 64.3281 147.354 64.0561 147.354C63.7841 147.354 63.5441 147.418 63.3361 147.546C63.1281 147.666 62.9641 147.842 62.8441 148.074C62.7241 148.306 62.6641 148.582 62.6641 148.902V152.73H61.3201V148.902C61.3201 148.574 61.2601 148.298 61.1401 148.074C61.0281 147.842 60.8681 147.666 60.6601 147.546C60.4601 147.418 60.2201 147.354 59.9401 147.354C59.6681 147.354 59.4281 147.418 59.2201 147.546C59.0121 147.666 58.8481 147.842 58.7281 148.074C58.6161 148.306 58.5601 148.582 58.5601 148.902V152.73H57.2041ZM71.3635 152.874C70.7395 152.874 70.1675 152.726 69.6475 152.43C69.1355 152.134 68.7275 151.73 68.4235 151.218C68.1195 150.706 67.9675 150.126 67.9675 149.478C67.9675 148.822 68.1195 148.242 68.4235 147.738C68.7275 147.226 69.1355 146.826 69.6475 146.538C70.1595 146.242 70.7315 146.094 71.3635 146.094C72.0035 146.094 72.5755 146.242 73.0795 146.538C73.5915 146.826 73.9955 147.226 74.2915 147.738C74.5955 148.242 74.7475 148.822 74.7475 149.478C74.7475 150.134 74.5955 150.718 74.2915 151.23C73.9875 151.742 73.5795 152.146 73.0675 152.442C72.5555 152.73 71.9875 152.874 71.3635 152.874ZM71.3635 151.614C71.7475 151.614 72.0875 151.522 72.3835 151.338C72.6795 151.154 72.9115 150.902 73.0795 150.582C73.2555 150.254 73.3435 149.886 73.3435 149.478C73.3435 149.07 73.2555 148.706 73.0795 148.386C72.9115 148.066 72.6795 147.814 72.3835 147.63C72.0875 147.446 71.7475 147.354 71.3635 147.354C70.9875 147.354 70.6475 147.446 70.3435 147.63C70.0475 147.814 69.8115 148.066 69.6355 148.386C69.4675 148.706 69.3835 149.07 69.3835 149.478C69.3835 149.886 69.4675 150.254 69.6355 150.582C69.8115 150.902 70.0475 151.154 70.3435 151.338C70.6475 151.522 70.9875 151.614 71.3635 151.614ZM81.157 152.874C80.533 152.874 79.985 152.754 79.513 152.514C79.049 152.266 78.689 151.938 78.433 151.53C78.177 151.114 78.049 150.654 78.049 150.15C78.049 149.574 78.205 149.078 78.517 148.662C78.837 148.238 79.285 147.93 79.861 147.738L79.801 148.098C79.377 147.938 79.041 147.67 78.793 147.294C78.553 146.91 78.433 146.49 78.433 146.034C78.433 145.578 78.549 145.17 78.781 144.81C79.021 144.45 79.345 144.166 79.753 143.958C80.169 143.75 80.637 143.646 81.157 143.646C81.685 143.646 82.153 143.75 82.561 143.958C82.969 144.158 83.289 144.438 83.521 144.798C83.761 145.158 83.881 145.57 83.881 146.034C83.881 146.506 83.757 146.93 83.509 147.306C83.269 147.674 82.941 147.938 82.525 148.098L82.465 147.738C83.041 147.938 83.489 148.246 83.809 148.662C84.129 149.078 84.289 149.574 84.289 150.15C84.289 150.654 84.157 151.114 83.893 151.53C83.637 151.938 83.273 152.266 82.801 152.514C82.329 152.754 81.781 152.874 81.157 152.874ZM81.157 151.674C81.501 151.674 81.801 151.61 82.057 151.482C82.313 151.346 82.513 151.162 82.657 150.93C82.801 150.698 82.873 150.426 82.873 150.114C82.873 149.802 82.801 149.53 82.657 149.298C82.513 149.066 82.313 148.886 82.057 148.758C81.801 148.63 81.501 148.566 81.157 148.566C80.821 148.566 80.525 148.63 80.269 148.758C80.013 148.886 79.813 149.066 79.669 149.298C79.525 149.53 79.453 149.802 79.453 150.114C79.453 150.426 79.525 150.698 79.669 150.93C79.813 151.162 80.013 151.346 80.269 151.482C80.525 151.61 80.821 151.674 81.157 151.674ZM81.157 147.366C81.413 147.366 81.637 147.314 81.829 147.21C82.029 147.098 82.185 146.946 82.297 146.754C82.409 146.562 82.465 146.346 82.465 146.106C82.465 145.858 82.409 145.642 82.297 145.458C82.185 145.266 82.029 145.118 81.829 145.014C81.637 144.902 81.413 144.846 81.157 144.846C80.909 144.846 80.685 144.902 80.485 145.014C80.285 145.118 80.129 145.266 80.017 145.458C79.905 145.642 79.849 145.858 79.849 146.106C79.849 146.346 79.905 146.562 80.017 146.754C80.129 146.946 80.285 147.098 80.485 147.21C80.685 147.314 80.909 147.366 81.157 147.366ZM86.2793 152.73L89.3393 148.77L89.5793 148.926C89.4673 149.046 89.3433 149.142 89.2073 149.214C89.0793 149.286 88.9393 149.338 88.7873 149.37C88.6433 149.402 88.4873 149.418 88.3193 149.418C87.7833 149.418 87.3033 149.298 86.8793 149.058C86.4553 148.81 86.1193 148.474 85.8713 148.05C85.6313 147.618 85.5113 147.13 85.5113 146.586C85.5113 146.018 85.6433 145.514 85.9073 145.074C86.1713 144.634 86.5313 144.286 86.9873 144.03C87.4433 143.774 87.9633 143.646 88.5473 143.646C89.1393 143.646 89.6593 143.774 90.1073 144.03C90.5633 144.286 90.9193 144.638 91.1753 145.086C91.4393 145.526 91.5713 146.03 91.5713 146.598C91.5713 146.902 91.5393 147.202 91.4753 147.498C91.4113 147.794 91.2993 148.102 91.1393 148.422C90.9793 148.734 90.7553 149.078 90.4673 149.454L87.9713 152.73H86.2793ZM88.5473 148.23C88.8593 148.23 89.1353 148.158 89.3753 148.014C89.6153 147.87 89.8073 147.674 89.9513 147.426C90.0953 147.178 90.1673 146.894 90.1673 146.574C90.1673 146.246 90.0953 145.958 89.9513 145.71C89.8073 145.454 89.6113 145.258 89.3633 145.122C89.1233 144.978 88.8513 144.906 88.5473 144.906C88.2433 144.906 87.9673 144.978 87.7193 145.122C87.4793 145.258 87.2873 145.454 87.1433 145.71C86.9993 145.958 86.9273 146.246 86.9273 146.574C86.9273 146.894 86.9953 147.178 87.1313 147.426C87.2753 147.674 87.4713 147.87 87.7193 148.014C87.9673 148.158 88.2433 148.23 88.5473 148.23Z" fill="white"/>
<rect x="32.3594" y="162.004" width="64.3746" height="5.90769" rx="2.95385" fill="#00546F"/>
<rect x="16.9844" y="186.297" width="93.913" height="32.024" rx="16.012" fill="#424242"/>
<path d="M36.0817 203.067V194.127H39.8497C40.4097 194.127 40.8937 194.227 41.3017 194.427C41.7097 194.619 42.0217 194.899 42.2377 195.267C42.4537 195.627 42.5617 196.055 42.5617 196.551C42.5617 196.983 42.4497 197.379 42.2257 197.739C42.0097 198.091 41.6697 198.371 41.2057 198.579V197.979C41.6137 198.139 41.9457 198.343 42.2017 198.591C42.4577 198.831 42.6417 199.103 42.7537 199.407C42.8737 199.711 42.9337 200.031 42.9337 200.367C42.9337 201.207 42.6577 201.867 42.1057 202.347C41.5617 202.827 40.8137 203.067 39.8617 203.067H36.0817ZM37.4977 201.807H39.9697C40.4417 201.807 40.8177 201.679 41.0977 201.423C41.3777 201.159 41.5177 200.811 41.5177 200.379C41.5177 199.939 41.3777 199.591 41.0977 199.335C40.8177 199.071 40.4417 198.939 39.9697 198.939H37.4977V201.807ZM37.4977 197.691H39.8857C40.2697 197.691 40.5777 197.583 40.8097 197.367C41.0417 197.143 41.1577 196.851 41.1577 196.491C41.1577 196.131 41.0417 195.851 40.8097 195.651C40.5777 195.451 40.2697 195.351 39.8857 195.351H37.4977V197.691ZM47.3063 203.211C46.6583 203.211 46.0823 203.063 45.5783 202.767C45.0823 202.463 44.6943 202.055 44.4143 201.543C44.1343 201.023 43.9943 200.443 43.9943 199.803C43.9943 199.147 44.1343 198.567 44.4143 198.063C44.7023 197.559 45.0863 197.163 45.5663 196.875C46.0463 196.579 46.5903 196.431 47.1983 196.431C47.6863 196.431 48.1223 196.515 48.5063 196.683C48.8903 196.851 49.2143 197.083 49.4783 197.379C49.7423 197.667 49.9423 197.999 50.0783 198.375C50.2223 198.751 50.2943 199.151 50.2943 199.575C50.2943 199.679 50.2903 199.787 50.2823 199.899C50.2743 200.011 50.2583 200.115 50.2343 200.211H45.0623V199.131H49.4663L48.8183 199.623C48.8983 199.231 48.8703 198.883 48.7343 198.579C48.6063 198.267 48.4063 198.023 48.1343 197.847C47.8703 197.663 47.5583 197.571 47.1983 197.571C46.8383 197.571 46.5183 197.663 46.2383 197.847C45.9583 198.023 45.7423 198.279 45.5903 198.615C45.4383 198.943 45.3783 199.343 45.4103 199.815C45.3703 200.255 45.4303 200.639 45.5903 200.967C45.7583 201.295 45.9903 201.551 46.2863 201.735C46.5903 201.919 46.9343 202.011 47.3183 202.011C47.7103 202.011 48.0423 201.923 48.3143 201.747C48.5943 201.571 48.8143 201.343 48.9743 201.063L50.0783 201.603C49.9503 201.907 49.7503 202.183 49.4783 202.431C49.2143 202.671 48.8943 202.863 48.5183 203.007C48.1503 203.143 47.7463 203.211 47.3063 203.211ZM51.6177 203.067V196.575H52.9137V197.979L52.7457 197.763C52.8817 197.323 53.1297 196.991 53.4897 196.767C53.8497 196.543 54.2617 196.431 54.7257 196.431C55.2457 196.431 55.7057 196.571 56.1057 196.851C56.5137 197.123 56.7857 197.487 56.9217 197.943L56.5377 197.979C56.7297 197.459 57.0217 197.071 57.4137 196.815C57.8137 196.559 58.2697 196.431 58.7817 196.431C59.2297 196.431 59.6337 196.535 59.9937 196.743C60.3617 196.951 60.6537 197.239 60.8697 197.607C61.0857 197.975 61.1937 198.395 61.1937 198.867V203.067H59.8377V199.239C59.8377 198.911 59.7777 198.635 59.6577 198.411C59.5457 198.179 59.3857 198.003 59.1777 197.883C58.9777 197.755 58.7417 197.691 58.4697 197.691C58.1977 197.691 57.9577 197.755 57.7497 197.883C57.5417 198.003 57.3777 198.179 57.2577 198.411C57.1377 198.643 57.0777 198.919 57.0777 199.239V203.067H55.7337V199.239C55.7337 198.911 55.6737 198.635 55.5537 198.411C55.4417 198.179 55.2817 198.003 55.0737 197.883C54.8737 197.755 54.6337 197.691 54.3537 197.691C54.0817 197.691 53.8417 197.755 53.6337 197.883C53.4257 198.003 53.2617 198.179 53.1417 198.411C53.0297 198.643 52.9737 198.919 52.9737 199.239V203.067H51.6177ZM65.777 203.211C65.153 203.211 64.581 203.063 64.061 202.767C63.549 202.471 63.141 202.067 62.837 201.555C62.533 201.043 62.381 200.463 62.381 199.815C62.381 199.159 62.533 198.579 62.837 198.075C63.141 197.563 63.549 197.163 64.061 196.875C64.573 196.579 65.145 196.431 65.777 196.431C66.417 196.431 66.989 196.579 67.493 196.875C68.005 197.163 68.409 197.563 68.705 198.075C69.009 198.579 69.161 199.159 69.161 199.815C69.161 200.471 69.009 201.055 68.705 201.567C68.401 202.079 67.993 202.483 67.481 202.779C66.969 203.067 66.401 203.211 65.777 203.211ZM65.777 201.951C66.161 201.951 66.501 201.859 66.797 201.675C67.093 201.491 67.325 201.239 67.493 200.919C67.669 200.591 67.757 200.223 67.757 199.815C67.757 199.407 67.669 199.043 67.493 198.723C67.325 198.403 67.093 198.151 66.797 197.967C66.501 197.783 66.161 197.691 65.777 197.691C65.401 197.691 65.061 197.783 64.757 197.967C64.461 198.151 64.225 198.403 64.049 198.723C63.881 199.043 63.797 199.407 63.797 199.815C63.797 200.223 63.881 200.591 64.049 200.919C64.225 201.239 64.461 201.491 64.757 201.675C65.061 201.859 65.401 201.951 65.777 201.951ZM72.7145 203.067V194.127H74.0345L77.3945 198.783H76.7345L80.0345 194.127H81.3545V203.067H79.9505V195.795L80.4785 195.939L77.1065 200.547H76.9625L73.6625 195.939L74.1305 195.795V203.067H72.7145ZM86.1188 203.211C85.4708 203.211 84.8948 203.063 84.3908 202.767C83.8948 202.463 83.5068 202.055 83.2268 201.543C82.9468 201.023 82.8068 200.443 82.8068 199.803C82.8068 199.147 82.9468 198.567 83.2268 198.063C83.5148 197.559 83.8988 197.163 84.3788 196.875C84.8588 196.579 85.4028 196.431 86.0108 196.431C86.4988 196.431 86.9348 196.515 87.3188 196.683C87.7028 196.851 88.0268 197.083 88.2908 197.379C88.5548 197.667 88.7548 197.999 88.8908 198.375C89.0348 198.751 89.1068 199.151 89.1068 199.575C89.1068 199.679 89.1028 199.787 89.0948 199.899C89.0868 200.011 89.0708 200.115 89.0468 200.211H83.8748V199.131H88.2788L87.6308 199.623C87.7108 199.231 87.6828 198.883 87.5468 198.579C87.4188 198.267 87.2188 198.023 86.9468 197.847C86.6828 197.663 86.3708 197.571 86.0108 197.571C85.6508 197.571 85.3308 197.663 85.0508 197.847C84.7708 198.023 84.5548 198.279 84.4028 198.615C84.2508 198.943 84.1908 199.343 84.2228 199.815C84.1828 200.255 84.2428 200.639 84.4028 200.967C84.5708 201.295 84.8028 201.551 85.0988 201.735C85.4028 201.919 85.7468 202.011 86.1308 202.011C86.5228 202.011 86.8548 201.923 87.1268 201.747C87.4068 201.571 87.6268 201.343 87.7868 201.063L88.8908 201.603C88.7628 201.907 88.5628 202.183 88.2908 202.431C88.0268 202.671 87.7068 202.863 87.3308 203.007C86.9628 203.143 86.5588 203.211 86.1188 203.211ZM90.4302 203.067V196.575H91.7262V197.883L91.6062 197.691C91.7502 197.267 91.9822 196.963 92.3022 196.779C92.6222 196.587 93.0062 196.491 93.4542 196.491H93.8502V197.727H93.2862C92.8382 197.727 92.4742 197.867 92.1942 198.147C91.9222 198.419 91.7862 198.811 91.7862 199.323V203.067H90.4302ZM96.7218 203.211C96.2818 203.211 95.8938 203.135 95.5578 202.983C95.2298 202.823 94.9738 202.607 94.7898 202.335C94.6058 202.055 94.5138 201.727 94.5138 201.351C94.5138 200.999 94.5898 200.683 94.7418 200.403C94.9018 200.123 95.1458 199.887 95.4738 199.695C95.8018 199.503 96.2138 199.367 96.7098 199.287L98.9658 198.915V199.983L96.9738 200.331C96.6138 200.395 96.3498 200.511 96.1818 200.679C96.0138 200.839 95.9298 201.047 95.9298 201.303C95.9298 201.551 96.0218 201.755 96.2058 201.915C96.3978 202.067 96.6418 202.143 96.9378 202.143C97.3058 202.143 97.6258 202.063 97.8978 201.903C98.1778 201.743 98.3938 201.531 98.5458 201.267C98.6978 200.995 98.7738 200.695 98.7738 200.367V198.699C98.7738 198.379 98.6538 198.119 98.4138 197.919C98.1818 197.711 97.8698 197.607 97.4778 197.607C97.1178 197.607 96.8018 197.703 96.5298 197.895C96.2658 198.079 96.0698 198.319 95.9418 198.615L94.8138 198.051C94.9338 197.731 95.1298 197.451 95.4018 197.211C95.6738 196.963 95.9898 196.771 96.3498 196.635C96.7178 196.499 97.1058 196.431 97.5138 196.431C98.0258 196.431 98.4778 196.527 98.8698 196.719C99.2698 196.911 99.5778 197.179 99.7938 197.523C100.018 197.859 100.13 198.251 100.13 198.699V203.067H98.8338V201.891L99.1098 201.927C98.9578 202.191 98.7618 202.419 98.5218 202.611C98.2898 202.803 98.0218 202.951 97.7178 203.055C97.4218 203.159 97.0898 203.211 96.7218 203.211ZM101.715 203.067V193.983H103.071V197.847L102.855 197.679C103.015 197.271 103.271 196.963 103.623 196.755C103.975 196.539 104.383 196.431 104.847 196.431C105.327 196.431 105.751 196.535 106.119 196.743C106.487 196.951 106.775 197.239 106.983 197.607C107.191 197.975 107.295 198.395 107.295 198.867V203.067H105.951V199.239C105.951 198.911 105.887 198.635 105.759 198.411C105.639 198.179 105.471 198.003 105.255 197.883C105.039 197.755 104.791 197.691 104.511 197.691C104.239 197.691 103.991 197.755 103.767 197.883C103.551 198.003 103.379 198.179 103.251 198.411C103.131 198.643 103.071 198.919 103.071 199.239V203.067H101.715Z" fill="white"/>
<rect x="32.0405" y="212.341" width="64.3746" height="5.90769" rx="2.95385" fill="#FF0808"/>
</svg>
